  0
SECTION
  2
HEADER
  9
$ACADVER
  1
AC1009
  9
$EXTMIN
 10
0.0
 20
0.0
 30
0.0
  9
$EXTMAX
 10
1000.0
 20
1000.0
 30
0.0
  9
$FILLMODE
 70
 0
  9
$SPLFRAME
 70
 1
  0
ENDSEC
  0
SECTION
  2
TABLES
  0
TABLE
  2
LAYER
 70
1
  0
LAYER
  2
0
 70
     0
 62
     7
  6
CONTINUOUS
  0
ENDTAB
  0
ENDSEC
  0
SECTION
  2
ENTITIES
  0
LINE
  8
0
 62
     0
 10
283.997
 20
124.083
 30
0.0
 11
284.153
 21
124.076
 31
0.0
  0
LINE
  8
0
 62
     0
 10
284.153
 20
124.076
 30
0.0
 11
284.309
 21
124.058
 31
0.0
  0
LINE
  8
0
 62
     0
 10
284.309
 20
124.058
 30
0.0
 11
284.463
 21
124.027
 31
0.0
  0
LINE
  8
0
 62
     0
 10
284.463
 20
124.027
 30
0.0
 11
284.614
 21
123.985
 31
0.0
  0
LINE
  8
0
 62
     0
 10
284.614
 20
123.985
 30
0.0
 11
284.762
 21
123.93
 31
0.0
  0
LINE
  8
0
 62
     0
 10
284.762
 20
123.93
 30
0.0
 11
284.904
 21
123.865
 31
0.0
  0
LINE
  8
0
 62
     0
 10
284.904
 20
123.865
 30
0.0
 11
285.04
 21
123.788
 31
0.0
  0
LINE
  8
0
 62
     0
 10
285.04
 20
123.788
 30
0.0
 11
285.171
 21
123.701
 31
0.0
  0
LINE
  8
0
 62
     0
 10
285.171
 20
123.701
 30
0.0
 11
285.294
 21
123.603
 31
0.0
  0
LINE
  8
0
 62
     0
 10
285.294
 20
123.603
 30
0.0
 11
285.411
 21
123.497
 31
0.0
  0
LINE
  8
0
 62
     0
 10
285.411
 20
123.497
 30
0.0
 11
285.517
 21
123.381
 31
0.0
  0
LINE
  8
0
 62
     0
 10
285.517
 20
123.381
 30
0.0
 11
285.615
 21
123.259
 31
0.0
  0
LINE
  8
0
 62
     0
 10
285.615
 20
123.259
 30
0.0
 11
285.702
 21
123.128
 31
0.0
  0
LINE
  8
0
 62
     0
 10
285.702
 20
123.128
 30
0.0
 11
285.779
 21
122.99
 31
0.0
  0
LINE
  8
0
 62
     0
 10
285.779
 20
122.99
 30
0.0
 11
285.844
 21
122.848
 31
0.0
  0
LINE
  8
0
 62
     0
 10
285.844
 20
122.848
 30
0.0
 11
285.899
 21
122.702
 31
0.0
  0
LINE
  8
0
 62
     0
 10
285.899
 20
122.702
 30
0.0
 11
285.94
 21
122.549
 31
0.0
  0
LINE
  8
0
 62
     0
 10
285.94
 20
122.549
 30
0.0
 11
285.972
 21
122.396
 31
0.0
  0
LINE
  8
0
 62
     0
 10
285.972
 20
122.396
 30
0.0
 11
285.99
 21
122.239
 31
0.0
  0
LINE
  8
0
 62
     0
 10
285.99
 20
122.239
 30
0.0
 11
285.997
 21
122.082
 31
0.0
  0
LINE
  8
0
 62
     0
 10
285.997
 20
122.082
 30
0.0
 11
285.997
 21
2.10564
 31
0.0
  0
LINE
  8
0
 62
     0
 10
285.997
 20
2.10564
 30
0.0
 11
285.99
 21
1.94992
 31
0.0
  0
LINE
  8
0
 62
     0
 10
285.99
 20
1.94992
 30
0.0
 11
285.972
 21
1.79421
 31
0.0
  0
LINE
  8
0
 62
     0
 10
285.972
 20
1.79421
 30
0.0
 11
285.94
 21
1.63987
 31
0.0
  0
LINE
  8
0
 62
     0
 10
285.94
 20
1.63987
 30
0.0
 11
285.899
 21
1.48828
 31
0.0
  0
LINE
  8
0
 62
     0
 10
285.899
 20
1.48828
 30
0.0
 11
285.844
 21
1.34083
 31
0.0
  0
LINE
  8
0
 62
     0
 10
285.844
 20
1.34083
 30
0.0
 11
285.779
 21
1.19889
 31
0.0
  0
LINE
  8
0
 62
     0
 10
285.779
 20
1.19889
 30
0.0
 11
285.702
 21
1.06247
 31
0.0
  0
LINE
  8
0
 62
     0
 10
285.702
 20
1.06247
 30
0.0
 11
285.615
 21
0.931556
 31
0.0
  0
LINE
  8
0
 62
     0
 10
285.615
 20
0.931556
 30
0.0
 11
285.517
 21
0.808909
 31
0.0
  0
LINE
  8
0
 62
     0
 10
285.517
 20
0.808909
 30
0.0
 11
285.411
 21
0.693152
 31
0.0
  0
LINE
  8
0
 62
     0
 10
285.411
 20
0.693152
 30
0.0
 11
285.294
 21
0.585668
 31
0.0
  0
LINE
  8
0
 62
     0
 10
285.294
 20
0.585668
 30
0.0
 11
285.171
 21
0.487825
 31
0.0
  0
LINE
  8
0
 62
     0
 10
285.171
 20
0.487825
 30
0.0
 11
285.04
 21
0.40101
 31
0.0
  0
LINE
  8
0
 62
     0
 10
285.04
 20
0.40101
 30
0.0
 11
284.904
 21
0.323839
 31
0.0
  0
LINE
  8
0
 62
     0
 10
284.904
 20
0.323839
 30
0.0
 11
284.762
 21
0.259071
 31
0.0
  0
LINE
  8
0
 62
     0
 10
284.762
 20
0.259071
 30
0.0
 11
284.614
 21
0.205328
 31
0.0
  0
LINE
  8
0
 62
     0
 10
284.614
 20
0.205328
 30
0.0
 11
284.463
 21
0.162609
 31
0.0
  0
LINE
  8
0
 62
     0
 10
284.463
 20
0.162609
 30
0.0
 11
284.309
 21
0.130914
 31
0.0
  0
LINE
  8
0
 62
     0
 10
284.309
 20
0.130914
 30
0.0
 11
284.153
 21
0.112999
 31
0.0
  0
LINE
  8
0
 62
     0
 10
284.153
 20
0.112999
 30
0.0
 11
283.996
 21
0.106109
 31
0.0
  0
LINE
  8
0
 62
     0
 10
283.996
 20
0.106109
 30
0.0
 11
2.096
 21
0.106109
 31
0.0
  0
LINE
  8
0
 62
     0
 10
2.096
 20
0.106109
 30
0.0
 11
1.9389
 21
0.112999
 31
0.0
  0
LINE
  8
0
 62
     0
 10
1.9389
 20
0.112999
 30
0.0
 11
1.7818
 21
0.130914
 31
0.0
  0
LINE
  8
0
 62
     0
 10
1.7818
 20
0.130914
 30
0.0
 11
1.62884
 21
0.162609
 31
0.0
  0
LINE
  8
0
 62
     0
 10
1.62884
 20
0.162609
 30
0.0
 11
1.47588
 21
0.205328
 31
0.0
  0
LINE
  8
0
 62
     0
 10
1.47588
 20
0.205328
 30
0.0
 11
1.32981
 21
0.259071
 31
0.0
  0
LINE
  8
0
 62
     0
 10
1.32981
 20
0.259071
 30
0.0
 11
1.18787
 21
0.323839
 31
0.0
  0
LINE
  8
0
 62
     0
 10
1.18787
 20
0.323839
 30
0.0
 11
1.05006
 21
0.40101
 31
0.0
  0
LINE
  8
0
 62
     0
 10
1.05006
 20
0.40101
 30
0.0
 11
0.919152
 21
0.487825
 31
0.0
  0
LINE
  8
0
 62
     0
 10
0.919152
 20
0.487825
 30
0.0
 11
0.796505
 21
0.585668
 31
0.0
  0
LINE
  8
0
 62
     0
 10
0.796505
 20
0.585668
 30
0.0
 11
0.680752
 21
0.693152
 31
0.0
  0
LINE
  8
0
 62
     0
 10
0.680752
 20
0.693152
 30
0.0
 11
0.574643
 21
0.808909
 31
0.0
  0
LINE
  8
0
 62
     0
 10
0.574643
 20
0.808909
 30
0.0
 11
0.4768
 21
0.931556
 31
0.0
  0
LINE
  8
0
 62
     0
 10
0.4768
 20
0.931556
 30
0.0
 11
0.389985
 21
1.06247
 31
0.0
  0
LINE
  8
0
 62
     0
 10
0.389985
 20
1.06247
 30
0.0
 11
0.312815
 21
1.19889
 31
0.0
  0
LINE
  8
0
 62
     0
 10
0.312815
 20
1.19889
 30
0.0
 11
0.248047
 21
1.34083
 31
0.0
  0
LINE
  8
0
 62
     0
 10
0.248047
 20
1.34083
 30
0.0
 11
0.192925
 21
1.48828
 31
0.0
  0
LINE
  8
0
 62
     0
 10
0.192925
 20
1.48828
 30
0.0
 11
0.150206
 21
1.63987
 31
0.0
  0
LINE
  8
0
 62
     0
 10
0.150206
 20
1.63987
 30
0.0
 11
0.119889
 21
1.79421
 31
0.0
  0
LINE
  8
0
 62
     0
 10
0.119889
 20
1.79421
 30
0.0
 11
0.101975
 21
1.94992
 31
0.0
  0
LINE
  8
0
 62
     0
 10
0.101975
 20
1.94992
 30
0.0
 11
0.0950846
 21
2.10702
 31
0.0
  0
LINE
  8
0
 62
     0
 10
0.0950846
 20
2.10702
 30
0.0
 11
0.0950846
 21
122.082
 31
0.0
  0
LINE
  8
0
 62
     0
 10
0.0950846
 20
122.082
 30
0.0
 11
0.101975
 21
122.239
 31
0.0
  0
LINE
  8
0
 62
     0
 10
0.101975
 20
122.239
 30
0.0
 11
0.119889
 21
122.396
 31
0.0
  0
LINE
  8
0
 62
     0
 10
0.119889
 20
122.396
 30
0.0
 11
0.150206
 21
122.549
 31
0.0
  0
LINE
  8
0
 62
     0
 10
0.150206
 20
122.549
 30
0.0
 11
0.192925
 21
122.702
 31
0.0
  0
LINE
  8
0
 62
     0
 10
0.192925
 20
122.702
 30
0.0
 11
0.248047
 21
122.848
 31
0.0
  0
LINE
  8
0
 62
     0
 10
0.248047
 20
122.848
 30
0.0
 11
0.312815
 21
122.99
 31
0.0
  0
LINE
  8
0
 62
     0
 10
0.312815
 20
122.99
 30
0.0
 11
0.389985
 21
123.128
 31
0.0
  0
LINE
  8
0
 62
     0
 10
0.389985
 20
123.128
 30
0.0
 11
0.4768
 21
123.259
 31
0.0
  0
LINE
  8
0
 62
     0
 10
0.4768
 20
123.259
 30
0.0
 11
0.574643
 21
123.381
 31
0.0
  0
LINE
  8
0
 62
     0
 10
0.574643
 20
123.381
 30
0.0
 11
0.680752
 21
123.497
 31
0.0
  0
LINE
  8
0
 62
     0
 10
0.680752
 20
123.497
 30
0.0
 11
0.796505
 21
123.603
 31
0.0
  0
LINE
  8
0
 62
     0
 10
0.796505
 20
123.603
 30
0.0
 11
0.919152
 21
123.701
 31
0.0
  0
LINE
  8
0
 62
     0
 10
0.919152
 20
123.701
 30
0.0
 11
1.05006
 21
123.788
 31
0.0
  0
LINE
  8
0
 62
     0
 10
1.05006
 20
123.788
 30
0.0
 11
1.18787
 21
123.865
 31
0.0
  0
LINE
  8
0
 62
     0
 10
1.18787
 20
123.865
 30
0.0
 11
1.32981
 21
123.93
 31
0.0
  0
LINE
  8
0
 62
     0
 10
1.32981
 20
123.93
 30
0.0
 11
1.47588
 21
123.985
 31
0.0
  0
LINE
  8
0
 62
     0
 10
1.47588
 20
123.985
 30
0.0
 11
1.62884
 21
124.027
 31
0.0
  0
LINE
  8
0
 62
     0
 10
1.62884
 20
124.027
 30
0.0
 11
1.7818
 21
124.058
 31
0.0
  0
LINE
  8
0
 62
     0
 10
1.7818
 20
124.058
 30
0.0
 11
1.9389
 21
124.076
 31
0.0
  0
LINE
  8
0
 62
     0
 10
1.9389
 20
124.076
 30
0.0
 11
2.096
 21
124.083
 31
0.0
  0
LINE
  8
0
 62
     0
 10
2.096
 20
124.083
 30
0.0
 11
283.997
 21
124.083
 31
0.0
  0
LINE
  8
0
 62
     0
 10
259.945
 20
16.6329
 30
0.0
 11
259.945
 21
15.6325
 31
0.0
  0
LINE
  8
0
 62
     0
 10
259.945
 20
15.6325
 30
0.0
 11
259.146
 21
15.6325
 31
0.0
  0
LINE
  8
0
 62
     0
 10
259.146
 20
15.6325
 30
0.0
 11
259.146
 21
12.6821
 31
0.0
  0
LINE
  8
0
 62
     0
 10
259.146
 20
12.6821
 30
0.0
 11
259.945
 21
12.6821
 31
0.0
  0
LINE
  8
0
 62
     0
 10
259.945
 20
12.6821
 30
0.0
 11
259.945
 21
6.73171
 31
0.0
  0
LINE
  8
0
 62
     0
 10
259.945
 20
6.73171
 30
0.0
 11
259.146
 21
6.73171
 31
0.0
  0
LINE
  8
0
 62
     0
 10
259.146
 20
6.73171
 30
0.0
 11
259.146
 21
3.78273
 31
0.0
  0
LINE
  8
0
 62
     0
 10
259.146
 20
3.78273
 30
0.0
 11
259.945
 21
3.78273
 31
0.0
  0
LINE
  8
0
 62
     0
 10
259.945
 20
3.78273
 30
0.0
 11
259.945
 21
2.78226
 31
0.0
  0
LINE
  8
0
 62
     0
 10
259.945
 20
2.78226
 30
0.0
 11
273.795
 21
2.78226
 31
0.0
  0
LINE
  8
0
 62
     0
 10
273.795
 20
2.78226
 30
0.0
 11
273.795
 21
3.78273
 31
0.0
  0
LINE
  8
0
 62
     0
 10
273.795
 20
3.78273
 30
0.0
 11
274.596
 21
3.78273
 31
0.0
  0
LINE
  8
0
 62
     0
 10
274.596
 20
3.78273
 30
0.0
 11
274.596
 21
6.73171
 31
0.0
  0
LINE
  8
0
 62
     0
 10
274.596
 20
6.73171
 30
0.0
 11
273.795
 21
6.73171
 31
0.0
  0
LINE
  8
0
 62
     0
 10
273.795
 20
6.73171
 30
0.0
 11
273.795
 21
12.6821
 31
0.0
  0
LINE
  8
0
 62
     0
 10
273.795
 20
12.6821
 30
0.0
 11
274.596
 21
12.6821
 31
0.0
  0
LINE
  8
0
 62
     0
 10
274.596
 20
12.6821
 30
0.0
 11
274.596
 21
15.6325
 31
0.0
  0
LINE
  8
0
 62
     0
 10
274.596
 20
15.6325
 30
0.0
 11
273.795
 21
15.6325
 31
0.0
  0
LINE
  8
0
 62
     0
 10
273.795
 20
15.6325
 30
0.0
 11
273.795
 21
16.6329
 31
0.0
  0
LINE
  8
0
 62
     0
 10
273.795
 20
16.6329
 30
0.0
 11
259.945
 21
16.6329
 31
0.0
  0
LINE
  8
0
 62
     0
 10
240.895
 20
16.6329
 30
0.0
 11
240.895
 21
15.6325
 31
0.0
  0
LINE
  8
0
 62
     0
 10
240.895
 20
15.6325
 30
0.0
 11
240.096
 21
15.6325
 31
0.0
  0
LINE
  8
0
 62
     0
 10
240.096
 20
15.6325
 30
0.0
 11
240.096
 21
12.6821
 31
0.0
  0
LINE
  8
0
 62
     0
 10
240.096
 20
12.6821
 30
0.0
 11
240.895
 21
12.6821
 31
0.0
  0
LINE
  8
0
 62
     0
 10
240.895
 20
12.6821
 30
0.0
 11
240.895
 21
6.73171
 31
0.0
  0
LINE
  8
0
 62
     0
 10
240.895
 20
6.73171
 30
0.0
 11
240.096
 21
6.73171
 31
0.0
  0
LINE
  8
0
 62
     0
 10
240.096
 20
6.73171
 30
0.0
 11
240.096
 21
3.78273
 31
0.0
  0
LINE
  8
0
 62
     0
 10
240.096
 20
3.78273
 30
0.0
 11
240.895
 21
3.78273
 31
0.0
  0
LINE
  8
0
 62
     0
 10
240.895
 20
3.78273
 30
0.0
 11
240.895
 21
2.78226
 31
0.0
  0
LINE
  8
0
 62
     0
 10
240.895
 20
2.78226
 30
0.0
 11
254.744
 21
2.78226
 31
0.0
  0
LINE
  8
0
 62
     0
 10
254.744
 20
2.78226
 30
0.0
 11
254.744
 21
3.78273
 31
0.0
  0
LINE
  8
0
 62
     0
 10
254.744
 20
3.78273
 30
0.0
 11
255.546
 21
3.78273
 31
0.0
  0
LINE
  8
0
 62
     0
 10
255.546
 20
3.78273
 30
0.0
 11
255.546
 21
6.73171
 31
0.0
  0
LINE
  8
0
 62
     0
 10
255.546
 20
6.73171
 30
0.0
 11
254.744
 21
6.73171
 31
0.0
  0
LINE
  8
0
 62
     0
 10
254.744
 20
6.73171
 30
0.0
 11
254.744
 21
12.6821
 31
0.0
  0
LINE
  8
0
 62
     0
 10
254.744
 20
12.6821
 30
0.0
 11
255.546
 21
12.6821
 31
0.0
  0
LINE
  8
0
 62
     0
 10
255.546
 20
12.6821
 30
0.0
 11
255.546
 21
15.6325
 31
0.0
  0
LINE
  8
0
 62
     0
 10
255.546
 20
15.6325
 30
0.0
 11
254.744
 21
15.6325
 31
0.0
  0
LINE
  8
0
 62
     0
 10
254.744
 20
15.6325
 30
0.0
 11
254.744
 21
16.6329
 31
0.0
  0
LINE
  8
0
 62
     0
 10
254.744
 20
16.6329
 30
0.0
 11
240.895
 21
16.6329
 31
0.0
  0
LINE
  8
0
 62
     0
 10
221.845
 20
16.6329
 30
0.0
 11
221.845
 21
15.6325
 31
0.0
  0
LINE
  8
0
 62
     0
 10
221.845
 20
15.6325
 30
0.0
 11
221.046
 21
15.6325
 31
0.0
  0
LINE
  8
0
 62
     0
 10
221.046
 20
15.6325
 30
0.0
 11
221.046
 21
12.6821
 31
0.0
  0
LINE
  8
0
 62
     0
 10
221.046
 20
12.6821
 30
0.0
 11
221.845
 21
12.6821
 31
0.0
  0
LINE
  8
0
 62
     0
 10
221.845
 20
12.6821
 30
0.0
 11
221.845
 21
6.73171
 31
0.0
  0
LINE
  8
0
 62
     0
 10
221.845
 20
6.73171
 30
0.0
 11
221.046
 21
6.73171
 31
0.0
  0
LINE
  8
0
 62
     0
 10
221.046
 20
6.73171
 30
0.0
 11
221.046
 21
3.78273
 31
0.0
  0
LINE
  8
0
 62
     0
 10
221.046
 20
3.78273
 30
0.0
 11
221.845
 21
3.78273
 31
0.0
  0
LINE
  8
0
 62
     0
 10
221.845
 20
3.78273
 30
0.0
 11
221.845
 21
2.78226
 31
0.0
  0
LINE
  8
0
 62
     0
 10
221.845
 20
2.78226
 30
0.0
 11
235.695
 21
2.78226
 31
0.0
  0
LINE
  8
0
 62
     0
 10
235.695
 20
2.78226
 30
0.0
 11
235.695
 21
3.78273
 31
0.0
  0
LINE
  8
0
 62
     0
 10
235.695
 20
3.78273
 30
0.0
 11
236.496
 21
3.78273
 31
0.0
  0
LINE
  8
0
 62
     0
 10
236.496
 20
3.78273
 30
0.0
 11
236.496
 21
6.73171
 31
0.0
  0
LINE
  8
0
 62
     0
 10
236.496
 20
6.73171
 30
0.0
 11
235.695
 21
6.73171
 31
0.0
  0
LINE
  8
0
 62
     0
 10
235.695
 20
6.73171
 30
0.0
 11
235.695
 21
12.6821
 31
0.0
  0
LINE
  8
0
 62
     0
 10
235.695
 20
12.6821
 30
0.0
 11
236.496
 21
12.6821
 31
0.0
  0
LINE
  8
0
 62
     0
 10
236.496
 20
12.6821
 30
0.0
 11
236.496
 21
15.6325
 31
0.0
  0
LINE
  8
0
 62
     0
 10
236.496
 20
15.6325
 30
0.0
 11
235.695
 21
15.6325
 31
0.0
  0
LINE
  8
0
 62
     0
 10
235.695
 20
15.6325
 30
0.0
 11
235.695
 21
16.6329
 31
0.0
  0
LINE
  8
0
 62
     0
 10
235.695
 20
16.6329
 30
0.0
 11
221.845
 21
16.6329
 31
0.0
  0
LINE
  8
0
 62
     0
 10
138.501
 20
21.3954
 30
0.0
 11
138.501
 21
20.395
 31
0.0
  0
LINE
  8
0
 62
     0
 10
138.501
 20
20.395
 30
0.0
 11
137.702
 21
20.395
 31
0.0
  0
LINE
  8
0
 62
     0
 10
137.702
 20
20.395
 30
0.0
 11
137.702
 21
17.446
 31
0.0
  0
LINE
  8
0
 62
     0
 10
137.702
 20
17.446
 30
0.0
 11
138.501
 21
17.446
 31
0.0
  0
LINE
  8
0
 62
     0
 10
138.501
 20
17.446
 30
0.0
 11
138.501
 21
16.6949
 31
0.0
  0
LINE
  8
0
 62
     0
 10
138.501
 20
16.6949
 30
0.0
 11
136.827
 21
16.6949
 31
0.0
  0
LINE
  8
0
 62
     0
 10
136.827
 20
16.6949
 30
0.0
 11
136.827
 21
19.9251
 31
0.0
  0
LINE
  8
0
 62
     0
 10
136.827
 20
19.9251
 30
0.0
 11
130.226
 21
19.9251
 31
0.0
  0
LINE
  8
0
 62
     0
 10
130.226
 20
19.9251
 30
0.0
 11
130.226
 21
16.6949
 31
0.0
  0
LINE
  8
0
 62
     0
 10
130.226
 20
16.6949
 30
0.0
 11
129.402
 21
16.6949
 31
0.0
  0
LINE
  8
0
 62
     0
 10
129.402
 20
16.6949
 30
0.0
 11
129.402
 21
14.045
 31
0.0
  0
LINE
  8
0
 62
     0
 10
129.402
 20
14.045
 30
0.0
 11
130.226
 21
14.045
 31
0.0
  0
LINE
  8
0
 62
     0
 10
130.226
 20
14.045
 30
0.0
 11
130.226
 21
7.7749
 31
0.0
  0
LINE
  8
0
 62
     0
 10
130.226
 20
7.7749
 30
0.0
 11
131.951
 21
7.7749
 31
0.0
  0
LINE
  8
0
 62
     0
 10
131.951
 20
7.7749
 30
0.0
 11
131.951
 21
6.57461
 31
0.0
  0
LINE
  8
0
 62
     0
 10
131.951
 20
6.57461
 30
0.0
 11
135.102
 21
6.57461
 31
0.0
  0
LINE
  8
0
 62
     0
 10
135.102
 20
6.57461
 30
0.0
 11
135.102
 21
7.7749
 31
0.0
  0
LINE
  8
0
 62
     0
 10
135.102
 20
7.7749
 30
0.0
 11
136.827
 21
7.7749
 31
0.0
  0
LINE
  8
0
 62
     0
 10
136.827
 20
7.7749
 30
0.0
 11
136.827
 21
12.2452
 31
0.0
  0
LINE
  8
0
 62
     0
 10
136.827
 20
12.2452
 30
0.0
 11
138.501
 21
12.2452
 31
0.0
  0
LINE
  8
0
 62
     0
 10
138.501
 20
12.2452
 30
0.0
 11
138.501
 21
11.4956
 31
0.0
  0
LINE
  8
0
 62
     0
 10
138.501
 20
11.4956
 30
0.0
 11
137.702
 21
11.4956
 31
0.0
  0
LINE
  8
0
 62
     0
 10
137.702
 20
11.4956
 30
0.0
 11
137.702
 21
8.54523
 31
0.0
  0
LINE
  8
0
 62
     0
 10
137.702
 20
8.54523
 30
0.0
 11
138.501
 21
8.54523
 31
0.0
  0
LINE
  8
0
 62
     0
 10
138.501
 20
8.54523
 30
0.0
 11
138.501
 21
7.54475
 31
0.0
  0
LINE
  8
0
 62
     0
 10
138.501
 20
7.54475
 30
0.0
 11
152.352
 21
7.54475
 31
0.0
  0
LINE
  8
0
 62
     0
 10
152.352
 20
7.54475
 30
0.0
 11
152.352
 21
8.54523
 31
0.0
  0
LINE
  8
0
 62
     0
 10
152.352
 20
8.54523
 30
0.0
 11
153.151
 21
8.54523
 31
0.0
  0
LINE
  8
0
 62
     0
 10
153.151
 20
8.54523
 30
0.0
 11
153.151
 21
11.4956
 31
0.0
  0
LINE
  8
0
 62
     0
 10
153.151
 20
11.4956
 30
0.0
 11
152.352
 21
11.4956
 31
0.0
  0
LINE
  8
0
 62
     0
 10
152.352
 20
11.4956
 30
0.0
 11
152.352
 21
12.2452
 31
0.0
  0
LINE
  8
0
 62
     0
 10
152.352
 20
12.2452
 30
0.0
 11
154.026
 21
12.2452
 31
0.0
  0
LINE
  8
0
 62
     0
 10
154.026
 20
12.2452
 30
0.0
 11
154.026
 21
7.7749
 31
0.0
  0
LINE
  8
0
 62
     0
 10
154.026
 20
7.7749
 30
0.0
 11
155.751
 21
7.7749
 31
0.0
  0
LINE
  8
0
 62
     0
 10
155.751
 20
7.7749
 30
0.0
 11
155.751
 21
6.57461
 31
0.0
  0
LINE
  8
0
 62
     0
 10
155.751
 20
6.57461
 30
0.0
 11
158.902
 21
6.57461
 31
0.0
  0
LINE
  8
0
 62
     0
 10
158.902
 20
6.57461
 30
0.0
 11
158.902
 21
7.7749
 31
0.0
  0
LINE
  8
0
 62
     0
 10
158.902
 20
7.7749
 30
0.0
 11
160.627
 21
7.7749
 31
0.0
  0
LINE
  8
0
 62
     0
 10
160.627
 20
7.7749
 30
0.0
 11
160.627
 21
14.045
 31
0.0
  0
LINE
  8
0
 62
     0
 10
160.627
 20
14.045
 30
0.0
 11
161.451
 21
14.045
 31
0.0
  0
LINE
  8
0
 62
     0
 10
161.451
 20
14.045
 30
0.0
 11
161.451
 21
16.6949
 31
0.0
  0
LINE
  8
0
 62
     0
 10
161.451
 20
16.6949
 30
0.0
 11
160.627
 21
16.6949
 31
0.0
  0
LINE
  8
0
 62
     0
 10
160.627
 20
16.6949
 30
0.0
 11
160.627
 21
19.9251
 31
0.0
  0
LINE
  8
0
 62
     0
 10
160.627
 20
19.9251
 30
0.0
 11
154.026
 21
19.9251
 31
0.0
  0
LINE
  8
0
 62
     0
 10
154.026
 20
19.9251
 30
0.0
 11
154.026
 21
16.6949
 31
0.0
  0
LINE
  8
0
 62
     0
 10
154.026
 20
16.6949
 30
0.0
 11
152.352
 21
16.6949
 31
0.0
  0
LINE
  8
0
 62
     0
 10
152.352
 20
16.6949
 30
0.0
 11
152.352
 21
17.446
 31
0.0
  0
LINE
  8
0
 62
     0
 10
152.352
 20
17.446
 30
0.0
 11
153.151
 21
17.446
 31
0.0
  0
LINE
  8
0
 62
     0
 10
153.151
 20
17.446
 30
0.0
 11
153.151
 21
20.395
 31
0.0
  0
LINE
  8
0
 62
     0
 10
153.151
 20
20.395
 30
0.0
 11
152.352
 21
20.395
 31
0.0
  0
LINE
  8
0
 62
     0
 10
152.352
 20
20.395
 30
0.0
 11
152.352
 21
21.3954
 31
0.0
  0
LINE
  8
0
 62
     0
 10
152.352
 20
21.3954
 30
0.0
 11
138.501
 21
21.3954
 31
0.0
  0
LINE
  8
0
 62
     0
 10
93.2575
 20
21.3954
 30
0.0
 11
93.2575
 21
20.395
 31
0.0
  0
LINE
  8
0
 62
     0
 10
93.2575
 20
20.395
 30
0.0
 11
92.4581
 21
20.395
 31
0.0
  0
LINE
  8
0
 62
     0
 10
92.4581
 20
20.395
 30
0.0
 11
92.4581
 21
17.446
 31
0.0
  0
LINE
  8
0
 62
     0
 10
92.4581
 20
17.446
 30
0.0
 11
93.2575
 21
17.446
 31
0.0
  0
LINE
  8
0
 62
     0
 10
93.2575
 20
17.446
 30
0.0
 11
93.2575
 21
16.6949
 31
0.0
  0
LINE
  8
0
 62
     0
 10
93.2575
 20
16.6949
 30
0.0
 11
91.5829
 21
16.6949
 31
0.0
  0
LINE
  8
0
 62
     0
 10
91.5829
 20
16.6949
 30
0.0
 11
91.5829
 21
19.9251
 31
0.0
  0
LINE
  8
0
 62
     0
 10
91.5829
 20
19.9251
 30
0.0
 11
84.9824
 21
19.9251
 31
0.0
  0
LINE
  8
0
 62
     0
 10
84.9824
 20
19.9251
 30
0.0
 11
84.9824
 21
16.6949
 31
0.0
  0
LINE
  8
0
 62
     0
 10
84.9824
 20
16.6949
 30
0.0
 11
84.1583
 21
16.6949
 31
0.0
  0
LINE
  8
0
 62
     0
 10
84.1583
 20
16.6949
 30
0.0
 11
84.1583
 21
14.045
 31
0.0
  0
LINE
  8
0
 62
     0
 10
84.1583
 20
14.045
 30
0.0
 11
84.9824
 21
14.045
 31
0.0
  0
LINE
  8
0
 62
     0
 10
84.9824
 20
14.045
 30
0.0
 11
84.9824
 21
7.7749
 31
0.0
  0
LINE
  8
0
 62
     0
 10
84.9824
 20
7.7749
 30
0.0
 11
86.7075
 21
7.7749
 31
0.0
  0
LINE
  8
0
 62
     0
 10
86.7075
 20
7.7749
 30
0.0
 11
86.7075
 21
6.57461
 31
0.0
  0
LINE
  8
0
 62
     0
 10
86.7075
 20
6.57461
 30
0.0
 11
89.8578
 21
6.57461
 31
0.0
  0
LINE
  8
0
 62
     0
 10
89.8578
 20
6.57461
 30
0.0
 11
89.8578
 21
7.7749
 31
0.0
  0
LINE
  8
0
 62
     0
 10
89.8578
 20
7.7749
 30
0.0
 11
91.5829
 21
7.7749
 31
0.0
  0
LINE
  8
0
 62
     0
 10
91.5829
 20
7.7749
 30
0.0
 11
91.5829
 21
12.2452
 31
0.0
  0
LINE
  8
0
 62
     0
 10
91.5829
 20
12.2452
 30
0.0
 11
93.2575
 21
12.2452
 31
0.0
  0
LINE
  8
0
 62
     0
 10
93.2575
 20
12.2452
 30
0.0
 11
93.2575
 21
11.4956
 31
0.0
  0
LINE
  8
0
 62
     0
 10
93.2575
 20
11.4956
 30
0.0
 11
92.4581
 21
11.4956
 31
0.0
  0
LINE
  8
0
 62
     0
 10
92.4581
 20
11.4956
 30
0.0
 11
92.4581
 21
8.54523
 31
0.0
  0
LINE
  8
0
 62
     0
 10
92.4581
 20
8.54523
 30
0.0
 11
93.2575
 21
8.54523
 31
0.0
  0
LINE
  8
0
 62
     0
 10
93.2575
 20
8.54523
 30
0.0
 11
93.2575
 21
7.54475
 31
0.0
  0
LINE
  8
0
 62
     0
 10
93.2575
 20
7.54475
 30
0.0
 11
107.108
 21
7.54475
 31
0.0
  0
LINE
  8
0
 62
     0
 10
107.108
 20
7.54475
 30
0.0
 11
107.108
 21
8.54523
 31
0.0
  0
LINE
  8
0
 62
     0
 10
107.108
 20
8.54523
 30
0.0
 11
107.907
 21
8.54523
 31
0.0
  0
LINE
  8
0
 62
     0
 10
107.907
 20
8.54523
 30
0.0
 11
107.907
 21
11.4956
 31
0.0
  0
LINE
  8
0
 62
     0
 10
107.907
 20
11.4956
 30
0.0
 11
107.108
 21
11.4956
 31
0.0
  0
LINE
  8
0
 62
     0
 10
107.108
 20
11.4956
 30
0.0
 11
107.108
 21
12.2452
 31
0.0
  0
LINE
  8
0
 62
     0
 10
107.108
 20
12.2452
 30
0.0
 11
108.782
 21
12.2452
 31
0.0
  0
LINE
  8
0
 62
     0
 10
108.782
 20
12.2452
 30
0.0
 11
108.782
 21
7.7749
 31
0.0
  0
LINE
  8
0
 62
     0
 10
108.782
 20
7.7749
 30
0.0
 11
110.508
 21
7.7749
 31
0.0
  0
LINE
  8
0
 62
     0
 10
110.508
 20
7.7749
 30
0.0
 11
110.508
 21
6.57461
 31
0.0
  0
LINE
  8
0
 62
     0
 10
110.508
 20
6.57461
 30
0.0
 11
113.658
 21
6.57461
 31
0.0
  0
LINE
  8
0
 62
     0
 10
113.658
 20
6.57461
 30
0.0
 11
113.658
 21
7.7749
 31
0.0
  0
LINE
  8
0
 62
     0
 10
113.658
 20
7.7749
 30
0.0
 11
115.383
 21
7.7749
 31
0.0
  0
LINE
  8
0
 62
     0
 10
115.383
 20
7.7749
 30
0.0
 11
115.383
 21
14.045
 31
0.0
  0
LINE
  8
0
 62
     0
 10
115.383
 20
14.045
 30
0.0
 11
116.207
 21
14.045
 31
0.0
  0
LINE
  8
0
 62
     0
 10
116.207
 20
14.045
 30
0.0
 11
116.207
 21
16.6949
 31
0.0
  0
LINE
  8
0
 62
     0
 10
116.207
 20
16.6949
 30
0.0
 11
115.383
 21
16.6949
 31
0.0
  0
LINE
  8
0
 62
     0
 10
115.383
 20
16.6949
 30
0.0
 11
115.383
 21
19.9251
 31
0.0
  0
LINE
  8
0
 62
     0
 10
115.383
 20
19.9251
 30
0.0
 11
108.782
 21
19.9251
 31
0.0
  0
LINE
  8
0
 62
     0
 10
108.782
 20
19.9251
 30
0.0
 11
108.782
 21
16.6949
 31
0.0
  0
LINE
  8
0
 62
     0
 10
108.782
 20
16.6949
 30
0.0
 11
107.108
 21
16.6949
 31
0.0
  0
LINE
  8
0
 62
     0
 10
107.108
 20
16.6949
 30
0.0
 11
107.108
 21
17.446
 31
0.0
  0
LINE
  8
0
 62
     0
 10
107.108
 20
17.446
 30
0.0
 11
107.907
 21
17.446
 31
0.0
  0
LINE
  8
0
 62
     0
 10
107.907
 20
17.446
 30
0.0
 11
107.907
 21
20.395
 31
0.0
  0
LINE
  8
0
 62
     0
 10
107.907
 20
20.395
 30
0.0
 11
107.108
 21
20.395
 31
0.0
  0
LINE
  8
0
 62
     0
 10
107.108
 20
20.395
 30
0.0
 11
107.108
 21
21.3954
 31
0.0
  0
LINE
  8
0
 62
     0
 10
107.108
 20
21.3954
 30
0.0
 11
93.2575
 21
21.3954
 31
0.0
  0
LINE
  8
0
 62
     0
 10
178.983
 20
21.3954
 30
0.0
 11
178.983
 21
20.395
 31
0.0
  0
LINE
  8
0
 62
     0
 10
178.983
 20
20.395
 30
0.0
 11
178.183
 21
20.395
 31
0.0
  0
LINE
  8
0
 62
     0
 10
178.183
 20
20.395
 30
0.0
 11
178.183
 21
17.446
 31
0.0
  0
LINE
  8
0
 62
     0
 10
178.183
 20
17.446
 30
0.0
 11
178.983
 21
17.446
 31
0.0
  0
LINE
  8
0
 62
     0
 10
178.983
 20
17.446
 30
0.0
 11
178.983
 21
11.4956
 31
0.0
  0
LINE
  8
0
 62
     0
 10
178.983
 20
11.4956
 30
0.0
 11
178.183
 21
11.4956
 31
0.0
  0
LINE
  8
0
 62
     0
 10
178.183
 20
11.4956
 30
0.0
 11
178.183
 21
8.54523
 31
0.0
  0
LINE
  8
0
 62
     0
 10
178.183
 20
8.54523
 30
0.0
 11
178.983
 21
8.54523
 31
0.0
  0
LINE
  8
0
 62
     0
 10
178.983
 20
8.54523
 30
0.0
 11
178.983
 21
7.54475
 31
0.0
  0
LINE
  8
0
 62
     0
 10
178.983
 20
7.54475
 30
0.0
 11
192.833
 21
7.54475
 31
0.0
  0
LINE
  8
0
 62
     0
 10
192.833
 20
7.54475
 30
0.0
 11
192.833
 21
8.54523
 31
0.0
  0
LINE
  8
0
 62
     0
 10
192.833
 20
8.54523
 30
0.0
 11
193.632
 21
8.54523
 31
0.0
  0
LINE
  8
0
 62
     0
 10
193.632
 20
8.54523
 30
0.0
 11
193.632
 21
11.4956
 31
0.0
  0
LINE
  8
0
 62
     0
 10
193.632
 20
11.4956
 30
0.0
 11
192.833
 21
11.4956
 31
0.0
  0
LINE
  8
0
 62
     0
 10
192.833
 20
11.4956
 30
0.0
 11
192.833
 21
17.446
 31
0.0
  0
LINE
  8
0
 62
     0
 10
192.833
 20
17.446
 30
0.0
 11
193.632
 21
17.446
 31
0.0
  0
LINE
  8
0
 62
     0
 10
193.632
 20
17.446
 30
0.0
 11
193.632
 21
20.395
 31
0.0
  0
LINE
  8
0
 62
     0
 10
193.632
 20
20.395
 30
0.0
 11
192.833
 21
20.395
 31
0.0
  0
LINE
  8
0
 62
     0
 10
192.833
 20
20.395
 30
0.0
 11
192.833
 21
21.3954
 31
0.0
  0
LINE
  8
0
 62
     0
 10
192.833
 20
21.3954
 30
0.0
 11
178.983
 21
21.3954
 31
0.0
  0
LINE
  8
0
 62
     0
 10
59.92
 20
21.3954
 30
0.0
 11
59.92
 21
20.395
 31
0.0
  0
LINE
  8
0
 62
     0
 10
59.92
 20
20.395
 30
0.0
 11
59.1206
 21
20.395
 31
0.0
  0
LINE
  8
0
 62
     0
 10
59.1206
 20
20.395
 30
0.0
 11
59.1206
 21
17.446
 31
0.0
  0
LINE
  8
0
 62
     0
 10
59.1206
 20
17.446
 30
0.0
 11
59.92
 21
17.446
 31
0.0
  0
LINE
  8
0
 62
     0
 10
59.92
 20
17.446
 30
0.0
 11
59.92
 21
11.4956
 31
0.0
  0
LINE
  8
0
 62
     0
 10
59.92
 20
11.4956
 30
0.0
 11
59.1206
 21
11.4956
 31
0.0
  0
LINE
  8
0
 62
     0
 10
59.1206
 20
11.4956
 30
0.0
 11
59.1206
 21
8.54523
 31
0.0
  0
LINE
  8
0
 62
     0
 10
59.1206
 20
8.54523
 30
0.0
 11
59.92
 21
8.54523
 31
0.0
  0
LINE
  8
0
 62
     0
 10
59.92
 20
8.54523
 30
0.0
 11
59.92
 21
7.54475
 31
0.0
  0
LINE
  8
0
 62
     0
 10
59.92
 20
7.54475
 30
0.0
 11
73.7704
 21
7.54475
 31
0.0
  0
LINE
  8
0
 62
     0
 10
73.7704
 20
7.54475
 30
0.0
 11
73.7704
 21
8.54523
 31
0.0
  0
LINE
  8
0
 62
     0
 10
73.7704
 20
8.54523
 30
0.0
 11
74.5712
 21
8.54523
 31
0.0
  0
LINE
  8
0
 62
     0
 10
74.5712
 20
8.54523
 30
0.0
 11
74.5712
 21
11.4956
 31
0.0
  0
LINE
  8
0
 62
     0
 10
74.5712
 20
11.4956
 30
0.0
 11
73.7704
 21
11.4956
 31
0.0
  0
LINE
  8
0
 62
     0
 10
73.7704
 20
11.4956
 30
0.0
 11
73.7704
 21
17.446
 31
0.0
  0
LINE
  8
0
 62
     0
 10
73.7704
 20
17.446
 30
0.0
 11
74.5712
 21
17.446
 31
0.0
  0
LINE
  8
0
 62
     0
 10
74.5712
 20
17.446
 30
0.0
 11
74.5712
 21
20.395
 31
0.0
  0
LINE
  8
0
 62
     0
 10
74.5712
 20
20.395
 30
0.0
 11
73.7704
 21
20.395
 31
0.0
  0
LINE
  8
0
 62
     0
 10
73.7704
 20
20.395
 30
0.0
 11
73.7704
 21
21.3954
 31
0.0
  0
LINE
  8
0
 62
     0
 10
73.7704
 20
21.3954
 30
0.0
 11
59.92
 21
21.3954
 31
0.0
  0
LINE
  8
0
 62
     0
 10
33.7261
 20
21.3954
 30
0.0
 11
33.7261
 21
20.395
 31
0.0
  0
LINE
  8
0
 62
     0
 10
33.7261
 20
20.395
 30
0.0
 11
32.9268
 21
20.395
 31
0.0
  0
LINE
  8
0
 62
     0
 10
32.9268
 20
20.395
 30
0.0
 11
32.9268
 21
17.446
 31
0.0
  0
LINE
  8
0
 62
     0
 10
32.9268
 20
17.446
 30
0.0
 11
33.7261
 21
17.446
 31
0.0
  0
LINE
  8
0
 62
     0
 10
33.7261
 20
17.446
 30
0.0
 11
33.7261
 21
11.4956
 31
0.0
  0
LINE
  8
0
 62
     0
 10
33.7261
 20
11.4956
 30
0.0
 11
32.9268
 21
11.4956
 31
0.0
  0
LINE
  8
0
 62
     0
 10
32.9268
 20
11.4956
 30
0.0
 11
32.9268
 21
8.54523
 31
0.0
  0
LINE
  8
0
 62
     0
 10
32.9268
 20
8.54523
 30
0.0
 11
33.7261
 21
8.54523
 31
0.0
  0
LINE
  8
0
 62
     0
 10
33.7261
 20
8.54523
 30
0.0
 11
33.7261
 21
7.54475
 31
0.0
  0
LINE
  8
0
 62
     0
 10
33.7261
 20
7.54475
 30
0.0
 11
47.5767
 21
7.54475
 31
0.0
  0
LINE
  8
0
 62
     0
 10
47.5767
 20
7.54475
 30
0.0
 11
47.5767
 21
8.54523
 31
0.0
  0
LINE
  8
0
 62
     0
 10
47.5767
 20
8.54523
 30
0.0
 11
48.3761
 21
8.54523
 31
0.0
  0
LINE
  8
0
 62
     0
 10
48.3761
 20
8.54523
 30
0.0
 11
48.3761
 21
11.4956
 31
0.0
  0
LINE
  8
0
 62
     0
 10
48.3761
 20
11.4956
 30
0.0
 11
47.5767
 21
11.4956
 31
0.0
  0
LINE
  8
0
 62
     0
 10
47.5767
 20
11.4956
 30
0.0
 11
47.5767
 21
17.446
 31
0.0
  0
LINE
  8
0
 62
     0
 10
47.5767
 20
17.446
 30
0.0
 11
48.3761
 21
17.446
 31
0.0
  0
LINE
  8
0
 62
     0
 10
48.3761
 20
17.446
 30
0.0
 11
48.3761
 21
20.395
 31
0.0
  0
LINE
  8
0
 62
     0
 10
48.3761
 20
20.395
 30
0.0
 11
47.5767
 21
20.395
 31
0.0
  0
LINE
  8
0
 62
     0
 10
47.5767
 20
20.395
 30
0.0
 11
47.5767
 21
21.3954
 31
0.0
  0
LINE
  8
0
 62
     0
 10
47.5767
 20
21.3954
 30
0.0
 11
33.7261
 21
21.3954
 31
0.0
  0
LINE
  8
0
 62
     0
 10
7.53237
 20
21.3954
 30
0.0
 11
7.53237
 21
20.395
 31
0.0
  0
LINE
  8
0
 62
     0
 10
7.53237
 20
20.395
 30
0.0
 11
6.73308
 21
20.395
 31
0.0
  0
LINE
  8
0
 62
     0
 10
6.73308
 20
20.395
 30
0.0
 11
6.73308
 21
17.446
 31
0.0
  0
LINE
  8
0
 62
     0
 10
6.73308
 20
17.446
 30
0.0
 11
7.53237
 21
17.446
 31
0.0
  0
LINE
  8
0
 62
     0
 10
7.53237
 20
17.446
 30
0.0
 11
7.53237
 21
11.4956
 31
0.0
  0
LINE
  8
0
 62
     0
 10
7.53237
 20
11.4956
 30
0.0
 11
6.73308
 21
11.4956
 31
0.0
  0
LINE
  8
0
 62
     0
 10
6.73308
 20
11.4956
 30
0.0
 11
6.73308
 21
8.54523
 31
0.0
  0
LINE
  8
0
 62
     0
 10
6.73308
 20
8.54523
 30
0.0
 11
7.53237
 21
8.54523
 31
0.0
  0
LINE
  8
0
 62
     0
 10
7.53237
 20
8.54523
 30
0.0
 11
7.53237
 21
7.54475
 31
0.0
  0
LINE
  8
0
 62
     0
 10
7.53237
 20
7.54475
 30
0.0
 11
21.383
 21
7.54475
 31
0.0
  0
LINE
  8
0
 62
     0
 10
21.383
 20
7.54475
 30
0.0
 11
21.383
 21
8.54523
 31
0.0
  0
LINE
  8
0
 62
     0
 10
21.383
 20
8.54523
 30
0.0
 11
22.1823
 21
8.54523
 31
0.0
  0
LINE
  8
0
 62
     0
 10
22.1823
 20
8.54523
 30
0.0
 11
22.1823
 21
11.4956
 31
0.0
  0
LINE
  8
0
 62
     0
 10
22.1823
 20
11.4956
 30
0.0
 11
21.383
 21
11.4956
 31
0.0
  0
LINE
  8
0
 62
     0
 10
21.383
 20
11.4956
 30
0.0
 11
21.383
 21
17.446
 31
0.0
  0
LINE
  8
0
 62
     0
 10
21.383
 20
17.446
 30
0.0
 11
22.1823
 21
17.446
 31
0.0
  0
LINE
  8
0
 62
     0
 10
22.1823
 20
17.446
 30
0.0
 11
22.1823
 21
20.395
 31
0.0
  0
LINE
  8
0
 62
     0
 10
22.1823
 20
20.395
 30
0.0
 11
21.383
 21
20.395
 31
0.0
  0
LINE
  8
0
 62
     0
 10
21.383
 20
20.395
 30
0.0
 11
21.383
 21
21.3954
 31
0.0
  0
LINE
  8
0
 62
     0
 10
21.383
 20
21.3954
 30
0.0
 11
7.53237
 21
21.3954
 31
0.0
  0
LINE
  8
0
 62
     0
 10
240.895
 20
35.6828
 30
0.0
 11
240.895
 21
34.6825
 31
0.0
  0
LINE
  8
0
 62
     0
 10
240.895
 20
34.6825
 30
0.0
 11
240.096
 21
34.6825
 31
0.0
  0
LINE
  8
0
 62
     0
 10
240.096
 20
34.6825
 30
0.0
 11
240.096
 21
31.7321
 31
0.0
  0
LINE
  8
0
 62
     0
 10
240.096
 20
31.7321
 30
0.0
 11
240.895
 21
31.7321
 31
0.0
  0
LINE
  8
0
 62
     0
 10
240.895
 20
31.7321
 30
0.0
 11
240.895
 21
25.7817
 31
0.0
  0
LINE
  8
0
 62
     0
 10
240.895
 20
25.7817
 30
0.0
 11
240.096
 21
25.7817
 31
0.0
  0
LINE
  8
0
 62
     0
 10
240.096
 20
25.7817
 30
0.0
 11
240.096
 21
22.8327
 31
0.0
  0
LINE
  8
0
 62
     0
 10
240.096
 20
22.8327
 30
0.0
 11
240.895
 21
22.8327
 31
0.0
  0
LINE
  8
0
 62
     0
 10
240.895
 20
22.8327
 30
0.0
 11
240.895
 21
21.8323
 31
0.0
  0
LINE
  8
0
 62
     0
 10
240.895
 20
21.8323
 30
0.0
 11
254.744
 21
21.8323
 31
0.0
  0
LINE
  8
0
 62
     0
 10
254.744
 20
21.8323
 30
0.0
 11
254.744
 21
22.8327
 31
0.0
  0
LINE
  8
0
 62
     0
 10
254.744
 20
22.8327
 30
0.0
 11
255.546
 21
22.8327
 31
0.0
  0
LINE
  8
0
 62
     0
 10
255.546
 20
22.8327
 30
0.0
 11
255.546
 21
25.7817
 31
0.0
  0
LINE
  8
0
 62
     0
 10
255.546
 20
25.7817
 30
0.0
 11
254.744
 21
25.7817
 31
0.0
  0
LINE
  8
0
 62
     0
 10
254.744
 20
25.7817
 30
0.0
 11
254.744
 21
31.7321
 31
0.0
  0
LINE
  8
0
 62
     0
 10
254.744
 20
31.7321
 30
0.0
 11
255.546
 21
31.7321
 31
0.0
  0
LINE
  8
0
 62
     0
 10
255.546
 20
31.7321
 30
0.0
 11
255.546
 21
34.6825
 31
0.0
  0
LINE
  8
0
 62
     0
 10
255.546
 20
34.6825
 30
0.0
 11
254.744
 21
34.6825
 31
0.0
  0
LINE
  8
0
 62
     0
 10
254.744
 20
34.6825
 30
0.0
 11
254.744
 21
35.6828
 31
0.0
  0
LINE
  8
0
 62
     0
 10
254.744
 20
35.6828
 30
0.0
 11
240.895
 21
35.6828
 31
0.0
  0
LINE
  8
0
 62
     0
 10
14.6761
 20
40.4453
 30
0.0
 11
14.6761
 21
39.4451
 31
0.0
  0
LINE
  8
0
 62
     0
 10
14.6761
 20
39.4451
 30
0.0
 11
13.8768
 21
39.4451
 31
0.0
  0
LINE
  8
0
 62
     0
 10
13.8768
 20
39.4451
 30
0.0
 11
13.8768
 21
36.4959
 31
0.0
  0
LINE
  8
0
 62
     0
 10
13.8768
 20
36.4959
 30
0.0
 11
14.6761
 21
36.4959
 31
0.0
  0
LINE
  8
0
 62
     0
 10
14.6761
 20
36.4959
 30
0.0
 11
14.6761
 21
35.7449
 31
0.0
  0
LINE
  8
0
 62
     0
 10
14.6761
 20
35.7449
 30
0.0
 11
13.0018
 21
35.7449
 31
0.0
  0
LINE
  8
0
 62
     0
 10
13.0018
 20
35.7449
 30
0.0
 11
13.0018
 21
38.9749
 31
0.0
  0
LINE
  8
0
 62
     0
 10
13.0018
 20
38.9749
 30
0.0
 11
6.40098
 21
38.9749
 31
0.0
  0
LINE
  8
0
 62
     0
 10
6.40098
 20
38.9749
 30
0.0
 11
6.40098
 21
35.7449
 31
0.0
  0
LINE
  8
0
 62
     0
 10
6.40098
 20
35.7449
 30
0.0
 11
5.57692
 21
35.7449
 31
0.0
  0
LINE
  8
0
 62
     0
 10
5.57692
 20
35.7449
 30
0.0
 11
5.57692
 21
33.095
 31
0.0
  0
LINE
  8
0
 62
     0
 10
5.57692
 20
33.095
 30
0.0
 11
6.40098
 21
33.095
 31
0.0
  0
LINE
  8
0
 62
     0
 10
6.40098
 20
33.095
 30
0.0
 11
6.40098
 21
26.8249
 31
0.0
  0
LINE
  8
0
 62
     0
 10
6.40098
 20
26.8249
 30
0.0
 11
8.12631
 21
26.8249
 31
0.0
  0
LINE
  8
0
 62
     0
 10
8.12631
 20
26.8249
 30
0.0
 11
8.12631
 21
25.6246
 31
0.0
  0
LINE
  8
0
 62
     0
 10
8.12631
 20
25.6246
 30
0.0
 11
11.2765
 21
25.6246
 31
0.0
  0
LINE
  8
0
 62
     0
 10
11.2765
 20
25.6246
 30
0.0
 11
11.2765
 21
26.8249
 31
0.0
  0
LINE
  8
0
 62
     0
 10
11.2765
 20
26.8249
 30
0.0
 11
13.0018
 21
26.8249
 31
0.0
  0
LINE
  8
0
 62
     0
 10
13.0018
 20
26.8249
 30
0.0
 11
13.0018
 21
31.2952
 31
0.0
  0
LINE
  8
0
 62
     0
 10
13.0018
 20
31.2952
 30
0.0
 11
14.6761
 21
31.2952
 31
0.0
  0
LINE
  8
0
 62
     0
 10
14.6761
 20
31.2952
 30
0.0
 11
14.6761
 21
30.5456
 31
0.0
  0
LINE
  8
0
 62
     0
 10
14.6761
 20
30.5456
 30
0.0
 11
13.8768
 21
30.5456
 31
0.0
  0
LINE
  8
0
 62
     0
 10
13.8768
 20
30.5456
 30
0.0
 11
13.8768
 21
27.5952
 31
0.0
  0
LINE
  8
0
 62
     0
 10
13.8768
 20
27.5952
 30
0.0
 11
14.6761
 21
27.5952
 31
0.0
  0
LINE
  8
0
 62
     0
 10
14.6761
 20
27.5952
 30
0.0
 11
14.6761
 21
26.5948
 31
0.0
  0
LINE
  8
0
 62
     0
 10
14.6761
 20
26.5948
 30
0.0
 11
28.5268
 21
26.5948
 31
0.0
  0
LINE
  8
0
 62
     0
 10
28.5268
 20
26.5948
 30
0.0
 11
28.5268
 21
27.5952
 31
0.0
  0
LINE
  8
0
 62
     0
 10
28.5268
 20
27.5952
 30
0.0
 11
29.326
 21
27.5952
 31
0.0
  0
LINE
  8
0
 62
     0
 10
29.326
 20
27.5952
 30
0.0
 11
29.326
 21
30.5456
 31
0.0
  0
LINE
  8
0
 62
     0
 10
29.326
 20
30.5456
 30
0.0
 11
28.5268
 21
30.5456
 31
0.0
  0
LINE
  8
0
 62
     0
 10
28.5268
 20
30.5456
 30
0.0
 11
28.5268
 21
31.2952
 31
0.0
  0
LINE
  8
0
 62
     0
 10
28.5268
 20
31.2952
 30
0.0
 11
30.2011
 21
31.2952
 31
0.0
  0
LINE
  8
0
 62
     0
 10
30.2011
 20
31.2952
 30
0.0
 11
30.2011
 21
26.8249
 31
0.0
  0
LINE
  8
0
 62
     0
 10
30.2011
 20
26.8249
 30
0.0
 11
31.9264
 21
26.8249
 31
0.0
  0
LINE
  8
0
 62
     0
 10
31.9264
 20
26.8249
 30
0.0
 11
31.9264
 21
25.6246
 31
0.0
  0
LINE
  8
0
 62
     0
 10
31.9264
 20
25.6246
 30
0.0
 11
35.0766
 21
25.6246
 31
0.0
  0
LINE
  8
0
 62
     0
 10
35.0766
 20
25.6246
 30
0.0
 11
35.0766
 21
26.8249
 31
0.0
  0
LINE
  8
0
 62
     0
 10
35.0766
 20
26.8249
 30
0.0
 11
36.8018
 21
26.8249
 31
0.0
  0
LINE
  8
0
 62
     0
 10
36.8018
 20
26.8249
 30
0.0
 11
36.8018
 21
33.095
 31
0.0
  0
LINE
  8
0
 62
     0
 10
36.8018
 20
33.095
 30
0.0
 11
37.6259
 21
33.095
 31
0.0
  0
LINE
  8
0
 62
     0
 10
37.6259
 20
33.095
 30
0.0
 11
37.6259
 21
35.7449
 31
0.0
  0
LINE
  8
0
 62
     0
 10
37.6259
 20
35.7449
 30
0.0
 11
36.8018
 21
35.7449
 31
0.0
  0
LINE
  8
0
 62
     0
 10
36.8018
 20
35.7449
 30
0.0
 11
36.8018
 21
38.9749
 31
0.0
  0
LINE
  8
0
 62
     0
 10
36.8018
 20
38.9749
 30
0.0
 11
30.2011
 21
38.9749
 31
0.0
  0
LINE
  8
0
 62
     0
 10
30.2011
 20
38.9749
 30
0.0
 11
30.2011
 21
35.7449
 31
0.0
  0
LINE
  8
0
 62
     0
 10
30.2011
 20
35.7449
 30
0.0
 11
28.5268
 21
35.7449
 31
0.0
  0
LINE
  8
0
 62
     0
 10
28.5268
 20
35.7449
 30
0.0
 11
28.5268
 21
36.4959
 31
0.0
  0
LINE
  8
0
 62
     0
 10
28.5268
 20
36.4959
 30
0.0
 11
29.326
 21
36.4959
 31
0.0
  0
LINE
  8
0
 62
     0
 10
29.326
 20
36.4959
 30
0.0
 11
29.326
 21
39.4451
 31
0.0
  0
LINE
  8
0
 62
     0
 10
29.326
 20
39.4451
 30
0.0
 11
28.5268
 21
39.4451
 31
0.0
  0
LINE
  8
0
 62
     0
 10
28.5268
 20
39.4451
 30
0.0
 11
28.5268
 21
40.4453
 31
0.0
  0
LINE
  8
0
 62
     0
 10
28.5268
 20
40.4453
 30
0.0
 11
14.6761
 21
40.4453
 31
0.0
  0
LINE
  8
0
 62
     0
 10
259.945
 20
40.4453
 30
0.0
 11
259.945
 21
39.4451
 31
0.0
  0
LINE
  8
0
 62
     0
 10
259.945
 20
39.4451
 30
0.0
 11
259.146
 21
39.4451
 31
0.0
  0
LINE
  8
0
 62
     0
 10
259.146
 20
39.4451
 30
0.0
 11
259.146
 21
36.4959
 31
0.0
  0
LINE
  8
0
 62
     0
 10
259.146
 20
36.4959
 30
0.0
 11
259.945
 21
36.4959
 31
0.0
  0
LINE
  8
0
 62
     0
 10
259.945
 20
36.4959
 30
0.0
 11
259.945
 21
30.5456
 31
0.0
  0
LINE
  8
0
 62
     0
 10
259.945
 20
30.5456
 30
0.0
 11
259.146
 21
30.5456
 31
0.0
  0
LINE
  8
0
 62
     0
 10
259.146
 20
30.5456
 30
0.0
 11
259.146
 21
27.5952
 31
0.0
  0
LINE
  8
0
 62
     0
 10
259.146
 20
27.5952
 30
0.0
 11
259.945
 21
27.5952
 31
0.0
  0
LINE
  8
0
 62
     0
 10
259.945
 20
27.5952
 30
0.0
 11
259.945
 21
26.5948
 31
0.0
  0
LINE
  8
0
 62
     0
 10
259.945
 20
26.5948
 30
0.0
 11
273.795
 21
26.5948
 31
0.0
  0
LINE
  8
0
 62
     0
 10
273.795
 20
26.5948
 30
0.0
 11
273.795
 21
27.5952
 31
0.0
  0
LINE
  8
0
 62
     0
 10
273.795
 20
27.5952
 30
0.0
 11
274.596
 21
27.5952
 31
0.0
  0
LINE
  8
0
 62
     0
 10
274.596
 20
27.5952
 30
0.0
 11
274.596
 21
30.5456
 31
0.0
  0
LINE
  8
0
 62
     0
 10
274.596
 20
30.5456
 30
0.0
 11
273.795
 21
30.5456
 31
0.0
  0
LINE
  8
0
 62
     0
 10
273.795
 20
30.5456
 30
0.0
 11
273.795
 21
36.4959
 31
0.0
  0
LINE
  8
0
 62
     0
 10
273.795
 20
36.4959
 30
0.0
 11
274.596
 21
36.4959
 31
0.0
  0
LINE
  8
0
 62
     0
 10
274.596
 20
36.4959
 30
0.0
 11
274.596
 21
39.4451
 31
0.0
  0
LINE
  8
0
 62
     0
 10
274.596
 20
39.4451
 30
0.0
 11
273.795
 21
39.4451
 31
0.0
  0
LINE
  8
0
 62
     0
 10
273.795
 20
39.4451
 30
0.0
 11
273.795
 21
40.4453
 31
0.0
  0
LINE
  8
0
 62
     0
 10
273.795
 20
40.4453
 30
0.0
 11
259.945
 21
40.4453
 31
0.0
  0
LINE
  8
0
 62
     0
 10
217.083
 20
40.4453
 30
0.0
 11
217.083
 21
39.4451
 31
0.0
  0
LINE
  8
0
 62
     0
 10
217.083
 20
39.4451
 30
0.0
 11
216.283
 21
39.4451
 31
0.0
  0
LINE
  8
0
 62
     0
 10
216.283
 20
39.4451
 30
0.0
 11
216.283
 21
36.4959
 31
0.0
  0
LINE
  8
0
 62
     0
 10
216.283
 20
36.4959
 30
0.0
 11
217.083
 21
36.4959
 31
0.0
  0
LINE
  8
0
 62
     0
 10
217.083
 20
36.4959
 30
0.0
 11
217.083
 21
30.5456
 31
0.0
  0
LINE
  8
0
 62
     0
 10
217.083
 20
30.5456
 30
0.0
 11
216.283
 21
30.5456
 31
0.0
  0
LINE
  8
0
 62
     0
 10
216.283
 20
30.5456
 30
0.0
 11
216.283
 21
27.5952
 31
0.0
  0
LINE
  8
0
 62
     0
 10
216.283
 20
27.5952
 30
0.0
 11
217.083
 21
27.5952
 31
0.0
  0
LINE
  8
0
 62
     0
 10
217.083
 20
27.5952
 30
0.0
 11
217.083
 21
26.5948
 31
0.0
  0
LINE
  8
0
 62
     0
 10
217.083
 20
26.5948
 30
0.0
 11
230.933
 21
26.5948
 31
0.0
  0
LINE
  8
0
 62
     0
 10
230.933
 20
26.5948
 30
0.0
 11
230.933
 21
27.5952
 31
0.0
  0
LINE
  8
0
 62
     0
 10
230.933
 20
27.5952
 30
0.0
 11
231.732
 21
27.5952
 31
0.0
  0
LINE
  8
0
 62
     0
 10
231.732
 20
27.5952
 30
0.0
 11
231.732
 21
30.5456
 31
0.0
  0
LINE
  8
0
 62
     0
 10
231.732
 20
30.5456
 30
0.0
 11
230.933
 21
30.5456
 31
0.0
  0
LINE
  8
0
 62
     0
 10
230.933
 20
30.5456
 30
0.0
 11
230.933
 21
36.4959
 31
0.0
  0
LINE
  8
0
 62
     0
 10
230.933
 20
36.4959
 30
0.0
 11
231.732
 21
36.4959
 31
0.0
  0
LINE
  8
0
 62
     0
 10
231.732
 20
36.4959
 30
0.0
 11
231.732
 21
39.4451
 31
0.0
  0
LINE
  8
0
 62
     0
 10
231.732
 20
39.4451
 30
0.0
 11
230.933
 21
39.4451
 31
0.0
  0
LINE
  8
0
 62
     0
 10
230.933
 20
39.4451
 30
0.0
 11
230.933
 21
40.4453
 31
0.0
  0
LINE
  8
0
 62
     0
 10
230.933
 20
40.4453
 30
0.0
 11
217.083
 21
40.4453
 31
0.0
  0
LINE
  8
0
 62
     0
 10
198.033
 20
40.4453
 30
0.0
 11
198.033
 21
39.4451
 31
0.0
  0
LINE
  8
0
 62
     0
 10
198.033
 20
39.4451
 30
0.0
 11
197.233
 21
39.4451
 31
0.0
  0
LINE
  8
0
 62
     0
 10
197.233
 20
39.4451
 30
0.0
 11
197.233
 21
36.4959
 31
0.0
  0
LINE
  8
0
 62
     0
 10
197.233
 20
36.4959
 30
0.0
 11
198.033
 21
36.4959
 31
0.0
  0
LINE
  8
0
 62
     0
 10
198.033
 20
36.4959
 30
0.0
 11
198.033
 21
30.5456
 31
0.0
  0
LINE
  8
0
 62
     0
 10
198.033
 20
30.5456
 30
0.0
 11
197.233
 21
30.5456
 31
0.0
  0
LINE
  8
0
 62
     0
 10
197.233
 20
30.5456
 30
0.0
 11
197.233
 21
27.5952
 31
0.0
  0
LINE
  8
0
 62
     0
 10
197.233
 20
27.5952
 30
0.0
 11
198.033
 21
27.5952
 31
0.0
  0
LINE
  8
0
 62
     0
 10
198.033
 20
27.5952
 30
0.0
 11
198.033
 21
26.5948
 31
0.0
  0
LINE
  8
0
 62
     0
 10
198.033
 20
26.5948
 30
0.0
 11
211.883
 21
26.5948
 31
0.0
  0
LINE
  8
0
 62
     0
 10
211.883
 20
26.5948
 30
0.0
 11
211.883
 21
27.5952
 31
0.0
  0
LINE
  8
0
 62
     0
 10
211.883
 20
27.5952
 30
0.0
 11
212.682
 21
27.5952
 31
0.0
  0
LINE
  8
0
 62
     0
 10
212.682
 20
27.5952
 30
0.0
 11
212.682
 21
30.5456
 31
0.0
  0
LINE
  8
0
 62
     0
 10
212.682
 20
30.5456
 30
0.0
 11
211.883
 21
30.5456
 31
0.0
  0
LINE
  8
0
 62
     0
 10
211.883
 20
30.5456
 30
0.0
 11
211.883
 21
36.4959
 31
0.0
  0
LINE
  8
0
 62
     0
 10
211.883
 20
36.4959
 30
0.0
 11
212.682
 21
36.4959
 31
0.0
  0
LINE
  8
0
 62
     0
 10
212.682
 20
36.4959
 30
0.0
 11
212.682
 21
39.4451
 31
0.0
  0
LINE
  8
0
 62
     0
 10
212.682
 20
39.4451
 30
0.0
 11
211.883
 21
39.4451
 31
0.0
  0
LINE
  8
0
 62
     0
 10
211.883
 20
39.4451
 30
0.0
 11
211.883
 21
40.4453
 31
0.0
  0
LINE
  8
0
 62
     0
 10
211.883
 20
40.4453
 30
0.0
 11
198.033
 21
40.4453
 31
0.0
  0
LINE
  8
0
 62
     0
 10
178.983
 20
40.4453
 30
0.0
 11
178.983
 21
39.4451
 31
0.0
  0
LINE
  8
0
 62
     0
 10
178.983
 20
39.4451
 30
0.0
 11
178.183
 21
39.4451
 31
0.0
  0
LINE
  8
0
 62
     0
 10
178.183
 20
39.4451
 30
0.0
 11
178.183
 21
36.4959
 31
0.0
  0
LINE
  8
0
 62
     0
 10
178.183
 20
36.4959
 30
0.0
 11
178.983
 21
36.4959
 31
0.0
  0
LINE
  8
0
 62
     0
 10
178.983
 20
36.4959
 30
0.0
 11
178.983
 21
30.5456
 31
0.0
  0
LINE
  8
0
 62
     0
 10
178.983
 20
30.5456
 30
0.0
 11
178.183
 21
30.5456
 31
0.0
  0
LINE
  8
0
 62
     0
 10
178.183
 20
30.5456
 30
0.0
 11
178.183
 21
27.5952
 31
0.0
  0
LINE
  8
0
 62
     0
 10
178.183
 20
27.5952
 30
0.0
 11
178.983
 21
27.5952
 31
0.0
  0
LINE
  8
0
 62
     0
 10
178.983
 20
27.5952
 30
0.0
 11
178.983
 21
26.5948
 31
0.0
  0
LINE
  8
0
 62
     0
 10
178.983
 20
26.5948
 30
0.0
 11
192.833
 21
26.5948
 31
0.0
  0
LINE
  8
0
 62
     0
 10
192.833
 20
26.5948
 30
0.0
 11
192.833
 21
27.5952
 31
0.0
  0
LINE
  8
0
 62
     0
 10
192.833
 20
27.5952
 30
0.0
 11
193.632
 21
27.5952
 31
0.0
  0
LINE
  8
0
 62
     0
 10
193.632
 20
27.5952
 30
0.0
 11
193.632
 21
30.5456
 31
0.0
  0
LINE
  8
0
 62
     0
 10
193.632
 20
30.5456
 30
0.0
 11
192.833
 21
30.5456
 31
0.0
  0
LINE
  8
0
 62
     0
 10
192.833
 20
30.5456
 30
0.0
 11
192.833
 21
36.4959
 31
0.0
  0
LINE
  8
0
 62
     0
 10
192.833
 20
36.4959
 30
0.0
 11
193.632
 21
36.4959
 31
0.0
  0
LINE
  8
0
 62
     0
 10
193.632
 20
36.4959
 30
0.0
 11
193.632
 21
39.4451
 31
0.0
  0
LINE
  8
0
 62
     0
 10
193.632
 20
39.4451
 30
0.0
 11
192.833
 21
39.4451
 31
0.0
  0
LINE
  8
0
 62
     0
 10
192.833
 20
39.4451
 30
0.0
 11
192.833
 21
40.4453
 31
0.0
  0
LINE
  8
0
 62
     0
 10
192.833
 20
40.4453
 30
0.0
 11
178.983
 21
40.4453
 31
0.0
  0
LINE
  8
0
 62
     0
 10
159.933
 20
40.4453
 30
0.0
 11
159.933
 21
39.4451
 31
0.0
  0
LINE
  8
0
 62
     0
 10
159.933
 20
39.4451
 30
0.0
 11
159.133
 21
39.4451
 31
0.0
  0
LINE
  8
0
 62
     0
 10
159.133
 20
39.4451
 30
0.0
 11
159.133
 21
36.4959
 31
0.0
  0
LINE
  8
0
 62
     0
 10
159.133
 20
36.4959
 30
0.0
 11
159.933
 21
36.4959
 31
0.0
  0
LINE
  8
0
 62
     0
 10
159.933
 20
36.4959
 30
0.0
 11
159.933
 21
30.5456
 31
0.0
  0
LINE
  8
0
 62
     0
 10
159.933
 20
30.5456
 30
0.0
 11
159.133
 21
30.5456
 31
0.0
  0
LINE
  8
0
 62
     0
 10
159.133
 20
30.5456
 30
0.0
 11
159.133
 21
27.5952
 31
0.0
  0
LINE
  8
0
 62
     0
 10
159.133
 20
27.5952
 30
0.0
 11
159.933
 21
27.5952
 31
0.0
  0
LINE
  8
0
 62
     0
 10
159.933
 20
27.5952
 30
0.0
 11
159.933
 21
26.5948
 31
0.0
  0
LINE
  8
0
 62
     0
 10
159.933
 20
26.5948
 30
0.0
 11
173.783
 21
26.5948
 31
0.0
  0
LINE
  8
0
 62
     0
 10
173.783
 20
26.5948
 30
0.0
 11
173.783
 21
27.5952
 31
0.0
  0
LINE
  8
0
 62
     0
 10
173.783
 20
27.5952
 30
0.0
 11
174.582
 21
27.5952
 31
0.0
  0
LINE
  8
0
 62
     0
 10
174.582
 20
27.5952
 30
0.0
 11
174.582
 21
30.5456
 31
0.0
  0
LINE
  8
0
 62
     0
 10
174.582
 20
30.5456
 30
0.0
 11
173.783
 21
30.5456
 31
0.0
  0
LINE
  8
0
 62
     0
 10
173.783
 20
30.5456
 30
0.0
 11
173.783
 21
36.4959
 31
0.0
  0
LINE
  8
0
 62
     0
 10
173.783
 20
36.4959
 30
0.0
 11
174.582
 21
36.4959
 31
0.0
  0
LINE
  8
0
 62
     0
 10
174.582
 20
36.4959
 30
0.0
 11
174.582
 21
39.4451
 31
0.0
  0
LINE
  8
0
 62
     0
 10
174.582
 20
39.4451
 30
0.0
 11
173.783
 21
39.4451
 31
0.0
  0
LINE
  8
0
 62
     0
 10
173.783
 20
39.4451
 30
0.0
 11
173.783
 21
40.4453
 31
0.0
  0
LINE
  8
0
 62
     0
 10
173.783
 20
40.4453
 30
0.0
 11
159.933
 21
40.4453
 31
0.0
  0
LINE
  8
0
 62
     0
 10
140.883
 20
40.4453
 30
0.0
 11
140.883
 21
39.4451
 31
0.0
  0
LINE
  8
0
 62
     0
 10
140.883
 20
39.4451
 30
0.0
 11
140.083
 21
39.4451
 31
0.0
  0
LINE
  8
0
 62
     0
 10
140.083
 20
39.4451
 30
0.0
 11
140.083
 21
36.4959
 31
0.0
  0
LINE
  8
0
 62
     0
 10
140.083
 20
36.4959
 30
0.0
 11
140.883
 21
36.4959
 31
0.0
  0
LINE
  8
0
 62
     0
 10
140.883
 20
36.4959
 30
0.0
 11
140.883
 21
30.5456
 31
0.0
  0
LINE
  8
0
 62
     0
 10
140.883
 20
30.5456
 30
0.0
 11
140.083
 21
30.5456
 31
0.0
  0
LINE
  8
0
 62
     0
 10
140.083
 20
30.5456
 30
0.0
 11
140.083
 21
27.5952
 31
0.0
  0
LINE
  8
0
 62
     0
 10
140.083
 20
27.5952
 30
0.0
 11
140.883
 21
27.5952
 31
0.0
  0
LINE
  8
0
 62
     0
 10
140.883
 20
27.5952
 30
0.0
 11
140.883
 21
26.5948
 31
0.0
  0
LINE
  8
0
 62
     0
 10
140.883
 20
26.5948
 30
0.0
 11
154.733
 21
26.5948
 31
0.0
  0
LINE
  8
0
 62
     0
 10
154.733
 20
26.5948
 30
0.0
 11
154.733
 21
27.5952
 31
0.0
  0
LINE
  8
0
 62
     0
 10
154.733
 20
27.5952
 30
0.0
 11
155.532
 21
27.5952
 31
0.0
  0
LINE
  8
0
 62
     0
 10
155.532
 20
27.5952
 30
0.0
 11
155.532
 21
30.5456
 31
0.0
  0
LINE
  8
0
 62
     0
 10
155.532
 20
30.5456
 30
0.0
 11
154.733
 21
30.5456
 31
0.0
  0
LINE
  8
0
 62
     0
 10
154.733
 20
30.5456
 30
0.0
 11
154.733
 21
36.4959
 31
0.0
  0
LINE
  8
0
 62
     0
 10
154.733
 20
36.4959
 30
0.0
 11
155.532
 21
36.4959
 31
0.0
  0
LINE
  8
0
 62
     0
 10
155.532
 20
36.4959
 30
0.0
 11
155.532
 21
39.4451
 31
0.0
  0
LINE
  8
0
 62
     0
 10
155.532
 20
39.4451
 30
0.0
 11
154.733
 21
39.4451
 31
0.0
  0
LINE
  8
0
 62
     0
 10
154.733
 20
39.4451
 30
0.0
 11
154.733
 21
40.4453
 31
0.0
  0
LINE
  8
0
 62
     0
 10
154.733
 20
40.4453
 30
0.0
 11
140.883
 21
40.4453
 31
0.0
  0
LINE
  8
0
 62
     0
 10
121.833
 20
40.4453
 30
0.0
 11
121.833
 21
39.4451
 31
0.0
  0
LINE
  8
0
 62
     0
 10
121.833
 20
39.4451
 30
0.0
 11
121.033
 21
39.4451
 31
0.0
  0
LINE
  8
0
 62
     0
 10
121.033
 20
39.4451
 30
0.0
 11
121.033
 21
36.4959
 31
0.0
  0
LINE
  8
0
 62
     0
 10
121.033
 20
36.4959
 30
0.0
 11
121.833
 21
36.4959
 31
0.0
  0
LINE
  8
0
 62
     0
 10
121.833
 20
36.4959
 30
0.0
 11
121.833
 21
30.5456
 31
0.0
  0
LINE
  8
0
 62
     0
 10
121.833
 20
30.5456
 30
0.0
 11
121.033
 21
30.5456
 31
0.0
  0
LINE
  8
0
 62
     0
 10
121.033
 20
30.5456
 30
0.0
 11
121.033
 21
27.5952
 31
0.0
  0
LINE
  8
0
 62
     0
 10
121.033
 20
27.5952
 30
0.0
 11
121.833
 21
27.5952
 31
0.0
  0
LINE
  8
0
 62
     0
 10
121.833
 20
27.5952
 30
0.0
 11
121.833
 21
26.5948
 31
0.0
  0
LINE
  8
0
 62
     0
 10
121.833
 20
26.5948
 30
0.0
 11
135.683
 21
26.5948
 31
0.0
  0
LINE
  8
0
 62
     0
 10
135.683
 20
26.5948
 30
0.0
 11
135.683
 21
27.5952
 31
0.0
  0
LINE
  8
0
 62
     0
 10
135.683
 20
27.5952
 30
0.0
 11
136.482
 21
27.5952
 31
0.0
  0
LINE
  8
0
 62
     0
 10
136.482
 20
27.5952
 30
0.0
 11
136.482
 21
30.5456
 31
0.0
  0
LINE
  8
0
 62
     0
 10
136.482
 20
30.5456
 30
0.0
 11
135.683
 21
30.5456
 31
0.0
  0
LINE
  8
0
 62
     0
 10
135.683
 20
30.5456
 30
0.0
 11
135.683
 21
36.4959
 31
0.0
  0
LINE
  8
0
 62
     0
 10
135.683
 20
36.4959
 30
0.0
 11
136.482
 21
36.4959
 31
0.0
  0
LINE
  8
0
 62
     0
 10
136.482
 20
36.4959
 30
0.0
 11
136.482
 21
39.4451
 31
0.0
  0
LINE
  8
0
 62
     0
 10
136.482
 20
39.4451
 30
0.0
 11
135.683
 21
39.4451
 31
0.0
  0
LINE
  8
0
 62
     0
 10
135.683
 20
39.4451
 30
0.0
 11
135.683
 21
40.4453
 31
0.0
  0
LINE
  8
0
 62
     0
 10
135.683
 20
40.4453
 30
0.0
 11
121.833
 21
40.4453
 31
0.0
  0
LINE
  8
0
 62
     0
 10
102.783
 20
40.4453
 30
0.0
 11
102.783
 21
39.4451
 31
0.0
  0
LINE
  8
0
 62
     0
 10
102.783
 20
39.4451
 30
0.0
 11
101.983
 21
39.4451
 31
0.0
  0
LINE
  8
0
 62
     0
 10
101.983
 20
39.4451
 30
0.0
 11
101.983
 21
36.4959
 31
0.0
  0
LINE
  8
0
 62
     0
 10
101.983
 20
36.4959
 30
0.0
 11
102.783
 21
36.4959
 31
0.0
  0
LINE
  8
0
 62
     0
 10
102.783
 20
36.4959
 30
0.0
 11
102.783
 21
30.5456
 31
0.0
  0
LINE
  8
0
 62
     0
 10
102.783
 20
30.5456
 30
0.0
 11
101.983
 21
30.5456
 31
0.0
  0
LINE
  8
0
 62
     0
 10
101.983
 20
30.5456
 30
0.0
 11
101.983
 21
27.5952
 31
0.0
  0
LINE
  8
0
 62
     0
 10
101.983
 20
27.5952
 30
0.0
 11
102.783
 21
27.5952
 31
0.0
  0
LINE
  8
0
 62
     0
 10
102.783
 20
27.5952
 30
0.0
 11
102.783
 21
26.5948
 31
0.0
  0
LINE
  8
0
 62
     0
 10
102.783
 20
26.5948
 30
0.0
 11
116.633
 21
26.5948
 31
0.0
  0
LINE
  8
0
 62
     0
 10
116.633
 20
26.5948
 30
0.0
 11
116.633
 21
27.5952
 31
0.0
  0
LINE
  8
0
 62
     0
 10
116.633
 20
27.5952
 30
0.0
 11
117.432
 21
27.5952
 31
0.0
  0
LINE
  8
0
 62
     0
 10
117.432
 20
27.5952
 30
0.0
 11
117.432
 21
30.5456
 31
0.0
  0
LINE
  8
0
 62
     0
 10
117.432
 20
30.5456
 30
0.0
 11
116.633
 21
30.5456
 31
0.0
  0
LINE
  8
0
 62
     0
 10
116.633
 20
30.5456
 30
0.0
 11
116.633
 21
36.4959
 31
0.0
  0
LINE
  8
0
 62
     0
 10
116.633
 20
36.4959
 30
0.0
 11
117.432
 21
36.4959
 31
0.0
  0
LINE
  8
0
 62
     0
 10
117.432
 20
36.4959
 30
0.0
 11
117.432
 21
39.4451
 31
0.0
  0
LINE
  8
0
 62
     0
 10
117.432
 20
39.4451
 30
0.0
 11
116.633
 21
39.4451
 31
0.0
  0
LINE
  8
0
 62
     0
 10
116.633
 20
39.4451
 30
0.0
 11
116.633
 21
40.4453
 31
0.0
  0
LINE
  8
0
 62
     0
 10
116.633
 20
40.4453
 30
0.0
 11
102.783
 21
40.4453
 31
0.0
  0
LINE
  8
0
 62
     0
 10
83.7325
 20
40.4453
 30
0.0
 11
83.7325
 21
39.4451
 31
0.0
  0
LINE
  8
0
 62
     0
 10
83.7325
 20
39.4451
 30
0.0
 11
82.9331
 21
39.4451
 31
0.0
  0
LINE
  8
0
 62
     0
 10
82.9331
 20
39.4451
 30
0.0
 11
82.9331
 21
36.4959
 31
0.0
  0
LINE
  8
0
 62
     0
 10
82.9331
 20
36.4959
 30
0.0
 11
83.7325
 21
36.4959
 31
0.0
  0
LINE
  8
0
 62
     0
 10
83.7325
 20
36.4959
 30
0.0
 11
83.7325
 21
30.5456
 31
0.0
  0
LINE
  8
0
 62
     0
 10
83.7325
 20
30.5456
 30
0.0
 11
82.9331
 21
30.5456
 31
0.0
  0
LINE
  8
0
 62
     0
 10
82.9331
 20
30.5456
 30
0.0
 11
82.9331
 21
27.5952
 31
0.0
  0
LINE
  8
0
 62
     0
 10
82.9331
 20
27.5952
 30
0.0
 11
83.7325
 21
27.5952
 31
0.0
  0
LINE
  8
0
 62
     0
 10
83.7325
 20
27.5952
 30
0.0
 11
83.7325
 21
26.5948
 31
0.0
  0
LINE
  8
0
 62
     0
 10
83.7325
 20
26.5948
 30
0.0
 11
97.5829
 21
26.5948
 31
0.0
  0
LINE
  8
0
 62
     0
 10
97.5829
 20
26.5948
 30
0.0
 11
97.5829
 21
27.5952
 31
0.0
  0
LINE
  8
0
 62
     0
 10
97.5829
 20
27.5952
 30
0.0
 11
98.3823
 21
27.5952
 31
0.0
  0
LINE
  8
0
 62
     0
 10
98.3823
 20
27.5952
 30
0.0
 11
98.3823
 21
30.5456
 31
0.0
  0
LINE
  8
0
 62
     0
 10
98.3823
 20
30.5456
 30
0.0
 11
97.5829
 21
30.5456
 31
0.0
  0
LINE
  8
0
 62
     0
 10
97.5829
 20
30.5456
 30
0.0
 11
97.5829
 21
36.4959
 31
0.0
  0
LINE
  8
0
 62
     0
 10
97.5829
 20
36.4959
 30
0.0
 11
98.3823
 21
36.4959
 31
0.0
  0
LINE
  8
0
 62
     0
 10
98.3823
 20
36.4959
 30
0.0
 11
98.3823
 21
39.4451
 31
0.0
  0
LINE
  8
0
 62
     0
 10
98.3823
 20
39.4451
 30
0.0
 11
97.5829
 21
39.4451
 31
0.0
  0
LINE
  8
0
 62
     0
 10
97.5829
 20
39.4451
 30
0.0
 11
97.5829
 21
40.4453
 31
0.0
  0
LINE
  8
0
 62
     0
 10
97.5829
 20
40.4453
 30
0.0
 11
83.7325
 21
40.4453
 31
0.0
  0
LINE
  8
0
 62
     0
 10
64.6825
 20
40.4453
 30
0.0
 11
64.6825
 21
39.4451
 31
0.0
  0
LINE
  8
0
 62
     0
 10
64.6825
 20
39.4451
 30
0.0
 11
63.8831
 21
39.4451
 31
0.0
  0
LINE
  8
0
 62
     0
 10
63.8831
 20
39.4451
 30
0.0
 11
63.8831
 21
36.4959
 31
0.0
  0
LINE
  8
0
 62
     0
 10
63.8831
 20
36.4959
 30
0.0
 11
64.6825
 21
36.4959
 31
0.0
  0
LINE
  8
0
 62
     0
 10
64.6825
 20
36.4959
 30
0.0
 11
64.6825
 21
30.5456
 31
0.0
  0
LINE
  8
0
 62
     0
 10
64.6825
 20
30.5456
 30
0.0
 11
63.8831
 21
30.5456
 31
0.0
  0
LINE
  8
0
 62
     0
 10
63.8831
 20
30.5456
 30
0.0
 11
63.8831
 21
27.5952
 31
0.0
  0
LINE
  8
0
 62
     0
 10
63.8831
 20
27.5952
 30
0.0
 11
64.6825
 21
27.5952
 31
0.0
  0
LINE
  8
0
 62
     0
 10
64.6825
 20
27.5952
 30
0.0
 11
64.6825
 21
26.5948
 31
0.0
  0
LINE
  8
0
 62
     0
 10
64.6825
 20
26.5948
 30
0.0
 11
78.5329
 21
26.5948
 31
0.0
  0
LINE
  8
0
 62
     0
 10
78.5329
 20
26.5948
 30
0.0
 11
78.5329
 21
27.5952
 31
0.0
  0
LINE
  8
0
 62
     0
 10
78.5329
 20
27.5952
 30
0.0
 11
79.3323
 21
27.5952
 31
0.0
  0
LINE
  8
0
 62
     0
 10
79.3323
 20
27.5952
 30
0.0
 11
79.3323
 21
30.5456
 31
0.0
  0
LINE
  8
0
 62
     0
 10
79.3323
 20
30.5456
 30
0.0
 11
78.5329
 21
30.5456
 31
0.0
  0
LINE
  8
0
 62
     0
 10
78.5329
 20
30.5456
 30
0.0
 11
78.5329
 21
36.4959
 31
0.0
  0
LINE
  8
0
 62
     0
 10
78.5329
 20
36.4959
 30
0.0
 11
79.3323
 21
36.4959
 31
0.0
  0
LINE
  8
0
 62
     0
 10
79.3323
 20
36.4959
 30
0.0
 11
79.3323
 21
39.4451
 31
0.0
  0
LINE
  8
0
 62
     0
 10
79.3323
 20
39.4451
 30
0.0
 11
78.5329
 21
39.4451
 31
0.0
  0
LINE
  8
0
 62
     0
 10
78.5329
 20
39.4451
 30
0.0
 11
78.5329
 21
40.4453
 31
0.0
  0
LINE
  8
0
 62
     0
 10
78.5329
 20
40.4453
 30
0.0
 11
64.6825
 21
40.4453
 31
0.0
  0
LINE
  8
0
 62
     0
 10
45.6325
 20
40.4453
 30
0.0
 11
45.6325
 21
39.4451
 31
0.0
  0
LINE
  8
0
 62
     0
 10
45.6325
 20
39.4451
 30
0.0
 11
44.8331
 21
39.4451
 31
0.0
  0
LINE
  8
0
 62
     0
 10
44.8331
 20
39.4451
 30
0.0
 11
44.8331
 21
36.4959
 31
0.0
  0
LINE
  8
0
 62
     0
 10
44.8331
 20
36.4959
 30
0.0
 11
45.6325
 21
36.4959
 31
0.0
  0
LINE
  8
0
 62
     0
 10
45.6325
 20
36.4959
 30
0.0
 11
45.6325
 21
30.5456
 31
0.0
  0
LINE
  8
0
 62
     0
 10
45.6325
 20
30.5456
 30
0.0
 11
44.8331
 21
30.5456
 31
0.0
  0
LINE
  8
0
 62
     0
 10
44.8331
 20
30.5456
 30
0.0
 11
44.8331
 21
27.5952
 31
0.0
  0
LINE
  8
0
 62
     0
 10
44.8331
 20
27.5952
 30
0.0
 11
45.6325
 21
27.5952
 31
0.0
  0
LINE
  8
0
 62
     0
 10
45.6325
 20
27.5952
 30
0.0
 11
45.6325
 21
26.5948
 31
0.0
  0
LINE
  8
0
 62
     0
 10
45.6325
 20
26.5948
 30
0.0
 11
59.4829
 21
26.5948
 31
0.0
  0
LINE
  8
0
 62
     0
 10
59.4829
 20
26.5948
 30
0.0
 11
59.4829
 21
27.5952
 31
0.0
  0
LINE
  8
0
 62
     0
 10
59.4829
 20
27.5952
 30
0.0
 11
60.2823
 21
27.5952
 31
0.0
  0
LINE
  8
0
 62
     0
 10
60.2823
 20
27.5952
 30
0.0
 11
60.2823
 21
30.5456
 31
0.0
  0
LINE
  8
0
 62
     0
 10
60.2823
 20
30.5456
 30
0.0
 11
59.4829
 21
30.5456
 31
0.0
  0
LINE
  8
0
 62
     0
 10
59.4829
 20
30.5456
 30
0.0
 11
59.4829
 21
36.4959
 31
0.0
  0
LINE
  8
0
 62
     0
 10
59.4829
 20
36.4959
 30
0.0
 11
60.2823
 21
36.4959
 31
0.0
  0
LINE
  8
0
 62
     0
 10
60.2823
 20
36.4959
 30
0.0
 11
60.2823
 21
39.4451
 31
0.0
  0
LINE
  8
0
 62
     0
 10
60.2823
 20
39.4451
 30
0.0
 11
59.4829
 21
39.4451
 31
0.0
  0
LINE
  8
0
 62
     0
 10
59.4829
 20
39.4451
 30
0.0
 11
59.4829
 21
40.4453
 31
0.0
  0
LINE
  8
0
 62
     0
 10
59.4829
 20
40.4453
 30
0.0
 11
45.6325
 21
40.4453
 31
0.0
  0
LINE
  8
0
 62
     0
 10
257.564
 20
59.4953
 30
0.0
 11
257.564
 21
58.4951
 31
0.0
  0
LINE
  8
0
 62
     0
 10
257.564
 20
58.4951
 30
0.0
 11
256.763
 21
58.4951
 31
0.0
  0
LINE
  8
0
 62
     0
 10
256.763
 20
58.4951
 30
0.0
 11
256.763
 21
55.5459
 31
0.0
  0
LINE
  8
0
 62
     0
 10
256.763
 20
55.5459
 30
0.0
 11
257.564
 21
55.5459
 31
0.0
  0
LINE
  8
0
 62
     0
 10
257.564
 20
55.5459
 30
0.0
 11
257.564
 21
54.7949
 31
0.0
  0
LINE
  8
0
 62
     0
 10
257.564
 20
54.7949
 30
0.0
 11
255.888
 21
54.7949
 31
0.0
  0
LINE
  8
0
 62
     0
 10
255.888
 20
54.7949
 30
0.0
 11
255.888
 21
58.0249
 31
0.0
  0
LINE
  8
0
 62
     0
 10
255.888
 20
58.0249
 30
0.0
 11
249.289
 21
58.0249
 31
0.0
  0
LINE
  8
0
 62
     0
 10
249.289
 20
58.0249
 30
0.0
 11
249.289
 21
54.7949
 31
0.0
  0
LINE
  8
0
 62
     0
 10
249.289
 20
54.7949
 30
0.0
 11
248.463
 21
54.7949
 31
0.0
  0
LINE
  8
0
 62
     0
 10
248.463
 20
54.7949
 30
0.0
 11
248.463
 21
52.1451
 31
0.0
  0
LINE
  8
0
 62
     0
 10
248.463
 20
52.1451
 30
0.0
 11
249.289
 21
52.1451
 31
0.0
  0
LINE
  8
0
 62
     0
 10
249.289
 20
52.1451
 30
0.0
 11
249.289
 21
45.8749
 31
0.0
  0
LINE
  8
0
 62
     0
 10
249.289
 20
45.8749
 30
0.0
 11
251.014
 21
45.8749
 31
0.0
  0
LINE
  8
0
 62
     0
 10
251.014
 20
45.8749
 30
0.0
 11
251.014
 21
44.6747
 31
0.0
  0
LINE
  8
0
 62
     0
 10
251.014
 20
44.6747
 30
0.0
 11
254.163
 21
44.6747
 31
0.0
  0
LINE
  8
0
 62
     0
 10
254.163
 20
44.6747
 30
0.0
 11
254.163
 21
45.8749
 31
0.0
  0
LINE
  8
0
 62
     0
 10
254.163
 20
45.8749
 30
0.0
 11
255.888
 21
45.8749
 31
0.0
  0
LINE
  8
0
 62
     0
 10
255.888
 20
45.8749
 30
0.0
 11
255.888
 21
50.3453
 31
0.0
  0
LINE
  8
0
 62
     0
 10
255.888
 20
50.3453
 30
0.0
 11
257.564
 21
50.3453
 31
0.0
  0
LINE
  8
0
 62
     0
 10
257.564
 20
50.3453
 30
0.0
 11
257.564
 21
49.5956
 31
0.0
  0
LINE
  8
0
 62
     0
 10
257.564
 20
49.5956
 30
0.0
 11
256.763
 21
49.5956
 31
0.0
  0
LINE
  8
0
 62
     0
 10
256.763
 20
49.5956
 30
0.0
 11
256.763
 21
46.6453
 31
0.0
  0
LINE
  8
0
 62
     0
 10
256.763
 20
46.6453
 30
0.0
 11
257.564
 21
46.6453
 31
0.0
  0
LINE
  8
0
 62
     0
 10
257.564
 20
46.6453
 30
0.0
 11
257.564
 21
45.6449
 31
0.0
  0
LINE
  8
0
 62
     0
 10
257.564
 20
45.6449
 30
0.0
 11
271.413
 21
45.6449
 31
0.0
  0
LINE
  8
0
 62
     0
 10
271.413
 20
45.6449
 30
0.0
 11
271.413
 21
46.6453
 31
0.0
  0
LINE
  8
0
 62
     0
 10
271.413
 20
46.6453
 30
0.0
 11
272.214
 21
46.6453
 31
0.0
  0
LINE
  8
0
 62
     0
 10
272.214
 20
46.6453
 30
0.0
 11
272.214
 21
49.5956
 31
0.0
  0
LINE
  8
0
 62
     0
 10
272.214
 20
49.5956
 30
0.0
 11
271.413
 21
49.5956
 31
0.0
  0
LINE
  8
0
 62
     0
 10
271.413
 20
49.5956
 30
0.0
 11
271.413
 21
50.3453
 31
0.0
  0
LINE
  8
0
 62
     0
 10
271.413
 20
50.3453
 30
0.0
 11
273.088
 21
50.3453
 31
0.0
  0
LINE
  8
0
 62
     0
 10
273.088
 20
50.3453
 30
0.0
 11
273.088
 21
45.8749
 31
0.0
  0
LINE
  8
0
 62
     0
 10
273.088
 20
45.8749
 30
0.0
 11
274.814
 21
45.8749
 31
0.0
  0
LINE
  8
0
 62
     0
 10
274.814
 20
45.8749
 30
0.0
 11
274.814
 21
44.6747
 31
0.0
  0
LINE
  8
0
 62
     0
 10
274.814
 20
44.6747
 30
0.0
 11
277.964
 21
44.6747
 31
0.0
  0
LINE
  8
0
 62
     0
 10
277.964
 20
44.6747
 30
0.0
 11
277.964
 21
45.8749
 31
0.0
  0
LINE
  8
0
 62
     0
 10
277.964
 20
45.8749
 30
0.0
 11
279.688
 21
45.8749
 31
0.0
  0
LINE
  8
0
 62
     0
 10
279.688
 20
45.8749
 30
0.0
 11
279.688
 21
52.1451
 31
0.0
  0
LINE
  8
0
 62
     0
 10
279.688
 20
52.1451
 30
0.0
 11
280.513
 21
52.1451
 31
0.0
  0
LINE
  8
0
 62
     0
 10
280.513
 20
52.1451
 30
0.0
 11
280.513
 21
54.7949
 31
0.0
  0
LINE
  8
0
 62
     0
 10
280.513
 20
54.7949
 30
0.0
 11
279.688
 21
54.7949
 31
0.0
  0
LINE
  8
0
 62
     0
 10
279.688
 20
54.7949
 30
0.0
 11
279.688
 21
58.0249
 31
0.0
  0
LINE
  8
0
 62
     0
 10
279.688
 20
58.0249
 30
0.0
 11
273.088
 21
58.0249
 31
0.0
  0
LINE
  8
0
 62
     0
 10
273.088
 20
58.0249
 30
0.0
 11
273.088
 21
54.7949
 31
0.0
  0
LINE
  8
0
 62
     0
 10
273.088
 20
54.7949
 30
0.0
 11
271.413
 21
54.7949
 31
0.0
  0
LINE
  8
0
 62
     0
 10
271.413
 20
54.7949
 30
0.0
 11
271.413
 21
55.5459
 31
0.0
  0
LINE
  8
0
 62
     0
 10
271.413
 20
55.5459
 30
0.0
 11
272.214
 21
55.5459
 31
0.0
  0
LINE
  8
0
 62
     0
 10
272.214
 20
55.5459
 30
0.0
 11
272.214
 21
58.4951
 31
0.0
  0
LINE
  8
0
 62
     0
 10
272.214
 20
58.4951
 30
0.0
 11
271.413
 21
58.4951
 31
0.0
  0
LINE
  8
0
 62
     0
 10
271.413
 20
58.4951
 30
0.0
 11
271.413
 21
59.4953
 31
0.0
  0
LINE
  8
0
 62
     0
 10
271.413
 20
59.4953
 30
0.0
 11
257.564
 21
59.4953
 31
0.0
  0
LINE
  8
0
 62
     0
 10
226.608
 20
59.4953
 30
0.0
 11
226.608
 21
58.4951
 31
0.0
  0
LINE
  8
0
 62
     0
 10
226.608
 20
58.4951
 30
0.0
 11
225.808
 21
58.4951
 31
0.0
  0
LINE
  8
0
 62
     0
 10
225.808
 20
58.4951
 30
0.0
 11
225.808
 21
55.5459
 31
0.0
  0
LINE
  8
0
 62
     0
 10
225.808
 20
55.5459
 30
0.0
 11
226.608
 21
55.5459
 31
0.0
  0
LINE
  8
0
 62
     0
 10
226.608
 20
55.5459
 30
0.0
 11
226.608
 21
49.5956
 31
0.0
  0
LINE
  8
0
 62
     0
 10
226.608
 20
49.5956
 30
0.0
 11
225.808
 21
49.5956
 31
0.0
  0
LINE
  8
0
 62
     0
 10
225.808
 20
49.5956
 30
0.0
 11
225.808
 21
46.6453
 31
0.0
  0
LINE
  8
0
 62
     0
 10
225.808
 20
46.6453
 30
0.0
 11
226.608
 21
46.6453
 31
0.0
  0
LINE
  8
0
 62
     0
 10
226.608
 20
46.6453
 30
0.0
 11
226.608
 21
45.6449
 31
0.0
  0
LINE
  8
0
 62
     0
 10
226.608
 20
45.6449
 30
0.0
 11
240.458
 21
45.6449
 31
0.0
  0
LINE
  8
0
 62
     0
 10
240.458
 20
45.6449
 30
0.0
 11
240.458
 21
46.6453
 31
0.0
  0
LINE
  8
0
 62
     0
 10
240.458
 20
46.6453
 30
0.0
 11
241.257
 21
46.6453
 31
0.0
  0
LINE
  8
0
 62
     0
 10
241.257
 20
46.6453
 30
0.0
 11
241.257
 21
49.5956
 31
0.0
  0
LINE
  8
0
 62
     0
 10
241.257
 20
49.5956
 30
0.0
 11
240.458
 21
49.5956
 31
0.0
  0
LINE
  8
0
 62
     0
 10
240.458
 20
49.5956
 30
0.0
 11
240.458
 21
55.5459
 31
0.0
  0
LINE
  8
0
 62
     0
 10
240.458
 20
55.5459
 30
0.0
 11
241.257
 21
55.5459
 31
0.0
  0
LINE
  8
0
 62
     0
 10
241.257
 20
55.5459
 30
0.0
 11
241.257
 21
58.4951
 31
0.0
  0
LINE
  8
0
 62
     0
 10
241.257
 20
58.4951
 30
0.0
 11
240.458
 21
58.4951
 31
0.0
  0
LINE
  8
0
 62
     0
 10
240.458
 20
58.4951
 30
0.0
 11
240.458
 21
59.4953
 31
0.0
  0
LINE
  8
0
 62
     0
 10
240.458
 20
59.4953
 30
0.0
 11
226.608
 21
59.4953
 31
0.0
  0
LINE
  8
0
 62
     0
 10
207.558
 20
59.4953
 30
0.0
 11
207.558
 21
58.4951
 31
0.0
  0
LINE
  8
0
 62
     0
 10
207.558
 20
58.4951
 30
0.0
 11
206.758
 21
58.4951
 31
0.0
  0
LINE
  8
0
 62
     0
 10
206.758
 20
58.4951
 30
0.0
 11
206.758
 21
55.5459
 31
0.0
  0
LINE
  8
0
 62
     0
 10
206.758
 20
55.5459
 30
0.0
 11
207.558
 21
55.5459
 31
0.0
  0
LINE
  8
0
 62
     0
 10
207.558
 20
55.5459
 30
0.0
 11
207.558
 21
49.5956
 31
0.0
  0
LINE
  8
0
 62
     0
 10
207.558
 20
49.5956
 30
0.0
 11
206.758
 21
49.5956
 31
0.0
  0
LINE
  8
0
 62
     0
 10
206.758
 20
49.5956
 30
0.0
 11
206.758
 21
46.6453
 31
0.0
  0
LINE
  8
0
 62
     0
 10
206.758
 20
46.6453
 30
0.0
 11
207.558
 21
46.6453
 31
0.0
  0
LINE
  8
0
 62
     0
 10
207.558
 20
46.6453
 30
0.0
 11
207.558
 21
45.6449
 31
0.0
  0
LINE
  8
0
 62
     0
 10
207.558
 20
45.6449
 30
0.0
 11
221.408
 21
45.6449
 31
0.0
  0
LINE
  8
0
 62
     0
 10
221.408
 20
45.6449
 30
0.0
 11
221.408
 21
46.6453
 31
0.0
  0
LINE
  8
0
 62
     0
 10
221.408
 20
46.6453
 30
0.0
 11
222.207
 21
46.6453
 31
0.0
  0
LINE
  8
0
 62
     0
 10
222.207
 20
46.6453
 30
0.0
 11
222.207
 21
49.5956
 31
0.0
  0
LINE
  8
0
 62
     0
 10
222.207
 20
49.5956
 30
0.0
 11
221.408
 21
49.5956
 31
0.0
  0
LINE
  8
0
 62
     0
 10
221.408
 20
49.5956
 30
0.0
 11
221.408
 21
55.5459
 31
0.0
  0
LINE
  8
0
 62
     0
 10
221.408
 20
55.5459
 30
0.0
 11
222.207
 21
55.5459
 31
0.0
  0
LINE
  8
0
 62
     0
 10
222.207
 20
55.5459
 30
0.0
 11
222.207
 21
58.4951
 31
0.0
  0
LINE
  8
0
 62
     0
 10
222.207
 20
58.4951
 30
0.0
 11
221.408
 21
58.4951
 31
0.0
  0
LINE
  8
0
 62
     0
 10
221.408
 20
58.4951
 30
0.0
 11
221.408
 21
59.4953
 31
0.0
  0
LINE
  8
0
 62
     0
 10
221.408
 20
59.4953
 30
0.0
 11
207.558
 21
59.4953
 31
0.0
  0
LINE
  8
0
 62
     0
 10
188.508
 20
59.4953
 30
0.0
 11
188.508
 21
58.4951
 31
0.0
  0
LINE
  8
0
 62
     0
 10
188.508
 20
58.4951
 30
0.0
 11
187.708
 21
58.4951
 31
0.0
  0
LINE
  8
0
 62
     0
 10
187.708
 20
58.4951
 30
0.0
 11
187.708
 21
55.5459
 31
0.0
  0
LINE
  8
0
 62
     0
 10
187.708
 20
55.5459
 30
0.0
 11
188.508
 21
55.5459
 31
0.0
  0
LINE
  8
0
 62
     0
 10
188.508
 20
55.5459
 30
0.0
 11
188.508
 21
49.5956
 31
0.0
  0
LINE
  8
0
 62
     0
 10
188.508
 20
49.5956
 30
0.0
 11
187.708
 21
49.5956
 31
0.0
  0
LINE
  8
0
 62
     0
 10
187.708
 20
49.5956
 30
0.0
 11
187.708
 21
46.6453
 31
0.0
  0
LINE
  8
0
 62
     0
 10
187.708
 20
46.6453
 30
0.0
 11
188.508
 21
46.6453
 31
0.0
  0
LINE
  8
0
 62
     0
 10
188.508
 20
46.6453
 30
0.0
 11
188.508
 21
45.6449
 31
0.0
  0
LINE
  8
0
 62
     0
 10
188.508
 20
45.6449
 30
0.0
 11
202.358
 21
45.6449
 31
0.0
  0
LINE
  8
0
 62
     0
 10
202.358
 20
45.6449
 30
0.0
 11
202.358
 21
46.6453
 31
0.0
  0
LINE
  8
0
 62
     0
 10
202.358
 20
46.6453
 30
0.0
 11
203.157
 21
46.6453
 31
0.0
  0
LINE
  8
0
 62
     0
 10
203.157
 20
46.6453
 30
0.0
 11
203.157
 21
49.5956
 31
0.0
  0
LINE
  8
0
 62
     0
 10
203.157
 20
49.5956
 30
0.0
 11
202.358
 21
49.5956
 31
0.0
  0
LINE
  8
0
 62
     0
 10
202.358
 20
49.5956
 30
0.0
 11
202.358
 21
55.5459
 31
0.0
  0
LINE
  8
0
 62
     0
 10
202.358
 20
55.5459
 30
0.0
 11
203.157
 21
55.5459
 31
0.0
  0
LINE
  8
0
 62
     0
 10
203.157
 20
55.5459
 30
0.0
 11
203.157
 21
58.4951
 31
0.0
  0
LINE
  8
0
 62
     0
 10
203.157
 20
58.4951
 30
0.0
 11
202.358
 21
58.4951
 31
0.0
  0
LINE
  8
0
 62
     0
 10
202.358
 20
58.4951
 30
0.0
 11
202.358
 21
59.4953
 31
0.0
  0
LINE
  8
0
 62
     0
 10
202.358
 20
59.4953
 30
0.0
 11
188.508
 21
59.4953
 31
0.0
  0
LINE
  8
0
 62
     0
 10
169.458
 20
59.4953
 30
0.0
 11
169.458
 21
58.4951
 31
0.0
  0
LINE
  8
0
 62
     0
 10
169.458
 20
58.4951
 30
0.0
 11
168.658
 21
58.4951
 31
0.0
  0
LINE
  8
0
 62
     0
 10
168.658
 20
58.4951
 30
0.0
 11
168.658
 21
55.5459
 31
0.0
  0
LINE
  8
0
 62
     0
 10
168.658
 20
55.5459
 30
0.0
 11
169.458
 21
55.5459
 31
0.0
  0
LINE
  8
0
 62
     0
 10
169.458
 20
55.5459
 30
0.0
 11
169.458
 21
49.5956
 31
0.0
  0
LINE
  8
0
 62
     0
 10
169.458
 20
49.5956
 30
0.0
 11
168.658
 21
49.5956
 31
0.0
  0
LINE
  8
0
 62
     0
 10
168.658
 20
49.5956
 30
0.0
 11
168.658
 21
46.6453
 31
0.0
  0
LINE
  8
0
 62
     0
 10
168.658
 20
46.6453
 30
0.0
 11
169.458
 21
46.6453
 31
0.0
  0
LINE
  8
0
 62
     0
 10
169.458
 20
46.6453
 30
0.0
 11
169.458
 21
45.6449
 31
0.0
  0
LINE
  8
0
 62
     0
 10
169.458
 20
45.6449
 30
0.0
 11
183.308
 21
45.6449
 31
0.0
  0
LINE
  8
0
 62
     0
 10
183.308
 20
45.6449
 30
0.0
 11
183.308
 21
46.6453
 31
0.0
  0
LINE
  8
0
 62
     0
 10
183.308
 20
46.6453
 30
0.0
 11
184.107
 21
46.6453
 31
0.0
  0
LINE
  8
0
 62
     0
 10
184.107
 20
46.6453
 30
0.0
 11
184.107
 21
49.5956
 31
0.0
  0
LINE
  8
0
 62
     0
 10
184.107
 20
49.5956
 30
0.0
 11
183.308
 21
49.5956
 31
0.0
  0
LINE
  8
0
 62
     0
 10
183.308
 20
49.5956
 30
0.0
 11
183.308
 21
55.5459
 31
0.0
  0
LINE
  8
0
 62
     0
 10
183.308
 20
55.5459
 30
0.0
 11
184.107
 21
55.5459
 31
0.0
  0
LINE
  8
0
 62
     0
 10
184.107
 20
55.5459
 30
0.0
 11
184.107
 21
58.4951
 31
0.0
  0
LINE
  8
0
 62
     0
 10
184.107
 20
58.4951
 30
0.0
 11
183.308
 21
58.4951
 31
0.0
  0
LINE
  8
0
 62
     0
 10
183.308
 20
58.4951
 30
0.0
 11
183.308
 21
59.4953
 31
0.0
  0
LINE
  8
0
 62
     0
 10
183.308
 20
59.4953
 30
0.0
 11
169.458
 21
59.4953
 31
0.0
  0
LINE
  8
0
 62
     0
 10
150.408
 20
59.4953
 30
0.0
 11
150.408
 21
58.4951
 31
0.0
  0
LINE
  8
0
 62
     0
 10
150.408
 20
58.4951
 30
0.0
 11
149.608
 21
58.4951
 31
0.0
  0
LINE
  8
0
 62
     0
 10
149.608
 20
58.4951
 30
0.0
 11
149.608
 21
55.5459
 31
0.0
  0
LINE
  8
0
 62
     0
 10
149.608
 20
55.5459
 30
0.0
 11
150.408
 21
55.5459
 31
0.0
  0
LINE
  8
0
 62
     0
 10
150.408
 20
55.5459
 30
0.0
 11
150.408
 21
49.5956
 31
0.0
  0
LINE
  8
0
 62
     0
 10
150.408
 20
49.5956
 30
0.0
 11
149.608
 21
49.5956
 31
0.0
  0
LINE
  8
0
 62
     0
 10
149.608
 20
49.5956
 30
0.0
 11
149.608
 21
46.6453
 31
0.0
  0
LINE
  8
0
 62
     0
 10
149.608
 20
46.6453
 30
0.0
 11
150.408
 21
46.6453
 31
0.0
  0
LINE
  8
0
 62
     0
 10
150.408
 20
46.6453
 30
0.0
 11
150.408
 21
45.6449
 31
0.0
  0
LINE
  8
0
 62
     0
 10
150.408
 20
45.6449
 30
0.0
 11
164.258
 21
45.6449
 31
0.0
  0
LINE
  8
0
 62
     0
 10
164.258
 20
45.6449
 30
0.0
 11
164.258
 21
46.6453
 31
0.0
  0
LINE
  8
0
 62
     0
 10
164.258
 20
46.6453
 30
0.0
 11
165.057
 21
46.6453
 31
0.0
  0
LINE
  8
0
 62
     0
 10
165.057
 20
46.6453
 30
0.0
 11
165.057
 21
49.5956
 31
0.0
  0
LINE
  8
0
 62
     0
 10
165.057
 20
49.5956
 30
0.0
 11
164.258
 21
49.5956
 31
0.0
  0
LINE
  8
0
 62
     0
 10
164.258
 20
49.5956
 30
0.0
 11
164.258
 21
55.5459
 31
0.0
  0
LINE
  8
0
 62
     0
 10
164.258
 20
55.5459
 30
0.0
 11
165.057
 21
55.5459
 31
0.0
  0
LINE
  8
0
 62
     0
 10
165.057
 20
55.5459
 30
0.0
 11
165.057
 21
58.4951
 31
0.0
  0
LINE
  8
0
 62
     0
 10
165.057
 20
58.4951
 30
0.0
 11
164.258
 21
58.4951
 31
0.0
  0
LINE
  8
0
 62
     0
 10
164.258
 20
58.4951
 30
0.0
 11
164.258
 21
59.4953
 31
0.0
  0
LINE
  8
0
 62
     0
 10
164.258
 20
59.4953
 30
0.0
 11
150.408
 21
59.4953
 31
0.0
  0
LINE
  8
0
 62
     0
 10
131.358
 20
59.4953
 30
0.0
 11
131.358
 21
58.4951
 31
0.0
  0
LINE
  8
0
 62
     0
 10
131.358
 20
58.4951
 30
0.0
 11
130.558
 21
58.4951
 31
0.0
  0
LINE
  8
0
 62
     0
 10
130.558
 20
58.4951
 30
0.0
 11
130.558
 21
55.5459
 31
0.0
  0
LINE
  8
0
 62
     0
 10
130.558
 20
55.5459
 30
0.0
 11
131.358
 21
55.5459
 31
0.0
  0
LINE
  8
0
 62
     0
 10
131.358
 20
55.5459
 30
0.0
 11
131.358
 21
49.5956
 31
0.0
  0
LINE
  8
0
 62
     0
 10
131.358
 20
49.5956
 30
0.0
 11
130.558
 21
49.5956
 31
0.0
  0
LINE
  8
0
 62
     0
 10
130.558
 20
49.5956
 30
0.0
 11
130.558
 21
46.6453
 31
0.0
  0
LINE
  8
0
 62
     0
 10
130.558
 20
46.6453
 30
0.0
 11
131.358
 21
46.6453
 31
0.0
  0
LINE
  8
0
 62
     0
 10
131.358
 20
46.6453
 30
0.0
 11
131.358
 21
45.6449
 31
0.0
  0
LINE
  8
0
 62
     0
 10
131.358
 20
45.6449
 30
0.0
 11
145.208
 21
45.6449
 31
0.0
  0
LINE
  8
0
 62
     0
 10
145.208
 20
45.6449
 30
0.0
 11
145.208
 21
46.6453
 31
0.0
  0
LINE
  8
0
 62
     0
 10
145.208
 20
46.6453
 30
0.0
 11
146.007
 21
46.6453
 31
0.0
  0
LINE
  8
0
 62
     0
 10
146.007
 20
46.6453
 30
0.0
 11
146.007
 21
49.5956
 31
0.0
  0
LINE
  8
0
 62
     0
 10
146.007
 20
49.5956
 30
0.0
 11
145.208
 21
49.5956
 31
0.0
  0
LINE
  8
0
 62
     0
 10
145.208
 20
49.5956
 30
0.0
 11
145.208
 21
55.5459
 31
0.0
  0
LINE
  8
0
 62
     0
 10
145.208
 20
55.5459
 30
0.0
 11
146.007
 21
55.5459
 31
0.0
  0
LINE
  8
0
 62
     0
 10
146.007
 20
55.5459
 30
0.0
 11
146.007
 21
58.4951
 31
0.0
  0
LINE
  8
0
 62
     0
 10
146.007
 20
58.4951
 30
0.0
 11
145.208
 21
58.4951
 31
0.0
  0
LINE
  8
0
 62
     0
 10
145.208
 20
58.4951
 30
0.0
 11
145.208
 21
59.4953
 31
0.0
  0
LINE
  8
0
 62
     0
 10
145.208
 20
59.4953
 30
0.0
 11
131.358
 21
59.4953
 31
0.0
  0
LINE
  8
0
 62
     0
 10
112.308
 20
59.4953
 30
0.0
 11
112.308
 21
58.4951
 31
0.0
  0
LINE
  8
0
 62
     0
 10
112.308
 20
58.4951
 30
0.0
 11
111.508
 21
58.4951
 31
0.0
  0
LINE
  8
0
 62
     0
 10
111.508
 20
58.4951
 30
0.0
 11
111.508
 21
55.5459
 31
0.0
  0
LINE
  8
0
 62
     0
 10
111.508
 20
55.5459
 30
0.0
 11
112.308
 21
55.5459
 31
0.0
  0
LINE
  8
0
 62
     0
 10
112.308
 20
55.5459
 30
0.0
 11
112.308
 21
49.5956
 31
0.0
  0
LINE
  8
0
 62
     0
 10
112.308
 20
49.5956
 30
0.0
 11
111.508
 21
49.5956
 31
0.0
  0
LINE
  8
0
 62
     0
 10
111.508
 20
49.5956
 30
0.0
 11
111.508
 21
46.6453
 31
0.0
  0
LINE
  8
0
 62
     0
 10
111.508
 20
46.6453
 30
0.0
 11
112.308
 21
46.6453
 31
0.0
  0
LINE
  8
0
 62
     0
 10
112.308
 20
46.6453
 30
0.0
 11
112.308
 21
45.6449
 31
0.0
  0
LINE
  8
0
 62
     0
 10
112.308
 20
45.6449
 30
0.0
 11
126.158
 21
45.6449
 31
0.0
  0
LINE
  8
0
 62
     0
 10
126.158
 20
45.6449
 30
0.0
 11
126.158
 21
46.6453
 31
0.0
  0
LINE
  8
0
 62
     0
 10
126.158
 20
46.6453
 30
0.0
 11
126.957
 21
46.6453
 31
0.0
  0
LINE
  8
0
 62
     0
 10
126.957
 20
46.6453
 30
0.0
 11
126.957
 21
49.5956
 31
0.0
  0
LINE
  8
0
 62
     0
 10
126.957
 20
49.5956
 30
0.0
 11
126.158
 21
49.5956
 31
0.0
  0
LINE
  8
0
 62
     0
 10
126.158
 20
49.5956
 30
0.0
 11
126.158
 21
55.5459
 31
0.0
  0
LINE
  8
0
 62
     0
 10
126.158
 20
55.5459
 30
0.0
 11
126.957
 21
55.5459
 31
0.0
  0
LINE
  8
0
 62
     0
 10
126.957
 20
55.5459
 30
0.0
 11
126.957
 21
58.4951
 31
0.0
  0
LINE
  8
0
 62
     0
 10
126.957
 20
58.4951
 30
0.0
 11
126.158
 21
58.4951
 31
0.0
  0
LINE
  8
0
 62
     0
 10
126.158
 20
58.4951
 30
0.0
 11
126.158
 21
59.4953
 31
0.0
  0
LINE
  8
0
 62
     0
 10
126.158
 20
59.4953
 30
0.0
 11
112.308
 21
59.4953
 31
0.0
  0
LINE
  8
0
 62
     0
 10
93.2575
 20
59.4953
 30
0.0
 11
93.2575
 21
58.4951
 31
0.0
  0
LINE
  8
0
 62
     0
 10
93.2575
 20
58.4951
 30
0.0
 11
92.4581
 21
58.4951
 31
0.0
  0
LINE
  8
0
 62
     0
 10
92.4581
 20
58.4951
 30
0.0
 11
92.4581
 21
55.5459
 31
0.0
  0
LINE
  8
0
 62
     0
 10
92.4581
 20
55.5459
 30
0.0
 11
93.2575
 21
55.5459
 31
0.0
  0
LINE
  8
0
 62
     0
 10
93.2575
 20
55.5459
 30
0.0
 11
93.2575
 21
49.5956
 31
0.0
  0
LINE
  8
0
 62
     0
 10
93.2575
 20
49.5956
 30
0.0
 11
92.4581
 21
49.5956
 31
0.0
  0
LINE
  8
0
 62
     0
 10
92.4581
 20
49.5956
 30
0.0
 11
92.4581
 21
46.6453
 31
0.0
  0
LINE
  8
0
 62
     0
 10
92.4581
 20
46.6453
 30
0.0
 11
93.2575
 21
46.6453
 31
0.0
  0
LINE
  8
0
 62
     0
 10
93.2575
 20
46.6453
 30
0.0
 11
93.2575
 21
45.6449
 31
0.0
  0
LINE
  8
0
 62
     0
 10
93.2575
 20
45.6449
 30
0.0
 11
107.108
 21
45.6449
 31
0.0
  0
LINE
  8
0
 62
     0
 10
107.108
 20
45.6449
 30
0.0
 11
107.108
 21
46.6453
 31
0.0
  0
LINE
  8
0
 62
     0
 10
107.108
 20
46.6453
 30
0.0
 11
107.907
 21
46.6453
 31
0.0
  0
LINE
  8
0
 62
     0
 10
107.907
 20
46.6453
 30
0.0
 11
107.907
 21
49.5956
 31
0.0
  0
LINE
  8
0
 62
     0
 10
107.907
 20
49.5956
 30
0.0
 11
107.108
 21
49.5956
 31
0.0
  0
LINE
  8
0
 62
     0
 10
107.108
 20
49.5956
 30
0.0
 11
107.108
 21
55.5459
 31
0.0
  0
LINE
  8
0
 62
     0
 10
107.108
 20
55.5459
 30
0.0
 11
107.907
 21
55.5459
 31
0.0
  0
LINE
  8
0
 62
     0
 10
107.907
 20
55.5459
 30
0.0
 11
107.907
 21
58.4951
 31
0.0
  0
LINE
  8
0
 62
     0
 10
107.907
 20
58.4951
 30
0.0
 11
107.108
 21
58.4951
 31
0.0
  0
LINE
  8
0
 62
     0
 10
107.108
 20
58.4951
 30
0.0
 11
107.108
 21
59.4953
 31
0.0
  0
LINE
  8
0
 62
     0
 10
107.108
 20
59.4953
 30
0.0
 11
93.2575
 21
59.4953
 31
0.0
  0
LINE
  8
0
 62
     0
 10
74.2075
 20
59.4953
 30
0.0
 11
74.2075
 21
58.4951
 31
0.0
  0
LINE
  8
0
 62
     0
 10
74.2075
 20
58.4951
 30
0.0
 11
73.4081
 21
58.4951
 31
0.0
  0
LINE
  8
0
 62
     0
 10
73.4081
 20
58.4951
 30
0.0
 11
73.4081
 21
55.5459
 31
0.0
  0
LINE
  8
0
 62
     0
 10
73.4081
 20
55.5459
 30
0.0
 11
74.2075
 21
55.5459
 31
0.0
  0
LINE
  8
0
 62
     0
 10
74.2075
 20
55.5459
 30
0.0
 11
74.2075
 21
49.5956
 31
0.0
  0
LINE
  8
0
 62
     0
 10
74.2075
 20
49.5956
 30
0.0
 11
73.4081
 21
49.5956
 31
0.0
  0
LINE
  8
0
 62
     0
 10
73.4081
 20
49.5956
 30
0.0
 11
73.4081
 21
46.6453
 31
0.0
  0
LINE
  8
0
 62
     0
 10
73.4081
 20
46.6453
 30
0.0
 11
74.2075
 21
46.6453
 31
0.0
  0
LINE
  8
0
 62
     0
 10
74.2075
 20
46.6453
 30
0.0
 11
74.2075
 21
45.6449
 31
0.0
  0
LINE
  8
0
 62
     0
 10
74.2075
 20
45.6449
 30
0.0
 11
88.0579
 21
45.6449
 31
0.0
  0
LINE
  8
0
 62
     0
 10
88.0579
 20
45.6449
 30
0.0
 11
88.0579
 21
46.6453
 31
0.0
  0
LINE
  8
0
 62
     0
 10
88.0579
 20
46.6453
 30
0.0
 11
88.8573
 21
46.6453
 31
0.0
  0
LINE
  8
0
 62
     0
 10
88.8573
 20
46.6453
 30
0.0
 11
88.8573
 21
49.5956
 31
0.0
  0
LINE
  8
0
 62
     0
 10
88.8573
 20
49.5956
 30
0.0
 11
88.0579
 21
49.5956
 31
0.0
  0
LINE
  8
0
 62
     0
 10
88.0579
 20
49.5956
 30
0.0
 11
88.0579
 21
55.5459
 31
0.0
  0
LINE
  8
0
 62
     0
 10
88.0579
 20
55.5459
 30
0.0
 11
88.8573
 21
55.5459
 31
0.0
  0
LINE
  8
0
 62
     0
 10
88.8573
 20
55.5459
 30
0.0
 11
88.8573
 21
58.4951
 31
0.0
  0
LINE
  8
0
 62
     0
 10
88.8573
 20
58.4951
 30
0.0
 11
88.0579
 21
58.4951
 31
0.0
  0
LINE
  8
0
 62
     0
 10
88.0579
 20
58.4951
 30
0.0
 11
88.0579
 21
59.4953
 31
0.0
  0
LINE
  8
0
 62
     0
 10
88.0579
 20
59.4953
 30
0.0
 11
74.2075
 21
59.4953
 31
0.0
  0
LINE
  8
0
 62
     0
 10
55.1575
 20
59.4953
 30
0.0
 11
55.1575
 21
58.4951
 31
0.0
  0
LINE
  8
0
 62
     0
 10
55.1575
 20
58.4951
 30
0.0
 11
54.3581
 21
58.4951
 31
0.0
  0
LINE
  8
0
 62
     0
 10
54.3581
 20
58.4951
 30
0.0
 11
54.3581
 21
55.5459
 31
0.0
  0
LINE
  8
0
 62
     0
 10
54.3581
 20
55.5459
 30
0.0
 11
55.1575
 21
55.5459
 31
0.0
  0
LINE
  8
0
 62
     0
 10
55.1575
 20
55.5459
 30
0.0
 11
55.1575
 21
49.5956
 31
0.0
  0
LINE
  8
0
 62
     0
 10
55.1575
 20
49.5956
 30
0.0
 11
54.3581
 21
49.5956
 31
0.0
  0
LINE
  8
0
 62
     0
 10
54.3581
 20
49.5956
 30
0.0
 11
54.3581
 21
46.6453
 31
0.0
  0
LINE
  8
0
 62
     0
 10
54.3581
 20
46.6453
 30
0.0
 11
55.1575
 21
46.6453
 31
0.0
  0
LINE
  8
0
 62
     0
 10
55.1575
 20
46.6453
 30
0.0
 11
55.1575
 21
45.6449
 31
0.0
  0
LINE
  8
0
 62
     0
 10
55.1575
 20
45.6449
 30
0.0
 11
69.0079
 21
45.6449
 31
0.0
  0
LINE
  8
0
 62
     0
 10
69.0079
 20
45.6449
 30
0.0
 11
69.0079
 21
46.6453
 31
0.0
  0
LINE
  8
0
 62
     0
 10
69.0079
 20
46.6453
 30
0.0
 11
69.8073
 21
46.6453
 31
0.0
  0
LINE
  8
0
 62
     0
 10
69.8073
 20
46.6453
 30
0.0
 11
69.8073
 21
49.5956
 31
0.0
  0
LINE
  8
0
 62
     0
 10
69.8073
 20
49.5956
 30
0.0
 11
69.0079
 21
49.5956
 31
0.0
  0
LINE
  8
0
 62
     0
 10
69.0079
 20
49.5956
 30
0.0
 11
69.0079
 21
55.5459
 31
0.0
  0
LINE
  8
0
 62
     0
 10
69.0079
 20
55.5459
 30
0.0
 11
69.8073
 21
55.5459
 31
0.0
  0
LINE
  8
0
 62
     0
 10
69.8073
 20
55.5459
 30
0.0
 11
69.8073
 21
58.4951
 31
0.0
  0
LINE
  8
0
 62
     0
 10
69.8073
 20
58.4951
 30
0.0
 11
69.0079
 21
58.4951
 31
0.0
  0
LINE
  8
0
 62
     0
 10
69.0079
 20
58.4951
 30
0.0
 11
69.0079
 21
59.4953
 31
0.0
  0
LINE
  8
0
 62
     0
 10
69.0079
 20
59.4953
 30
0.0
 11
55.1575
 21
59.4953
 31
0.0
  0
LINE
  8
0
 62
     0
 10
36.1075
 20
59.4953
 30
0.0
 11
36.1075
 21
58.4951
 31
0.0
  0
LINE
  8
0
 62
     0
 10
36.1075
 20
58.4951
 30
0.0
 11
35.3081
 21
58.4951
 31
0.0
  0
LINE
  8
0
 62
     0
 10
35.3081
 20
58.4951
 30
0.0
 11
35.3081
 21
55.5459
 31
0.0
  0
LINE
  8
0
 62
     0
 10
35.3081
 20
55.5459
 30
0.0
 11
36.1075
 21
55.5459
 31
0.0
  0
LINE
  8
0
 62
     0
 10
36.1075
 20
55.5459
 30
0.0
 11
36.1075
 21
49.5956
 31
0.0
  0
LINE
  8
0
 62
     0
 10
36.1075
 20
49.5956
 30
0.0
 11
35.3081
 21
49.5956
 31
0.0
  0
LINE
  8
0
 62
     0
 10
35.3081
 20
49.5956
 30
0.0
 11
35.3081
 21
46.6453
 31
0.0
  0
LINE
  8
0
 62
     0
 10
35.3081
 20
46.6453
 30
0.0
 11
36.1075
 21
46.6453
 31
0.0
  0
LINE
  8
0
 62
     0
 10
36.1075
 20
46.6453
 30
0.0
 11
36.1075
 21
45.6449
 31
0.0
  0
LINE
  8
0
 62
     0
 10
36.1075
 20
45.6449
 30
0.0
 11
49.9579
 21
45.6449
 31
0.0
  0
LINE
  8
0
 62
     0
 10
49.9579
 20
45.6449
 30
0.0
 11
49.9579
 21
46.6453
 31
0.0
  0
LINE
  8
0
 62
     0
 10
49.9579
 20
46.6453
 30
0.0
 11
50.7573
 21
46.6453
 31
0.0
  0
LINE
  8
0
 62
     0
 10
50.7573
 20
46.6453
 30
0.0
 11
50.7573
 21
49.5956
 31
0.0
  0
LINE
  8
0
 62
     0
 10
50.7573
 20
49.5956
 30
0.0
 11
49.9579
 21
49.5956
 31
0.0
  0
LINE
  8
0
 62
     0
 10
49.9579
 20
49.5956
 30
0.0
 11
49.9579
 21
55.5459
 31
0.0
  0
LINE
  8
0
 62
     0
 10
49.9579
 20
55.5459
 30
0.0
 11
50.7573
 21
55.5459
 31
0.0
  0
LINE
  8
0
 62
     0
 10
50.7573
 20
55.5459
 30
0.0
 11
50.7573
 21
58.4951
 31
0.0
  0
LINE
  8
0
 62
     0
 10
50.7573
 20
58.4951
 30
0.0
 11
49.9579
 21
58.4951
 31
0.0
  0
LINE
  8
0
 62
     0
 10
49.9579
 20
58.4951
 30
0.0
 11
49.9579
 21
59.4953
 31
0.0
  0
LINE
  8
0
 62
     0
 10
49.9579
 20
59.4953
 30
0.0
 11
36.1075
 21
59.4953
 31
0.0
  0
LINE
  8
0
 62
     0
 10
9.91362
 20
59.4953
 30
0.0
 11
9.91362
 21
58.4951
 31
0.0
  0
LINE
  8
0
 62
     0
 10
9.91362
 20
58.4951
 30
0.0
 11
9.11296
 21
58.4951
 31
0.0
  0
LINE
  8
0
 62
     0
 10
9.11296
 20
58.4951
 30
0.0
 11
9.11296
 21
55.5459
 31
0.0
  0
LINE
  8
0
 62
     0
 10
9.11296
 20
55.5459
 30
0.0
 11
9.91362
 21
55.5459
 31
0.0
  0
LINE
  8
0
 62
     0
 10
9.91362
 20
55.5459
 30
0.0
 11
9.91362
 21
49.5956
 31
0.0
  0
LINE
  8
0
 62
     0
 10
9.91362
 20
49.5956
 30
0.0
 11
9.11296
 21
49.5956
 31
0.0
  0
LINE
  8
0
 62
     0
 10
9.11296
 20
49.5956
 30
0.0
 11
9.11296
 21
46.6453
 31
0.0
  0
LINE
  8
0
 62
     0
 10
9.11296
 20
46.6453
 30
0.0
 11
9.91362
 21
46.6453
 31
0.0
  0
LINE
  8
0
 62
     0
 10
9.91362
 20
46.6453
 30
0.0
 11
9.91362
 21
45.6449
 31
0.0
  0
LINE
  8
0
 62
     0
 10
9.91362
 20
45.6449
 30
0.0
 11
23.7629
 21
45.6449
 31
0.0
  0
LINE
  8
0
 62
     0
 10
23.7629
 20
45.6449
 30
0.0
 11
23.7629
 21
46.6453
 31
0.0
  0
LINE
  8
0
 62
     0
 10
23.7629
 20
46.6453
 30
0.0
 11
24.5635
 21
46.6453
 31
0.0
  0
LINE
  8
0
 62
     0
 10
24.5635
 20
46.6453
 30
0.0
 11
24.5635
 21
49.5956
 31
0.0
  0
LINE
  8
0
 62
     0
 10
24.5635
 20
49.5956
 30
0.0
 11
23.7629
 21
49.5956
 31
0.0
  0
LINE
  8
0
 62
     0
 10
23.7629
 20
49.5956
 30
0.0
 11
23.7629
 21
55.5459
 31
0.0
  0
LINE
  8
0
 62
     0
 10
23.7629
 20
55.5459
 30
0.0
 11
24.5635
 21
55.5459
 31
0.0
  0
LINE
  8
0
 62
     0
 10
24.5635
 20
55.5459
 30
0.0
 11
24.5635
 21
58.4951
 31
0.0
  0
LINE
  8
0
 62
     0
 10
24.5635
 20
58.4951
 30
0.0
 11
23.7629
 21
58.4951
 31
0.0
  0
LINE
  8
0
 62
     0
 10
23.7629
 20
58.4951
 30
0.0
 11
23.7629
 21
59.4953
 31
0.0
  0
LINE
  8
0
 62
     0
 10
23.7629
 20
59.4953
 30
0.0
 11
9.91362
 21
59.4953
 31
0.0
  0
LINE
  8
0
 62
     0
 10
264.708
 20
78.5453
 30
0.0
 11
264.708
 21
77.5451
 31
0.0
  0
LINE
  8
0
 62
     0
 10
264.708
 20
77.5451
 30
0.0
 11
263.908
 21
77.5451
 31
0.0
  0
LINE
  8
0
 62
     0
 10
263.908
 20
77.5451
 30
0.0
 11
263.908
 21
74.5959
 31
0.0
  0
LINE
  8
0
 62
     0
 10
263.908
 20
74.5959
 30
0.0
 11
264.708
 21
74.5959
 31
0.0
  0
LINE
  8
0
 62
     0
 10
264.708
 20
74.5959
 30
0.0
 11
264.708
 21
68.6456
 31
0.0
  0
LINE
  8
0
 62
     0
 10
264.708
 20
68.6456
 30
0.0
 11
263.908
 21
68.6456
 31
0.0
  0
LINE
  8
0
 62
     0
 10
263.908
 20
68.6456
 30
0.0
 11
263.908
 21
65.6953
 31
0.0
  0
LINE
  8
0
 62
     0
 10
263.908
 20
65.6953
 30
0.0
 11
264.708
 21
65.6953
 31
0.0
  0
LINE
  8
0
 62
     0
 10
264.708
 20
65.6953
 30
0.0
 11
264.708
 21
64.6949
 31
0.0
  0
LINE
  8
0
 62
     0
 10
264.708
 20
64.6949
 30
0.0
 11
278.558
 21
64.6949
 31
0.0
  0
LINE
  8
0
 62
     0
 10
278.558
 20
64.6949
 30
0.0
 11
278.558
 21
65.6953
 31
0.0
  0
LINE
  8
0
 62
     0
 10
278.558
 20
65.6953
 30
0.0
 11
279.357
 21
65.6953
 31
0.0
  0
LINE
  8
0
 62
     0
 10
279.357
 20
65.6953
 30
0.0
 11
279.357
 21
68.6456
 31
0.0
  0
LINE
  8
0
 62
     0
 10
279.357
 20
68.6456
 30
0.0
 11
278.558
 21
68.6456
 31
0.0
  0
LINE
  8
0
 62
     0
 10
278.558
 20
68.6456
 30
0.0
 11
278.558
 21
74.5959
 31
0.0
  0
LINE
  8
0
 62
     0
 10
278.558
 20
74.5959
 30
0.0
 11
279.357
 21
74.5959
 31
0.0
  0
LINE
  8
0
 62
     0
 10
279.357
 20
74.5959
 30
0.0
 11
279.357
 21
77.5451
 31
0.0
  0
LINE
  8
0
 62
     0
 10
279.357
 20
77.5451
 30
0.0
 11
278.558
 21
77.5451
 31
0.0
  0
LINE
  8
0
 62
     0
 10
278.558
 20
77.5451
 30
0.0
 11
278.558
 21
78.5453
 31
0.0
  0
LINE
  8
0
 62
     0
 10
278.558
 20
78.5453
 30
0.0
 11
264.708
 21
78.5453
 31
0.0
  0
LINE
  8
0
 62
     0
 10
240.895
 20
78.5453
 30
0.0
 11
240.895
 21
77.5451
 31
0.0
  0
LINE
  8
0
 62
     0
 10
240.895
 20
77.5451
 30
0.0
 11
240.096
 21
77.5451
 31
0.0
  0
LINE
  8
0
 62
     0
 10
240.096
 20
77.5451
 30
0.0
 11
240.096
 21
74.5959
 31
0.0
  0
LINE
  8
0
 62
     0
 10
240.096
 20
74.5959
 30
0.0
 11
240.895
 21
74.5959
 31
0.0
  0
LINE
  8
0
 62
     0
 10
240.895
 20
74.5959
 30
0.0
 11
240.895
 21
68.6456
 31
0.0
  0
LINE
  8
0
 62
     0
 10
240.895
 20
68.6456
 30
0.0
 11
240.096
 21
68.6456
 31
0.0
  0
LINE
  8
0
 62
     0
 10
240.096
 20
68.6456
 30
0.0
 11
240.096
 21
65.6953
 31
0.0
  0
LINE
  8
0
 62
     0
 10
240.096
 20
65.6953
 30
0.0
 11
240.895
 21
65.6953
 31
0.0
  0
LINE
  8
0
 62
     0
 10
240.895
 20
65.6953
 30
0.0
 11
240.895
 21
64.6949
 31
0.0
  0
LINE
  8
0
 62
     0
 10
240.895
 20
64.6949
 30
0.0
 11
254.744
 21
64.6949
 31
0.0
  0
LINE
  8
0
 62
     0
 10
254.744
 20
64.6949
 30
0.0
 11
254.744
 21
65.6953
 31
0.0
  0
LINE
  8
0
 62
     0
 10
254.744
 20
65.6953
 30
0.0
 11
255.546
 21
65.6953
 31
0.0
  0
LINE
  8
0
 62
     0
 10
255.546
 20
65.6953
 30
0.0
 11
255.546
 21
68.6456
 31
0.0
  0
LINE
  8
0
 62
     0
 10
255.546
 20
68.6456
 30
0.0
 11
254.744
 21
68.6456
 31
0.0
  0
LINE
  8
0
 62
     0
 10
254.744
 20
68.6456
 30
0.0
 11
254.744
 21
74.5959
 31
0.0
  0
LINE
  8
0
 62
     0
 10
254.744
 20
74.5959
 30
0.0
 11
255.546
 21
74.5959
 31
0.0
  0
LINE
  8
0
 62
     0
 10
255.546
 20
74.5959
 30
0.0
 11
255.546
 21
77.5451
 31
0.0
  0
LINE
  8
0
 62
     0
 10
255.546
 20
77.5451
 30
0.0
 11
254.744
 21
77.5451
 31
0.0
  0
LINE
  8
0
 62
     0
 10
254.744
 20
77.5451
 30
0.0
 11
254.744
 21
78.5453
 31
0.0
  0
LINE
  8
0
 62
     0
 10
254.744
 20
78.5453
 30
0.0
 11
240.895
 21
78.5453
 31
0.0
  0
LINE
  8
0
 62
     0
 10
221.845
 20
78.5453
 30
0.0
 11
221.845
 21
77.5451
 31
0.0
  0
LINE
  8
0
 62
     0
 10
221.845
 20
77.5451
 30
0.0
 11
221.046
 21
77.5451
 31
0.0
  0
LINE
  8
0
 62
     0
 10
221.046
 20
77.5451
 30
0.0
 11
221.046
 21
74.5959
 31
0.0
  0
LINE
  8
0
 62
     0
 10
221.046
 20
74.5959
 30
0.0
 11
221.845
 21
74.5959
 31
0.0
  0
LINE
  8
0
 62
     0
 10
221.845
 20
74.5959
 30
0.0
 11
221.845
 21
68.6456
 31
0.0
  0
LINE
  8
0
 62
     0
 10
221.845
 20
68.6456
 30
0.0
 11
221.046
 21
68.6456
 31
0.0
  0
LINE
  8
0
 62
     0
 10
221.046
 20
68.6456
 30
0.0
 11
221.046
 21
65.6953
 31
0.0
  0
LINE
  8
0
 62
     0
 10
221.046
 20
65.6953
 30
0.0
 11
221.845
 21
65.6953
 31
0.0
  0
LINE
  8
0
 62
     0
 10
221.845
 20
65.6953
 30
0.0
 11
221.845
 21
64.6949
 31
0.0
  0
LINE
  8
0
 62
     0
 10
221.845
 20
64.6949
 30
0.0
 11
235.695
 21
64.6949
 31
0.0
  0
LINE
  8
0
 62
     0
 10
235.695
 20
64.6949
 30
0.0
 11
235.695
 21
65.6953
 31
0.0
  0
LINE
  8
0
 62
     0
 10
235.695
 20
65.6953
 30
0.0
 11
236.496
 21
65.6953
 31
0.0
  0
LINE
  8
0
 62
     0
 10
236.496
 20
65.6953
 30
0.0
 11
236.496
 21
68.6456
 31
0.0
  0
LINE
  8
0
 62
     0
 10
236.496
 20
68.6456
 30
0.0
 11
235.695
 21
68.6456
 31
0.0
  0
LINE
  8
0
 62
     0
 10
235.695
 20
68.6456
 30
0.0
 11
235.695
 21
74.5959
 31
0.0
  0
LINE
  8
0
 62
     0
 10
235.695
 20
74.5959
 30
0.0
 11
236.496
 21
74.5959
 31
0.0
  0
LINE
  8
0
 62
     0
 10
236.496
 20
74.5959
 30
0.0
 11
236.496
 21
77.5451
 31
0.0
  0
LINE
  8
0
 62
     0
 10
236.496
 20
77.5451
 30
0.0
 11
235.695
 21
77.5451
 31
0.0
  0
LINE
  8
0
 62
     0
 10
235.695
 20
77.5451
 30
0.0
 11
235.695
 21
78.5453
 31
0.0
  0
LINE
  8
0
 62
     0
 10
235.695
 20
78.5453
 30
0.0
 11
221.845
 21
78.5453
 31
0.0
  0
LINE
  8
0
 62
     0
 10
202.795
 20
78.5453
 30
0.0
 11
202.795
 21
77.5451
 31
0.0
  0
LINE
  8
0
 62
     0
 10
202.795
 20
77.5451
 30
0.0
 11
201.996
 21
77.5451
 31
0.0
  0
LINE
  8
0
 62
     0
 10
201.996
 20
77.5451
 30
0.0
 11
201.996
 21
74.5959
 31
0.0
  0
LINE
  8
0
 62
     0
 10
201.996
 20
74.5959
 30
0.0
 11
202.795
 21
74.5959
 31
0.0
  0
LINE
  8
0
 62
     0
 10
202.795
 20
74.5959
 30
0.0
 11
202.795
 21
68.6456
 31
0.0
  0
LINE
  8
0
 62
     0
 10
202.795
 20
68.6456
 30
0.0
 11
201.996
 21
68.6456
 31
0.0
  0
LINE
  8
0
 62
     0
 10
201.996
 20
68.6456
 30
0.0
 11
201.996
 21
65.6953
 31
0.0
  0
LINE
  8
0
 62
     0
 10
201.996
 20
65.6953
 30
0.0
 11
202.795
 21
65.6953
 31
0.0
  0
LINE
  8
0
 62
     0
 10
202.795
 20
65.6953
 30
0.0
 11
202.795
 21
64.6949
 31
0.0
  0
LINE
  8
0
 62
     0
 10
202.795
 20
64.6949
 30
0.0
 11
216.645
 21
64.6949
 31
0.0
  0
LINE
  8
0
 62
     0
 10
216.645
 20
64.6949
 30
0.0
 11
216.645
 21
65.6953
 31
0.0
  0
LINE
  8
0
 62
     0
 10
216.645
 20
65.6953
 30
0.0
 11
217.446
 21
65.6953
 31
0.0
  0
LINE
  8
0
 62
     0
 10
217.446
 20
65.6953
 30
0.0
 11
217.446
 21
68.6456
 31
0.0
  0
LINE
  8
0
 62
     0
 10
217.446
 20
68.6456
 30
0.0
 11
216.645
 21
68.6456
 31
0.0
  0
LINE
  8
0
 62
     0
 10
216.645
 20
68.6456
 30
0.0
 11
216.645
 21
74.5959
 31
0.0
  0
LINE
  8
0
 62
     0
 10
216.645
 20
74.5959
 30
0.0
 11
217.446
 21
74.5959
 31
0.0
  0
LINE
  8
0
 62
     0
 10
217.446
 20
74.5959
 30
0.0
 11
217.446
 21
77.5451
 31
0.0
  0
LINE
  8
0
 62
     0
 10
217.446
 20
77.5451
 30
0.0
 11
216.645
 21
77.5451
 31
0.0
  0
LINE
  8
0
 62
     0
 10
216.645
 20
77.5451
 30
0.0
 11
216.645
 21
78.5453
 31
0.0
  0
LINE
  8
0
 62
     0
 10
216.645
 20
78.5453
 30
0.0
 11
202.795
 21
78.5453
 31
0.0
  0
LINE
  8
0
 62
     0
 10
183.745
 20
78.5453
 30
0.0
 11
183.745
 21
77.5451
 31
0.0
  0
LINE
  8
0
 62
     0
 10
183.745
 20
77.5451
 30
0.0
 11
182.946
 21
77.5451
 31
0.0
  0
LINE
  8
0
 62
     0
 10
182.946
 20
77.5451
 30
0.0
 11
182.946
 21
74.5959
 31
0.0
  0
LINE
  8
0
 62
     0
 10
182.946
 20
74.5959
 30
0.0
 11
183.745
 21
74.5959
 31
0.0
  0
LINE
  8
0
 62
     0
 10
183.745
 20
74.5959
 30
0.0
 11
183.745
 21
68.6456
 31
0.0
  0
LINE
  8
0
 62
     0
 10
183.745
 20
68.6456
 30
0.0
 11
182.946
 21
68.6456
 31
0.0
  0
LINE
  8
0
 62
     0
 10
182.946
 20
68.6456
 30
0.0
 11
182.946
 21
65.6953
 31
0.0
  0
LINE
  8
0
 62
     0
 10
182.946
 20
65.6953
 30
0.0
 11
183.745
 21
65.6953
 31
0.0
  0
LINE
  8
0
 62
     0
 10
183.745
 20
65.6953
 30
0.0
 11
183.745
 21
64.6949
 31
0.0
  0
LINE
  8
0
 62
     0
 10
183.745
 20
64.6949
 30
0.0
 11
197.595
 21
64.6949
 31
0.0
  0
LINE
  8
0
 62
     0
 10
197.595
 20
64.6949
 30
0.0
 11
197.595
 21
65.6953
 31
0.0
  0
LINE
  8
0
 62
     0
 10
197.595
 20
65.6953
 30
0.0
 11
198.396
 21
65.6953
 31
0.0
  0
LINE
  8
0
 62
     0
 10
198.396
 20
65.6953
 30
0.0
 11
198.396
 21
68.6456
 31
0.0
  0
LINE
  8
0
 62
     0
 10
198.396
 20
68.6456
 30
0.0
 11
197.595
 21
68.6456
 31
0.0
  0
LINE
  8
0
 62
     0
 10
197.595
 20
68.6456
 30
0.0
 11
197.595
 21
74.5959
 31
0.0
  0
LINE
  8
0
 62
     0
 10
197.595
 20
74.5959
 30
0.0
 11
198.396
 21
74.5959
 31
0.0
  0
LINE
  8
0
 62
     0
 10
198.396
 20
74.5959
 30
0.0
 11
198.396
 21
77.5451
 31
0.0
  0
LINE
  8
0
 62
     0
 10
198.396
 20
77.5451
 30
0.0
 11
197.595
 21
77.5451
 31
0.0
  0
LINE
  8
0
 62
     0
 10
197.595
 20
77.5451
 30
0.0
 11
197.595
 21
78.5453
 31
0.0
  0
LINE
  8
0
 62
     0
 10
197.595
 20
78.5453
 30
0.0
 11
183.745
 21
78.5453
 31
0.0
  0
LINE
  8
0
 62
     0
 10
164.695
 20
78.5453
 30
0.0
 11
164.695
 21
77.5451
 31
0.0
  0
LINE
  8
0
 62
     0
 10
164.695
 20
77.5451
 30
0.0
 11
163.896
 21
77.5451
 31
0.0
  0
LINE
  8
0
 62
     0
 10
163.896
 20
77.5451
 30
0.0
 11
163.896
 21
74.5959
 31
0.0
  0
LINE
  8
0
 62
     0
 10
163.896
 20
74.5959
 30
0.0
 11
164.695
 21
74.5959
 31
0.0
  0
LINE
  8
0
 62
     0
 10
164.695
 20
74.5959
 30
0.0
 11
164.695
 21
68.6456
 31
0.0
  0
LINE
  8
0
 62
     0
 10
164.695
 20
68.6456
 30
0.0
 11
163.896
 21
68.6456
 31
0.0
  0
LINE
  8
0
 62
     0
 10
163.896
 20
68.6456
 30
0.0
 11
163.896
 21
65.6953
 31
0.0
  0
LINE
  8
0
 62
     0
 10
163.896
 20
65.6953
 30
0.0
 11
164.695
 21
65.6953
 31
0.0
  0
LINE
  8
0
 62
     0
 10
164.695
 20
65.6953
 30
0.0
 11
164.695
 21
64.6949
 31
0.0
  0
LINE
  8
0
 62
     0
 10
164.695
 20
64.6949
 30
0.0
 11
178.545
 21
64.6949
 31
0.0
  0
LINE
  8
0
 62
     0
 10
178.545
 20
64.6949
 30
0.0
 11
178.545
 21
65.6953
 31
0.0
  0
LINE
  8
0
 62
     0
 10
178.545
 20
65.6953
 30
0.0
 11
179.346
 21
65.6953
 31
0.0
  0
LINE
  8
0
 62
     0
 10
179.346
 20
65.6953
 30
0.0
 11
179.346
 21
68.6456
 31
0.0
  0
LINE
  8
0
 62
     0
 10
179.346
 20
68.6456
 30
0.0
 11
178.545
 21
68.6456
 31
0.0
  0
LINE
  8
0
 62
     0
 10
178.545
 20
68.6456
 30
0.0
 11
178.545
 21
74.5959
 31
0.0
  0
LINE
  8
0
 62
     0
 10
178.545
 20
74.5959
 30
0.0
 11
179.346
 21
74.5959
 31
0.0
  0
LINE
  8
0
 62
     0
 10
179.346
 20
74.5959
 30
0.0
 11
179.346
 21
77.5451
 31
0.0
  0
LINE
  8
0
 62
     0
 10
179.346
 20
77.5451
 30
0.0
 11
178.545
 21
77.5451
 31
0.0
  0
LINE
  8
0
 62
     0
 10
178.545
 20
77.5451
 30
0.0
 11
178.545
 21
78.5453
 31
0.0
  0
LINE
  8
0
 62
     0
 10
178.545
 20
78.5453
 30
0.0
 11
164.695
 21
78.5453
 31
0.0
  0
LINE
  8
0
 62
     0
 10
145.645
 20
78.5453
 30
0.0
 11
145.645
 21
77.5451
 31
0.0
  0
LINE
  8
0
 62
     0
 10
145.645
 20
77.5451
 30
0.0
 11
144.846
 21
77.5451
 31
0.0
  0
LINE
  8
0
 62
     0
 10
144.846
 20
77.5451
 30
0.0
 11
144.846
 21
74.5959
 31
0.0
  0
LINE
  8
0
 62
     0
 10
144.846
 20
74.5959
 30
0.0
 11
145.645
 21
74.5959
 31
0.0
  0
LINE
  8
0
 62
     0
 10
145.645
 20
74.5959
 30
0.0
 11
145.645
 21
68.6456
 31
0.0
  0
LINE
  8
0
 62
     0
 10
145.645
 20
68.6456
 30
0.0
 11
144.846
 21
68.6456
 31
0.0
  0
LINE
  8
0
 62
     0
 10
144.846
 20
68.6456
 30
0.0
 11
144.846
 21
65.6953
 31
0.0
  0
LINE
  8
0
 62
     0
 10
144.846
 20
65.6953
 30
0.0
 11
145.645
 21
65.6953
 31
0.0
  0
LINE
  8
0
 62
     0
 10
145.645
 20
65.6953
 30
0.0
 11
145.645
 21
64.6949
 31
0.0
  0
LINE
  8
0
 62
     0
 10
145.645
 20
64.6949
 30
0.0
 11
159.495
 21
64.6949
 31
0.0
  0
LINE
  8
0
 62
     0
 10
159.495
 20
64.6949
 30
0.0
 11
159.495
 21
65.6953
 31
0.0
  0
LINE
  8
0
 62
     0
 10
159.495
 20
65.6953
 30
0.0
 11
160.296
 21
65.6953
 31
0.0
  0
LINE
  8
0
 62
     0
 10
160.296
 20
65.6953
 30
0.0
 11
160.296
 21
68.6456
 31
0.0
  0
LINE
  8
0
 62
     0
 10
160.296
 20
68.6456
 30
0.0
 11
159.495
 21
68.6456
 31
0.0
  0
LINE
  8
0
 62
     0
 10
159.495
 20
68.6456
 30
0.0
 11
159.495
 21
74.5959
 31
0.0
  0
LINE
  8
0
 62
     0
 10
159.495
 20
74.5959
 30
0.0
 11
160.296
 21
74.5959
 31
0.0
  0
LINE
  8
0
 62
     0
 10
160.296
 20
74.5959
 30
0.0
 11
160.296
 21
77.5451
 31
0.0
  0
LINE
  8
0
 62
     0
 10
160.296
 20
77.5451
 30
0.0
 11
159.495
 21
77.5451
 31
0.0
  0
LINE
  8
0
 62
     0
 10
159.495
 20
77.5451
 30
0.0
 11
159.495
 21
78.5453
 31
0.0
  0
LINE
  8
0
 62
     0
 10
159.495
 20
78.5453
 30
0.0
 11
145.645
 21
78.5453
 31
0.0
  0
LINE
  8
0
 62
     0
 10
126.595
 20
78.5453
 30
0.0
 11
126.595
 21
77.5451
 31
0.0
  0
LINE
  8
0
 62
     0
 10
126.595
 20
77.5451
 30
0.0
 11
125.794
 21
77.5451
 31
0.0
  0
LINE
  8
0
 62
     0
 10
125.794
 20
77.5451
 30
0.0
 11
125.794
 21
74.5959
 31
0.0
  0
LINE
  8
0
 62
     0
 10
125.794
 20
74.5959
 30
0.0
 11
126.595
 21
74.5959
 31
0.0
  0
LINE
  8
0
 62
     0
 10
126.595
 20
74.5959
 30
0.0
 11
126.595
 21
68.6456
 31
0.0
  0
LINE
  8
0
 62
     0
 10
126.595
 20
68.6456
 30
0.0
 11
125.794
 21
68.6456
 31
0.0
  0
LINE
  8
0
 62
     0
 10
125.794
 20
68.6456
 30
0.0
 11
125.794
 21
65.6953
 31
0.0
  0
LINE
  8
0
 62
     0
 10
125.794
 20
65.6953
 30
0.0
 11
126.595
 21
65.6953
 31
0.0
  0
LINE
  8
0
 62
     0
 10
126.595
 20
65.6953
 30
0.0
 11
126.595
 21
64.6949
 31
0.0
  0
LINE
  8
0
 62
     0
 10
126.595
 20
64.6949
 30
0.0
 11
140.445
 21
64.6949
 31
0.0
  0
LINE
  8
0
 62
     0
 10
140.445
 20
64.6949
 30
0.0
 11
140.445
 21
65.6953
 31
0.0
  0
LINE
  8
0
 62
     0
 10
140.445
 20
65.6953
 30
0.0
 11
141.245
 21
65.6953
 31
0.0
  0
LINE
  8
0
 62
     0
 10
141.245
 20
65.6953
 30
0.0
 11
141.245
 21
68.6456
 31
0.0
  0
LINE
  8
0
 62
     0
 10
141.245
 20
68.6456
 30
0.0
 11
140.445
 21
68.6456
 31
0.0
  0
LINE
  8
0
 62
     0
 10
140.445
 20
68.6456
 30
0.0
 11
140.445
 21
74.5959
 31
0.0
  0
LINE
  8
0
 62
     0
 10
140.445
 20
74.5959
 30
0.0
 11
141.245
 21
74.5959
 31
0.0
  0
LINE
  8
0
 62
     0
 10
141.245
 20
74.5959
 30
0.0
 11
141.245
 21
77.5451
 31
0.0
  0
LINE
  8
0
 62
     0
 10
141.245
 20
77.5451
 30
0.0
 11
140.445
 21
77.5451
 31
0.0
  0
LINE
  8
0
 62
     0
 10
140.445
 20
77.5451
 30
0.0
 11
140.445
 21
78.5453
 31
0.0
  0
LINE
  8
0
 62
     0
 10
140.445
 20
78.5453
 30
0.0
 11
126.595
 21
78.5453
 31
0.0
  0
LINE
  8
0
 62
     0
 10
107.545
 20
78.5453
 30
0.0
 11
107.545
 21
77.5451
 31
0.0
  0
LINE
  8
0
 62
     0
 10
107.545
 20
77.5451
 30
0.0
 11
106.744
 21
77.5451
 31
0.0
  0
LINE
  8
0
 62
     0
 10
106.744
 20
77.5451
 30
0.0
 11
106.744
 21
74.5959
 31
0.0
  0
LINE
  8
0
 62
     0
 10
106.744
 20
74.5959
 30
0.0
 11
107.545
 21
74.5959
 31
0.0
  0
LINE
  8
0
 62
     0
 10
107.545
 20
74.5959
 30
0.0
 11
107.545
 21
68.6456
 31
0.0
  0
LINE
  8
0
 62
     0
 10
107.545
 20
68.6456
 30
0.0
 11
106.744
 21
68.6456
 31
0.0
  0
LINE
  8
0
 62
     0
 10
106.744
 20
68.6456
 30
0.0
 11
106.744
 21
65.6953
 31
0.0
  0
LINE
  8
0
 62
     0
 10
106.744
 20
65.6953
 30
0.0
 11
107.545
 21
65.6953
 31
0.0
  0
LINE
  8
0
 62
     0
 10
107.545
 20
65.6953
 30
0.0
 11
107.545
 21
64.6949
 31
0.0
  0
LINE
  8
0
 62
     0
 10
107.545
 20
64.6949
 30
0.0
 11
121.394
 21
64.6949
 31
0.0
  0
LINE
  8
0
 62
     0
 10
121.394
 20
64.6949
 30
0.0
 11
121.394
 21
65.6953
 31
0.0
  0
LINE
  8
0
 62
     0
 10
121.394
 20
65.6953
 30
0.0
 11
122.195
 21
65.6953
 31
0.0
  0
LINE
  8
0
 62
     0
 10
122.195
 20
65.6953
 30
0.0
 11
122.195
 21
68.6456
 31
0.0
  0
LINE
  8
0
 62
     0
 10
122.195
 20
68.6456
 30
0.0
 11
121.394
 21
68.6456
 31
0.0
  0
LINE
  8
0
 62
     0
 10
121.394
 20
68.6456
 30
0.0
 11
121.394
 21
74.5959
 31
0.0
  0
LINE
  8
0
 62
     0
 10
121.394
 20
74.5959
 30
0.0
 11
122.195
 21
74.5959
 31
0.0
  0
LINE
  8
0
 62
     0
 10
122.195
 20
74.5959
 30
0.0
 11
122.195
 21
77.5451
 31
0.0
  0
LINE
  8
0
 62
     0
 10
122.195
 20
77.5451
 30
0.0
 11
121.394
 21
77.5451
 31
0.0
  0
LINE
  8
0
 62
     0
 10
121.394
 20
77.5451
 30
0.0
 11
121.394
 21
78.5453
 31
0.0
  0
LINE
  8
0
 62
     0
 10
121.394
 20
78.5453
 30
0.0
 11
107.545
 21
78.5453
 31
0.0
  0
LINE
  8
0
 62
     0
 10
88.495
 20
78.5453
 30
0.0
 11
88.495
 21
77.5451
 31
0.0
  0
LINE
  8
0
 62
     0
 10
88.495
 20
77.5451
 30
0.0
 11
87.6956
 21
77.5451
 31
0.0
  0
LINE
  8
0
 62
     0
 10
87.6956
 20
77.5451
 30
0.0
 11
87.6956
 21
74.5959
 31
0.0
  0
LINE
  8
0
 62
     0
 10
87.6956
 20
74.5959
 30
0.0
 11
88.495
 21
74.5959
 31
0.0
  0
LINE
  8
0
 62
     0
 10
88.495
 20
74.5959
 30
0.0
 11
88.495
 21
68.6456
 31
0.0
  0
LINE
  8
0
 62
     0
 10
88.495
 20
68.6456
 30
0.0
 11
87.6956
 21
68.6456
 31
0.0
  0
LINE
  8
0
 62
     0
 10
87.6956
 20
68.6456
 30
0.0
 11
87.6956
 21
65.6953
 31
0.0
  0
LINE
  8
0
 62
     0
 10
87.6956
 20
65.6953
 30
0.0
 11
88.495
 21
65.6953
 31
0.0
  0
LINE
  8
0
 62
     0
 10
88.495
 20
65.6953
 30
0.0
 11
88.495
 21
64.6949
 31
0.0
  0
LINE
  8
0
 62
     0
 10
88.495
 20
64.6949
 30
0.0
 11
102.344
 21
64.6949
 31
0.0
  0
LINE
  8
0
 62
     0
 10
102.344
 20
64.6949
 30
0.0
 11
102.344
 21
65.6953
 31
0.0
  0
LINE
  8
0
 62
     0
 10
102.344
 20
65.6953
 30
0.0
 11
103.145
 21
65.6953
 31
0.0
  0
LINE
  8
0
 62
     0
 10
103.145
 20
65.6953
 30
0.0
 11
103.145
 21
68.6456
 31
0.0
  0
LINE
  8
0
 62
     0
 10
103.145
 20
68.6456
 30
0.0
 11
102.344
 21
68.6456
 31
0.0
  0
LINE
  8
0
 62
     0
 10
102.344
 20
68.6456
 30
0.0
 11
102.344
 21
74.5959
 31
0.0
  0
LINE
  8
0
 62
     0
 10
102.344
 20
74.5959
 30
0.0
 11
103.145
 21
74.5959
 31
0.0
  0
LINE
  8
0
 62
     0
 10
103.145
 20
74.5959
 30
0.0
 11
103.145
 21
77.5451
 31
0.0
  0
LINE
  8
0
 62
     0
 10
103.145
 20
77.5451
 30
0.0
 11
102.344
 21
77.5451
 31
0.0
  0
LINE
  8
0
 62
     0
 10
102.344
 20
77.5451
 30
0.0
 11
102.344
 21
78.5453
 31
0.0
  0
LINE
  8
0
 62
     0
 10
102.344
 20
78.5453
 30
0.0
 11
88.495
 21
78.5453
 31
0.0
  0
LINE
  8
0
 62
     0
 10
69.445
 20
78.5453
 30
0.0
 11
69.445
 21
77.5451
 31
0.0
  0
LINE
  8
0
 62
     0
 10
69.445
 20
77.5451
 30
0.0
 11
68.6456
 21
77.5451
 31
0.0
  0
LINE
  8
0
 62
     0
 10
68.6456
 20
77.5451
 30
0.0
 11
68.6456
 21
74.5959
 31
0.0
  0
LINE
  8
0
 62
     0
 10
68.6456
 20
74.5959
 30
0.0
 11
69.445
 21
74.5959
 31
0.0
  0
LINE
  8
0
 62
     0
 10
69.445
 20
74.5959
 30
0.0
 11
69.445
 21
68.6456
 31
0.0
  0
LINE
  8
0
 62
     0
 10
69.445
 20
68.6456
 30
0.0
 11
68.6456
 21
68.6456
 31
0.0
  0
LINE
  8
0
 62
     0
 10
68.6456
 20
68.6456
 30
0.0
 11
68.6456
 21
65.6953
 31
0.0
  0
LINE
  8
0
 62
     0
 10
68.6456
 20
65.6953
 30
0.0
 11
69.445
 21
65.6953
 31
0.0
  0
LINE
  8
0
 62
     0
 10
69.445
 20
65.6953
 30
0.0
 11
69.445
 21
64.6949
 31
0.0
  0
LINE
  8
0
 62
     0
 10
69.445
 20
64.6949
 30
0.0
 11
83.294
 21
64.6949
 31
0.0
  0
LINE
  8
0
 62
     0
 10
83.294
 20
64.6949
 30
0.0
 11
83.294
 21
65.6953
 31
0.0
  0
LINE
  8
0
 62
     0
 10
83.294
 20
65.6953
 30
0.0
 11
84.0948
 21
65.6953
 31
0.0
  0
LINE
  8
0
 62
     0
 10
84.0948
 20
65.6953
 30
0.0
 11
84.0948
 21
68.6456
 31
0.0
  0
LINE
  8
0
 62
     0
 10
84.0948
 20
68.6456
 30
0.0
 11
83.294
 21
68.6456
 31
0.0
  0
LINE
  8
0
 62
     0
 10
83.294
 20
68.6456
 30
0.0
 11
83.294
 21
74.5959
 31
0.0
  0
LINE
  8
0
 62
     0
 10
83.294
 20
74.5959
 30
0.0
 11
84.0948
 21
74.5959
 31
0.0
  0
LINE
  8
0
 62
     0
 10
84.0948
 20
74.5959
 30
0.0
 11
84.0948
 21
77.5451
 31
0.0
  0
LINE
  8
0
 62
     0
 10
84.0948
 20
77.5451
 30
0.0
 11
83.294
 21
77.5451
 31
0.0
  0
LINE
  8
0
 62
     0
 10
83.294
 20
77.5451
 30
0.0
 11
83.294
 21
78.5453
 31
0.0
  0
LINE
  8
0
 62
     0
 10
83.294
 20
78.5453
 30
0.0
 11
69.445
 21
78.5453
 31
0.0
  0
LINE
  8
0
 62
     0
 10
50.395
 20
78.5453
 30
0.0
 11
50.395
 21
77.5451
 31
0.0
  0
LINE
  8
0
 62
     0
 10
50.395
 20
77.5451
 30
0.0
 11
49.5942
 21
77.5451
 31
0.0
  0
LINE
  8
0
 62
     0
 10
49.5942
 20
77.5451
 30
0.0
 11
49.5942
 21
74.5959
 31
0.0
  0
LINE
  8
0
 62
     0
 10
49.5942
 20
74.5959
 30
0.0
 11
50.395
 21
74.5959
 31
0.0
  0
LINE
  8
0
 62
     0
 10
50.395
 20
74.5959
 30
0.0
 11
50.395
 21
68.6456
 31
0.0
  0
LINE
  8
0
 62
     0
 10
50.395
 20
68.6456
 30
0.0
 11
49.5942
 21
68.6456
 31
0.0
  0
LINE
  8
0
 62
     0
 10
49.5942
 20
68.6456
 30
0.0
 11
49.5942
 21
65.6953
 31
0.0
  0
LINE
  8
0
 62
     0
 10
49.5942
 20
65.6953
 30
0.0
 11
50.395
 21
65.6953
 31
0.0
  0
LINE
  8
0
 62
     0
 10
50.395
 20
65.6953
 30
0.0
 11
50.395
 21
64.6949
 31
0.0
  0
LINE
  8
0
 62
     0
 10
50.395
 20
64.6949
 30
0.0
 11
64.244
 21
64.6949
 31
0.0
  0
LINE
  8
0
 62
     0
 10
64.244
 20
64.6949
 30
0.0
 11
64.244
 21
65.6953
 31
0.0
  0
LINE
  8
0
 62
     0
 10
64.244
 20
65.6953
 30
0.0
 11
65.0448
 21
65.6953
 31
0.0
  0
LINE
  8
0
 62
     0
 10
65.0448
 20
65.6953
 30
0.0
 11
65.0448
 21
68.6456
 31
0.0
  0
LINE
  8
0
 62
     0
 10
65.0448
 20
68.6456
 30
0.0
 11
64.244
 21
68.6456
 31
0.0
  0
LINE
  8
0
 62
     0
 10
64.244
 20
68.6456
 30
0.0
 11
64.244
 21
74.5959
 31
0.0
  0
LINE
  8
0
 62
     0
 10
64.244
 20
74.5959
 30
0.0
 11
65.0448
 21
74.5959
 31
0.0
  0
LINE
  8
0
 62
     0
 10
65.0448
 20
74.5959
 30
0.0
 11
65.0448
 21
77.5451
 31
0.0
  0
LINE
  8
0
 62
     0
 10
65.0448
 20
77.5451
 30
0.0
 11
64.244
 21
77.5451
 31
0.0
  0
LINE
  8
0
 62
     0
 10
64.244
 20
77.5451
 30
0.0
 11
64.244
 21
78.5453
 31
0.0
  0
LINE
  8
0
 62
     0
 10
64.244
 20
78.5453
 30
0.0
 11
50.395
 21
78.5453
 31
0.0
  0
LINE
  8
0
 62
     0
 10
31.3449
 20
78.5453
 30
0.0
 11
31.3449
 21
77.5451
 31
0.0
  0
LINE
  8
0
 62
     0
 10
31.3449
 20
77.5451
 30
0.0
 11
30.5442
 21
77.5451
 31
0.0
  0
LINE
  8
0
 62
     0
 10
30.5442
 20
77.5451
 30
0.0
 11
30.5442
 21
74.5959
 31
0.0
  0
LINE
  8
0
 62
     0
 10
30.5442
 20
74.5959
 30
0.0
 11
31.3449
 21
74.5959
 31
0.0
  0
LINE
  8
0
 62
     0
 10
31.3449
 20
74.5959
 30
0.0
 11
31.3449
 21
68.6456
 31
0.0
  0
LINE
  8
0
 62
     0
 10
31.3449
 20
68.6456
 30
0.0
 11
30.5442
 21
68.6456
 31
0.0
  0
LINE
  8
0
 62
     0
 10
30.5442
 20
68.6456
 30
0.0
 11
30.5442
 21
65.6953
 31
0.0
  0
LINE
  8
0
 62
     0
 10
30.5442
 20
65.6953
 30
0.0
 11
31.3449
 21
65.6953
 31
0.0
  0
LINE
  8
0
 62
     0
 10
31.3449
 20
65.6953
 30
0.0
 11
31.3449
 21
64.6949
 31
0.0
  0
LINE
  8
0
 62
     0
 10
31.3449
 20
64.6949
 30
0.0
 11
45.194
 21
64.6949
 31
0.0
  0
LINE
  8
0
 62
     0
 10
45.194
 20
64.6949
 30
0.0
 11
45.194
 21
65.6953
 31
0.0
  0
LINE
  8
0
 62
     0
 10
45.194
 20
65.6953
 30
0.0
 11
45.9962
 21
65.6953
 31
0.0
  0
LINE
  8
0
 62
     0
 10
45.9962
 20
65.6953
 30
0.0
 11
45.9962
 21
68.6456
 31
0.0
  0
LINE
  8
0
 62
     0
 10
45.9962
 20
68.6456
 30
0.0
 11
45.194
 21
68.6456
 31
0.0
  0
LINE
  8
0
 62
     0
 10
45.194
 20
68.6456
 30
0.0
 11
45.194
 21
74.5959
 31
0.0
  0
LINE
  8
0
 62
     0
 10
45.194
 20
74.5959
 30
0.0
 11
45.9962
 21
74.5959
 31
0.0
  0
LINE
  8
0
 62
     0
 10
45.9962
 20
74.5959
 30
0.0
 11
45.9962
 21
77.5451
 31
0.0
  0
LINE
  8
0
 62
     0
 10
45.9962
 20
77.5451
 30
0.0
 11
45.194
 21
77.5451
 31
0.0
  0
LINE
  8
0
 62
     0
 10
45.194
 20
77.5451
 30
0.0
 11
45.194
 21
78.5453
 31
0.0
  0
LINE
  8
0
 62
     0
 10
45.194
 20
78.5453
 30
0.0
 11
31.3449
 21
78.5453
 31
0.0
  0
LINE
  8
0
 62
     0
 10
7.53237
 20
78.5453
 30
0.0
 11
7.53237
 21
77.5451
 31
0.0
  0
LINE
  8
0
 62
     0
 10
7.53237
 20
77.5451
 30
0.0
 11
6.73308
 21
77.5451
 31
0.0
  0
LINE
  8
0
 62
     0
 10
6.73308
 20
77.5451
 30
0.0
 11
6.73308
 21
74.5959
 31
0.0
  0
LINE
  8
0
 62
     0
 10
6.73308
 20
74.5959
 30
0.0
 11
7.53237
 21
74.5959
 31
0.0
  0
LINE
  8
0
 62
     0
 10
7.53237
 20
74.5959
 30
0.0
 11
7.53237
 21
68.6456
 31
0.0
  0
LINE
  8
0
 62
     0
 10
7.53237
 20
68.6456
 30
0.0
 11
6.73308
 21
68.6456
 31
0.0
  0
LINE
  8
0
 62
     0
 10
6.73308
 20
68.6456
 30
0.0
 11
6.73308
 21
65.6953
 31
0.0
  0
LINE
  8
0
 62
     0
 10
6.73308
 20
65.6953
 30
0.0
 11
7.53237
 21
65.6953
 31
0.0
  0
LINE
  8
0
 62
     0
 10
7.53237
 20
65.6953
 30
0.0
 11
7.53237
 21
64.6949
 31
0.0
  0
LINE
  8
0
 62
     0
 10
7.53237
 20
64.6949
 30
0.0
 11
21.383
 21
64.6949
 31
0.0
  0
LINE
  8
0
 62
     0
 10
21.383
 20
64.6949
 30
0.0
 11
21.383
 21
65.6953
 31
0.0
  0
LINE
  8
0
 62
     0
 10
21.383
 20
65.6953
 30
0.0
 11
22.1823
 21
65.6953
 31
0.0
  0
LINE
  8
0
 62
     0
 10
22.1823
 20
65.6953
 30
0.0
 11
22.1823
 21
68.6456
 31
0.0
  0
LINE
  8
0
 62
     0
 10
22.1823
 20
68.6456
 30
0.0
 11
21.383
 21
68.6456
 31
0.0
  0
LINE
  8
0
 62
     0
 10
21.383
 20
68.6456
 30
0.0
 11
21.383
 21
74.5959
 31
0.0
  0
LINE
  8
0
 62
     0
 10
21.383
 20
74.5959
 30
0.0
 11
22.1823
 21
74.5959
 31
0.0
  0
LINE
  8
0
 62
     0
 10
22.1823
 20
74.5959
 30
0.0
 11
22.1823
 21
77.5451
 31
0.0
  0
LINE
  8
0
 62
     0
 10
22.1823
 20
77.5451
 30
0.0
 11
21.383
 21
77.5451
 31
0.0
  0
LINE
  8
0
 62
     0
 10
21.383
 20
77.5451
 30
0.0
 11
21.383
 21
78.5453
 31
0.0
  0
LINE
  8
0
 62
     0
 10
21.383
 20
78.5453
 30
0.0
 11
7.53237
 21
78.5453
 31
0.0
  0
LINE
  8
0
 62
     0
 10
259.945
 20
97.5953
 30
0.0
 11
259.945
 21
96.5951
 31
0.0
  0
LINE
  8
0
 62
     0
 10
259.945
 20
96.5951
 30
0.0
 11
259.146
 21
96.5951
 31
0.0
  0
LINE
  8
0
 62
     0
 10
259.146
 20
96.5951
 30
0.0
 11
259.146
 21
93.6459
 31
0.0
  0
LINE
  8
0
 62
     0
 10
259.146
 20
93.6459
 30
0.0
 11
259.945
 21
93.6459
 31
0.0
  0
LINE
  8
0
 62
     0
 10
259.945
 20
93.6459
 30
0.0
 11
259.945
 21
92.8949
 31
0.0
  0
LINE
  8
0
 62
     0
 10
259.945
 20
92.8949
 30
0.0
 11
258.27
 21
92.8949
 31
0.0
  0
LINE
  8
0
 62
     0
 10
258.27
 20
92.8949
 30
0.0
 11
258.27
 21
96.1249
 31
0.0
  0
LINE
  8
0
 62
     0
 10
258.27
 20
96.1249
 30
0.0
 11
251.671
 21
96.1249
 31
0.0
  0
LINE
  8
0
 62
     0
 10
251.671
 20
96.1249
 30
0.0
 11
251.671
 21
92.8949
 31
0.0
  0
LINE
  8
0
 62
     0
 10
251.671
 20
92.8949
 30
0.0
 11
250.846
 21
92.8949
 31
0.0
  0
LINE
  8
0
 62
     0
 10
250.846
 20
92.8949
 30
0.0
 11
250.846
 21
90.2451
 31
0.0
  0
LINE
  8
0
 62
     0
 10
250.846
 20
90.2451
 30
0.0
 11
251.671
 21
90.2451
 31
0.0
  0
LINE
  8
0
 62
     0
 10
251.671
 20
90.2451
 30
0.0
 11
251.671
 21
83.9749
 31
0.0
  0
LINE
  8
0
 62
     0
 10
251.671
 20
83.9749
 30
0.0
 11
253.395
 21
83.9749
 31
0.0
  0
LINE
  8
0
 62
     0
 10
253.395
 20
83.9749
 30
0.0
 11
253.395
 21
82.7747
 31
0.0
  0
LINE
  8
0
 62
     0
 10
253.395
 20
82.7747
 30
0.0
 11
256.545
 21
82.7747
 31
0.0
  0
LINE
  8
0
 62
     0
 10
256.545
 20
82.7747
 30
0.0
 11
256.545
 21
83.9749
 31
0.0
  0
LINE
  8
0
 62
     0
 10
256.545
 20
83.9749
 30
0.0
 11
258.27
 21
83.9749
 31
0.0
  0
LINE
  8
0
 62
     0
 10
258.27
 20
83.9749
 30
0.0
 11
258.27
 21
88.4453
 31
0.0
  0
LINE
  8
0
 62
     0
 10
258.27
 20
88.4453
 30
0.0
 11
259.945
 21
88.4453
 31
0.0
  0
LINE
  8
0
 62
     0
 10
259.945
 20
88.4453
 30
0.0
 11
259.945
 21
87.6956
 31
0.0
  0
LINE
  8
0
 62
     0
 10
259.945
 20
87.6956
 30
0.0
 11
259.146
 21
87.6956
 31
0.0
  0
LINE
  8
0
 62
     0
 10
259.146
 20
87.6956
 30
0.0
 11
259.146
 21
84.7453
 31
0.0
  0
LINE
  8
0
 62
     0
 10
259.146
 20
84.7453
 30
0.0
 11
259.945
 21
84.7453
 31
0.0
  0
LINE
  8
0
 62
     0
 10
259.945
 20
84.7453
 30
0.0
 11
259.945
 21
83.7449
 31
0.0
  0
LINE
  8
0
 62
     0
 10
259.945
 20
83.7449
 30
0.0
 11
273.795
 21
83.7449
 31
0.0
  0
LINE
  8
0
 62
     0
 10
273.795
 20
83.7449
 30
0.0
 11
273.795
 21
84.7453
 31
0.0
  0
LINE
  8
0
 62
     0
 10
273.795
 20
84.7453
 30
0.0
 11
274.596
 21
84.7453
 31
0.0
  0
LINE
  8
0
 62
     0
 10
274.596
 20
84.7453
 30
0.0
 11
274.596
 21
87.6956
 31
0.0
  0
LINE
  8
0
 62
     0
 10
274.596
 20
87.6956
 30
0.0
 11
273.795
 21
87.6956
 31
0.0
  0
LINE
  8
0
 62
     0
 10
273.795
 20
87.6956
 30
0.0
 11
273.795
 21
88.4453
 31
0.0
  0
LINE
  8
0
 62
     0
 10
273.795
 20
88.4453
 30
0.0
 11
275.47
 21
88.4453
 31
0.0
  0
LINE
  8
0
 62
     0
 10
275.47
 20
88.4453
 30
0.0
 11
275.47
 21
83.9749
 31
0.0
  0
LINE
  8
0
 62
     0
 10
275.47
 20
83.9749
 30
0.0
 11
277.195
 21
83.9749
 31
0.0
  0
LINE
  8
0
 62
     0
 10
277.195
 20
83.9749
 30
0.0
 11
277.195
 21
82.7747
 31
0.0
  0
LINE
  8
0
 62
     0
 10
277.195
 20
82.7747
 30
0.0
 11
280.345
 21
82.7747
 31
0.0
  0
LINE
  8
0
 62
     0
 10
280.345
 20
82.7747
 30
0.0
 11
280.345
 21
83.9749
 31
0.0
  0
LINE
  8
0
 62
     0
 10
280.345
 20
83.9749
 30
0.0
 11
282.071
 21
83.9749
 31
0.0
  0
LINE
  8
0
 62
     0
 10
282.071
 20
83.9749
 30
0.0
 11
282.071
 21
90.2451
 31
0.0
  0
LINE
  8
0
 62
     0
 10
282.071
 20
90.2451
 30
0.0
 11
282.896
 21
90.2451
 31
0.0
  0
LINE
  8
0
 62
     0
 10
282.896
 20
90.2451
 30
0.0
 11
282.896
 21
92.8949
 31
0.0
  0
LINE
  8
0
 62
     0
 10
282.896
 20
92.8949
 30
0.0
 11
282.071
 21
92.8949
 31
0.0
  0
LINE
  8
0
 62
     0
 10
282.071
 20
92.8949
 30
0.0
 11
282.071
 21
96.1249
 31
0.0
  0
LINE
  8
0
 62
     0
 10
282.071
 20
96.1249
 30
0.0
 11
275.47
 21
96.1249
 31
0.0
  0
LINE
  8
0
 62
     0
 10
275.47
 20
96.1249
 30
0.0
 11
275.47
 21
92.8949
 31
0.0
  0
LINE
  8
0
 62
     0
 10
275.47
 20
92.8949
 30
0.0
 11
273.795
 21
92.8949
 31
0.0
  0
LINE
  8
0
 62
     0
 10
273.795
 20
92.8949
 30
0.0
 11
273.795
 21
93.6459
 31
0.0
  0
LINE
  8
0
 62
     0
 10
273.795
 20
93.6459
 30
0.0
 11
274.596
 21
93.6459
 31
0.0
  0
LINE
  8
0
 62
     0
 10
274.596
 20
93.6459
 30
0.0
 11
274.596
 21
96.5951
 31
0.0
  0
LINE
  8
0
 62
     0
 10
274.596
 20
96.5951
 30
0.0
 11
273.795
 21
96.5951
 31
0.0
  0
LINE
  8
0
 62
     0
 10
273.795
 20
96.5951
 30
0.0
 11
273.795
 21
97.5953
 31
0.0
  0
LINE
  8
0
 62
     0
 10
273.795
 20
97.5953
 30
0.0
 11
259.945
 21
97.5953
 31
0.0
  0
LINE
  8
0
 62
     0
 10
231.37
 20
97.5953
 30
0.0
 11
231.37
 21
96.5951
 31
0.0
  0
LINE
  8
0
 62
     0
 10
231.37
 20
96.5951
 30
0.0
 11
230.571
 21
96.5951
 31
0.0
  0
LINE
  8
0
 62
     0
 10
230.571
 20
96.5951
 30
0.0
 11
230.571
 21
93.6459
 31
0.0
  0
LINE
  8
0
 62
     0
 10
230.571
 20
93.6459
 30
0.0
 11
231.37
 21
93.6459
 31
0.0
  0
LINE
  8
0
 62
     0
 10
231.37
 20
93.6459
 30
0.0
 11
231.37
 21
87.6956
 31
0.0
  0
LINE
  8
0
 62
     0
 10
231.37
 20
87.6956
 30
0.0
 11
230.571
 21
87.6956
 31
0.0
  0
LINE
  8
0
 62
     0
 10
230.571
 20
87.6956
 30
0.0
 11
230.571
 21
84.7453
 31
0.0
  0
LINE
  8
0
 62
     0
 10
230.571
 20
84.7453
 30
0.0
 11
231.37
 21
84.7453
 31
0.0
  0
LINE
  8
0
 62
     0
 10
231.37
 20
84.7453
 30
0.0
 11
231.37
 21
83.7449
 31
0.0
  0
LINE
  8
0
 62
     0
 10
231.37
 20
83.7449
 30
0.0
 11
245.22
 21
83.7449
 31
0.0
  0
LINE
  8
0
 62
     0
 10
245.22
 20
83.7449
 30
0.0
 11
245.22
 21
84.7453
 31
0.0
  0
LINE
  8
0
 62
     0
 10
245.22
 20
84.7453
 30
0.0
 11
246.021
 21
84.7453
 31
0.0
  0
LINE
  8
0
 62
     0
 10
246.021
 20
84.7453
 30
0.0
 11
246.021
 21
87.6956
 31
0.0
  0
LINE
  8
0
 62
     0
 10
246.021
 20
87.6956
 30
0.0
 11
245.22
 21
87.6956
 31
0.0
  0
LINE
  8
0
 62
     0
 10
245.22
 20
87.6956
 30
0.0
 11
245.22
 21
93.6459
 31
0.0
  0
LINE
  8
0
 62
     0
 10
245.22
 20
93.6459
 30
0.0
 11
246.021
 21
93.6459
 31
0.0
  0
LINE
  8
0
 62
     0
 10
246.021
 20
93.6459
 30
0.0
 11
246.021
 21
96.5951
 31
0.0
  0
LINE
  8
0
 62
     0
 10
246.021
 20
96.5951
 30
0.0
 11
245.22
 21
96.5951
 31
0.0
  0
LINE
  8
0
 62
     0
 10
245.22
 20
96.5951
 30
0.0
 11
245.22
 21
97.5953
 31
0.0
  0
LINE
  8
0
 62
     0
 10
245.22
 20
97.5953
 30
0.0
 11
231.37
 21
97.5953
 31
0.0
  0
LINE
  8
0
 62
     0
 10
212.32
 20
97.5953
 30
0.0
 11
212.32
 21
96.5951
 31
0.0
  0
LINE
  8
0
 62
     0
 10
212.32
 20
96.5951
 30
0.0
 11
211.521
 21
96.5951
 31
0.0
  0
LINE
  8
0
 62
     0
 10
211.521
 20
96.5951
 30
0.0
 11
211.521
 21
93.6459
 31
0.0
  0
LINE
  8
0
 62
     0
 10
211.521
 20
93.6459
 30
0.0
 11
212.32
 21
93.6459
 31
0.0
  0
LINE
  8
0
 62
     0
 10
212.32
 20
93.6459
 30
0.0
 11
212.32
 21
87.6956
 31
0.0
  0
LINE
  8
0
 62
     0
 10
212.32
 20
87.6956
 30
0.0
 11
211.521
 21
87.6956
 31
0.0
  0
LINE
  8
0
 62
     0
 10
211.521
 20
87.6956
 30
0.0
 11
211.521
 21
84.7453
 31
0.0
  0
LINE
  8
0
 62
     0
 10
211.521
 20
84.7453
 30
0.0
 11
212.32
 21
84.7453
 31
0.0
  0
LINE
  8
0
 62
     0
 10
212.32
 20
84.7453
 30
0.0
 11
212.32
 21
83.7449
 31
0.0
  0
LINE
  8
0
 62
     0
 10
212.32
 20
83.7449
 30
0.0
 11
226.17
 21
83.7449
 31
0.0
  0
LINE
  8
0
 62
     0
 10
226.17
 20
83.7449
 30
0.0
 11
226.17
 21
84.7453
 31
0.0
  0
LINE
  8
0
 62
     0
 10
226.17
 20
84.7453
 30
0.0
 11
226.971
 21
84.7453
 31
0.0
  0
LINE
  8
0
 62
     0
 10
226.971
 20
84.7453
 30
0.0
 11
226.971
 21
87.6956
 31
0.0
  0
LINE
  8
0
 62
     0
 10
226.971
 20
87.6956
 30
0.0
 11
226.17
 21
87.6956
 31
0.0
  0
LINE
  8
0
 62
     0
 10
226.17
 20
87.6956
 30
0.0
 11
226.17
 21
93.6459
 31
0.0
  0
LINE
  8
0
 62
     0
 10
226.17
 20
93.6459
 30
0.0
 11
226.971
 21
93.6459
 31
0.0
  0
LINE
  8
0
 62
     0
 10
226.971
 20
93.6459
 30
0.0
 11
226.971
 21
96.5951
 31
0.0
  0
LINE
  8
0
 62
     0
 10
226.971
 20
96.5951
 30
0.0
 11
226.17
 21
96.5951
 31
0.0
  0
LINE
  8
0
 62
     0
 10
226.17
 20
96.5951
 30
0.0
 11
226.17
 21
97.5953
 31
0.0
  0
LINE
  8
0
 62
     0
 10
226.17
 20
97.5953
 30
0.0
 11
212.32
 21
97.5953
 31
0.0
  0
LINE
  8
0
 62
     0
 10
193.27
 20
97.5953
 30
0.0
 11
193.27
 21
96.5951
 31
0.0
  0
LINE
  8
0
 62
     0
 10
193.27
 20
96.5951
 30
0.0
 11
192.471
 21
96.5951
 31
0.0
  0
LINE
  8
0
 62
     0
 10
192.471
 20
96.5951
 30
0.0
 11
192.471
 21
93.6459
 31
0.0
  0
LINE
  8
0
 62
     0
 10
192.471
 20
93.6459
 30
0.0
 11
193.27
 21
93.6459
 31
0.0
  0
LINE
  8
0
 62
     0
 10
193.27
 20
93.6459
 30
0.0
 11
193.27
 21
87.6956
 31
0.0
  0
LINE
  8
0
 62
     0
 10
193.27
 20
87.6956
 30
0.0
 11
192.471
 21
87.6956
 31
0.0
  0
LINE
  8
0
 62
     0
 10
192.471
 20
87.6956
 30
0.0
 11
192.471
 21
84.7453
 31
0.0
  0
LINE
  8
0
 62
     0
 10
192.471
 20
84.7453
 30
0.0
 11
193.27
 21
84.7453
 31
0.0
  0
LINE
  8
0
 62
     0
 10
193.27
 20
84.7453
 30
0.0
 11
193.27
 21
83.7449
 31
0.0
  0
LINE
  8
0
 62
     0
 10
193.27
 20
83.7449
 30
0.0
 11
207.12
 21
83.7449
 31
0.0
  0
LINE
  8
0
 62
     0
 10
207.12
 20
83.7449
 30
0.0
 11
207.12
 21
84.7453
 31
0.0
  0
LINE
  8
0
 62
     0
 10
207.12
 20
84.7453
 30
0.0
 11
207.921
 21
84.7453
 31
0.0
  0
LINE
  8
0
 62
     0
 10
207.921
 20
84.7453
 30
0.0
 11
207.921
 21
87.6956
 31
0.0
  0
LINE
  8
0
 62
     0
 10
207.921
 20
87.6956
 30
0.0
 11
207.12
 21
87.6956
 31
0.0
  0
LINE
  8
0
 62
     0
 10
207.12
 20
87.6956
 30
0.0
 11
207.12
 21
93.6459
 31
0.0
  0
LINE
  8
0
 62
     0
 10
207.12
 20
93.6459
 30
0.0
 11
207.921
 21
93.6459
 31
0.0
  0
LINE
  8
0
 62
     0
 10
207.921
 20
93.6459
 30
0.0
 11
207.921
 21
96.5951
 31
0.0
  0
LINE
  8
0
 62
     0
 10
207.921
 20
96.5951
 30
0.0
 11
207.12
 21
96.5951
 31
0.0
  0
LINE
  8
0
 62
     0
 10
207.12
 20
96.5951
 30
0.0
 11
207.12
 21
97.5953
 31
0.0
  0
LINE
  8
0
 62
     0
 10
207.12
 20
97.5953
 30
0.0
 11
193.27
 21
97.5953
 31
0.0
  0
LINE
  8
0
 62
     0
 10
174.22
 20
97.5953
 30
0.0
 11
174.22
 21
96.5951
 31
0.0
  0
LINE
  8
0
 62
     0
 10
174.22
 20
96.5951
 30
0.0
 11
173.421
 21
96.5951
 31
0.0
  0
LINE
  8
0
 62
     0
 10
173.421
 20
96.5951
 30
0.0
 11
173.421
 21
93.6459
 31
0.0
  0
LINE
  8
0
 62
     0
 10
173.421
 20
93.6459
 30
0.0
 11
174.22
 21
93.6459
 31
0.0
  0
LINE
  8
0
 62
     0
 10
174.22
 20
93.6459
 30
0.0
 11
174.22
 21
87.6956
 31
0.0
  0
LINE
  8
0
 62
     0
 10
174.22
 20
87.6956
 30
0.0
 11
173.421
 21
87.6956
 31
0.0
  0
LINE
  8
0
 62
     0
 10
173.421
 20
87.6956
 30
0.0
 11
173.421
 21
84.7453
 31
0.0
  0
LINE
  8
0
 62
     0
 10
173.421
 20
84.7453
 30
0.0
 11
174.22
 21
84.7453
 31
0.0
  0
LINE
  8
0
 62
     0
 10
174.22
 20
84.7453
 30
0.0
 11
174.22
 21
83.7449
 31
0.0
  0
LINE
  8
0
 62
     0
 10
174.22
 20
83.7449
 30
0.0
 11
188.07
 21
83.7449
 31
0.0
  0
LINE
  8
0
 62
     0
 10
188.07
 20
83.7449
 30
0.0
 11
188.07
 21
84.7453
 31
0.0
  0
LINE
  8
0
 62
     0
 10
188.07
 20
84.7453
 30
0.0
 11
188.871
 21
84.7453
 31
0.0
  0
LINE
  8
0
 62
     0
 10
188.871
 20
84.7453
 30
0.0
 11
188.871
 21
87.6956
 31
0.0
  0
LINE
  8
0
 62
     0
 10
188.871
 20
87.6956
 30
0.0
 11
188.07
 21
87.6956
 31
0.0
  0
LINE
  8
0
 62
     0
 10
188.07
 20
87.6956
 30
0.0
 11
188.07
 21
93.6459
 31
0.0
  0
LINE
  8
0
 62
     0
 10
188.07
 20
93.6459
 30
0.0
 11
188.871
 21
93.6459
 31
0.0
  0
LINE
  8
0
 62
     0
 10
188.871
 20
93.6459
 30
0.0
 11
188.871
 21
96.5951
 31
0.0
  0
LINE
  8
0
 62
     0
 10
188.871
 20
96.5951
 30
0.0
 11
188.07
 21
96.5951
 31
0.0
  0
LINE
  8
0
 62
     0
 10
188.07
 20
96.5951
 30
0.0
 11
188.07
 21
97.5953
 31
0.0
  0
LINE
  8
0
 62
     0
 10
188.07
 20
97.5953
 30
0.0
 11
174.22
 21
97.5953
 31
0.0
  0
LINE
  8
0
 62
     0
 10
155.17
 20
97.5953
 30
0.0
 11
155.17
 21
96.5951
 31
0.0
  0
LINE
  8
0
 62
     0
 10
155.17
 20
96.5951
 30
0.0
 11
154.371
 21
96.5951
 31
0.0
  0
LINE
  8
0
 62
     0
 10
154.371
 20
96.5951
 30
0.0
 11
154.371
 21
93.6459
 31
0.0
  0
LINE
  8
0
 62
     0
 10
154.371
 20
93.6459
 30
0.0
 11
155.17
 21
93.6459
 31
0.0
  0
LINE
  8
0
 62
     0
 10
155.17
 20
93.6459
 30
0.0
 11
155.17
 21
87.6956
 31
0.0
  0
LINE
  8
0
 62
     0
 10
155.17
 20
87.6956
 30
0.0
 11
154.371
 21
87.6956
 31
0.0
  0
LINE
  8
0
 62
     0
 10
154.371
 20
87.6956
 30
0.0
 11
154.371
 21
84.7453
 31
0.0
  0
LINE
  8
0
 62
     0
 10
154.371
 20
84.7453
 30
0.0
 11
155.17
 21
84.7453
 31
0.0
  0
LINE
  8
0
 62
     0
 10
155.17
 20
84.7453
 30
0.0
 11
155.17
 21
83.7449
 31
0.0
  0
LINE
  8
0
 62
     0
 10
155.17
 20
83.7449
 30
0.0
 11
169.02
 21
83.7449
 31
0.0
  0
LINE
  8
0
 62
     0
 10
169.02
 20
83.7449
 30
0.0
 11
169.02
 21
84.7453
 31
0.0
  0
LINE
  8
0
 62
     0
 10
169.02
 20
84.7453
 30
0.0
 11
169.821
 21
84.7453
 31
0.0
  0
LINE
  8
0
 62
     0
 10
169.821
 20
84.7453
 30
0.0
 11
169.821
 21
87.6956
 31
0.0
  0
LINE
  8
0
 62
     0
 10
169.821
 20
87.6956
 30
0.0
 11
169.02
 21
87.6956
 31
0.0
  0
LINE
  8
0
 62
     0
 10
169.02
 20
87.6956
 30
0.0
 11
169.02
 21
93.6459
 31
0.0
  0
LINE
  8
0
 62
     0
 10
169.02
 20
93.6459
 30
0.0
 11
169.821
 21
93.6459
 31
0.0
  0
LINE
  8
0
 62
     0
 10
169.821
 20
93.6459
 30
0.0
 11
169.821
 21
96.5951
 31
0.0
  0
LINE
  8
0
 62
     0
 10
169.821
 20
96.5951
 30
0.0
 11
169.02
 21
96.5951
 31
0.0
  0
LINE
  8
0
 62
     0
 10
169.02
 20
96.5951
 30
0.0
 11
169.02
 21
97.5953
 31
0.0
  0
LINE
  8
0
 62
     0
 10
169.02
 20
97.5953
 30
0.0
 11
155.17
 21
97.5953
 31
0.0
  0
LINE
  8
0
 62
     0
 10
136.12
 20
97.5953
 30
0.0
 11
136.12
 21
96.5951
 31
0.0
  0
LINE
  8
0
 62
     0
 10
136.12
 20
96.5951
 30
0.0
 11
135.321
 21
96.5951
 31
0.0
  0
LINE
  8
0
 62
     0
 10
135.321
 20
96.5951
 30
0.0
 11
135.321
 21
93.6459
 31
0.0
  0
LINE
  8
0
 62
     0
 10
135.321
 20
93.6459
 30
0.0
 11
136.12
 21
93.6459
 31
0.0
  0
LINE
  8
0
 62
     0
 10
136.12
 20
93.6459
 30
0.0
 11
136.12
 21
87.6956
 31
0.0
  0
LINE
  8
0
 62
     0
 10
136.12
 20
87.6956
 30
0.0
 11
135.321
 21
87.6956
 31
0.0
  0
LINE
  8
0
 62
     0
 10
135.321
 20
87.6956
 30
0.0
 11
135.321
 21
84.7453
 31
0.0
  0
LINE
  8
0
 62
     0
 10
135.321
 20
84.7453
 30
0.0
 11
136.12
 21
84.7453
 31
0.0
  0
LINE
  8
0
 62
     0
 10
136.12
 20
84.7453
 30
0.0
 11
136.12
 21
83.7449
 31
0.0
  0
LINE
  8
0
 62
     0
 10
136.12
 20
83.7449
 30
0.0
 11
149.97
 21
83.7449
 31
0.0
  0
LINE
  8
0
 62
     0
 10
149.97
 20
83.7449
 30
0.0
 11
149.97
 21
84.7453
 31
0.0
  0
LINE
  8
0
 62
     0
 10
149.97
 20
84.7453
 30
0.0
 11
150.771
 21
84.7453
 31
0.0
  0
LINE
  8
0
 62
     0
 10
150.771
 20
84.7453
 30
0.0
 11
150.771
 21
87.6956
 31
0.0
  0
LINE
  8
0
 62
     0
 10
150.771
 20
87.6956
 30
0.0
 11
149.97
 21
87.6956
 31
0.0
  0
LINE
  8
0
 62
     0
 10
149.97
 20
87.6956
 30
0.0
 11
149.97
 21
93.6459
 31
0.0
  0
LINE
  8
0
 62
     0
 10
149.97
 20
93.6459
 30
0.0
 11
150.771
 21
93.6459
 31
0.0
  0
LINE
  8
0
 62
     0
 10
150.771
 20
93.6459
 30
0.0
 11
150.771
 21
96.5951
 31
0.0
  0
LINE
  8
0
 62
     0
 10
150.771
 20
96.5951
 30
0.0
 11
149.97
 21
96.5951
 31
0.0
  0
LINE
  8
0
 62
     0
 10
149.97
 20
96.5951
 30
0.0
 11
149.97
 21
97.5953
 31
0.0
  0
LINE
  8
0
 62
     0
 10
149.97
 20
97.5953
 30
0.0
 11
136.12
 21
97.5953
 31
0.0
  0
LINE
  8
0
 62
     0
 10
117.07
 20
97.5953
 30
0.0
 11
117.07
 21
96.5951
 31
0.0
  0
LINE
  8
0
 62
     0
 10
117.07
 20
96.5951
 30
0.0
 11
116.271
 21
96.5951
 31
0.0
  0
LINE
  8
0
 62
     0
 10
116.271
 20
96.5951
 30
0.0
 11
116.271
 21
93.6459
 31
0.0
  0
LINE
  8
0
 62
     0
 10
116.271
 20
93.6459
 30
0.0
 11
117.07
 21
93.6459
 31
0.0
  0
LINE
  8
0
 62
     0
 10
117.07
 20
93.6459
 30
0.0
 11
117.07
 21
87.6956
 31
0.0
  0
LINE
  8
0
 62
     0
 10
117.07
 20
87.6956
 30
0.0
 11
116.271
 21
87.6956
 31
0.0
  0
LINE
  8
0
 62
     0
 10
116.271
 20
87.6956
 30
0.0
 11
116.271
 21
84.7453
 31
0.0
  0
LINE
  8
0
 62
     0
 10
116.271
 20
84.7453
 30
0.0
 11
117.07
 21
84.7453
 31
0.0
  0
LINE
  8
0
 62
     0
 10
117.07
 20
84.7453
 30
0.0
 11
117.07
 21
83.7449
 31
0.0
  0
LINE
  8
0
 62
     0
 10
117.07
 20
83.7449
 30
0.0
 11
130.92
 21
83.7449
 31
0.0
  0
LINE
  8
0
 62
     0
 10
130.92
 20
83.7449
 30
0.0
 11
130.92
 21
84.7453
 31
0.0
  0
LINE
  8
0
 62
     0
 10
130.92
 20
84.7453
 30
0.0
 11
131.721
 21
84.7453
 31
0.0
  0
LINE
  8
0
 62
     0
 10
131.721
 20
84.7453
 30
0.0
 11
131.721
 21
87.6956
 31
0.0
  0
LINE
  8
0
 62
     0
 10
131.721
 20
87.6956
 30
0.0
 11
130.92
 21
87.6956
 31
0.0
  0
LINE
  8
0
 62
     0
 10
130.92
 20
87.6956
 30
0.0
 11
130.92
 21
93.6459
 31
0.0
  0
LINE
  8
0
 62
     0
 10
130.92
 20
93.6459
 30
0.0
 11
131.721
 21
93.6459
 31
0.0
  0
LINE
  8
0
 62
     0
 10
131.721
 20
93.6459
 30
0.0
 11
131.721
 21
96.5951
 31
0.0
  0
LINE
  8
0
 62
     0
 10
131.721
 20
96.5951
 30
0.0
 11
130.92
 21
96.5951
 31
0.0
  0
LINE
  8
0
 62
     0
 10
130.92
 20
96.5951
 30
0.0
 11
130.92
 21
97.5953
 31
0.0
  0
LINE
  8
0
 62
     0
 10
130.92
 20
97.5953
 30
0.0
 11
117.07
 21
97.5953
 31
0.0
  0
LINE
  8
0
 62
     0
 10
98.02
 20
97.5953
 30
0.0
 11
98.02
 21
96.5951
 31
0.0
  0
LINE
  8
0
 62
     0
 10
98.02
 20
96.5951
 30
0.0
 11
97.2206
 21
96.5951
 31
0.0
  0
LINE
  8
0
 62
     0
 10
97.2206
 20
96.5951
 30
0.0
 11
97.2206
 21
93.6459
 31
0.0
  0
LINE
  8
0
 62
     0
 10
97.2206
 20
93.6459
 30
0.0
 11
98.02
 21
93.6459
 31
0.0
  0
LINE
  8
0
 62
     0
 10
98.02
 20
93.6459
 30
0.0
 11
98.02
 21
87.6956
 31
0.0
  0
LINE
  8
0
 62
     0
 10
98.02
 20
87.6956
 30
0.0
 11
97.2206
 21
87.6956
 31
0.0
  0
LINE
  8
0
 62
     0
 10
97.2206
 20
87.6956
 30
0.0
 11
97.2206
 21
84.7453
 31
0.0
  0
LINE
  8
0
 62
     0
 10
97.2206
 20
84.7453
 30
0.0
 11
98.02
 21
84.7453
 31
0.0
  0
LINE
  8
0
 62
     0
 10
98.02
 20
84.7453
 30
0.0
 11
98.02
 21
83.7449
 31
0.0
  0
LINE
  8
0
 62
     0
 10
98.02
 20
83.7449
 30
0.0
 11
111.869
 21
83.7449
 31
0.0
  0
LINE
  8
0
 62
     0
 10
111.869
 20
83.7449
 30
0.0
 11
111.869
 21
84.7453
 31
0.0
  0
LINE
  8
0
 62
     0
 10
111.869
 20
84.7453
 30
0.0
 11
112.67
 21
84.7453
 31
0.0
  0
LINE
  8
0
 62
     0
 10
112.67
 20
84.7453
 30
0.0
 11
112.67
 21
87.6956
 31
0.0
  0
LINE
  8
0
 62
     0
 10
112.67
 20
87.6956
 30
0.0
 11
111.869
 21
87.6956
 31
0.0
  0
LINE
  8
0
 62
     0
 10
111.869
 20
87.6956
 30
0.0
 11
111.869
 21
93.6459
 31
0.0
  0
LINE
  8
0
 62
     0
 10
111.869
 20
93.6459
 30
0.0
 11
112.67
 21
93.6459
 31
0.0
  0
LINE
  8
0
 62
     0
 10
112.67
 20
93.6459
 30
0.0
 11
112.67
 21
96.5951
 31
0.0
  0
LINE
  8
0
 62
     0
 10
112.67
 20
96.5951
 30
0.0
 11
111.869
 21
96.5951
 31
0.0
  0
LINE
  8
0
 62
     0
 10
111.869
 20
96.5951
 30
0.0
 11
111.869
 21
97.5953
 31
0.0
  0
LINE
  8
0
 62
     0
 10
111.869
 20
97.5953
 30
0.0
 11
98.02
 21
97.5953
 31
0.0
  0
LINE
  8
0
 62
     0
 10
78.97
 20
97.5953
 30
0.0
 11
78.97
 21
96.5951
 31
0.0
  0
LINE
  8
0
 62
     0
 10
78.97
 20
96.5951
 30
0.0
 11
78.1706
 21
96.5951
 31
0.0
  0
LINE
  8
0
 62
     0
 10
78.1706
 20
96.5951
 30
0.0
 11
78.1706
 21
93.6459
 31
0.0
  0
LINE
  8
0
 62
     0
 10
78.1706
 20
93.6459
 30
0.0
 11
78.97
 21
93.6459
 31
0.0
  0
LINE
  8
0
 62
     0
 10
78.97
 20
93.6459
 30
0.0
 11
78.97
 21
87.6956
 31
0.0
  0
LINE
  8
0
 62
     0
 10
78.97
 20
87.6956
 30
0.0
 11
78.1706
 21
87.6956
 31
0.0
  0
LINE
  8
0
 62
     0
 10
78.1706
 20
87.6956
 30
0.0
 11
78.1706
 21
84.7453
 31
0.0
  0
LINE
  8
0
 62
     0
 10
78.1706
 20
84.7453
 30
0.0
 11
78.97
 21
84.7453
 31
0.0
  0
LINE
  8
0
 62
     0
 10
78.97
 20
84.7453
 30
0.0
 11
78.97
 21
83.7449
 31
0.0
  0
LINE
  8
0
 62
     0
 10
78.97
 20
83.7449
 30
0.0
 11
92.8204
 21
83.7449
 31
0.0
  0
LINE
  8
0
 62
     0
 10
92.8204
 20
83.7449
 30
0.0
 11
92.8204
 21
84.7453
 31
0.0
  0
LINE
  8
0
 62
     0
 10
92.8204
 20
84.7453
 30
0.0
 11
93.6198
 21
84.7453
 31
0.0
  0
LINE
  8
0
 62
     0
 10
93.6198
 20
84.7453
 30
0.0
 11
93.6198
 21
87.6956
 31
0.0
  0
LINE
  8
0
 62
     0
 10
93.6198
 20
87.6956
 30
0.0
 11
92.8204
 21
87.6956
 31
0.0
  0
LINE
  8
0
 62
     0
 10
92.8204
 20
87.6956
 30
0.0
 11
92.8204
 21
93.6459
 31
0.0
  0
LINE
  8
0
 62
     0
 10
92.8204
 20
93.6459
 30
0.0
 11
93.6198
 21
93.6459
 31
0.0
  0
LINE
  8
0
 62
     0
 10
93.6198
 20
93.6459
 30
0.0
 11
93.6198
 21
96.5951
 31
0.0
  0
LINE
  8
0
 62
     0
 10
93.6198
 20
96.5951
 30
0.0
 11
92.8204
 21
96.5951
 31
0.0
  0
LINE
  8
0
 62
     0
 10
92.8204
 20
96.5951
 30
0.0
 11
92.8204
 21
97.5953
 31
0.0
  0
LINE
  8
0
 62
     0
 10
92.8204
 20
97.5953
 30
0.0
 11
78.97
 21
97.5953
 31
0.0
  0
LINE
  8
0
 62
     0
 10
59.92
 20
97.5953
 30
0.0
 11
59.92
 21
96.5951
 31
0.0
  0
LINE
  8
0
 62
     0
 10
59.92
 20
96.5951
 30
0.0
 11
59.1206
 21
96.5951
 31
0.0
  0
LINE
  8
0
 62
     0
 10
59.1206
 20
96.5951
 30
0.0
 11
59.1206
 21
93.6459
 31
0.0
  0
LINE
  8
0
 62
     0
 10
59.1206
 20
93.6459
 30
0.0
 11
59.92
 21
93.6459
 31
0.0
  0
LINE
  8
0
 62
     0
 10
59.92
 20
93.6459
 30
0.0
 11
59.92
 21
87.6956
 31
0.0
  0
LINE
  8
0
 62
     0
 10
59.92
 20
87.6956
 30
0.0
 11
59.1206
 21
87.6956
 31
0.0
  0
LINE
  8
0
 62
     0
 10
59.1206
 20
87.6956
 30
0.0
 11
59.1206
 21
84.7453
 31
0.0
  0
LINE
  8
0
 62
     0
 10
59.1206
 20
84.7453
 30
0.0
 11
59.92
 21
84.7453
 31
0.0
  0
LINE
  8
0
 62
     0
 10
59.92
 20
84.7453
 30
0.0
 11
59.92
 21
83.7449
 31
0.0
  0
LINE
  8
0
 62
     0
 10
59.92
 20
83.7449
 30
0.0
 11
73.7704
 21
83.7449
 31
0.0
  0
LINE
  8
0
 62
     0
 10
73.7704
 20
83.7449
 30
0.0
 11
73.7704
 21
84.7453
 31
0.0
  0
LINE
  8
0
 62
     0
 10
73.7704
 20
84.7453
 30
0.0
 11
74.5712
 21
84.7453
 31
0.0
  0
LINE
  8
0
 62
     0
 10
74.5712
 20
84.7453
 30
0.0
 11
74.5712
 21
87.6956
 31
0.0
  0
LINE
  8
0
 62
     0
 10
74.5712
 20
87.6956
 30
0.0
 11
73.7704
 21
87.6956
 31
0.0
  0
LINE
  8
0
 62
     0
 10
73.7704
 20
87.6956
 30
0.0
 11
73.7704
 21
93.6459
 31
0.0
  0
LINE
  8
0
 62
     0
 10
73.7704
 20
93.6459
 30
0.0
 11
74.5712
 21
93.6459
 31
0.0
  0
LINE
  8
0
 62
     0
 10
74.5712
 20
93.6459
 30
0.0
 11
74.5712
 21
96.5951
 31
0.0
  0
LINE
  8
0
 62
     0
 10
74.5712
 20
96.5951
 30
0.0
 11
73.7704
 21
96.5951
 31
0.0
  0
LINE
  8
0
 62
     0
 10
73.7704
 20
96.5951
 30
0.0
 11
73.7704
 21
97.5953
 31
0.0
  0
LINE
  8
0
 62
     0
 10
73.7704
 20
97.5953
 30
0.0
 11
59.92
 21
97.5953
 31
0.0
  0
LINE
  8
0
 62
     0
 10
40.87
 20
97.5953
 30
0.0
 11
40.87
 21
96.5951
 31
0.0
  0
LINE
  8
0
 62
     0
 10
40.87
 20
96.5951
 30
0.0
 11
40.0706
 21
96.5951
 31
0.0
  0
LINE
  8
0
 62
     0
 10
40.0706
 20
96.5951
 30
0.0
 11
40.0706
 21
93.6459
 31
0.0
  0
LINE
  8
0
 62
     0
 10
40.0706
 20
93.6459
 30
0.0
 11
40.87
 21
93.6459
 31
0.0
  0
LINE
  8
0
 62
     0
 10
40.87
 20
93.6459
 30
0.0
 11
40.87
 21
87.6956
 31
0.0
  0
LINE
  8
0
 62
     0
 10
40.87
 20
87.6956
 30
0.0
 11
40.0706
 21
87.6956
 31
0.0
  0
LINE
  8
0
 62
     0
 10
40.0706
 20
87.6956
 30
0.0
 11
40.0706
 21
84.7453
 31
0.0
  0
LINE
  8
0
 62
     0
 10
40.0706
 20
84.7453
 30
0.0
 11
40.87
 21
84.7453
 31
0.0
  0
LINE
  8
0
 62
     0
 10
40.87
 20
84.7453
 30
0.0
 11
40.87
 21
83.7449
 31
0.0
  0
LINE
  8
0
 62
     0
 10
40.87
 20
83.7449
 30
0.0
 11
54.7204
 21
83.7449
 31
0.0
  0
LINE
  8
0
 62
     0
 10
54.7204
 20
83.7449
 30
0.0
 11
54.7204
 21
84.7453
 31
0.0
  0
LINE
  8
0
 62
     0
 10
54.7204
 20
84.7453
 30
0.0
 11
55.5212
 21
84.7453
 31
0.0
  0
LINE
  8
0
 62
     0
 10
55.5212
 20
84.7453
 30
0.0
 11
55.5212
 21
87.6956
 31
0.0
  0
LINE
  8
0
 62
     0
 10
55.5212
 20
87.6956
 30
0.0
 11
54.7204
 21
87.6956
 31
0.0
  0
LINE
  8
0
 62
     0
 10
54.7204
 20
87.6956
 30
0.0
 11
54.7204
 21
93.6459
 31
0.0
  0
LINE
  8
0
 62
     0
 10
54.7204
 20
93.6459
 30
0.0
 11
55.5212
 21
93.6459
 31
0.0
  0
LINE
  8
0
 62
     0
 10
55.5212
 20
93.6459
 30
0.0
 11
55.5212
 21
96.5951
 31
0.0
  0
LINE
  8
0
 62
     0
 10
55.5212
 20
96.5951
 30
0.0
 11
54.7204
 21
96.5951
 31
0.0
  0
LINE
  8
0
 62
     0
 10
54.7204
 20
96.5951
 30
0.0
 11
54.7204
 21
97.5953
 31
0.0
  0
LINE
  8
0
 62
     0
 10
54.7204
 20
97.5953
 30
0.0
 11
40.87
 21
97.5953
 31
0.0
  0
LINE
  8
0
 62
     0
 10
21.8199
 20
97.5953
 30
0.0
 11
21.8199
 21
96.5951
 31
0.0
  0
LINE
  8
0
 62
     0
 10
21.8199
 20
96.5951
 30
0.0
 11
21.0206
 21
96.5951
 31
0.0
  0
LINE
  8
0
 62
     0
 10
21.0206
 20
96.5951
 30
0.0
 11
21.0206
 21
93.6459
 31
0.0
  0
LINE
  8
0
 62
     0
 10
21.0206
 20
93.6459
 30
0.0
 11
21.8199
 21
93.6459
 31
0.0
  0
LINE
  8
0
 62
     0
 10
21.8199
 20
93.6459
 30
0.0
 11
21.8199
 21
87.6956
 31
0.0
  0
LINE
  8
0
 62
     0
 10
21.8199
 20
87.6956
 30
0.0
 11
21.0206
 21
87.6956
 31
0.0
  0
LINE
  8
0
 62
     0
 10
21.0206
 20
87.6956
 30
0.0
 11
21.0206
 21
84.7453
 31
0.0
  0
LINE
  8
0
 62
     0
 10
21.0206
 20
84.7453
 30
0.0
 11
21.8199
 21
84.7453
 31
0.0
  0
LINE
  8
0
 62
     0
 10
21.8199
 20
84.7453
 30
0.0
 11
21.8199
 21
83.7449
 31
0.0
  0
LINE
  8
0
 62
     0
 10
21.8199
 20
83.7449
 30
0.0
 11
35.6704
 21
83.7449
 31
0.0
  0
LINE
  8
0
 62
     0
 10
35.6704
 20
83.7449
 30
0.0
 11
35.6704
 21
84.7453
 31
0.0
  0
LINE
  8
0
 62
     0
 10
35.6704
 20
84.7453
 30
0.0
 11
36.4712
 21
84.7453
 31
0.0
  0
LINE
  8
0
 62
     0
 10
36.4712
 20
84.7453
 30
0.0
 11
36.4712
 21
87.6956
 31
0.0
  0
LINE
  8
0
 62
     0
 10
36.4712
 20
87.6956
 30
0.0
 11
35.6704
 21
87.6956
 31
0.0
  0
LINE
  8
0
 62
     0
 10
35.6704
 20
87.6956
 30
0.0
 11
35.6704
 21
93.6459
 31
0.0
  0
LINE
  8
0
 62
     0
 10
35.6704
 20
93.6459
 30
0.0
 11
36.4712
 21
93.6459
 31
0.0
  0
LINE
  8
0
 62
     0
 10
36.4712
 20
93.6459
 30
0.0
 11
36.4712
 21
96.5951
 31
0.0
  0
LINE
  8
0
 62
     0
 10
36.4712
 20
96.5951
 30
0.0
 11
35.6704
 21
96.5951
 31
0.0
  0
LINE
  8
0
 62
     0
 10
35.6704
 20
96.5951
 30
0.0
 11
35.6704
 21
97.5953
 31
0.0
  0
LINE
  8
0
 62
     0
 10
35.6704
 20
97.5953
 30
0.0
 11
21.8199
 21
97.5953
 31
0.0
  0
LINE
  8
0
 62
     0
 10
2.76986
 20
97.5953
 30
0.0
 11
2.76986
 21
96.5951
 31
0.0
  0
LINE
  8
0
 62
     0
 10
2.76986
 20
96.5951
 30
0.0
 11
1.9706
 21
96.5951
 31
0.0
  0
LINE
  8
0
 62
     0
 10
1.9706
 20
96.5951
 30
0.0
 11
1.9706
 21
93.6459
 31
0.0
  0
LINE
  8
0
 62
     0
 10
1.9706
 20
93.6459
 30
0.0
 11
2.76986
 21
93.6459
 31
0.0
  0
LINE
  8
0
 62
     0
 10
2.76986
 20
93.6459
 30
0.0
 11
2.76986
 21
87.6956
 31
0.0
  0
LINE
  8
0
 62
     0
 10
2.76986
 20
87.6956
 30
0.0
 11
1.9706
 21
87.6956
 31
0.0
  0
LINE
  8
0
 62
     0
 10
1.9706
 20
87.6956
 30
0.0
 11
1.9706
 21
84.7453
 31
0.0
  0
LINE
  8
0
 62
     0
 10
1.9706
 20
84.7453
 30
0.0
 11
2.76986
 21
84.7453
 31
0.0
  0
LINE
  8
0
 62
     0
 10
2.76986
 20
84.7453
 30
0.0
 11
2.76986
 21
83.7449
 31
0.0
  0
LINE
  8
0
 62
     0
 10
2.76986
 20
83.7449
 30
0.0
 11
16.6205
 21
83.7449
 31
0.0
  0
LINE
  8
0
 62
     0
 10
16.6205
 20
83.7449
 30
0.0
 11
16.6205
 21
84.7453
 31
0.0
  0
LINE
  8
0
 62
     0
 10
16.6205
 20
84.7453
 30
0.0
 11
17.4212
 21
84.7453
 31
0.0
  0
LINE
  8
0
 62
     0
 10
17.4212
 20
84.7453
 30
0.0
 11
17.4212
 21
87.6956
 31
0.0
  0
LINE
  8
0
 62
     0
 10
17.4212
 20
87.6956
 30
0.0
 11
16.6205
 21
87.6956
 31
0.0
  0
LINE
  8
0
 62
     0
 10
16.6205
 20
87.6956
 30
0.0
 11
16.6205
 21
93.6459
 31
0.0
  0
LINE
  8
0
 62
     0
 10
16.6205
 20
93.6459
 30
0.0
 11
17.4212
 21
93.6459
 31
0.0
  0
LINE
  8
0
 62
     0
 10
17.4212
 20
93.6459
 30
0.0
 11
17.4212
 21
96.5951
 31
0.0
  0
LINE
  8
0
 62
     0
 10
17.4212
 20
96.5951
 30
0.0
 11
16.6205
 21
96.5951
 31
0.0
  0
LINE
  8
0
 62
     0
 10
16.6205
 20
96.5951
 30
0.0
 11
16.6205
 21
97.5953
 31
0.0
  0
LINE
  8
0
 62
     0
 10
16.6205
 20
97.5953
 30
0.0
 11
2.76986
 21
97.5953
 31
0.0
  0
LINE
  8
0
 62
     0
 10
259.945
 20
119.027
 30
0.0
 11
259.945
 21
118.026
 31
0.0
  0
LINE
  8
0
 62
     0
 10
259.945
 20
118.026
 30
0.0
 11
259.146
 21
118.026
 31
0.0
  0
LINE
  8
0
 62
     0
 10
259.146
 20
118.026
 30
0.0
 11
259.146
 21
115.076
 31
0.0
  0
LINE
  8
0
 62
     0
 10
259.146
 20
115.076
 30
0.0
 11
259.945
 21
115.076
 31
0.0
  0
LINE
  8
0
 62
     0
 10
259.945
 20
115.076
 30
0.0
 11
259.945
 21
109.127
 31
0.0
  0
LINE
  8
0
 62
     0
 10
259.945
 20
109.127
 30
0.0
 11
259.146
 21
109.127
 31
0.0
  0
LINE
  8
0
 62
     0
 10
259.146
 20
109.127
 30
0.0
 11
259.146
 21
106.177
 31
0.0
  0
LINE
  8
0
 62
     0
 10
259.146
 20
106.177
 30
0.0
 11
259.945
 21
106.177
 31
0.0
  0
LINE
  8
0
 62
     0
 10
259.945
 20
106.177
 30
0.0
 11
259.945
 21
105.176
 31
0.0
  0
LINE
  8
0
 62
     0
 10
259.945
 20
105.176
 30
0.0
 11
273.795
 21
105.176
 31
0.0
  0
LINE
  8
0
 62
     0
 10
273.795
 20
105.176
 30
0.0
 11
273.795
 21
106.177
 31
0.0
  0
LINE
  8
0
 62
     0
 10
273.795
 20
106.177
 30
0.0
 11
274.596
 21
106.177
 31
0.0
  0
LINE
  8
0
 62
     0
 10
274.596
 20
106.177
 30
0.0
 11
274.596
 21
109.127
 31
0.0
  0
LINE
  8
0
 62
     0
 10
274.596
 20
109.127
 30
0.0
 11
273.795
 21
109.127
 31
0.0
  0
LINE
  8
0
 62
     0
 10
273.795
 20
109.127
 30
0.0
 11
273.795
 21
115.076
 31
0.0
  0
LINE
  8
0
 62
     0
 10
273.795
 20
115.076
 30
0.0
 11
274.596
 21
115.076
 31
0.0
  0
LINE
  8
0
 62
     0
 10
274.596
 20
115.076
 30
0.0
 11
274.596
 21
118.026
 31
0.0
  0
LINE
  8
0
 62
     0
 10
274.596
 20
118.026
 30
0.0
 11
273.795
 21
118.026
 31
0.0
  0
LINE
  8
0
 62
     0
 10
273.795
 20
118.026
 30
0.0
 11
273.795
 21
119.027
 31
0.0
  0
LINE
  8
0
 62
     0
 10
273.795
 20
119.027
 30
0.0
 11
259.945
 21
119.027
 31
0.0
  0
LINE
  8
0
 62
     0
 10
236.133
 20
119.027
 30
0.0
 11
236.133
 21
118.026
 31
0.0
  0
LINE
  8
0
 62
     0
 10
236.133
 20
118.026
 30
0.0
 11
235.333
 21
118.026
 31
0.0
  0
LINE
  8
0
 62
     0
 10
235.333
 20
118.026
 30
0.0
 11
235.333
 21
115.076
 31
0.0
  0
LINE
  8
0
 62
     0
 10
235.333
 20
115.076
 30
0.0
 11
236.133
 21
115.076
 31
0.0
  0
LINE
  8
0
 62
     0
 10
236.133
 20
115.076
 30
0.0
 11
236.133
 21
109.127
 31
0.0
  0
LINE
  8
0
 62
     0
 10
236.133
 20
109.127
 30
0.0
 11
235.333
 21
109.127
 31
0.0
  0
LINE
  8
0
 62
     0
 10
235.333
 20
109.127
 30
0.0
 11
235.333
 21
106.177
 31
0.0
  0
LINE
  8
0
 62
     0
 10
235.333
 20
106.177
 30
0.0
 11
236.133
 21
106.177
 31
0.0
  0
LINE
  8
0
 62
     0
 10
236.133
 20
106.177
 30
0.0
 11
236.133
 21
105.176
 31
0.0
  0
LINE
  8
0
 62
     0
 10
236.133
 20
105.176
 30
0.0
 11
249.983
 21
105.176
 31
0.0
  0
LINE
  8
0
 62
     0
 10
249.983
 20
105.176
 30
0.0
 11
249.983
 21
106.177
 31
0.0
  0
LINE
  8
0
 62
     0
 10
249.983
 20
106.177
 30
0.0
 11
250.782
 21
106.177
 31
0.0
  0
LINE
  8
0
 62
     0
 10
250.782
 20
106.177
 30
0.0
 11
250.782
 21
109.127
 31
0.0
  0
LINE
  8
0
 62
     0
 10
250.782
 20
109.127
 30
0.0
 11
249.983
 21
109.127
 31
0.0
  0
LINE
  8
0
 62
     0
 10
249.983
 20
109.127
 30
0.0
 11
249.983
 21
115.076
 31
0.0
  0
LINE
  8
0
 62
     0
 10
249.983
 20
115.076
 30
0.0
 11
250.782
 21
115.076
 31
0.0
  0
LINE
  8
0
 62
     0
 10
250.782
 20
115.076
 30
0.0
 11
250.782
 21
118.026
 31
0.0
  0
LINE
  8
0
 62
     0
 10
250.782
 20
118.026
 30
0.0
 11
249.983
 21
118.026
 31
0.0
  0
LINE
  8
0
 62
     0
 10
249.983
 20
118.026
 30
0.0
 11
249.983
 21
119.027
 31
0.0
  0
LINE
  8
0
 62
     0
 10
249.983
 20
119.027
 30
0.0
 11
236.133
 21
119.027
 31
0.0
  0
LINE
  8
0
 62
     0
 10
217.083
 20
119.027
 30
0.0
 11
217.083
 21
118.026
 31
0.0
  0
LINE
  8
0
 62
     0
 10
217.083
 20
118.026
 30
0.0
 11
216.283
 21
118.026
 31
0.0
  0
LINE
  8
0
 62
     0
 10
216.283
 20
118.026
 30
0.0
 11
216.283
 21
115.076
 31
0.0
  0
LINE
  8
0
 62
     0
 10
216.283
 20
115.076
 30
0.0
 11
217.083
 21
115.076
 31
0.0
  0
LINE
  8
0
 62
     0
 10
217.083
 20
115.076
 30
0.0
 11
217.083
 21
109.127
 31
0.0
  0
LINE
  8
0
 62
     0
 10
217.083
 20
109.127
 30
0.0
 11
216.283
 21
109.127
 31
0.0
  0
LINE
  8
0
 62
     0
 10
216.283
 20
109.127
 30
0.0
 11
216.283
 21
106.177
 31
0.0
  0
LINE
  8
0
 62
     0
 10
216.283
 20
106.177
 30
0.0
 11
217.083
 21
106.177
 31
0.0
  0
LINE
  8
0
 62
     0
 10
217.083
 20
106.177
 30
0.0
 11
217.083
 21
105.176
 31
0.0
  0
LINE
  8
0
 62
     0
 10
217.083
 20
105.176
 30
0.0
 11
230.933
 21
105.176
 31
0.0
  0
LINE
  8
0
 62
     0
 10
230.933
 20
105.176
 30
0.0
 11
230.933
 21
106.177
 31
0.0
  0
LINE
  8
0
 62
     0
 10
230.933
 20
106.177
 30
0.0
 11
231.732
 21
106.177
 31
0.0
  0
LINE
  8
0
 62
     0
 10
231.732
 20
106.177
 30
0.0
 11
231.732
 21
109.127
 31
0.0
  0
LINE
  8
0
 62
     0
 10
231.732
 20
109.127
 30
0.0
 11
230.933
 21
109.127
 31
0.0
  0
LINE
  8
0
 62
     0
 10
230.933
 20
109.127
 30
0.0
 11
230.933
 21
115.076
 31
0.0
  0
LINE
  8
0
 62
     0
 10
230.933
 20
115.076
 30
0.0
 11
231.732
 21
115.076
 31
0.0
  0
LINE
  8
0
 62
     0
 10
231.732
 20
115.076
 30
0.0
 11
231.732
 21
118.026
 31
0.0
  0
LINE
  8
0
 62
     0
 10
231.732
 20
118.026
 30
0.0
 11
230.933
 21
118.026
 31
0.0
  0
LINE
  8
0
 62
     0
 10
230.933
 20
118.026
 30
0.0
 11
230.933
 21
119.027
 31
0.0
  0
LINE
  8
0
 62
     0
 10
230.933
 20
119.027
 30
0.0
 11
217.083
 21
119.027
 31
0.0
  0
LINE
  8
0
 62
     0
 10
198.033
 20
119.027
 30
0.0
 11
198.033
 21
118.026
 31
0.0
  0
LINE
  8
0
 62
     0
 10
198.033
 20
118.026
 30
0.0
 11
197.233
 21
118.026
 31
0.0
  0
LINE
  8
0
 62
     0
 10
197.233
 20
118.026
 30
0.0
 11
197.233
 21
115.076
 31
0.0
  0
LINE
  8
0
 62
     0
 10
197.233
 20
115.076
 30
0.0
 11
198.033
 21
115.076
 31
0.0
  0
LINE
  8
0
 62
     0
 10
198.033
 20
115.076
 30
0.0
 11
198.033
 21
109.127
 31
0.0
  0
LINE
  8
0
 62
     0
 10
198.033
 20
109.127
 30
0.0
 11
197.233
 21
109.127
 31
0.0
  0
LINE
  8
0
 62
     0
 10
197.233
 20
109.127
 30
0.0
 11
197.233
 21
106.177
 31
0.0
  0
LINE
  8
0
 62
     0
 10
197.233
 20
106.177
 30
0.0
 11
198.033
 21
106.177
 31
0.0
  0
LINE
  8
0
 62
     0
 10
198.033
 20
106.177
 30
0.0
 11
198.033
 21
105.176
 31
0.0
  0
LINE
  8
0
 62
     0
 10
198.033
 20
105.176
 30
0.0
 11
211.883
 21
105.176
 31
0.0
  0
LINE
  8
0
 62
     0
 10
211.883
 20
105.176
 30
0.0
 11
211.883
 21
106.177
 31
0.0
  0
LINE
  8
0
 62
     0
 10
211.883
 20
106.177
 30
0.0
 11
212.682
 21
106.177
 31
0.0
  0
LINE
  8
0
 62
     0
 10
212.682
 20
106.177
 30
0.0
 11
212.682
 21
109.127
 31
0.0
  0
LINE
  8
0
 62
     0
 10
212.682
 20
109.127
 30
0.0
 11
211.883
 21
109.127
 31
0.0
  0
LINE
  8
0
 62
     0
 10
211.883
 20
109.127
 30
0.0
 11
211.883
 21
115.076
 31
0.0
  0
LINE
  8
0
 62
     0
 10
211.883
 20
115.076
 30
0.0
 11
212.682
 21
115.076
 31
0.0
  0
LINE
  8
0
 62
     0
 10
212.682
 20
115.076
 30
0.0
 11
212.682
 21
118.026
 31
0.0
  0
LINE
  8
0
 62
     0
 10
212.682
 20
118.026
 30
0.0
 11
211.883
 21
118.026
 31
0.0
  0
LINE
  8
0
 62
     0
 10
211.883
 20
118.026
 30
0.0
 11
211.883
 21
119.027
 31
0.0
  0
LINE
  8
0
 62
     0
 10
211.883
 20
119.027
 30
0.0
 11
198.033
 21
119.027
 31
0.0
  0
LINE
  8
0
 62
     0
 10
178.983
 20
119.027
 30
0.0
 11
178.983
 21
118.026
 31
0.0
  0
LINE
  8
0
 62
     0
 10
178.983
 20
118.026
 30
0.0
 11
178.183
 21
118.026
 31
0.0
  0
LINE
  8
0
 62
     0
 10
178.183
 20
118.026
 30
0.0
 11
178.183
 21
115.076
 31
0.0
  0
LINE
  8
0
 62
     0
 10
178.183
 20
115.076
 30
0.0
 11
178.983
 21
115.076
 31
0.0
  0
LINE
  8
0
 62
     0
 10
178.983
 20
115.076
 30
0.0
 11
178.983
 21
109.127
 31
0.0
  0
LINE
  8
0
 62
     0
 10
178.983
 20
109.127
 30
0.0
 11
178.183
 21
109.127
 31
0.0
  0
LINE
  8
0
 62
     0
 10
178.183
 20
109.127
 30
0.0
 11
178.183
 21
106.177
 31
0.0
  0
LINE
  8
0
 62
     0
 10
178.183
 20
106.177
 30
0.0
 11
178.983
 21
106.177
 31
0.0
  0
LINE
  8
0
 62
     0
 10
178.983
 20
106.177
 30
0.0
 11
178.983
 21
105.176
 31
0.0
  0
LINE
  8
0
 62
     0
 10
178.983
 20
105.176
 30
0.0
 11
192.833
 21
105.176
 31
0.0
  0
LINE
  8
0
 62
     0
 10
192.833
 20
105.176
 30
0.0
 11
192.833
 21
106.177
 31
0.0
  0
LINE
  8
0
 62
     0
 10
192.833
 20
106.177
 30
0.0
 11
193.632
 21
106.177
 31
0.0
  0
LINE
  8
0
 62
     0
 10
193.632
 20
106.177
 30
0.0
 11
193.632
 21
109.127
 31
0.0
  0
LINE
  8
0
 62
     0
 10
193.632
 20
109.127
 30
0.0
 11
192.833
 21
109.127
 31
0.0
  0
LINE
  8
0
 62
     0
 10
192.833
 20
109.127
 30
0.0
 11
192.833
 21
115.076
 31
0.0
  0
LINE
  8
0
 62
     0
 10
192.833
 20
115.076
 30
0.0
 11
193.632
 21
115.076
 31
0.0
  0
LINE
  8
0
 62
     0
 10
193.632
 20
115.076
 30
0.0
 11
193.632
 21
118.026
 31
0.0
  0
LINE
  8
0
 62
     0
 10
193.632
 20
118.026
 30
0.0
 11
192.833
 21
118.026
 31
0.0
  0
LINE
  8
0
 62
     0
 10
192.833
 20
118.026
 30
0.0
 11
192.833
 21
119.027
 31
0.0
  0
LINE
  8
0
 62
     0
 10
192.833
 20
119.027
 30
0.0
 11
178.983
 21
119.027
 31
0.0
  0
LINE
  8
0
 62
     0
 10
159.933
 20
119.027
 30
0.0
 11
159.933
 21
118.026
 31
0.0
  0
LINE
  8
0
 62
     0
 10
159.933
 20
118.026
 30
0.0
 11
159.133
 21
118.026
 31
0.0
  0
LINE
  8
0
 62
     0
 10
159.133
 20
118.026
 30
0.0
 11
159.133
 21
115.076
 31
0.0
  0
LINE
  8
0
 62
     0
 10
159.133
 20
115.076
 30
0.0
 11
159.933
 21
115.076
 31
0.0
  0
LINE
  8
0
 62
     0
 10
159.933
 20
115.076
 30
0.0
 11
159.933
 21
109.127
 31
0.0
  0
LINE
  8
0
 62
     0
 10
159.933
 20
109.127
 30
0.0
 11
159.133
 21
109.127
 31
0.0
  0
LINE
  8
0
 62
     0
 10
159.133
 20
109.127
 30
0.0
 11
159.133
 21
106.177
 31
0.0
  0
LINE
  8
0
 62
     0
 10
159.133
 20
106.177
 30
0.0
 11
159.933
 21
106.177
 31
0.0
  0
LINE
  8
0
 62
     0
 10
159.933
 20
106.177
 30
0.0
 11
159.933
 21
105.176
 31
0.0
  0
LINE
  8
0
 62
     0
 10
159.933
 20
105.176
 30
0.0
 11
173.783
 21
105.176
 31
0.0
  0
LINE
  8
0
 62
     0
 10
173.783
 20
105.176
 30
0.0
 11
173.783
 21
106.177
 31
0.0
  0
LINE
  8
0
 62
     0
 10
173.783
 20
106.177
 30
0.0
 11
174.582
 21
106.177
 31
0.0
  0
LINE
  8
0
 62
     0
 10
174.582
 20
106.177
 30
0.0
 11
174.582
 21
109.127
 31
0.0
  0
LINE
  8
0
 62
     0
 10
174.582
 20
109.127
 30
0.0
 11
173.783
 21
109.127
 31
0.0
  0
LINE
  8
0
 62
     0
 10
173.783
 20
109.127
 30
0.0
 11
173.783
 21
115.076
 31
0.0
  0
LINE
  8
0
 62
     0
 10
173.783
 20
115.076
 30
0.0
 11
174.582
 21
115.076
 31
0.0
  0
LINE
  8
0
 62
     0
 10
174.582
 20
115.076
 30
0.0
 11
174.582
 21
118.026
 31
0.0
  0
LINE
  8
0
 62
     0
 10
174.582
 20
118.026
 30
0.0
 11
173.783
 21
118.026
 31
0.0
  0
LINE
  8
0
 62
     0
 10
173.783
 20
118.026
 30
0.0
 11
173.783
 21
119.027
 31
0.0
  0
LINE
  8
0
 62
     0
 10
173.783
 20
119.027
 30
0.0
 11
159.933
 21
119.027
 31
0.0
  0
LINE
  8
0
 62
     0
 10
140.883
 20
119.027
 30
0.0
 11
140.883
 21
118.026
 31
0.0
  0
LINE
  8
0
 62
     0
 10
140.883
 20
118.026
 30
0.0
 11
140.083
 21
118.026
 31
0.0
  0
LINE
  8
0
 62
     0
 10
140.083
 20
118.026
 30
0.0
 11
140.083
 21
115.076
 31
0.0
  0
LINE
  8
0
 62
     0
 10
140.083
 20
115.076
 30
0.0
 11
140.883
 21
115.076
 31
0.0
  0
LINE
  8
0
 62
     0
 10
140.883
 20
115.076
 30
0.0
 11
140.883
 21
109.127
 31
0.0
  0
LINE
  8
0
 62
     0
 10
140.883
 20
109.127
 30
0.0
 11
140.083
 21
109.127
 31
0.0
  0
LINE
  8
0
 62
     0
 10
140.083
 20
109.127
 30
0.0
 11
140.083
 21
106.177
 31
0.0
  0
LINE
  8
0
 62
     0
 10
140.083
 20
106.177
 30
0.0
 11
140.883
 21
106.177
 31
0.0
  0
LINE
  8
0
 62
     0
 10
140.883
 20
106.177
 30
0.0
 11
140.883
 21
105.176
 31
0.0
  0
LINE
  8
0
 62
     0
 10
140.883
 20
105.176
 30
0.0
 11
154.733
 21
105.176
 31
0.0
  0
LINE
  8
0
 62
     0
 10
154.733
 20
105.176
 30
0.0
 11
154.733
 21
106.177
 31
0.0
  0
LINE
  8
0
 62
     0
 10
154.733
 20
106.177
 30
0.0
 11
155.532
 21
106.177
 31
0.0
  0
LINE
  8
0
 62
     0
 10
155.532
 20
106.177
 30
0.0
 11
155.532
 21
109.127
 31
0.0
  0
LINE
  8
0
 62
     0
 10
155.532
 20
109.127
 30
0.0
 11
154.733
 21
109.127
 31
0.0
  0
LINE
  8
0
 62
     0
 10
154.733
 20
109.127
 30
0.0
 11
154.733
 21
115.076
 31
0.0
  0
LINE
  8
0
 62
     0
 10
154.733
 20
115.076
 30
0.0
 11
155.532
 21
115.076
 31
0.0
  0
LINE
  8
0
 62
     0
 10
155.532
 20
115.076
 30
0.0
 11
155.532
 21
118.026
 31
0.0
  0
LINE
  8
0
 62
     0
 10
155.532
 20
118.026
 30
0.0
 11
154.733
 21
118.026
 31
0.0
  0
LINE
  8
0
 62
     0
 10
154.733
 20
118.026
 30
0.0
 11
154.733
 21
119.027
 31
0.0
  0
LINE
  8
0
 62
     0
 10
154.733
 20
119.027
 30
0.0
 11
140.883
 21
119.027
 31
0.0
  0
LINE
  8
0
 62
     0
 10
121.833
 20
119.027
 30
0.0
 11
121.833
 21
118.026
 31
0.0
  0
LINE
  8
0
 62
     0
 10
121.833
 20
118.026
 30
0.0
 11
121.033
 21
118.026
 31
0.0
  0
LINE
  8
0
 62
     0
 10
121.033
 20
118.026
 30
0.0
 11
121.033
 21
115.076
 31
0.0
  0
LINE
  8
0
 62
     0
 10
121.033
 20
115.076
 30
0.0
 11
121.833
 21
115.076
 31
0.0
  0
LINE
  8
0
 62
     0
 10
121.833
 20
115.076
 30
0.0
 11
121.833
 21
109.127
 31
0.0
  0
LINE
  8
0
 62
     0
 10
121.833
 20
109.127
 30
0.0
 11
121.033
 21
109.127
 31
0.0
  0
LINE
  8
0
 62
     0
 10
121.033
 20
109.127
 30
0.0
 11
121.033
 21
106.177
 31
0.0
  0
LINE
  8
0
 62
     0
 10
121.033
 20
106.177
 30
0.0
 11
121.833
 21
106.177
 31
0.0
  0
LINE
  8
0
 62
     0
 10
121.833
 20
106.177
 30
0.0
 11
121.833
 21
105.176
 31
0.0
  0
LINE
  8
0
 62
     0
 10
121.833
 20
105.176
 30
0.0
 11
135.683
 21
105.176
 31
0.0
  0
LINE
  8
0
 62
     0
 10
135.683
 20
105.176
 30
0.0
 11
135.683
 21
106.177
 31
0.0
  0
LINE
  8
0
 62
     0
 10
135.683
 20
106.177
 30
0.0
 11
136.482
 21
106.177
 31
0.0
  0
LINE
  8
0
 62
     0
 10
136.482
 20
106.177
 30
0.0
 11
136.482
 21
109.127
 31
0.0
  0
LINE
  8
0
 62
     0
 10
136.482
 20
109.127
 30
0.0
 11
135.683
 21
109.127
 31
0.0
  0
LINE
  8
0
 62
     0
 10
135.683
 20
109.127
 30
0.0
 11
135.683
 21
115.076
 31
0.0
  0
LINE
  8
0
 62
     0
 10
135.683
 20
115.076
 30
0.0
 11
136.482
 21
115.076
 31
0.0
  0
LINE
  8
0
 62
     0
 10
136.482
 20
115.076
 30
0.0
 11
136.482
 21
118.026
 31
0.0
  0
LINE
  8
0
 62
     0
 10
136.482
 20
118.026
 30
0.0
 11
135.683
 21
118.026
 31
0.0
  0
LINE
  8
0
 62
     0
 10
135.683
 20
118.026
 30
0.0
 11
135.683
 21
119.027
 31
0.0
  0
LINE
  8
0
 62
     0
 10
135.683
 20
119.027
 30
0.0
 11
121.833
 21
119.027
 31
0.0
  0
LINE
  8
0
 62
     0
 10
102.783
 20
119.027
 30
0.0
 11
102.783
 21
118.026
 31
0.0
  0
LINE
  8
0
 62
     0
 10
102.783
 20
118.026
 30
0.0
 11
101.983
 21
118.026
 31
0.0
  0
LINE
  8
0
 62
     0
 10
101.983
 20
118.026
 30
0.0
 11
101.983
 21
115.076
 31
0.0
  0
LINE
  8
0
 62
     0
 10
101.983
 20
115.076
 30
0.0
 11
102.783
 21
115.076
 31
0.0
  0
LINE
  8
0
 62
     0
 10
102.783
 20
115.076
 30
0.0
 11
102.783
 21
109.127
 31
0.0
  0
LINE
  8
0
 62
     0
 10
102.783
 20
109.127
 30
0.0
 11
101.983
 21
109.127
 31
0.0
  0
LINE
  8
0
 62
     0
 10
101.983
 20
109.127
 30
0.0
 11
101.983
 21
106.177
 31
0.0
  0
LINE
  8
0
 62
     0
 10
101.983
 20
106.177
 30
0.0
 11
102.783
 21
106.177
 31
0.0
  0
LINE
  8
0
 62
     0
 10
102.783
 20
106.177
 30
0.0
 11
102.783
 21
105.176
 31
0.0
  0
LINE
  8
0
 62
     0
 10
102.783
 20
105.176
 30
0.0
 11
116.633
 21
105.176
 31
0.0
  0
LINE
  8
0
 62
     0
 10
116.633
 20
105.176
 30
0.0
 11
116.633
 21
106.177
 31
0.0
  0
LINE
  8
0
 62
     0
 10
116.633
 20
106.177
 30
0.0
 11
117.432
 21
106.177
 31
0.0
  0
LINE
  8
0
 62
     0
 10
117.432
 20
106.177
 30
0.0
 11
117.432
 21
109.127
 31
0.0
  0
LINE
  8
0
 62
     0
 10
117.432
 20
109.127
 30
0.0
 11
116.633
 21
109.127
 31
0.0
  0
LINE
  8
0
 62
     0
 10
116.633
 20
109.127
 30
0.0
 11
116.633
 21
115.076
 31
0.0
  0
LINE
  8
0
 62
     0
 10
116.633
 20
115.076
 30
0.0
 11
117.432
 21
115.076
 31
0.0
  0
LINE
  8
0
 62
     0
 10
117.432
 20
115.076
 30
0.0
 11
117.432
 21
118.026
 31
0.0
  0
LINE
  8
0
 62
     0
 10
117.432
 20
118.026
 30
0.0
 11
116.633
 21
118.026
 31
0.0
  0
LINE
  8
0
 62
     0
 10
116.633
 20
118.026
 30
0.0
 11
116.633
 21
119.027
 31
0.0
  0
LINE
  8
0
 62
     0
 10
116.633
 20
119.027
 30
0.0
 11
102.783
 21
119.027
 31
0.0
  0
LINE
  8
0
 62
     0
 10
83.7325
 20
119.027
 30
0.0
 11
83.7325
 21
118.026
 31
0.0
  0
LINE
  8
0
 62
     0
 10
83.7325
 20
118.026
 30
0.0
 11
82.9331
 21
118.026
 31
0.0
  0
LINE
  8
0
 62
     0
 10
82.9331
 20
118.026
 30
0.0
 11
82.9331
 21
115.076
 31
0.0
  0
LINE
  8
0
 62
     0
 10
82.9331
 20
115.076
 30
0.0
 11
83.7325
 21
115.076
 31
0.0
  0
LINE
  8
0
 62
     0
 10
83.7325
 20
115.076
 30
0.0
 11
83.7325
 21
109.127
 31
0.0
  0
LINE
  8
0
 62
     0
 10
83.7325
 20
109.127
 30
0.0
 11
82.9331
 21
109.127
 31
0.0
  0
LINE
  8
0
 62
     0
 10
82.9331
 20
109.127
 30
0.0
 11
82.9331
 21
106.177
 31
0.0
  0
LINE
  8
0
 62
     0
 10
82.9331
 20
106.177
 30
0.0
 11
83.7325
 21
106.177
 31
0.0
  0
LINE
  8
0
 62
     0
 10
83.7325
 20
106.177
 30
0.0
 11
83.7325
 21
105.176
 31
0.0
  0
LINE
  8
0
 62
     0
 10
83.7325
 20
105.176
 30
0.0
 11
97.5829
 21
105.176
 31
0.0
  0
LINE
  8
0
 62
     0
 10
97.5829
 20
105.176
 30
0.0
 11
97.5829
 21
106.177
 31
0.0
  0
LINE
  8
0
 62
     0
 10
97.5829
 20
106.177
 30
0.0
 11
98.3823
 21
106.177
 31
0.0
  0
LINE
  8
0
 62
     0
 10
98.3823
 20
106.177
 30
0.0
 11
98.3823
 21
109.127
 31
0.0
  0
LINE
  8
0
 62
     0
 10
98.3823
 20
109.127
 30
0.0
 11
97.5829
 21
109.127
 31
0.0
  0
LINE
  8
0
 62
     0
 10
97.5829
 20
109.127
 30
0.0
 11
97.5829
 21
115.076
 31
0.0
  0
LINE
  8
0
 62
     0
 10
97.5829
 20
115.076
 30
0.0
 11
98.3823
 21
115.076
 31
0.0
  0
LINE
  8
0
 62
     0
 10
98.3823
 20
115.076
 30
0.0
 11
98.3823
 21
118.026
 31
0.0
  0
LINE
  8
0
 62
     0
 10
98.3823
 20
118.026
 30
0.0
 11
97.5829
 21
118.026
 31
0.0
  0
LINE
  8
0
 62
     0
 10
97.5829
 20
118.026
 30
0.0
 11
97.5829
 21
119.027
 31
0.0
  0
LINE
  8
0
 62
     0
 10
97.5829
 20
119.027
 30
0.0
 11
83.7325
 21
119.027
 31
0.0
  0
LINE
  8
0
 62
     0
 10
64.6825
 20
119.027
 30
0.0
 11
64.6825
 21
118.026
 31
0.0
  0
LINE
  8
0
 62
     0
 10
64.6825
 20
118.026
 30
0.0
 11
63.8831
 21
118.026
 31
0.0
  0
LINE
  8
0
 62
     0
 10
63.8831
 20
118.026
 30
0.0
 11
63.8831
 21
115.076
 31
0.0
  0
LINE
  8
0
 62
     0
 10
63.8831
 20
115.076
 30
0.0
 11
64.6825
 21
115.076
 31
0.0
  0
LINE
  8
0
 62
     0
 10
64.6825
 20
115.076
 30
0.0
 11
64.6825
 21
109.127
 31
0.0
  0
LINE
  8
0
 62
     0
 10
64.6825
 20
109.127
 30
0.0
 11
63.8831
 21
109.127
 31
0.0
  0
LINE
  8
0
 62
     0
 10
63.8831
 20
109.127
 30
0.0
 11
63.8831
 21
106.177
 31
0.0
  0
LINE
  8
0
 62
     0
 10
63.8831
 20
106.177
 30
0.0
 11
64.6825
 21
106.177
 31
0.0
  0
LINE
  8
0
 62
     0
 10
64.6825
 20
106.177
 30
0.0
 11
64.6825
 21
105.176
 31
0.0
  0
LINE
  8
0
 62
     0
 10
64.6825
 20
105.176
 30
0.0
 11
78.5329
 21
105.176
 31
0.0
  0
LINE
  8
0
 62
     0
 10
78.5329
 20
105.176
 30
0.0
 11
78.5329
 21
106.177
 31
0.0
  0
LINE
  8
0
 62
     0
 10
78.5329
 20
106.177
 30
0.0
 11
79.3323
 21
106.177
 31
0.0
  0
LINE
  8
0
 62
     0
 10
79.3323
 20
106.177
 30
0.0
 11
79.3323
 21
109.127
 31
0.0
  0
LINE
  8
0
 62
     0
 10
79.3323
 20
109.127
 30
0.0
 11
78.5329
 21
109.127
 31
0.0
  0
LINE
  8
0
 62
     0
 10
78.5329
 20
109.127
 30
0.0
 11
78.5329
 21
115.076
 31
0.0
  0
LINE
  8
0
 62
     0
 10
78.5329
 20
115.076
 30
0.0
 11
79.3323
 21
115.076
 31
0.0
  0
LINE
  8
0
 62
     0
 10
79.3323
 20
115.076
 30
0.0
 11
79.3323
 21
118.026
 31
0.0
  0
LINE
  8
0
 62
     0
 10
79.3323
 20
118.026
 30
0.0
 11
78.5329
 21
118.026
 31
0.0
  0
LINE
  8
0
 62
     0
 10
78.5329
 20
118.026
 30
0.0
 11
78.5329
 21
119.027
 31
0.0
  0
LINE
  8
0
 62
     0
 10
78.5329
 20
119.027
 30
0.0
 11
64.6825
 21
119.027
 31
0.0
  0
LINE
  8
0
 62
     0
 10
45.6325
 20
119.027
 30
0.0
 11
45.6325
 21
118.026
 31
0.0
  0
LINE
  8
0
 62
     0
 10
45.6325
 20
118.026
 30
0.0
 11
44.8331
 21
118.026
 31
0.0
  0
LINE
  8
0
 62
     0
 10
44.8331
 20
118.026
 30
0.0
 11
44.8331
 21
115.076
 31
0.0
  0
LINE
  8
0
 62
     0
 10
44.8331
 20
115.076
 30
0.0
 11
45.6325
 21
115.076
 31
0.0
  0
LINE
  8
0
 62
     0
 10
45.6325
 20
115.076
 30
0.0
 11
45.6325
 21
109.127
 31
0.0
  0
LINE
  8
0
 62
     0
 10
45.6325
 20
109.127
 30
0.0
 11
44.8331
 21
109.127
 31
0.0
  0
LINE
  8
0
 62
     0
 10
44.8331
 20
109.127
 30
0.0
 11
44.8331
 21
106.177
 31
0.0
  0
LINE
  8
0
 62
     0
 10
44.8331
 20
106.177
 30
0.0
 11
45.6325
 21
106.177
 31
0.0
  0
LINE
  8
0
 62
     0
 10
45.6325
 20
106.177
 30
0.0
 11
45.6325
 21
105.176
 31
0.0
  0
LINE
  8
0
 62
     0
 10
45.6325
 20
105.176
 30
0.0
 11
59.4829
 21
105.176
 31
0.0
  0
LINE
  8
0
 62
     0
 10
59.4829
 20
105.176
 30
0.0
 11
59.4829
 21
106.177
 31
0.0
  0
LINE
  8
0
 62
     0
 10
59.4829
 20
106.177
 30
0.0
 11
60.2823
 21
106.177
 31
0.0
  0
LINE
  8
0
 62
     0
 10
60.2823
 20
106.177
 30
0.0
 11
60.2823
 21
109.127
 31
0.0
  0
LINE
  8
0
 62
     0
 10
60.2823
 20
109.127
 30
0.0
 11
59.4829
 21
109.127
 31
0.0
  0
LINE
  8
0
 62
     0
 10
59.4829
 20
109.127
 30
0.0
 11
59.4829
 21
115.076
 31
0.0
  0
LINE
  8
0
 62
     0
 10
59.4829
 20
115.076
 30
0.0
 11
60.2823
 21
115.076
 31
0.0
  0
LINE
  8
0
 62
     0
 10
60.2823
 20
115.076
 30
0.0
 11
60.2823
 21
118.026
 31
0.0
  0
LINE
  8
0
 62
     0
 10
60.2823
 20
118.026
 30
0.0
 11
59.4829
 21
118.026
 31
0.0
  0
LINE
  8
0
 62
     0
 10
59.4829
 20
118.026
 30
0.0
 11
59.4829
 21
119.027
 31
0.0
  0
LINE
  8
0
 62
     0
 10
59.4829
 20
119.027
 30
0.0
 11
45.6325
 21
119.027
 31
0.0
  0
LINE
  8
0
 62
     0
 10
26.5824
 20
119.027
 30
0.0
 11
26.5824
 21
118.026
 31
0.0
  0
LINE
  8
0
 62
     0
 10
26.5824
 20
118.026
 30
0.0
 11
25.7831
 21
118.026
 31
0.0
  0
LINE
  8
0
 62
     0
 10
25.7831
 20
118.026
 30
0.0
 11
25.7831
 21
115.076
 31
0.0
  0
LINE
  8
0
 62
     0
 10
25.7831
 20
115.076
 30
0.0
 11
26.5824
 21
115.076
 31
0.0
  0
LINE
  8
0
 62
     0
 10
26.5824
 20
115.076
 30
0.0
 11
26.5824
 21
109.127
 31
0.0
  0
LINE
  8
0
 62
     0
 10
26.5824
 20
109.127
 30
0.0
 11
25.7831
 21
109.127
 31
0.0
  0
LINE
  8
0
 62
     0
 10
25.7831
 20
109.127
 30
0.0
 11
25.7831
 21
106.177
 31
0.0
  0
LINE
  8
0
 62
     0
 10
25.7831
 20
106.177
 30
0.0
 11
26.5824
 21
106.177
 31
0.0
  0
LINE
  8
0
 62
     0
 10
26.5824
 20
106.177
 30
0.0
 11
26.5824
 21
105.176
 31
0.0
  0
LINE
  8
0
 62
     0
 10
26.5824
 20
105.176
 30
0.0
 11
40.4329
 21
105.176
 31
0.0
  0
LINE
  8
0
 62
     0
 10
40.4329
 20
105.176
 30
0.0
 11
40.4329
 21
106.177
 31
0.0
  0
LINE
  8
0
 62
     0
 10
40.4329
 20
106.177
 30
0.0
 11
41.2323
 21
106.177
 31
0.0
  0
LINE
  8
0
 62
     0
 10
41.2323
 20
106.177
 30
0.0
 11
41.2323
 21
109.127
 31
0.0
  0
LINE
  8
0
 62
     0
 10
41.2323
 20
109.127
 30
0.0
 11
40.4329
 21
109.127
 31
0.0
  0
LINE
  8
0
 62
     0
 10
40.4329
 20
109.127
 30
0.0
 11
40.4329
 21
115.076
 31
0.0
  0
LINE
  8
0
 62
     0
 10
40.4329
 20
115.076
 30
0.0
 11
41.2323
 21
115.076
 31
0.0
  0
LINE
  8
0
 62
     0
 10
41.2323
 20
115.076
 30
0.0
 11
41.2323
 21
118.026
 31
0.0
  0
LINE
  8
0
 62
     0
 10
41.2323
 20
118.026
 30
0.0
 11
40.4329
 21
118.026
 31
0.0
  0
LINE
  8
0
 62
     0
 10
40.4329
 20
118.026
 30
0.0
 11
40.4329
 21
119.027
 31
0.0
  0
LINE
  8
0
 62
     0
 10
40.4329
 20
119.027
 30
0.0
 11
26.5824
 21
119.027
 31
0.0
  0
LINE
  8
0
 62
     0
 10
2.76986
 20
119.027
 30
0.0
 11
2.76986
 21
118.026
 31
0.0
  0
LINE
  8
0
 62
     0
 10
2.76986
 20
118.026
 30
0.0
 11
1.9706
 21
118.026
 31
0.0
  0
LINE
  8
0
 62
     0
 10
1.9706
 20
118.026
 30
0.0
 11
1.9706
 21
115.076
 31
0.0
  0
LINE
  8
0
 62
     0
 10
1.9706
 20
115.076
 30
0.0
 11
2.76986
 21
115.076
 31
0.0
  0
LINE
  8
0
 62
     0
 10
2.76986
 20
115.076
 30
0.0
 11
2.76986
 21
109.127
 31
0.0
  0
LINE
  8
0
 62
     0
 10
2.76986
 20
109.127
 30
0.0
 11
1.9706
 21
109.127
 31
0.0
  0
LINE
  8
0
 62
     0
 10
1.9706
 20
109.127
 30
0.0
 11
1.9706
 21
106.177
 31
0.0
  0
LINE
  8
0
 62
     0
 10
1.9706
 20
106.177
 30
0.0
 11
2.76986
 21
106.177
 31
0.0
  0
LINE
  8
0
 62
     0
 10
2.76986
 20
106.177
 30
0.0
 11
2.76986
 21
105.176
 31
0.0
  0
LINE
  8
0
 62
     0
 10
2.76986
 20
105.176
 30
0.0
 11
16.6205
 21
105.176
 31
0.0
  0
LINE
  8
0
 62
     0
 10
16.6205
 20
105.176
 30
0.0
 11
16.6205
 21
106.177
 31
0.0
  0
LINE
  8
0
 62
     0
 10
16.6205
 20
106.177
 30
0.0
 11
17.4212
 21
106.177
 31
0.0
  0
LINE
  8
0
 62
     0
 10
17.4212
 20
106.177
 30
0.0
 11
17.4212
 21
109.127
 31
0.0
  0
LINE
  8
0
 62
     0
 10
17.4212
 20
109.127
 30
0.0
 11
16.6205
 21
109.127
 31
0.0
  0
LINE
  8
0
 62
     0
 10
16.6205
 20
109.127
 30
0.0
 11
16.6205
 21
115.076
 31
0.0
  0
LINE
  8
0
 62
     0
 10
16.6205
 20
115.076
 30
0.0
 11
17.4212
 21
115.076
 31
0.0
  0
LINE
  8
0
 62
     0
 10
17.4212
 20
115.076
 30
0.0
 11
17.4212
 21
118.026
 31
0.0
  0
LINE
  8
0
 62
     0
 10
17.4212
 20
118.026
 30
0.0
 11
16.6205
 21
118.026
 31
0.0
  0
LINE
  8
0
 62
     0
 10
16.6205
 20
118.026
 30
0.0
 11
16.6205
 21
119.027
 31
0.0
  0
LINE
  8
0
 62
     0
 10
16.6205
 20
119.027
 30
0.0
 11
2.76986
 21
119.027
 31
0.0
  0
ENDSEC
  0
EOF
