  0
SECTION
  2
HEADER
  9
$ACADVER
  1
AC1009
  9
$EXTMIN
 10
0.0
 20
0.0
 30
0.0
  9
$EXTMAX
 10
1000.0
 20
1000.0
 30
0.0
  9
$FILLMODE
 70
 0
  9
$SPLFRAME
 70
 1
  0
ENDSEC
  0
SECTION
  2
TABLES
  0
TABLE
  2
LAYER
 70
1
  0
LAYER
  2
0
 70
     0
 62
     7
  6
CONTINUOUS
  0
ENDTAB
  0
ENDSEC
  0
SECTION
  2
ENTITIES
  0
LINE
  8
0
 62
     0
 10
284.153
 20
119.491
 30
0.0
 11
284.309
 21
119.473
 31
0.0
  0
LINE
  8
0
 62
     0
 10
284.309
 20
119.473
 30
0.0
 11
284.463
 21
119.443
 31
0.0
  0
LINE
  8
0
 62
     0
 10
284.463
 20
119.443
 30
0.0
 11
284.614
 21
119.4
 31
0.0
  0
LINE
  8
0
 62
     0
 10
284.614
 20
119.4
 30
0.0
 11
284.762
 21
119.345
 31
0.0
  0
LINE
  8
0
 62
     0
 10
284.762
 20
119.345
 30
0.0
 11
284.904
 21
119.28
 31
0.0
  0
LINE
  8
0
 62
     0
 10
284.904
 20
119.28
 30
0.0
 11
285.04
 21
119.203
 31
0.0
  0
LINE
  8
0
 62
     0
 10
285.04
 20
119.203
 30
0.0
 11
285.171
 21
119.116
 31
0.0
  0
LINE
  8
0
 62
     0
 10
285.171
 20
119.116
 30
0.0
 11
285.294
 21
119.018
 31
0.0
  0
LINE
  8
0
 62
     0
 10
285.294
 20
119.018
 30
0.0
 11
285.411
 21
118.912
 31
0.0
  0
LINE
  8
0
 62
     0
 10
285.411
 20
118.912
 30
0.0
 11
285.517
 21
118.797
 31
0.0
  0
LINE
  8
0
 62
     0
 10
285.517
 20
118.797
 30
0.0
 11
285.615
 21
118.673
 31
0.0
  0
LINE
  8
0
 62
     0
 10
285.615
 20
118.673
 30
0.0
 11
285.702
 21
118.541
 31
0.0
  0
LINE
  8
0
 62
     0
 10
285.702
 20
118.541
 30
0.0
 11
285.779
 21
118.405
 31
0.0
  0
LINE
  8
0
 62
     0
 10
285.779
 20
118.405
 30
0.0
 11
285.844
 21
118.263
 31
0.0
  0
LINE
  8
0
 62
     0
 10
285.844
 20
118.263
 30
0.0
 11
285.899
 21
118.116
 31
0.0
  0
LINE
  8
0
 62
     0
 10
285.899
 20
118.116
 30
0.0
 11
285.94
 21
117.964
 31
0.0
  0
LINE
  8
0
 62
     0
 10
285.94
 20
117.964
 30
0.0
 11
285.972
 21
117.81
 31
0.0
  0
LINE
  8
0
 62
     0
 10
285.972
 20
117.81
 30
0.0
 11
285.99
 21
117.654
 31
0.0
  0
LINE
  8
0
 62
     0
 10
285.99
 20
117.654
 30
0.0
 11
285.997
 21
117.497
 31
0.0
  0
LINE
  8
0
 62
     0
 10
285.997
 20
117.497
 30
0.0
 11
285.997
 21
2.28479
 31
0.0
  0
LINE
  8
0
 62
     0
 10
285.997
 20
2.28479
 30
0.0
 11
285.99
 21
2.12769
 31
0.0
  0
LINE
  8
0
 62
     0
 10
285.99
 20
2.12769
 30
0.0
 11
285.972
 21
1.9706
 31
0.0
  0
LINE
  8
0
 62
     0
 10
285.972
 20
1.9706
 30
0.0
 11
285.94
 21
1.81763
 31
0.0
  0
LINE
  8
0
 62
     0
 10
285.94
 20
1.81763
 30
0.0
 11
285.899
 21
1.66605
 31
0.0
  0
LINE
  8
0
 62
     0
 10
285.899
 20
1.66605
 30
0.0
 11
285.844
 21
1.5186
 31
0.0
  0
LINE
  8
0
 62
     0
 10
285.844
 20
1.5186
 30
0.0
 11
285.779
 21
1.37666
 31
0.0
  0
LINE
  8
0
 62
     0
 10
285.779
 20
1.37666
 30
0.0
 11
285.702
 21
1.23886
 31
0.0
  0
LINE
  8
0
 62
     0
 10
285.702
 20
1.23886
 30
0.0
 11
285.615
 21
1.10794
 31
0.0
  0
LINE
  8
0
 62
     0
 10
285.615
 20
1.10794
 30
0.0
 11
285.517
 21
0.985298
 31
0.0
  0
LINE
  8
0
 62
     0
 10
285.517
 20
0.985298
 30
0.0
 11
285.411
 21
0.869541
 31
0.0
  0
LINE
  8
0
 62
     0
 10
285.411
 20
0.869541
 30
0.0
 11
285.294
 21
0.763432
 31
0.0
  0
LINE
  8
0
 62
     0
 10
285.294
 20
0.763432
 30
0.0
 11
285.171
 21
0.665593
 31
0.0
  0
LINE
  8
0
 62
     0
 10
285.171
 20
0.665593
 30
0.0
 11
285.04
 21
0.578778
 31
0.0
  0
LINE
  8
0
 62
     0
 10
285.04
 20
0.578778
 30
0.0
 11
284.904
 21
0.501608
 31
0.0
  0
LINE
  8
0
 62
     0
 10
284.904
 20
0.501608
 30
0.0
 11
284.762
 21
0.436838
 31
0.0
  0
LINE
  8
0
 62
     0
 10
284.762
 20
0.436838
 30
0.0
 11
284.614
 21
0.381716
 31
0.0
  0
LINE
  8
0
 62
     0
 10
284.614
 20
0.381716
 30
0.0
 11
284.463
 21
0.338998
 31
0.0
  0
LINE
  8
0
 62
     0
 10
284.463
 20
0.338998
 30
0.0
 11
284.309
 21
0.308681
 31
0.0
  0
LINE
  8
0
 62
     0
 10
284.309
 20
0.308681
 30
0.0
 11
284.153
 21
0.290766
 31
0.0
  0
LINE
  8
0
 62
     0
 10
284.153
 20
0.290766
 30
0.0
 11
283.996
 21
0.283876
 31
0.0
  0
LINE
  8
0
 62
     0
 10
283.996
 20
0.283876
 30
0.0
 11
2.096
 21
0.283876
 31
0.0
  0
LINE
  8
0
 62
     0
 10
2.096
 20
0.283876
 30
0.0
 11
1.9389
 21
0.290766
 31
0.0
  0
LINE
  8
0
 62
     0
 10
1.9389
 20
0.290766
 30
0.0
 11
1.7818
 21
0.308681
 31
0.0
  0
LINE
  8
0
 62
     0
 10
1.7818
 20
0.308681
 30
0.0
 11
1.62884
 21
0.338998
 31
0.0
  0
LINE
  8
0
 62
     0
 10
1.62884
 20
0.338998
 30
0.0
 11
1.47588
 21
0.381716
 31
0.0
  0
LINE
  8
0
 62
     0
 10
1.47588
 20
0.381716
 30
0.0
 11
1.32981
 21
0.436838
 31
0.0
  0
LINE
  8
0
 62
     0
 10
1.32981
 20
0.436838
 30
0.0
 11
1.18787
 21
0.501608
 31
0.0
  0
LINE
  8
0
 62
     0
 10
1.18787
 20
0.501608
 30
0.0
 11
1.05006
 21
0.578778
 31
0.0
  0
LINE
  8
0
 62
     0
 10
1.05006
 20
0.578778
 30
0.0
 11
0.919152
 21
0.665593
 31
0.0
  0
LINE
  8
0
 62
     0
 10
0.919152
 20
0.665593
 30
0.0
 11
0.796505
 21
0.763432
 31
0.0
  0
LINE
  8
0
 62
     0
 10
0.796505
 20
0.763432
 30
0.0
 11
0.680752
 21
0.869541
 31
0.0
  0
LINE
  8
0
 62
     0
 10
0.680752
 20
0.869541
 30
0.0
 11
0.574643
 21
0.985298
 31
0.0
  0
LINE
  8
0
 62
     0
 10
0.574643
 20
0.985298
 30
0.0
 11
0.4768
 21
1.10794
 31
0.0
  0
LINE
  8
0
 62
     0
 10
0.4768
 20
1.10794
 30
0.0
 11
0.389985
 21
1.23886
 31
0.0
  0
LINE
  8
0
 62
     0
 10
0.389985
 20
1.23886
 30
0.0
 11
0.312815
 21
1.37666
 31
0.0
  0
LINE
  8
0
 62
     0
 10
0.312815
 20
1.37666
 30
0.0
 11
0.248047
 21
1.5186
 31
0.0
  0
LINE
  8
0
 62
     0
 10
0.248047
 20
1.5186
 30
0.0
 11
0.192925
 21
1.66605
 31
0.0
  0
LINE
  8
0
 62
     0
 10
0.192925
 20
1.66605
 30
0.0
 11
0.150206
 21
1.81763
 31
0.0
  0
LINE
  8
0
 62
     0
 10
0.150206
 20
1.81763
 30
0.0
 11
0.119889
 21
1.9706
 31
0.0
  0
LINE
  8
0
 62
     0
 10
0.119889
 20
1.9706
 30
0.0
 11
0.101975
 21
2.12769
 31
0.0
  0
LINE
  8
0
 62
     0
 10
0.101975
 20
2.12769
 30
0.0
 11
0.0950846
 21
2.28479
 31
0.0
  0
LINE
  8
0
 62
     0
 10
0.0950846
 20
2.28479
 30
0.0
 11
0.0950846
 21
117.497
 31
0.0
  0
LINE
  8
0
 62
     0
 10
0.0950846
 20
117.497
 30
0.0
 11
0.101975
 21
117.654
 31
0.0
  0
LINE
  8
0
 62
     0
 10
0.101975
 20
117.654
 30
0.0
 11
0.119889
 21
117.81
 31
0.0
  0
LINE
  8
0
 62
     0
 10
0.119889
 20
117.81
 30
0.0
 11
0.150206
 21
117.964
 31
0.0
  0
LINE
  8
0
 62
     0
 10
0.150206
 20
117.964
 30
0.0
 11
0.192925
 21
118.116
 31
0.0
  0
LINE
  8
0
 62
     0
 10
0.192925
 20
118.116
 30
0.0
 11
0.248047
 21
118.263
 31
0.0
  0
LINE
  8
0
 62
     0
 10
0.248047
 20
118.263
 30
0.0
 11
0.312815
 21
118.405
 31
0.0
  0
LINE
  8
0
 62
     0
 10
0.312815
 20
118.405
 30
0.0
 11
0.389985
 21
118.541
 31
0.0
  0
LINE
  8
0
 62
     0
 10
0.389985
 20
118.541
 30
0.0
 11
0.4768
 21
118.673
 31
0.0
  0
LINE
  8
0
 62
     0
 10
0.4768
 20
118.673
 30
0.0
 11
0.574643
 21
118.797
 31
0.0
  0
LINE
  8
0
 62
     0
 10
0.574643
 20
118.797
 30
0.0
 11
0.680752
 21
118.912
 31
0.0
  0
LINE
  8
0
 62
     0
 10
0.680752
 20
118.912
 30
0.0
 11
0.796505
 21
119.018
 31
0.0
  0
LINE
  8
0
 62
     0
 10
0.796505
 20
119.018
 30
0.0
 11
0.919152
 21
119.116
 31
0.0
  0
LINE
  8
0
 62
     0
 10
0.919152
 20
119.116
 30
0.0
 11
1.05006
 21
119.203
 31
0.0
  0
LINE
  8
0
 62
     0
 10
1.05006
 20
119.203
 30
0.0
 11
1.18787
 21
119.28
 31
0.0
  0
LINE
  8
0
 62
     0
 10
1.18787
 20
119.28
 30
0.0
 11
1.32981
 21
119.345
 31
0.0
  0
LINE
  8
0
 62
     0
 10
1.32981
 20
119.345
 30
0.0
 11
1.47588
 21
119.4
 31
0.0
  0
LINE
  8
0
 62
     0
 10
1.47588
 20
119.4
 30
0.0
 11
1.62884
 21
119.443
 31
0.0
  0
LINE
  8
0
 62
     0
 10
1.62884
 20
119.443
 30
0.0
 11
1.7818
 21
119.473
 31
0.0
  0
LINE
  8
0
 62
     0
 10
1.7818
 20
119.473
 30
0.0
 11
1.9389
 21
119.491
 31
0.0
  0
LINE
  8
0
 62
     0
 10
1.9389
 20
119.491
 30
0.0
 11
2.096
 21
119.496
 31
0.0
  0
LINE
  8
0
 62
     0
 10
2.096
 20
119.496
 30
0.0
 11
283.997
 21
119.496
 31
0.0
  0
LINE
  8
0
 62
     0
 10
283.997
 20
119.496
 30
0.0
 11
284.153
 21
119.491
 31
0.0
  0
LINE
  8
0
 62
     0
 10
138.501
 20
16.8107
 30
0.0
 11
138.501
 21
15.8102
 31
0.0
  0
LINE
  8
0
 62
     0
 10
138.501
 20
15.8102
 30
0.0
 11
137.702
 21
15.8102
 31
0.0
  0
LINE
  8
0
 62
     0
 10
137.702
 20
15.8102
 30
0.0
 11
137.702
 21
12.8598
 31
0.0
  0
LINE
  8
0
 62
     0
 10
137.702
 20
12.8598
 30
0.0
 11
138.501
 21
12.8598
 31
0.0
  0
LINE
  8
0
 62
     0
 10
138.501
 20
12.8598
 30
0.0
 11
138.501
 21
12.1102
 31
0.0
  0
LINE
  8
0
 62
     0
 10
138.501
 20
12.1102
 30
0.0
 11
136.827
 21
12.1102
 31
0.0
  0
LINE
  8
0
 62
     0
 10
136.827
 20
12.1102
 30
0.0
 11
136.827
 21
15.3403
 31
0.0
  0
LINE
  8
0
 62
     0
 10
136.827
 20
15.3403
 30
0.0
 11
130.226
 21
15.3403
 31
0.0
  0
LINE
  8
0
 62
     0
 10
130.226
 20
15.3403
 30
0.0
 11
130.226
 21
12.1102
 31
0.0
  0
LINE
  8
0
 62
     0
 10
130.226
 20
12.1102
 30
0.0
 11
129.402
 21
12.1102
 31
0.0
  0
LINE
  8
0
 62
     0
 10
129.402
 20
12.1102
 30
0.0
 11
129.402
 21
9.46023
 31
0.0
  0
LINE
  8
0
 62
     0
 10
129.402
 20
9.46023
 30
0.0
 11
130.226
 21
9.46023
 31
0.0
  0
LINE
  8
0
 62
     0
 10
130.226
 20
9.46023
 30
0.0
 11
130.226
 21
3.19016
 31
0.0
  0
LINE
  8
0
 62
     0
 10
130.226
 20
3.19016
 30
0.0
 11
131.951
 21
3.19016
 31
0.0
  0
LINE
  8
0
 62
     0
 10
131.951
 20
3.19016
 30
0.0
 11
131.951
 21
1.98989
 31
0.0
  0
LINE
  8
0
 62
     0
 10
131.951
 20
1.98989
 30
0.0
 11
135.102
 21
1.98989
 31
0.0
  0
LINE
  8
0
 62
     0
 10
135.102
 20
1.98989
 30
0.0
 11
135.102
 21
3.19016
 31
0.0
  0
LINE
  8
0
 62
     0
 10
135.102
 20
3.19016
 30
0.0
 11
136.827
 21
3.19016
 31
0.0
  0
LINE
  8
0
 62
     0
 10
136.827
 20
3.19016
 30
0.0
 11
136.827
 21
7.6605
 31
0.0
  0
LINE
  8
0
 62
     0
 10
136.827
 20
7.6605
 30
0.0
 11
138.501
 21
7.6605
 31
0.0
  0
LINE
  8
0
 62
     0
 10
138.501
 20
7.6605
 30
0.0
 11
138.501
 21
6.91085
 31
0.0
  0
LINE
  8
0
 62
     0
 10
138.501
 20
6.91085
 30
0.0
 11
137.702
 21
6.91085
 31
0.0
  0
LINE
  8
0
 62
     0
 10
137.702
 20
6.91085
 30
0.0
 11
137.702
 21
3.96049
 31
0.0
  0
LINE
  8
0
 62
     0
 10
137.702
 20
3.96049
 30
0.0
 11
138.501
 21
3.96049
 31
0.0
  0
LINE
  8
0
 62
     0
 10
138.501
 20
3.96049
 30
0.0
 11
138.501
 21
2.96003
 31
0.0
  0
LINE
  8
0
 62
     0
 10
138.501
 20
2.96003
 30
0.0
 11
152.352
 21
2.96003
 31
0.0
  0
LINE
  8
0
 62
     0
 10
152.352
 20
2.96003
 30
0.0
 11
152.352
 21
3.96049
 31
0.0
  0
LINE
  8
0
 62
     0
 10
152.352
 20
3.96049
 30
0.0
 11
153.151
 21
3.96049
 31
0.0
  0
LINE
  8
0
 62
     0
 10
153.151
 20
3.96049
 30
0.0
 11
153.151
 21
6.91085
 31
0.0
  0
LINE
  8
0
 62
     0
 10
153.151
 20
6.91085
 30
0.0
 11
152.352
 21
6.91085
 31
0.0
  0
LINE
  8
0
 62
     0
 10
152.352
 20
6.91085
 30
0.0
 11
152.352
 21
7.6605
 31
0.0
  0
LINE
  8
0
 62
     0
 10
152.352
 20
7.6605
 30
0.0
 11
154.026
 21
7.6605
 31
0.0
  0
LINE
  8
0
 62
     0
 10
154.026
 20
7.6605
 30
0.0
 11
154.026
 21
3.19016
 31
0.0
  0
LINE
  8
0
 62
     0
 10
154.026
 20
3.19016
 30
0.0
 11
155.751
 21
3.19016
 31
0.0
  0
LINE
  8
0
 62
     0
 10
155.751
 20
3.19016
 30
0.0
 11
155.751
 21
1.98989
 31
0.0
  0
LINE
  8
0
 62
     0
 10
155.751
 20
1.98989
 30
0.0
 11
158.902
 21
1.98989
 31
0.0
  0
LINE
  8
0
 62
     0
 10
158.902
 20
1.98989
 30
0.0
 11
158.902
 21
3.19016
 31
0.0
  0
LINE
  8
0
 62
     0
 10
158.902
 20
3.19016
 30
0.0
 11
160.627
 21
3.19016
 31
0.0
  0
LINE
  8
0
 62
     0
 10
160.627
 20
3.19016
 30
0.0
 11
160.627
 21
9.46023
 31
0.0
  0
LINE
  8
0
 62
     0
 10
160.627
 20
9.46023
 30
0.0
 11
161.451
 21
9.46023
 31
0.0
  0
LINE
  8
0
 62
     0
 10
161.451
 20
9.46023
 30
0.0
 11
161.451
 21
12.1102
 31
0.0
  0
LINE
  8
0
 62
     0
 10
161.451
 20
12.1102
 30
0.0
 11
160.627
 21
12.1102
 31
0.0
  0
LINE
  8
0
 62
     0
 10
160.627
 20
12.1102
 30
0.0
 11
160.627
 21
15.3403
 31
0.0
  0
LINE
  8
0
 62
     0
 10
160.627
 20
15.3403
 30
0.0
 11
154.026
 21
15.3403
 31
0.0
  0
LINE
  8
0
 62
     0
 10
154.026
 20
15.3403
 30
0.0
 11
154.026
 21
12.1102
 31
0.0
  0
LINE
  8
0
 62
     0
 10
154.026
 20
12.1102
 30
0.0
 11
152.352
 21
12.1102
 31
0.0
  0
LINE
  8
0
 62
     0
 10
152.352
 20
12.1102
 30
0.0
 11
152.352
 21
12.8598
 31
0.0
  0
LINE
  8
0
 62
     0
 10
152.352
 20
12.8598
 30
0.0
 11
153.151
 21
12.8598
 31
0.0
  0
LINE
  8
0
 62
     0
 10
153.151
 20
12.8598
 30
0.0
 11
153.151
 21
15.8102
 31
0.0
  0
LINE
  8
0
 62
     0
 10
153.151
 20
15.8102
 30
0.0
 11
152.352
 21
15.8102
 31
0.0
  0
LINE
  8
0
 62
     0
 10
152.352
 20
15.8102
 30
0.0
 11
152.352
 21
16.8107
 31
0.0
  0
LINE
  8
0
 62
     0
 10
152.352
 20
16.8107
 30
0.0
 11
138.501
 21
16.8107
 31
0.0
  0
LINE
  8
0
 62
     0
 10
93.2575
 20
16.8107
 30
0.0
 11
93.2575
 21
15.8102
 31
0.0
  0
LINE
  8
0
 62
     0
 10
93.2575
 20
15.8102
 30
0.0
 11
92.4581
 21
15.8102
 31
0.0
  0
LINE
  8
0
 62
     0
 10
92.4581
 20
15.8102
 30
0.0
 11
92.4581
 21
12.8598
 31
0.0
  0
LINE
  8
0
 62
     0
 10
92.4581
 20
12.8598
 30
0.0
 11
93.2575
 21
12.8598
 31
0.0
  0
LINE
  8
0
 62
     0
 10
93.2575
 20
12.8598
 30
0.0
 11
93.2575
 21
12.1102
 31
0.0
  0
LINE
  8
0
 62
     0
 10
93.2575
 20
12.1102
 30
0.0
 11
91.5829
 21
12.1102
 31
0.0
  0
LINE
  8
0
 62
     0
 10
91.5829
 20
12.1102
 30
0.0
 11
91.5829
 21
15.3403
 31
0.0
  0
LINE
  8
0
 62
     0
 10
91.5829
 20
15.3403
 30
0.0
 11
84.9824
 21
15.3403
 31
0.0
  0
LINE
  8
0
 62
     0
 10
84.9824
 20
15.3403
 30
0.0
 11
84.9824
 21
12.1102
 31
0.0
  0
LINE
  8
0
 62
     0
 10
84.9824
 20
12.1102
 30
0.0
 11
84.1583
 21
12.1102
 31
0.0
  0
LINE
  8
0
 62
     0
 10
84.1583
 20
12.1102
 30
0.0
 11
84.1583
 21
9.46023
 31
0.0
  0
LINE
  8
0
 62
     0
 10
84.1583
 20
9.46023
 30
0.0
 11
84.9824
 21
9.46023
 31
0.0
  0
LINE
  8
0
 62
     0
 10
84.9824
 20
9.46023
 30
0.0
 11
84.9824
 21
3.19016
 31
0.0
  0
LINE
  8
0
 62
     0
 10
84.9824
 20
3.19016
 30
0.0
 11
86.7075
 21
3.19016
 31
0.0
  0
LINE
  8
0
 62
     0
 10
86.7075
 20
3.19016
 30
0.0
 11
86.7075
 21
1.98989
 31
0.0
  0
LINE
  8
0
 62
     0
 10
86.7075
 20
1.98989
 30
0.0
 11
89.8578
 21
1.98989
 31
0.0
  0
LINE
  8
0
 62
     0
 10
89.8578
 20
1.98989
 30
0.0
 11
89.8578
 21
3.19016
 31
0.0
  0
LINE
  8
0
 62
     0
 10
89.8578
 20
3.19016
 30
0.0
 11
91.5829
 21
3.19016
 31
0.0
  0
LINE
  8
0
 62
     0
 10
91.5829
 20
3.19016
 30
0.0
 11
91.5829
 21
7.6605
 31
0.0
  0
LINE
  8
0
 62
     0
 10
91.5829
 20
7.6605
 30
0.0
 11
93.2575
 21
7.6605
 31
0.0
  0
LINE
  8
0
 62
     0
 10
93.2575
 20
7.6605
 30
0.0
 11
93.2575
 21
6.91085
 31
0.0
  0
LINE
  8
0
 62
     0
 10
93.2575
 20
6.91085
 30
0.0
 11
92.4581
 21
6.91085
 31
0.0
  0
LINE
  8
0
 62
     0
 10
92.4581
 20
6.91085
 30
0.0
 11
92.4581
 21
3.96049
 31
0.0
  0
LINE
  8
0
 62
     0
 10
92.4581
 20
3.96049
 30
0.0
 11
93.2575
 21
3.96049
 31
0.0
  0
LINE
  8
0
 62
     0
 10
93.2575
 20
3.96049
 30
0.0
 11
93.2575
 21
2.96003
 31
0.0
  0
LINE
  8
0
 62
     0
 10
93.2575
 20
2.96003
 30
0.0
 11
107.108
 21
2.96003
 31
0.0
  0
LINE
  8
0
 62
     0
 10
107.108
 20
2.96003
 30
0.0
 11
107.108
 21
3.96049
 31
0.0
  0
LINE
  8
0
 62
     0
 10
107.108
 20
3.96049
 30
0.0
 11
107.907
 21
3.96049
 31
0.0
  0
LINE
  8
0
 62
     0
 10
107.907
 20
3.96049
 30
0.0
 11
107.907
 21
6.91085
 31
0.0
  0
LINE
  8
0
 62
     0
 10
107.907
 20
6.91085
 30
0.0
 11
107.108
 21
6.91085
 31
0.0
  0
LINE
  8
0
 62
     0
 10
107.108
 20
6.91085
 30
0.0
 11
107.108
 21
7.6605
 31
0.0
  0
LINE
  8
0
 62
     0
 10
107.108
 20
7.6605
 30
0.0
 11
108.782
 21
7.6605
 31
0.0
  0
LINE
  8
0
 62
     0
 10
108.782
 20
7.6605
 30
0.0
 11
108.782
 21
3.19016
 31
0.0
  0
LINE
  8
0
 62
     0
 10
108.782
 20
3.19016
 30
0.0
 11
110.508
 21
3.19016
 31
0.0
  0
LINE
  8
0
 62
     0
 10
110.508
 20
3.19016
 30
0.0
 11
110.508
 21
1.98989
 31
0.0
  0
LINE
  8
0
 62
     0
 10
110.508
 20
1.98989
 30
0.0
 11
113.658
 21
1.98989
 31
0.0
  0
LINE
  8
0
 62
     0
 10
113.658
 20
1.98989
 30
0.0
 11
113.658
 21
3.19016
 31
0.0
  0
LINE
  8
0
 62
     0
 10
113.658
 20
3.19016
 30
0.0
 11
115.383
 21
3.19016
 31
0.0
  0
LINE
  8
0
 62
     0
 10
115.383
 20
3.19016
 30
0.0
 11
115.383
 21
9.46023
 31
0.0
  0
LINE
  8
0
 62
     0
 10
115.383
 20
9.46023
 30
0.0
 11
116.207
 21
9.46023
 31
0.0
  0
LINE
  8
0
 62
     0
 10
116.207
 20
9.46023
 30
0.0
 11
116.207
 21
12.1102
 31
0.0
  0
LINE
  8
0
 62
     0
 10
116.207
 20
12.1102
 30
0.0
 11
115.383
 21
12.1102
 31
0.0
  0
LINE
  8
0
 62
     0
 10
115.383
 20
12.1102
 30
0.0
 11
115.383
 21
15.3403
 31
0.0
  0
LINE
  8
0
 62
     0
 10
115.383
 20
15.3403
 30
0.0
 11
108.782
 21
15.3403
 31
0.0
  0
LINE
  8
0
 62
     0
 10
108.782
 20
15.3403
 30
0.0
 11
108.782
 21
12.1102
 31
0.0
  0
LINE
  8
0
 62
     0
 10
108.782
 20
12.1102
 30
0.0
 11
107.108
 21
12.1102
 31
0.0
  0
LINE
  8
0
 62
     0
 10
107.108
 20
12.1102
 30
0.0
 11
107.108
 21
12.8598
 31
0.0
  0
LINE
  8
0
 62
     0
 10
107.108
 20
12.8598
 30
0.0
 11
107.907
 21
12.8598
 31
0.0
  0
LINE
  8
0
 62
     0
 10
107.907
 20
12.8598
 30
0.0
 11
107.907
 21
15.8102
 31
0.0
  0
LINE
  8
0
 62
     0
 10
107.907
 20
15.8102
 30
0.0
 11
107.108
 21
15.8102
 31
0.0
  0
LINE
  8
0
 62
     0
 10
107.108
 20
15.8102
 30
0.0
 11
107.108
 21
16.8107
 31
0.0
  0
LINE
  8
0
 62
     0
 10
107.108
 20
16.8107
 30
0.0
 11
93.2575
 21
16.8107
 31
0.0
  0
LINE
  8
0
 62
     0
 10
255.183
 20
16.8107
 30
0.0
 11
255.183
 21
15.8102
 31
0.0
  0
LINE
  8
0
 62
     0
 10
255.183
 20
15.8102
 30
0.0
 11
254.382
 21
15.8102
 31
0.0
  0
LINE
  8
0
 62
     0
 10
254.382
 20
15.8102
 30
0.0
 11
254.382
 21
12.8598
 31
0.0
  0
LINE
  8
0
 62
     0
 10
254.382
 20
12.8598
 30
0.0
 11
255.183
 21
12.8598
 31
0.0
  0
LINE
  8
0
 62
     0
 10
255.183
 20
12.8598
 30
0.0
 11
255.183
 21
6.91085
 31
0.0
  0
LINE
  8
0
 62
     0
 10
255.183
 20
6.91085
 30
0.0
 11
254.382
 21
6.91085
 31
0.0
  0
LINE
  8
0
 62
     0
 10
254.382
 20
6.91085
 30
0.0
 11
254.382
 21
3.96049
 31
0.0
  0
LINE
  8
0
 62
     0
 10
254.382
 20
3.96049
 30
0.0
 11
255.183
 21
3.96049
 31
0.0
  0
LINE
  8
0
 62
     0
 10
255.183
 20
3.96049
 30
0.0
 11
255.183
 21
2.96003
 31
0.0
  0
LINE
  8
0
 62
     0
 10
255.183
 20
2.96003
 30
0.0
 11
269.033
 21
2.96003
 31
0.0
  0
LINE
  8
0
 62
     0
 10
269.033
 20
2.96003
 30
0.0
 11
269.033
 21
3.96049
 31
0.0
  0
LINE
  8
0
 62
     0
 10
269.033
 20
3.96049
 30
0.0
 11
269.832
 21
3.96049
 31
0.0
  0
LINE
  8
0
 62
     0
 10
269.832
 20
3.96049
 30
0.0
 11
269.832
 21
6.91085
 31
0.0
  0
LINE
  8
0
 62
     0
 10
269.832
 20
6.91085
 30
0.0
 11
269.033
 21
6.91085
 31
0.0
  0
LINE
  8
0
 62
     0
 10
269.033
 20
6.91085
 30
0.0
 11
269.033
 21
12.8598
 31
0.0
  0
LINE
  8
0
 62
     0
 10
269.033
 20
12.8598
 30
0.0
 11
269.832
 21
12.8598
 31
0.0
  0
LINE
  8
0
 62
     0
 10
269.832
 20
12.8598
 30
0.0
 11
269.832
 21
15.8102
 31
0.0
  0
LINE
  8
0
 62
     0
 10
269.832
 20
15.8102
 30
0.0
 11
269.033
 21
15.8102
 31
0.0
  0
LINE
  8
0
 62
     0
 10
269.033
 20
15.8102
 30
0.0
 11
269.033
 21
16.8107
 31
0.0
  0
LINE
  8
0
 62
     0
 10
269.033
 20
16.8107
 30
0.0
 11
255.183
 21
16.8107
 31
0.0
  0
LINE
  8
0
 62
     0
 10
236.133
 20
16.8107
 30
0.0
 11
236.133
 21
15.8102
 31
0.0
  0
LINE
  8
0
 62
     0
 10
236.133
 20
15.8102
 30
0.0
 11
235.333
 21
15.8102
 31
0.0
  0
LINE
  8
0
 62
     0
 10
235.333
 20
15.8102
 30
0.0
 11
235.333
 21
12.8598
 31
0.0
  0
LINE
  8
0
 62
     0
 10
235.333
 20
12.8598
 30
0.0
 11
236.133
 21
12.8598
 31
0.0
  0
LINE
  8
0
 62
     0
 10
236.133
 20
12.8598
 30
0.0
 11
236.133
 21
6.91085
 31
0.0
  0
LINE
  8
0
 62
     0
 10
236.133
 20
6.91085
 30
0.0
 11
235.333
 21
6.91085
 31
0.0
  0
LINE
  8
0
 62
     0
 10
235.333
 20
6.91085
 30
0.0
 11
235.333
 21
3.96049
 31
0.0
  0
LINE
  8
0
 62
     0
 10
235.333
 20
3.96049
 30
0.0
 11
236.133
 21
3.96049
 31
0.0
  0
LINE
  8
0
 62
     0
 10
236.133
 20
3.96049
 30
0.0
 11
236.133
 21
2.96003
 31
0.0
  0
LINE
  8
0
 62
     0
 10
236.133
 20
2.96003
 30
0.0
 11
249.983
 21
2.96003
 31
0.0
  0
LINE
  8
0
 62
     0
 10
249.983
 20
2.96003
 30
0.0
 11
249.983
 21
3.96049
 31
0.0
  0
LINE
  8
0
 62
     0
 10
249.983
 20
3.96049
 30
0.0
 11
250.782
 21
3.96049
 31
0.0
  0
LINE
  8
0
 62
     0
 10
250.782
 20
3.96049
 30
0.0
 11
250.782
 21
6.91085
 31
0.0
  0
LINE
  8
0
 62
     0
 10
250.782
 20
6.91085
 30
0.0
 11
249.983
 21
6.91085
 31
0.0
  0
LINE
  8
0
 62
     0
 10
249.983
 20
6.91085
 30
0.0
 11
249.983
 21
12.8598
 31
0.0
  0
LINE
  8
0
 62
     0
 10
249.983
 20
12.8598
 30
0.0
 11
250.782
 21
12.8598
 31
0.0
  0
LINE
  8
0
 62
     0
 10
250.782
 20
12.8598
 30
0.0
 11
250.782
 21
15.8102
 31
0.0
  0
LINE
  8
0
 62
     0
 10
250.782
 20
15.8102
 30
0.0
 11
249.983
 21
15.8102
 31
0.0
  0
LINE
  8
0
 62
     0
 10
249.983
 20
15.8102
 30
0.0
 11
249.983
 21
16.8107
 31
0.0
  0
LINE
  8
0
 62
     0
 10
249.983
 20
16.8107
 30
0.0
 11
236.133
 21
16.8107
 31
0.0
  0
LINE
  8
0
 62
     0
 10
217.083
 20
16.8107
 30
0.0
 11
217.083
 21
15.8102
 31
0.0
  0
LINE
  8
0
 62
     0
 10
217.083
 20
15.8102
 30
0.0
 11
216.283
 21
15.8102
 31
0.0
  0
LINE
  8
0
 62
     0
 10
216.283
 20
15.8102
 30
0.0
 11
216.283
 21
12.8598
 31
0.0
  0
LINE
  8
0
 62
     0
 10
216.283
 20
12.8598
 30
0.0
 11
217.083
 21
12.8598
 31
0.0
  0
LINE
  8
0
 62
     0
 10
217.083
 20
12.8598
 30
0.0
 11
217.083
 21
6.91085
 31
0.0
  0
LINE
  8
0
 62
     0
 10
217.083
 20
6.91085
 30
0.0
 11
216.283
 21
6.91085
 31
0.0
  0
LINE
  8
0
 62
     0
 10
216.283
 20
6.91085
 30
0.0
 11
216.283
 21
3.96049
 31
0.0
  0
LINE
  8
0
 62
     0
 10
216.283
 20
3.96049
 30
0.0
 11
217.083
 21
3.96049
 31
0.0
  0
LINE
  8
0
 62
     0
 10
217.083
 20
3.96049
 30
0.0
 11
217.083
 21
2.96003
 31
0.0
  0
LINE
  8
0
 62
     0
 10
217.083
 20
2.96003
 30
0.0
 11
230.933
 21
2.96003
 31
0.0
  0
LINE
  8
0
 62
     0
 10
230.933
 20
2.96003
 30
0.0
 11
230.933
 21
3.96049
 31
0.0
  0
LINE
  8
0
 62
     0
 10
230.933
 20
3.96049
 30
0.0
 11
231.732
 21
3.96049
 31
0.0
  0
LINE
  8
0
 62
     0
 10
231.732
 20
3.96049
 30
0.0
 11
231.732
 21
6.91085
 31
0.0
  0
LINE
  8
0
 62
     0
 10
231.732
 20
6.91085
 30
0.0
 11
230.933
 21
6.91085
 31
0.0
  0
LINE
  8
0
 62
     0
 10
230.933
 20
6.91085
 30
0.0
 11
230.933
 21
12.8598
 31
0.0
  0
LINE
  8
0
 62
     0
 10
230.933
 20
12.8598
 30
0.0
 11
231.732
 21
12.8598
 31
0.0
  0
LINE
  8
0
 62
     0
 10
231.732
 20
12.8598
 30
0.0
 11
231.732
 21
15.8102
 31
0.0
  0
LINE
  8
0
 62
     0
 10
231.732
 20
15.8102
 30
0.0
 11
230.933
 21
15.8102
 31
0.0
  0
LINE
  8
0
 62
     0
 10
230.933
 20
15.8102
 30
0.0
 11
230.933
 21
16.8107
 31
0.0
  0
LINE
  8
0
 62
     0
 10
230.933
 20
16.8107
 30
0.0
 11
217.083
 21
16.8107
 31
0.0
  0
LINE
  8
0
 62
     0
 10
178.983
 20
16.8107
 30
0.0
 11
178.983
 21
15.8102
 31
0.0
  0
LINE
  8
0
 62
     0
 10
178.983
 20
15.8102
 30
0.0
 11
178.183
 21
15.8102
 31
0.0
  0
LINE
  8
0
 62
     0
 10
178.183
 20
15.8102
 30
0.0
 11
178.183
 21
12.8598
 31
0.0
  0
LINE
  8
0
 62
     0
 10
178.183
 20
12.8598
 30
0.0
 11
178.983
 21
12.8598
 31
0.0
  0
LINE
  8
0
 62
     0
 10
178.983
 20
12.8598
 30
0.0
 11
178.983
 21
6.91085
 31
0.0
  0
LINE
  8
0
 62
     0
 10
178.983
 20
6.91085
 30
0.0
 11
178.183
 21
6.91085
 31
0.0
  0
LINE
  8
0
 62
     0
 10
178.183
 20
6.91085
 30
0.0
 11
178.183
 21
3.96049
 31
0.0
  0
LINE
  8
0
 62
     0
 10
178.183
 20
3.96049
 30
0.0
 11
178.983
 21
3.96049
 31
0.0
  0
LINE
  8
0
 62
     0
 10
178.983
 20
3.96049
 30
0.0
 11
178.983
 21
2.96003
 31
0.0
  0
LINE
  8
0
 62
     0
 10
178.983
 20
2.96003
 30
0.0
 11
192.833
 21
2.96003
 31
0.0
  0
LINE
  8
0
 62
     0
 10
192.833
 20
2.96003
 30
0.0
 11
192.833
 21
3.96049
 31
0.0
  0
LINE
  8
0
 62
     0
 10
192.833
 20
3.96049
 30
0.0
 11
193.632
 21
3.96049
 31
0.0
  0
LINE
  8
0
 62
     0
 10
193.632
 20
3.96049
 30
0.0
 11
193.632
 21
6.91085
 31
0.0
  0
LINE
  8
0
 62
     0
 10
193.632
 20
6.91085
 30
0.0
 11
192.833
 21
6.91085
 31
0.0
  0
LINE
  8
0
 62
     0
 10
192.833
 20
6.91085
 30
0.0
 11
192.833
 21
12.8598
 31
0.0
  0
LINE
  8
0
 62
     0
 10
192.833
 20
12.8598
 30
0.0
 11
193.632
 21
12.8598
 31
0.0
  0
LINE
  8
0
 62
     0
 10
193.632
 20
12.8598
 30
0.0
 11
193.632
 21
15.8102
 31
0.0
  0
LINE
  8
0
 62
     0
 10
193.632
 20
15.8102
 30
0.0
 11
192.833
 21
15.8102
 31
0.0
  0
LINE
  8
0
 62
     0
 10
192.833
 20
15.8102
 30
0.0
 11
192.833
 21
16.8107
 31
0.0
  0
LINE
  8
0
 62
     0
 10
192.833
 20
16.8107
 30
0.0
 11
178.983
 21
16.8107
 31
0.0
  0
LINE
  8
0
 62
     0
 10
59.92
 20
16.8107
 30
0.0
 11
59.92
 21
15.8102
 31
0.0
  0
LINE
  8
0
 62
     0
 10
59.92
 20
15.8102
 30
0.0
 11
59.1206
 21
15.8102
 31
0.0
  0
LINE
  8
0
 62
     0
 10
59.1206
 20
15.8102
 30
0.0
 11
59.1206
 21
12.8598
 31
0.0
  0
LINE
  8
0
 62
     0
 10
59.1206
 20
12.8598
 30
0.0
 11
59.92
 21
12.8598
 31
0.0
  0
LINE
  8
0
 62
     0
 10
59.92
 20
12.8598
 30
0.0
 11
59.92
 21
6.91085
 31
0.0
  0
LINE
  8
0
 62
     0
 10
59.92
 20
6.91085
 30
0.0
 11
59.1206
 21
6.91085
 31
0.0
  0
LINE
  8
0
 62
     0
 10
59.1206
 20
6.91085
 30
0.0
 11
59.1206
 21
3.96049
 31
0.0
  0
LINE
  8
0
 62
     0
 10
59.1206
 20
3.96049
 30
0.0
 11
59.92
 21
3.96049
 31
0.0
  0
LINE
  8
0
 62
     0
 10
59.92
 20
3.96049
 30
0.0
 11
59.92
 21
2.96003
 31
0.0
  0
LINE
  8
0
 62
     0
 10
59.92
 20
2.96003
 30
0.0
 11
73.7704
 21
2.96003
 31
0.0
  0
LINE
  8
0
 62
     0
 10
73.7704
 20
2.96003
 30
0.0
 11
73.7704
 21
3.96049
 31
0.0
  0
LINE
  8
0
 62
     0
 10
73.7704
 20
3.96049
 30
0.0
 11
74.5712
 21
3.96049
 31
0.0
  0
LINE
  8
0
 62
     0
 10
74.5712
 20
3.96049
 30
0.0
 11
74.5712
 21
6.91085
 31
0.0
  0
LINE
  8
0
 62
     0
 10
74.5712
 20
6.91085
 30
0.0
 11
73.7704
 21
6.91085
 31
0.0
  0
LINE
  8
0
 62
     0
 10
73.7704
 20
6.91085
 30
0.0
 11
73.7704
 21
12.8598
 31
0.0
  0
LINE
  8
0
 62
     0
 10
73.7704
 20
12.8598
 30
0.0
 11
74.5712
 21
12.8598
 31
0.0
  0
LINE
  8
0
 62
     0
 10
74.5712
 20
12.8598
 30
0.0
 11
74.5712
 21
15.8102
 31
0.0
  0
LINE
  8
0
 62
     0
 10
74.5712
 20
15.8102
 30
0.0
 11
73.7704
 21
15.8102
 31
0.0
  0
LINE
  8
0
 62
     0
 10
73.7704
 20
15.8102
 30
0.0
 11
73.7704
 21
16.8107
 31
0.0
  0
LINE
  8
0
 62
     0
 10
73.7704
 20
16.8107
 30
0.0
 11
59.92
 21
16.8107
 31
0.0
  0
LINE
  8
0
 62
     0
 10
33.7261
 20
16.8107
 30
0.0
 11
33.7261
 21
15.8102
 31
0.0
  0
LINE
  8
0
 62
     0
 10
33.7261
 20
15.8102
 30
0.0
 11
32.9268
 21
15.8102
 31
0.0
  0
LINE
  8
0
 62
     0
 10
32.9268
 20
15.8102
 30
0.0
 11
32.9268
 21
12.8598
 31
0.0
  0
LINE
  8
0
 62
     0
 10
32.9268
 20
12.8598
 30
0.0
 11
33.7261
 21
12.8598
 31
0.0
  0
LINE
  8
0
 62
     0
 10
33.7261
 20
12.8598
 30
0.0
 11
33.7261
 21
6.91085
 31
0.0
  0
LINE
  8
0
 62
     0
 10
33.7261
 20
6.91085
 30
0.0
 11
32.9268
 21
6.91085
 31
0.0
  0
LINE
  8
0
 62
     0
 10
32.9268
 20
6.91085
 30
0.0
 11
32.9268
 21
3.96049
 31
0.0
  0
LINE
  8
0
 62
     0
 10
32.9268
 20
3.96049
 30
0.0
 11
33.7261
 21
3.96049
 31
0.0
  0
LINE
  8
0
 62
     0
 10
33.7261
 20
3.96049
 30
0.0
 11
33.7261
 21
2.96003
 31
0.0
  0
LINE
  8
0
 62
     0
 10
33.7261
 20
2.96003
 30
0.0
 11
47.5767
 21
2.96003
 31
0.0
  0
LINE
  8
0
 62
     0
 10
47.5767
 20
2.96003
 30
0.0
 11
47.5767
 21
3.96049
 31
0.0
  0
LINE
  8
0
 62
     0
 10
47.5767
 20
3.96049
 30
0.0
 11
48.3761
 21
3.96049
 31
0.0
  0
LINE
  8
0
 62
     0
 10
48.3761
 20
3.96049
 30
0.0
 11
48.3761
 21
6.91085
 31
0.0
  0
LINE
  8
0
 62
     0
 10
48.3761
 20
6.91085
 30
0.0
 11
47.5767
 21
6.91085
 31
0.0
  0
LINE
  8
0
 62
     0
 10
47.5767
 20
6.91085
 30
0.0
 11
47.5767
 21
12.8598
 31
0.0
  0
LINE
  8
0
 62
     0
 10
47.5767
 20
12.8598
 30
0.0
 11
48.3761
 21
12.8598
 31
0.0
  0
LINE
  8
0
 62
     0
 10
48.3761
 20
12.8598
 30
0.0
 11
48.3761
 21
15.8102
 31
0.0
  0
LINE
  8
0
 62
     0
 10
48.3761
 20
15.8102
 30
0.0
 11
47.5767
 21
15.8102
 31
0.0
  0
LINE
  8
0
 62
     0
 10
47.5767
 20
15.8102
 30
0.0
 11
47.5767
 21
16.8107
 31
0.0
  0
LINE
  8
0
 62
     0
 10
47.5767
 20
16.8107
 30
0.0
 11
33.7261
 21
16.8107
 31
0.0
  0
LINE
  8
0
 62
     0
 10
7.53237
 20
16.8107
 30
0.0
 11
7.53237
 21
15.8102
 31
0.0
  0
LINE
  8
0
 62
     0
 10
7.53237
 20
15.8102
 30
0.0
 11
6.73308
 21
15.8102
 31
0.0
  0
LINE
  8
0
 62
     0
 10
6.73308
 20
15.8102
 30
0.0
 11
6.73308
 21
12.8598
 31
0.0
  0
LINE
  8
0
 62
     0
 10
6.73308
 20
12.8598
 30
0.0
 11
7.53237
 21
12.8598
 31
0.0
  0
LINE
  8
0
 62
     0
 10
7.53237
 20
12.8598
 30
0.0
 11
7.53237
 21
6.91085
 31
0.0
  0
LINE
  8
0
 62
     0
 10
7.53237
 20
6.91085
 30
0.0
 11
6.73308
 21
6.91085
 31
0.0
  0
LINE
  8
0
 62
     0
 10
6.73308
 20
6.91085
 30
0.0
 11
6.73308
 21
3.96049
 31
0.0
  0
LINE
  8
0
 62
     0
 10
6.73308
 20
3.96049
 30
0.0
 11
7.53237
 21
3.96049
 31
0.0
  0
LINE
  8
0
 62
     0
 10
7.53237
 20
3.96049
 30
0.0
 11
7.53237
 21
2.96003
 31
0.0
  0
LINE
  8
0
 62
     0
 10
7.53237
 20
2.96003
 30
0.0
 11
21.383
 21
2.96003
 31
0.0
  0
LINE
  8
0
 62
     0
 10
21.383
 20
2.96003
 30
0.0
 11
21.383
 21
3.96049
 31
0.0
  0
LINE
  8
0
 62
     0
 10
21.383
 20
3.96049
 30
0.0
 11
22.1823
 21
3.96049
 31
0.0
  0
LINE
  8
0
 62
     0
 10
22.1823
 20
3.96049
 30
0.0
 11
22.1823
 21
6.91085
 31
0.0
  0
LINE
  8
0
 62
     0
 10
22.1823
 20
6.91085
 30
0.0
 11
21.383
 21
6.91085
 31
0.0
  0
LINE
  8
0
 62
     0
 10
21.383
 20
6.91085
 30
0.0
 11
21.383
 21
12.8598
 31
0.0
  0
LINE
  8
0
 62
     0
 10
21.383
 20
12.8598
 30
0.0
 11
22.1823
 21
12.8598
 31
0.0
  0
LINE
  8
0
 62
     0
 10
22.1823
 20
12.8598
 30
0.0
 11
22.1823
 21
15.8102
 31
0.0
  0
LINE
  8
0
 62
     0
 10
22.1823
 20
15.8102
 30
0.0
 11
21.383
 21
15.8102
 31
0.0
  0
LINE
  8
0
 62
     0
 10
21.383
 20
15.8102
 30
0.0
 11
21.383
 21
16.8107
 31
0.0
  0
LINE
  8
0
 62
     0
 10
21.383
 20
16.8107
 30
0.0
 11
7.53237
 21
16.8107
 31
0.0
  0
LINE
  8
0
 62
     0
 10
14.6761
 20
35.8606
 30
0.0
 11
14.6761
 21
34.8602
 31
0.0
  0
LINE
  8
0
 62
     0
 10
14.6761
 20
34.8602
 30
0.0
 11
13.8768
 21
34.8602
 31
0.0
  0
LINE
  8
0
 62
     0
 10
13.8768
 20
34.8602
 30
0.0
 11
13.8768
 21
31.9098
 31
0.0
  0
LINE
  8
0
 62
     0
 10
13.8768
 20
31.9098
 30
0.0
 11
14.6761
 21
31.9098
 31
0.0
  0
LINE
  8
0
 62
     0
 10
14.6761
 20
31.9098
 30
0.0
 11
14.6761
 21
31.1602
 31
0.0
  0
LINE
  8
0
 62
     0
 10
14.6761
 20
31.1602
 30
0.0
 11
13.0018
 21
31.1602
 31
0.0
  0
LINE
  8
0
 62
     0
 10
13.0018
 20
31.1602
 30
0.0
 11
13.0018
 21
34.3903
 31
0.0
  0
LINE
  8
0
 62
     0
 10
13.0018
 20
34.3903
 30
0.0
 11
6.40098
 21
34.3903
 31
0.0
  0
LINE
  8
0
 62
     0
 10
6.40098
 20
34.3903
 30
0.0
 11
6.40098
 21
31.1602
 31
0.0
  0
LINE
  8
0
 62
     0
 10
6.40098
 20
31.1602
 30
0.0
 11
5.57692
 21
31.1602
 31
0.0
  0
LINE
  8
0
 62
     0
 10
5.57692
 20
31.1602
 30
0.0
 11
5.57692
 21
28.5102
 31
0.0
  0
LINE
  8
0
 62
     0
 10
5.57692
 20
28.5102
 30
0.0
 11
6.40098
 21
28.5102
 31
0.0
  0
LINE
  8
0
 62
     0
 10
6.40098
 20
28.5102
 30
0.0
 11
6.40098
 21
22.2402
 31
0.0
  0
LINE
  8
0
 62
     0
 10
6.40098
 20
22.2402
 30
0.0
 11
8.12631
 21
22.2402
 31
0.0
  0
LINE
  8
0
 62
     0
 10
8.12631
 20
22.2402
 30
0.0
 11
8.12631
 21
21.0399
 31
0.0
  0
LINE
  8
0
 62
     0
 10
8.12631
 20
21.0399
 30
0.0
 11
11.2765
 21
21.0399
 31
0.0
  0
LINE
  8
0
 62
     0
 10
11.2765
 20
21.0399
 30
0.0
 11
11.2765
 21
22.2402
 31
0.0
  0
LINE
  8
0
 62
     0
 10
11.2765
 20
22.2402
 30
0.0
 11
13.0018
 21
22.2402
 31
0.0
  0
LINE
  8
0
 62
     0
 10
13.0018
 20
22.2402
 30
0.0
 11
13.0018
 21
26.7105
 31
0.0
  0
LINE
  8
0
 62
     0
 10
13.0018
 20
26.7105
 30
0.0
 11
14.6761
 21
26.7105
 31
0.0
  0
LINE
  8
0
 62
     0
 10
14.6761
 20
26.7105
 30
0.0
 11
14.6761
 21
25.9608
 31
0.0
  0
LINE
  8
0
 62
     0
 10
14.6761
 20
25.9608
 30
0.0
 11
13.8768
 21
25.9608
 31
0.0
  0
LINE
  8
0
 62
     0
 10
13.8768
 20
25.9608
 30
0.0
 11
13.8768
 21
23.0105
 31
0.0
  0
LINE
  8
0
 62
     0
 10
13.8768
 20
23.0105
 30
0.0
 11
14.6761
 21
23.0105
 31
0.0
  0
LINE
  8
0
 62
     0
 10
14.6761
 20
23.0105
 30
0.0
 11
14.6761
 21
22.01
 31
0.0
  0
LINE
  8
0
 62
     0
 10
14.6761
 20
22.01
 30
0.0
 11
28.5268
 21
22.01
 31
0.0
  0
LINE
  8
0
 62
     0
 10
28.5268
 20
22.01
 30
0.0
 11
28.5268
 21
23.0105
 31
0.0
  0
LINE
  8
0
 62
     0
 10
28.5268
 20
23.0105
 30
0.0
 11
29.326
 21
23.0105
 31
0.0
  0
LINE
  8
0
 62
     0
 10
29.326
 20
23.0105
 30
0.0
 11
29.326
 21
25.9608
 31
0.0
  0
LINE
  8
0
 62
     0
 10
29.326
 20
25.9608
 30
0.0
 11
28.5268
 21
25.9608
 31
0.0
  0
LINE
  8
0
 62
     0
 10
28.5268
 20
25.9608
 30
0.0
 11
28.5268
 21
26.7105
 31
0.0
  0
LINE
  8
0
 62
     0
 10
28.5268
 20
26.7105
 30
0.0
 11
30.2011
 21
26.7105
 31
0.0
  0
LINE
  8
0
 62
     0
 10
30.2011
 20
26.7105
 30
0.0
 11
30.2011
 21
22.2402
 31
0.0
  0
LINE
  8
0
 62
     0
 10
30.2011
 20
22.2402
 30
0.0
 11
31.9264
 21
22.2402
 31
0.0
  0
LINE
  8
0
 62
     0
 10
31.9264
 20
22.2402
 30
0.0
 11
31.9264
 21
21.0399
 31
0.0
  0
LINE
  8
0
 62
     0
 10
31.9264
 20
21.0399
 30
0.0
 11
35.0766
 21
21.0399
 31
0.0
  0
LINE
  8
0
 62
     0
 10
35.0766
 20
21.0399
 30
0.0
 11
35.0766
 21
22.2402
 31
0.0
  0
LINE
  8
0
 62
     0
 10
35.0766
 20
22.2402
 30
0.0
 11
36.8018
 21
22.2402
 31
0.0
  0
LINE
  8
0
 62
     0
 10
36.8018
 20
22.2402
 30
0.0
 11
36.8018
 21
28.5102
 31
0.0
  0
LINE
  8
0
 62
     0
 10
36.8018
 20
28.5102
 30
0.0
 11
37.6259
 21
28.5102
 31
0.0
  0
LINE
  8
0
 62
     0
 10
37.6259
 20
28.5102
 30
0.0
 11
37.6259
 21
31.1602
 31
0.0
  0
LINE
  8
0
 62
     0
 10
37.6259
 20
31.1602
 30
0.0
 11
36.8018
 21
31.1602
 31
0.0
  0
LINE
  8
0
 62
     0
 10
36.8018
 20
31.1602
 30
0.0
 11
36.8018
 21
34.3903
 31
0.0
  0
LINE
  8
0
 62
     0
 10
36.8018
 20
34.3903
 30
0.0
 11
30.2011
 21
34.3903
 31
0.0
  0
LINE
  8
0
 62
     0
 10
30.2011
 20
34.3903
 30
0.0
 11
30.2011
 21
31.1602
 31
0.0
  0
LINE
  8
0
 62
     0
 10
30.2011
 20
31.1602
 30
0.0
 11
28.5268
 21
31.1602
 31
0.0
  0
LINE
  8
0
 62
     0
 10
28.5268
 20
31.1602
 30
0.0
 11
28.5268
 21
31.9098
 31
0.0
  0
LINE
  8
0
 62
     0
 10
28.5268
 20
31.9098
 30
0.0
 11
29.326
 21
31.9098
 31
0.0
  0
LINE
  8
0
 62
     0
 10
29.326
 20
31.9098
 30
0.0
 11
29.326
 21
34.8602
 31
0.0
  0
LINE
  8
0
 62
     0
 10
29.326
 20
34.8602
 30
0.0
 11
28.5268
 21
34.8602
 31
0.0
  0
LINE
  8
0
 62
     0
 10
28.5268
 20
34.8602
 30
0.0
 11
28.5268
 21
35.8606
 31
0.0
  0
LINE
  8
0
 62
     0
 10
28.5268
 20
35.8606
 30
0.0
 11
14.6761
 21
35.8606
 31
0.0
  0
LINE
  8
0
 62
     0
 10
255.183
 20
35.8606
 30
0.0
 11
255.183
 21
34.8602
 31
0.0
  0
LINE
  8
0
 62
     0
 10
255.183
 20
34.8602
 30
0.0
 11
254.382
 21
34.8602
 31
0.0
  0
LINE
  8
0
 62
     0
 10
254.382
 20
34.8602
 30
0.0
 11
254.382
 21
31.9098
 31
0.0
  0
LINE
  8
0
 62
     0
 10
254.382
 20
31.9098
 30
0.0
 11
255.183
 21
31.9098
 31
0.0
  0
LINE
  8
0
 62
     0
 10
255.183
 20
31.9098
 30
0.0
 11
255.183
 21
25.9608
 31
0.0
  0
LINE
  8
0
 62
     0
 10
255.183
 20
25.9608
 30
0.0
 11
254.382
 21
25.9608
 31
0.0
  0
LINE
  8
0
 62
     0
 10
254.382
 20
25.9608
 30
0.0
 11
254.382
 21
23.0105
 31
0.0
  0
LINE
  8
0
 62
     0
 10
254.382
 20
23.0105
 30
0.0
 11
255.183
 21
23.0105
 31
0.0
  0
LINE
  8
0
 62
     0
 10
255.183
 20
23.0105
 30
0.0
 11
255.183
 21
22.01
 31
0.0
  0
LINE
  8
0
 62
     0
 10
255.183
 20
22.01
 30
0.0
 11
269.033
 21
22.01
 31
0.0
  0
LINE
  8
0
 62
     0
 10
269.033
 20
22.01
 30
0.0
 11
269.033
 21
23.0105
 31
0.0
  0
LINE
  8
0
 62
     0
 10
269.033
 20
23.0105
 30
0.0
 11
269.832
 21
23.0105
 31
0.0
  0
LINE
  8
0
 62
     0
 10
269.832
 20
23.0105
 30
0.0
 11
269.832
 21
25.9608
 31
0.0
  0
LINE
  8
0
 62
     0
 10
269.832
 20
25.9608
 30
0.0
 11
269.033
 21
25.9608
 31
0.0
  0
LINE
  8
0
 62
     0
 10
269.033
 20
25.9608
 30
0.0
 11
269.033
 21
31.9098
 31
0.0
  0
LINE
  8
0
 62
     0
 10
269.033
 20
31.9098
 30
0.0
 11
269.832
 21
31.9098
 31
0.0
  0
LINE
  8
0
 62
     0
 10
269.832
 20
31.9098
 30
0.0
 11
269.832
 21
34.8602
 31
0.0
  0
LINE
  8
0
 62
     0
 10
269.832
 20
34.8602
 30
0.0
 11
269.033
 21
34.8602
 31
0.0
  0
LINE
  8
0
 62
     0
 10
269.033
 20
34.8602
 30
0.0
 11
269.033
 21
35.8606
 31
0.0
  0
LINE
  8
0
 62
     0
 10
269.033
 20
35.8606
 30
0.0
 11
255.183
 21
35.8606
 31
0.0
  0
LINE
  8
0
 62
     0
 10
236.133
 20
35.8606
 30
0.0
 11
236.133
 21
34.8602
 31
0.0
  0
LINE
  8
0
 62
     0
 10
236.133
 20
34.8602
 30
0.0
 11
235.333
 21
34.8602
 31
0.0
  0
LINE
  8
0
 62
     0
 10
235.333
 20
34.8602
 30
0.0
 11
235.333
 21
31.9098
 31
0.0
  0
LINE
  8
0
 62
     0
 10
235.333
 20
31.9098
 30
0.0
 11
236.133
 21
31.9098
 31
0.0
  0
LINE
  8
0
 62
     0
 10
236.133
 20
31.9098
 30
0.0
 11
236.133
 21
25.9608
 31
0.0
  0
LINE
  8
0
 62
     0
 10
236.133
 20
25.9608
 30
0.0
 11
235.333
 21
25.9608
 31
0.0
  0
LINE
  8
0
 62
     0
 10
235.333
 20
25.9608
 30
0.0
 11
235.333
 21
23.0105
 31
0.0
  0
LINE
  8
0
 62
     0
 10
235.333
 20
23.0105
 30
0.0
 11
236.133
 21
23.0105
 31
0.0
  0
LINE
  8
0
 62
     0
 10
236.133
 20
23.0105
 30
0.0
 11
236.133
 21
22.01
 31
0.0
  0
LINE
  8
0
 62
     0
 10
236.133
 20
22.01
 30
0.0
 11
249.983
 21
22.01
 31
0.0
  0
LINE
  8
0
 62
     0
 10
249.983
 20
22.01
 30
0.0
 11
249.983
 21
23.0105
 31
0.0
  0
LINE
  8
0
 62
     0
 10
249.983
 20
23.0105
 30
0.0
 11
250.782
 21
23.0105
 31
0.0
  0
LINE
  8
0
 62
     0
 10
250.782
 20
23.0105
 30
0.0
 11
250.782
 21
25.9608
 31
0.0
  0
LINE
  8
0
 62
     0
 10
250.782
 20
25.9608
 30
0.0
 11
249.983
 21
25.9608
 31
0.0
  0
LINE
  8
0
 62
     0
 10
249.983
 20
25.9608
 30
0.0
 11
249.983
 21
31.9098
 31
0.0
  0
LINE
  8
0
 62
     0
 10
249.983
 20
31.9098
 30
0.0
 11
250.782
 21
31.9098
 31
0.0
  0
LINE
  8
0
 62
     0
 10
250.782
 20
31.9098
 30
0.0
 11
250.782
 21
34.8602
 31
0.0
  0
LINE
  8
0
 62
     0
 10
250.782
 20
34.8602
 30
0.0
 11
249.983
 21
34.8602
 31
0.0
  0
LINE
  8
0
 62
     0
 10
249.983
 20
34.8602
 30
0.0
 11
249.983
 21
35.8606
 31
0.0
  0
LINE
  8
0
 62
     0
 10
249.983
 20
35.8606
 30
0.0
 11
236.133
 21
35.8606
 31
0.0
  0
LINE
  8
0
 62
     0
 10
217.083
 20
35.8606
 30
0.0
 11
217.083
 21
34.8602
 31
0.0
  0
LINE
  8
0
 62
     0
 10
217.083
 20
34.8602
 30
0.0
 11
216.283
 21
34.8602
 31
0.0
  0
LINE
  8
0
 62
     0
 10
216.283
 20
34.8602
 30
0.0
 11
216.283
 21
31.9098
 31
0.0
  0
LINE
  8
0
 62
     0
 10
216.283
 20
31.9098
 30
0.0
 11
217.083
 21
31.9098
 31
0.0
  0
LINE
  8
0
 62
     0
 10
217.083
 20
31.9098
 30
0.0
 11
217.083
 21
25.9608
 31
0.0
  0
LINE
  8
0
 62
     0
 10
217.083
 20
25.9608
 30
0.0
 11
216.283
 21
25.9608
 31
0.0
  0
LINE
  8
0
 62
     0
 10
216.283
 20
25.9608
 30
0.0
 11
216.283
 21
23.0105
 31
0.0
  0
LINE
  8
0
 62
     0
 10
216.283
 20
23.0105
 30
0.0
 11
217.083
 21
23.0105
 31
0.0
  0
LINE
  8
0
 62
     0
 10
217.083
 20
23.0105
 30
0.0
 11
217.083
 21
22.01
 31
0.0
  0
LINE
  8
0
 62
     0
 10
217.083
 20
22.01
 30
0.0
 11
230.933
 21
22.01
 31
0.0
  0
LINE
  8
0
 62
     0
 10
230.933
 20
22.01
 30
0.0
 11
230.933
 21
23.0105
 31
0.0
  0
LINE
  8
0
 62
     0
 10
230.933
 20
23.0105
 30
0.0
 11
231.732
 21
23.0105
 31
0.0
  0
LINE
  8
0
 62
     0
 10
231.732
 20
23.0105
 30
0.0
 11
231.732
 21
25.9608
 31
0.0
  0
LINE
  8
0
 62
     0
 10
231.732
 20
25.9608
 30
0.0
 11
230.933
 21
25.9608
 31
0.0
  0
LINE
  8
0
 62
     0
 10
230.933
 20
25.9608
 30
0.0
 11
230.933
 21
31.9098
 31
0.0
  0
LINE
  8
0
 62
     0
 10
230.933
 20
31.9098
 30
0.0
 11
231.732
 21
31.9098
 31
0.0
  0
LINE
  8
0
 62
     0
 10
231.732
 20
31.9098
 30
0.0
 11
231.732
 21
34.8602
 31
0.0
  0
LINE
  8
0
 62
     0
 10
231.732
 20
34.8602
 30
0.0
 11
230.933
 21
34.8602
 31
0.0
  0
LINE
  8
0
 62
     0
 10
230.933
 20
34.8602
 30
0.0
 11
230.933
 21
35.8606
 31
0.0
  0
LINE
  8
0
 62
     0
 10
230.933
 20
35.8606
 30
0.0
 11
217.083
 21
35.8606
 31
0.0
  0
LINE
  8
0
 62
     0
 10
198.033
 20
35.8606
 30
0.0
 11
198.033
 21
34.8602
 31
0.0
  0
LINE
  8
0
 62
     0
 10
198.033
 20
34.8602
 30
0.0
 11
197.233
 21
34.8602
 31
0.0
  0
LINE
  8
0
 62
     0
 10
197.233
 20
34.8602
 30
0.0
 11
197.233
 21
31.9098
 31
0.0
  0
LINE
  8
0
 62
     0
 10
197.233
 20
31.9098
 30
0.0
 11
198.033
 21
31.9098
 31
0.0
  0
LINE
  8
0
 62
     0
 10
198.033
 20
31.9098
 30
0.0
 11
198.033
 21
25.9608
 31
0.0
  0
LINE
  8
0
 62
     0
 10
198.033
 20
25.9608
 30
0.0
 11
197.233
 21
25.9608
 31
0.0
  0
LINE
  8
0
 62
     0
 10
197.233
 20
25.9608
 30
0.0
 11
197.233
 21
23.0105
 31
0.0
  0
LINE
  8
0
 62
     0
 10
197.233
 20
23.0105
 30
0.0
 11
198.033
 21
23.0105
 31
0.0
  0
LINE
  8
0
 62
     0
 10
198.033
 20
23.0105
 30
0.0
 11
198.033
 21
22.01
 31
0.0
  0
LINE
  8
0
 62
     0
 10
198.033
 20
22.01
 30
0.0
 11
211.883
 21
22.01
 31
0.0
  0
LINE
  8
0
 62
     0
 10
211.883
 20
22.01
 30
0.0
 11
211.883
 21
23.0105
 31
0.0
  0
LINE
  8
0
 62
     0
 10
211.883
 20
23.0105
 30
0.0
 11
212.682
 21
23.0105
 31
0.0
  0
LINE
  8
0
 62
     0
 10
212.682
 20
23.0105
 30
0.0
 11
212.682
 21
25.9608
 31
0.0
  0
LINE
  8
0
 62
     0
 10
212.682
 20
25.9608
 30
0.0
 11
211.883
 21
25.9608
 31
0.0
  0
LINE
  8
0
 62
     0
 10
211.883
 20
25.9608
 30
0.0
 11
211.883
 21
31.9098
 31
0.0
  0
LINE
  8
0
 62
     0
 10
211.883
 20
31.9098
 30
0.0
 11
212.682
 21
31.9098
 31
0.0
  0
LINE
  8
0
 62
     0
 10
212.682
 20
31.9098
 30
0.0
 11
212.682
 21
34.8602
 31
0.0
  0
LINE
  8
0
 62
     0
 10
212.682
 20
34.8602
 30
0.0
 11
211.883
 21
34.8602
 31
0.0
  0
LINE
  8
0
 62
     0
 10
211.883
 20
34.8602
 30
0.0
 11
211.883
 21
35.8606
 31
0.0
  0
LINE
  8
0
 62
     0
 10
211.883
 20
35.8606
 30
0.0
 11
198.033
 21
35.8606
 31
0.0
  0
LINE
  8
0
 62
     0
 10
178.983
 20
35.8606
 30
0.0
 11
178.983
 21
34.8602
 31
0.0
  0
LINE
  8
0
 62
     0
 10
178.983
 20
34.8602
 30
0.0
 11
178.183
 21
34.8602
 31
0.0
  0
LINE
  8
0
 62
     0
 10
178.183
 20
34.8602
 30
0.0
 11
178.183
 21
31.9098
 31
0.0
  0
LINE
  8
0
 62
     0
 10
178.183
 20
31.9098
 30
0.0
 11
178.983
 21
31.9098
 31
0.0
  0
LINE
  8
0
 62
     0
 10
178.983
 20
31.9098
 30
0.0
 11
178.983
 21
25.9608
 31
0.0
  0
LINE
  8
0
 62
     0
 10
178.983
 20
25.9608
 30
0.0
 11
178.183
 21
25.9608
 31
0.0
  0
LINE
  8
0
 62
     0
 10
178.183
 20
25.9608
 30
0.0
 11
178.183
 21
23.0105
 31
0.0
  0
LINE
  8
0
 62
     0
 10
178.183
 20
23.0105
 30
0.0
 11
178.983
 21
23.0105
 31
0.0
  0
LINE
  8
0
 62
     0
 10
178.983
 20
23.0105
 30
0.0
 11
178.983
 21
22.01
 31
0.0
  0
LINE
  8
0
 62
     0
 10
178.983
 20
22.01
 30
0.0
 11
192.833
 21
22.01
 31
0.0
  0
LINE
  8
0
 62
     0
 10
192.833
 20
22.01
 30
0.0
 11
192.833
 21
23.0105
 31
0.0
  0
LINE
  8
0
 62
     0
 10
192.833
 20
23.0105
 30
0.0
 11
193.632
 21
23.0105
 31
0.0
  0
LINE
  8
0
 62
     0
 10
193.632
 20
23.0105
 30
0.0
 11
193.632
 21
25.9608
 31
0.0
  0
LINE
  8
0
 62
     0
 10
193.632
 20
25.9608
 30
0.0
 11
192.833
 21
25.9608
 31
0.0
  0
LINE
  8
0
 62
     0
 10
192.833
 20
25.9608
 30
0.0
 11
192.833
 21
31.9098
 31
0.0
  0
LINE
  8
0
 62
     0
 10
192.833
 20
31.9098
 30
0.0
 11
193.632
 21
31.9098
 31
0.0
  0
LINE
  8
0
 62
     0
 10
193.632
 20
31.9098
 30
0.0
 11
193.632
 21
34.8602
 31
0.0
  0
LINE
  8
0
 62
     0
 10
193.632
 20
34.8602
 30
0.0
 11
192.833
 21
34.8602
 31
0.0
  0
LINE
  8
0
 62
     0
 10
192.833
 20
34.8602
 30
0.0
 11
192.833
 21
35.8606
 31
0.0
  0
LINE
  8
0
 62
     0
 10
192.833
 20
35.8606
 30
0.0
 11
178.983
 21
35.8606
 31
0.0
  0
LINE
  8
0
 62
     0
 10
159.933
 20
35.8606
 30
0.0
 11
159.933
 21
34.8602
 31
0.0
  0
LINE
  8
0
 62
     0
 10
159.933
 20
34.8602
 30
0.0
 11
159.133
 21
34.8602
 31
0.0
  0
LINE
  8
0
 62
     0
 10
159.133
 20
34.8602
 30
0.0
 11
159.133
 21
31.9098
 31
0.0
  0
LINE
  8
0
 62
     0
 10
159.133
 20
31.9098
 30
0.0
 11
159.933
 21
31.9098
 31
0.0
  0
LINE
  8
0
 62
     0
 10
159.933
 20
31.9098
 30
0.0
 11
159.933
 21
25.9608
 31
0.0
  0
LINE
  8
0
 62
     0
 10
159.933
 20
25.9608
 30
0.0
 11
159.133
 21
25.9608
 31
0.0
  0
LINE
  8
0
 62
     0
 10
159.133
 20
25.9608
 30
0.0
 11
159.133
 21
23.0105
 31
0.0
  0
LINE
  8
0
 62
     0
 10
159.133
 20
23.0105
 30
0.0
 11
159.933
 21
23.0105
 31
0.0
  0
LINE
  8
0
 62
     0
 10
159.933
 20
23.0105
 30
0.0
 11
159.933
 21
22.01
 31
0.0
  0
LINE
  8
0
 62
     0
 10
159.933
 20
22.01
 30
0.0
 11
173.783
 21
22.01
 31
0.0
  0
LINE
  8
0
 62
     0
 10
173.783
 20
22.01
 30
0.0
 11
173.783
 21
23.0105
 31
0.0
  0
LINE
  8
0
 62
     0
 10
173.783
 20
23.0105
 30
0.0
 11
174.582
 21
23.0105
 31
0.0
  0
LINE
  8
0
 62
     0
 10
174.582
 20
23.0105
 30
0.0
 11
174.582
 21
25.9608
 31
0.0
  0
LINE
  8
0
 62
     0
 10
174.582
 20
25.9608
 30
0.0
 11
173.783
 21
25.9608
 31
0.0
  0
LINE
  8
0
 62
     0
 10
173.783
 20
25.9608
 30
0.0
 11
173.783
 21
31.9098
 31
0.0
  0
LINE
  8
0
 62
     0
 10
173.783
 20
31.9098
 30
0.0
 11
174.582
 21
31.9098
 31
0.0
  0
LINE
  8
0
 62
     0
 10
174.582
 20
31.9098
 30
0.0
 11
174.582
 21
34.8602
 31
0.0
  0
LINE
  8
0
 62
     0
 10
174.582
 20
34.8602
 30
0.0
 11
173.783
 21
34.8602
 31
0.0
  0
LINE
  8
0
 62
     0
 10
173.783
 20
34.8602
 30
0.0
 11
173.783
 21
35.8606
 31
0.0
  0
LINE
  8
0
 62
     0
 10
173.783
 20
35.8606
 30
0.0
 11
159.933
 21
35.8606
 31
0.0
  0
LINE
  8
0
 62
     0
 10
140.883
 20
35.8606
 30
0.0
 11
140.883
 21
34.8602
 31
0.0
  0
LINE
  8
0
 62
     0
 10
140.883
 20
34.8602
 30
0.0
 11
140.083
 21
34.8602
 31
0.0
  0
LINE
  8
0
 62
     0
 10
140.083
 20
34.8602
 30
0.0
 11
140.083
 21
31.9098
 31
0.0
  0
LINE
  8
0
 62
     0
 10
140.083
 20
31.9098
 30
0.0
 11
140.883
 21
31.9098
 31
0.0
  0
LINE
  8
0
 62
     0
 10
140.883
 20
31.9098
 30
0.0
 11
140.883
 21
25.9608
 31
0.0
  0
LINE
  8
0
 62
     0
 10
140.883
 20
25.9608
 30
0.0
 11
140.083
 21
25.9608
 31
0.0
  0
LINE
  8
0
 62
     0
 10
140.083
 20
25.9608
 30
0.0
 11
140.083
 21
23.0105
 31
0.0
  0
LINE
  8
0
 62
     0
 10
140.083
 20
23.0105
 30
0.0
 11
140.883
 21
23.0105
 31
0.0
  0
LINE
  8
0
 62
     0
 10
140.883
 20
23.0105
 30
0.0
 11
140.883
 21
22.01
 31
0.0
  0
LINE
  8
0
 62
     0
 10
140.883
 20
22.01
 30
0.0
 11
154.733
 21
22.01
 31
0.0
  0
LINE
  8
0
 62
     0
 10
154.733
 20
22.01
 30
0.0
 11
154.733
 21
23.0105
 31
0.0
  0
LINE
  8
0
 62
     0
 10
154.733
 20
23.0105
 30
0.0
 11
155.532
 21
23.0105
 31
0.0
  0
LINE
  8
0
 62
     0
 10
155.532
 20
23.0105
 30
0.0
 11
155.532
 21
25.9608
 31
0.0
  0
LINE
  8
0
 62
     0
 10
155.532
 20
25.9608
 30
0.0
 11
154.733
 21
25.9608
 31
0.0
  0
LINE
  8
0
 62
     0
 10
154.733
 20
25.9608
 30
0.0
 11
154.733
 21
31.9098
 31
0.0
  0
LINE
  8
0
 62
     0
 10
154.733
 20
31.9098
 30
0.0
 11
155.532
 21
31.9098
 31
0.0
  0
LINE
  8
0
 62
     0
 10
155.532
 20
31.9098
 30
0.0
 11
155.532
 21
34.8602
 31
0.0
  0
LINE
  8
0
 62
     0
 10
155.532
 20
34.8602
 30
0.0
 11
154.733
 21
34.8602
 31
0.0
  0
LINE
  8
0
 62
     0
 10
154.733
 20
34.8602
 30
0.0
 11
154.733
 21
35.8606
 31
0.0
  0
LINE
  8
0
 62
     0
 10
154.733
 20
35.8606
 30
0.0
 11
140.883
 21
35.8606
 31
0.0
  0
LINE
  8
0
 62
     0
 10
121.833
 20
35.8606
 30
0.0
 11
121.833
 21
34.8602
 31
0.0
  0
LINE
  8
0
 62
     0
 10
121.833
 20
34.8602
 30
0.0
 11
121.033
 21
34.8602
 31
0.0
  0
LINE
  8
0
 62
     0
 10
121.033
 20
34.8602
 30
0.0
 11
121.033
 21
31.9098
 31
0.0
  0
LINE
  8
0
 62
     0
 10
121.033
 20
31.9098
 30
0.0
 11
121.833
 21
31.9098
 31
0.0
  0
LINE
  8
0
 62
     0
 10
121.833
 20
31.9098
 30
0.0
 11
121.833
 21
25.9608
 31
0.0
  0
LINE
  8
0
 62
     0
 10
121.833
 20
25.9608
 30
0.0
 11
121.033
 21
25.9608
 31
0.0
  0
LINE
  8
0
 62
     0
 10
121.033
 20
25.9608
 30
0.0
 11
121.033
 21
23.0105
 31
0.0
  0
LINE
  8
0
 62
     0
 10
121.033
 20
23.0105
 30
0.0
 11
121.833
 21
23.0105
 31
0.0
  0
LINE
  8
0
 62
     0
 10
121.833
 20
23.0105
 30
0.0
 11
121.833
 21
22.01
 31
0.0
  0
LINE
  8
0
 62
     0
 10
121.833
 20
22.01
 30
0.0
 11
135.683
 21
22.01
 31
0.0
  0
LINE
  8
0
 62
     0
 10
135.683
 20
22.01
 30
0.0
 11
135.683
 21
23.0105
 31
0.0
  0
LINE
  8
0
 62
     0
 10
135.683
 20
23.0105
 30
0.0
 11
136.482
 21
23.0105
 31
0.0
  0
LINE
  8
0
 62
     0
 10
136.482
 20
23.0105
 30
0.0
 11
136.482
 21
25.9608
 31
0.0
  0
LINE
  8
0
 62
     0
 10
136.482
 20
25.9608
 30
0.0
 11
135.683
 21
25.9608
 31
0.0
  0
LINE
  8
0
 62
     0
 10
135.683
 20
25.9608
 30
0.0
 11
135.683
 21
31.9098
 31
0.0
  0
LINE
  8
0
 62
     0
 10
135.683
 20
31.9098
 30
0.0
 11
136.482
 21
31.9098
 31
0.0
  0
LINE
  8
0
 62
     0
 10
136.482
 20
31.9098
 30
0.0
 11
136.482
 21
34.8602
 31
0.0
  0
LINE
  8
0
 62
     0
 10
136.482
 20
34.8602
 30
0.0
 11
135.683
 21
34.8602
 31
0.0
  0
LINE
  8
0
 62
     0
 10
135.683
 20
34.8602
 30
0.0
 11
135.683
 21
35.8606
 31
0.0
  0
LINE
  8
0
 62
     0
 10
135.683
 20
35.8606
 30
0.0
 11
121.833
 21
35.8606
 31
0.0
  0
LINE
  8
0
 62
     0
 10
102.783
 20
35.8606
 30
0.0
 11
102.783
 21
34.8602
 31
0.0
  0
LINE
  8
0
 62
     0
 10
102.783
 20
34.8602
 30
0.0
 11
101.983
 21
34.8602
 31
0.0
  0
LINE
  8
0
 62
     0
 10
101.983
 20
34.8602
 30
0.0
 11
101.983
 21
31.9098
 31
0.0
  0
LINE
  8
0
 62
     0
 10
101.983
 20
31.9098
 30
0.0
 11
102.783
 21
31.9098
 31
0.0
  0
LINE
  8
0
 62
     0
 10
102.783
 20
31.9098
 30
0.0
 11
102.783
 21
25.9608
 31
0.0
  0
LINE
  8
0
 62
     0
 10
102.783
 20
25.9608
 30
0.0
 11
101.983
 21
25.9608
 31
0.0
  0
LINE
  8
0
 62
     0
 10
101.983
 20
25.9608
 30
0.0
 11
101.983
 21
23.0105
 31
0.0
  0
LINE
  8
0
 62
     0
 10
101.983
 20
23.0105
 30
0.0
 11
102.783
 21
23.0105
 31
0.0
  0
LINE
  8
0
 62
     0
 10
102.783
 20
23.0105
 30
0.0
 11
102.783
 21
22.01
 31
0.0
  0
LINE
  8
0
 62
     0
 10
102.783
 20
22.01
 30
0.0
 11
116.633
 21
22.01
 31
0.0
  0
LINE
  8
0
 62
     0
 10
116.633
 20
22.01
 30
0.0
 11
116.633
 21
23.0105
 31
0.0
  0
LINE
  8
0
 62
     0
 10
116.633
 20
23.0105
 30
0.0
 11
117.432
 21
23.0105
 31
0.0
  0
LINE
  8
0
 62
     0
 10
117.432
 20
23.0105
 30
0.0
 11
117.432
 21
25.9608
 31
0.0
  0
LINE
  8
0
 62
     0
 10
117.432
 20
25.9608
 30
0.0
 11
116.633
 21
25.9608
 31
0.0
  0
LINE
  8
0
 62
     0
 10
116.633
 20
25.9608
 30
0.0
 11
116.633
 21
31.9098
 31
0.0
  0
LINE
  8
0
 62
     0
 10
116.633
 20
31.9098
 30
0.0
 11
117.432
 21
31.9098
 31
0.0
  0
LINE
  8
0
 62
     0
 10
117.432
 20
31.9098
 30
0.0
 11
117.432
 21
34.8602
 31
0.0
  0
LINE
  8
0
 62
     0
 10
117.432
 20
34.8602
 30
0.0
 11
116.633
 21
34.8602
 31
0.0
  0
LINE
  8
0
 62
     0
 10
116.633
 20
34.8602
 30
0.0
 11
116.633
 21
35.8606
 31
0.0
  0
LINE
  8
0
 62
     0
 10
116.633
 20
35.8606
 30
0.0
 11
102.783
 21
35.8606
 31
0.0
  0
LINE
  8
0
 62
     0
 10
83.7325
 20
35.8606
 30
0.0
 11
83.7325
 21
34.8602
 31
0.0
  0
LINE
  8
0
 62
     0
 10
83.7325
 20
34.8602
 30
0.0
 11
82.9331
 21
34.8602
 31
0.0
  0
LINE
  8
0
 62
     0
 10
82.9331
 20
34.8602
 30
0.0
 11
82.9331
 21
31.9098
 31
0.0
  0
LINE
  8
0
 62
     0
 10
82.9331
 20
31.9098
 30
0.0
 11
83.7325
 21
31.9098
 31
0.0
  0
LINE
  8
0
 62
     0
 10
83.7325
 20
31.9098
 30
0.0
 11
83.7325
 21
25.9608
 31
0.0
  0
LINE
  8
0
 62
     0
 10
83.7325
 20
25.9608
 30
0.0
 11
82.9331
 21
25.9608
 31
0.0
  0
LINE
  8
0
 62
     0
 10
82.9331
 20
25.9608
 30
0.0
 11
82.9331
 21
23.0105
 31
0.0
  0
LINE
  8
0
 62
     0
 10
82.9331
 20
23.0105
 30
0.0
 11
83.7325
 21
23.0105
 31
0.0
  0
LINE
  8
0
 62
     0
 10
83.7325
 20
23.0105
 30
0.0
 11
83.7325
 21
22.01
 31
0.0
  0
LINE
  8
0
 62
     0
 10
83.7325
 20
22.01
 30
0.0
 11
97.5829
 21
22.01
 31
0.0
  0
LINE
  8
0
 62
     0
 10
97.5829
 20
22.01
 30
0.0
 11
97.5829
 21
23.0105
 31
0.0
  0
LINE
  8
0
 62
     0
 10
97.5829
 20
23.0105
 30
0.0
 11
98.3823
 21
23.0105
 31
0.0
  0
LINE
  8
0
 62
     0
 10
98.3823
 20
23.0105
 30
0.0
 11
98.3823
 21
25.9608
 31
0.0
  0
LINE
  8
0
 62
     0
 10
98.3823
 20
25.9608
 30
0.0
 11
97.5829
 21
25.9608
 31
0.0
  0
LINE
  8
0
 62
     0
 10
97.5829
 20
25.9608
 30
0.0
 11
97.5829
 21
31.9098
 31
0.0
  0
LINE
  8
0
 62
     0
 10
97.5829
 20
31.9098
 30
0.0
 11
98.3823
 21
31.9098
 31
0.0
  0
LINE
  8
0
 62
     0
 10
98.3823
 20
31.9098
 30
0.0
 11
98.3823
 21
34.8602
 31
0.0
  0
LINE
  8
0
 62
     0
 10
98.3823
 20
34.8602
 30
0.0
 11
97.5829
 21
34.8602
 31
0.0
  0
LINE
  8
0
 62
     0
 10
97.5829
 20
34.8602
 30
0.0
 11
97.5829
 21
35.8606
 31
0.0
  0
LINE
  8
0
 62
     0
 10
97.5829
 20
35.8606
 30
0.0
 11
83.7325
 21
35.8606
 31
0.0
  0
LINE
  8
0
 62
     0
 10
64.6825
 20
35.8606
 30
0.0
 11
64.6825
 21
34.8602
 31
0.0
  0
LINE
  8
0
 62
     0
 10
64.6825
 20
34.8602
 30
0.0
 11
63.8831
 21
34.8602
 31
0.0
  0
LINE
  8
0
 62
     0
 10
63.8831
 20
34.8602
 30
0.0
 11
63.8831
 21
31.9098
 31
0.0
  0
LINE
  8
0
 62
     0
 10
63.8831
 20
31.9098
 30
0.0
 11
64.6825
 21
31.9098
 31
0.0
  0
LINE
  8
0
 62
     0
 10
64.6825
 20
31.9098
 30
0.0
 11
64.6825
 21
25.9608
 31
0.0
  0
LINE
  8
0
 62
     0
 10
64.6825
 20
25.9608
 30
0.0
 11
63.8831
 21
25.9608
 31
0.0
  0
LINE
  8
0
 62
     0
 10
63.8831
 20
25.9608
 30
0.0
 11
63.8831
 21
23.0105
 31
0.0
  0
LINE
  8
0
 62
     0
 10
63.8831
 20
23.0105
 30
0.0
 11
64.6825
 21
23.0105
 31
0.0
  0
LINE
  8
0
 62
     0
 10
64.6825
 20
23.0105
 30
0.0
 11
64.6825
 21
22.01
 31
0.0
  0
LINE
  8
0
 62
     0
 10
64.6825
 20
22.01
 30
0.0
 11
78.5329
 21
22.01
 31
0.0
  0
LINE
  8
0
 62
     0
 10
78.5329
 20
22.01
 30
0.0
 11
78.5329
 21
23.0105
 31
0.0
  0
LINE
  8
0
 62
     0
 10
78.5329
 20
23.0105
 30
0.0
 11
79.3323
 21
23.0105
 31
0.0
  0
LINE
  8
0
 62
     0
 10
79.3323
 20
23.0105
 30
0.0
 11
79.3323
 21
25.9608
 31
0.0
  0
LINE
  8
0
 62
     0
 10
79.3323
 20
25.9608
 30
0.0
 11
78.5329
 21
25.9608
 31
0.0
  0
LINE
  8
0
 62
     0
 10
78.5329
 20
25.9608
 30
0.0
 11
78.5329
 21
31.9098
 31
0.0
  0
LINE
  8
0
 62
     0
 10
78.5329
 20
31.9098
 30
0.0
 11
79.3323
 21
31.9098
 31
0.0
  0
LINE
  8
0
 62
     0
 10
79.3323
 20
31.9098
 30
0.0
 11
79.3323
 21
34.8602
 31
0.0
  0
LINE
  8
0
 62
     0
 10
79.3323
 20
34.8602
 30
0.0
 11
78.5329
 21
34.8602
 31
0.0
  0
LINE
  8
0
 62
     0
 10
78.5329
 20
34.8602
 30
0.0
 11
78.5329
 21
35.8606
 31
0.0
  0
LINE
  8
0
 62
     0
 10
78.5329
 20
35.8606
 30
0.0
 11
64.6825
 21
35.8606
 31
0.0
  0
LINE
  8
0
 62
     0
 10
45.6325
 20
35.8606
 30
0.0
 11
45.6325
 21
34.8602
 31
0.0
  0
LINE
  8
0
 62
     0
 10
45.6325
 20
34.8602
 30
0.0
 11
44.8331
 21
34.8602
 31
0.0
  0
LINE
  8
0
 62
     0
 10
44.8331
 20
34.8602
 30
0.0
 11
44.8331
 21
31.9098
 31
0.0
  0
LINE
  8
0
 62
     0
 10
44.8331
 20
31.9098
 30
0.0
 11
45.6325
 21
31.9098
 31
0.0
  0
LINE
  8
0
 62
     0
 10
45.6325
 20
31.9098
 30
0.0
 11
45.6325
 21
25.9608
 31
0.0
  0
LINE
  8
0
 62
     0
 10
45.6325
 20
25.9608
 30
0.0
 11
44.8331
 21
25.9608
 31
0.0
  0
LINE
  8
0
 62
     0
 10
44.8331
 20
25.9608
 30
0.0
 11
44.8331
 21
23.0105
 31
0.0
  0
LINE
  8
0
 62
     0
 10
44.8331
 20
23.0105
 30
0.0
 11
45.6325
 21
23.0105
 31
0.0
  0
LINE
  8
0
 62
     0
 10
45.6325
 20
23.0105
 30
0.0
 11
45.6325
 21
22.01
 31
0.0
  0
LINE
  8
0
 62
     0
 10
45.6325
 20
22.01
 30
0.0
 11
59.4829
 21
22.01
 31
0.0
  0
LINE
  8
0
 62
     0
 10
59.4829
 20
22.01
 30
0.0
 11
59.4829
 21
23.0105
 31
0.0
  0
LINE
  8
0
 62
     0
 10
59.4829
 20
23.0105
 30
0.0
 11
60.2823
 21
23.0105
 31
0.0
  0
LINE
  8
0
 62
     0
 10
60.2823
 20
23.0105
 30
0.0
 11
60.2823
 21
25.9608
 31
0.0
  0
LINE
  8
0
 62
     0
 10
60.2823
 20
25.9608
 30
0.0
 11
59.4829
 21
25.9608
 31
0.0
  0
LINE
  8
0
 62
     0
 10
59.4829
 20
25.9608
 30
0.0
 11
59.4829
 21
31.9098
 31
0.0
  0
LINE
  8
0
 62
     0
 10
59.4829
 20
31.9098
 30
0.0
 11
60.2823
 21
31.9098
 31
0.0
  0
LINE
  8
0
 62
     0
 10
60.2823
 20
31.9098
 30
0.0
 11
60.2823
 21
34.8602
 31
0.0
  0
LINE
  8
0
 62
     0
 10
60.2823
 20
34.8602
 30
0.0
 11
59.4829
 21
34.8602
 31
0.0
  0
LINE
  8
0
 62
     0
 10
59.4829
 20
34.8602
 30
0.0
 11
59.4829
 21
35.8606
 31
0.0
  0
LINE
  8
0
 62
     0
 10
59.4829
 20
35.8606
 30
0.0
 11
45.6325
 21
35.8606
 31
0.0
  0
LINE
  8
0
 62
     0
 10
257.564
 20
54.9106
 30
0.0
 11
257.564
 21
53.9101
 31
0.0
  0
LINE
  8
0
 62
     0
 10
257.564
 20
53.9101
 30
0.0
 11
256.763
 21
53.9101
 31
0.0
  0
LINE
  8
0
 62
     0
 10
256.763
 20
53.9101
 30
0.0
 11
256.763
 21
50.9598
 31
0.0
  0
LINE
  8
0
 62
     0
 10
256.763
 20
50.9598
 30
0.0
 11
257.564
 21
50.9598
 31
0.0
  0
LINE
  8
0
 62
     0
 10
257.564
 20
50.9598
 30
0.0
 11
257.564
 21
50.2102
 31
0.0
  0
LINE
  8
0
 62
     0
 10
257.564
 20
50.2102
 30
0.0
 11
255.888
 21
50.2102
 31
0.0
  0
LINE
  8
0
 62
     0
 10
255.888
 20
50.2102
 30
0.0
 11
255.888
 21
53.4402
 31
0.0
  0
LINE
  8
0
 62
     0
 10
255.888
 20
53.4402
 30
0.0
 11
249.289
 21
53.4402
 31
0.0
  0
LINE
  8
0
 62
     0
 10
249.289
 20
53.4402
 30
0.0
 11
249.289
 21
50.2102
 31
0.0
  0
LINE
  8
0
 62
     0
 10
249.289
 20
50.2102
 30
0.0
 11
248.463
 21
50.2102
 31
0.0
  0
LINE
  8
0
 62
     0
 10
248.463
 20
50.2102
 30
0.0
 11
248.463
 21
47.5601
 31
0.0
  0
LINE
  8
0
 62
     0
 10
248.463
 20
47.5601
 30
0.0
 11
249.289
 21
47.5601
 31
0.0
  0
LINE
  8
0
 62
     0
 10
249.289
 20
47.5601
 30
0.0
 11
249.289
 21
41.2902
 31
0.0
  0
LINE
  8
0
 62
     0
 10
249.289
 20
41.2902
 30
0.0
 11
251.014
 21
41.2902
 31
0.0
  0
LINE
  8
0
 62
     0
 10
251.014
 20
41.2902
 30
0.0
 11
251.014
 21
40.09
 31
0.0
  0
LINE
  8
0
 62
     0
 10
251.014
 20
40.09
 30
0.0
 11
254.163
 21
40.09
 31
0.0
  0
LINE
  8
0
 62
     0
 10
254.163
 20
40.09
 30
0.0
 11
254.163
 21
41.2902
 31
0.0
  0
LINE
  8
0
 62
     0
 10
254.163
 20
41.2902
 30
0.0
 11
255.888
 21
41.2902
 31
0.0
  0
LINE
  8
0
 62
     0
 10
255.888
 20
41.2902
 30
0.0
 11
255.888
 21
45.7606
 31
0.0
  0
LINE
  8
0
 62
     0
 10
255.888
 20
45.7606
 30
0.0
 11
257.564
 21
45.7606
 31
0.0
  0
LINE
  8
0
 62
     0
 10
257.564
 20
45.7606
 30
0.0
 11
257.564
 21
45.0109
 31
0.0
  0
LINE
  8
0
 62
     0
 10
257.564
 20
45.0109
 30
0.0
 11
256.763
 21
45.0109
 31
0.0
  0
LINE
  8
0
 62
     0
 10
256.763
 20
45.0109
 30
0.0
 11
256.763
 21
42.0606
 31
0.0
  0
LINE
  8
0
 62
     0
 10
256.763
 20
42.0606
 30
0.0
 11
257.564
 21
42.0606
 31
0.0
  0
LINE
  8
0
 62
     0
 10
257.564
 20
42.0606
 30
0.0
 11
257.564
 21
41.0602
 31
0.0
  0
LINE
  8
0
 62
     0
 10
257.564
 20
41.0602
 30
0.0
 11
271.413
 21
41.0602
 31
0.0
  0
LINE
  8
0
 62
     0
 10
271.413
 20
41.0602
 30
0.0
 11
271.413
 21
42.0606
 31
0.0
  0
LINE
  8
0
 62
     0
 10
271.413
 20
42.0606
 30
0.0
 11
272.214
 21
42.0606
 31
0.0
  0
LINE
  8
0
 62
     0
 10
272.214
 20
42.0606
 30
0.0
 11
272.214
 21
45.0109
 31
0.0
  0
LINE
  8
0
 62
     0
 10
272.214
 20
45.0109
 30
0.0
 11
271.413
 21
45.0109
 31
0.0
  0
LINE
  8
0
 62
     0
 10
271.413
 20
45.0109
 30
0.0
 11
271.413
 21
45.7606
 31
0.0
  0
LINE
  8
0
 62
     0
 10
271.413
 20
45.7606
 30
0.0
 11
273.088
 21
45.7606
 31
0.0
  0
LINE
  8
0
 62
     0
 10
273.088
 20
45.7606
 30
0.0
 11
273.088
 21
41.2902
 31
0.0
  0
LINE
  8
0
 62
     0
 10
273.088
 20
41.2902
 30
0.0
 11
274.814
 21
41.2902
 31
0.0
  0
LINE
  8
0
 62
     0
 10
274.814
 20
41.2902
 30
0.0
 11
274.814
 21
40.09
 31
0.0
  0
LINE
  8
0
 62
     0
 10
274.814
 20
40.09
 30
0.0
 11
277.964
 21
40.09
 31
0.0
  0
LINE
  8
0
 62
     0
 10
277.964
 20
40.09
 30
0.0
 11
277.964
 21
41.2902
 31
0.0
  0
LINE
  8
0
 62
     0
 10
277.964
 20
41.2902
 30
0.0
 11
279.688
 21
41.2902
 31
0.0
  0
LINE
  8
0
 62
     0
 10
279.688
 20
41.2902
 30
0.0
 11
279.688
 21
47.5601
 31
0.0
  0
LINE
  8
0
 62
     0
 10
279.688
 20
47.5601
 30
0.0
 11
280.513
 21
47.5601
 31
0.0
  0
LINE
  8
0
 62
     0
 10
280.513
 20
47.5601
 30
0.0
 11
280.513
 21
50.2102
 31
0.0
  0
LINE
  8
0
 62
     0
 10
280.513
 20
50.2102
 30
0.0
 11
279.688
 21
50.2102
 31
0.0
  0
LINE
  8
0
 62
     0
 10
279.688
 20
50.2102
 30
0.0
 11
279.688
 21
53.4402
 31
0.0
  0
LINE
  8
0
 62
     0
 10
279.688
 20
53.4402
 30
0.0
 11
273.088
 21
53.4402
 31
0.0
  0
LINE
  8
0
 62
     0
 10
273.088
 20
53.4402
 30
0.0
 11
273.088
 21
50.2102
 31
0.0
  0
LINE
  8
0
 62
     0
 10
273.088
 20
50.2102
 30
0.0
 11
271.413
 21
50.2102
 31
0.0
  0
LINE
  8
0
 62
     0
 10
271.413
 20
50.2102
 30
0.0
 11
271.413
 21
50.9598
 31
0.0
  0
LINE
  8
0
 62
     0
 10
271.413
 20
50.9598
 30
0.0
 11
272.214
 21
50.9598
 31
0.0
  0
LINE
  8
0
 62
     0
 10
272.214
 20
50.9598
 30
0.0
 11
272.214
 21
53.9101
 31
0.0
  0
LINE
  8
0
 62
     0
 10
272.214
 20
53.9101
 30
0.0
 11
271.413
 21
53.9101
 31
0.0
  0
LINE
  8
0
 62
     0
 10
271.413
 20
53.9101
 30
0.0
 11
271.413
 21
54.9106
 31
0.0
  0
LINE
  8
0
 62
     0
 10
271.413
 20
54.9106
 30
0.0
 11
257.564
 21
54.9106
 31
0.0
  0
LINE
  8
0
 62
     0
 10
226.608
 20
54.9106
 30
0.0
 11
226.608
 21
53.9101
 31
0.0
  0
LINE
  8
0
 62
     0
 10
226.608
 20
53.9101
 30
0.0
 11
225.808
 21
53.9101
 31
0.0
  0
LINE
  8
0
 62
     0
 10
225.808
 20
53.9101
 30
0.0
 11
225.808
 21
50.9598
 31
0.0
  0
LINE
  8
0
 62
     0
 10
225.808
 20
50.9598
 30
0.0
 11
226.608
 21
50.9598
 31
0.0
  0
LINE
  8
0
 62
     0
 10
226.608
 20
50.9598
 30
0.0
 11
226.608
 21
45.0109
 31
0.0
  0
LINE
  8
0
 62
     0
 10
226.608
 20
45.0109
 30
0.0
 11
225.808
 21
45.0109
 31
0.0
  0
LINE
  8
0
 62
     0
 10
225.808
 20
45.0109
 30
0.0
 11
225.808
 21
42.0606
 31
0.0
  0
LINE
  8
0
 62
     0
 10
225.808
 20
42.0606
 30
0.0
 11
226.608
 21
42.0606
 31
0.0
  0
LINE
  8
0
 62
     0
 10
226.608
 20
42.0606
 30
0.0
 11
226.608
 21
41.0602
 31
0.0
  0
LINE
  8
0
 62
     0
 10
226.608
 20
41.0602
 30
0.0
 11
240.458
 21
41.0602
 31
0.0
  0
LINE
  8
0
 62
     0
 10
240.458
 20
41.0602
 30
0.0
 11
240.458
 21
42.0606
 31
0.0
  0
LINE
  8
0
 62
     0
 10
240.458
 20
42.0606
 30
0.0
 11
241.257
 21
42.0606
 31
0.0
  0
LINE
  8
0
 62
     0
 10
241.257
 20
42.0606
 30
0.0
 11
241.257
 21
45.0109
 31
0.0
  0
LINE
  8
0
 62
     0
 10
241.257
 20
45.0109
 30
0.0
 11
240.458
 21
45.0109
 31
0.0
  0
LINE
  8
0
 62
     0
 10
240.458
 20
45.0109
 30
0.0
 11
240.458
 21
50.9598
 31
0.0
  0
LINE
  8
0
 62
     0
 10
240.458
 20
50.9598
 30
0.0
 11
241.257
 21
50.9598
 31
0.0
  0
LINE
  8
0
 62
     0
 10
241.257
 20
50.9598
 30
0.0
 11
241.257
 21
53.9101
 31
0.0
  0
LINE
  8
0
 62
     0
 10
241.257
 20
53.9101
 30
0.0
 11
240.458
 21
53.9101
 31
0.0
  0
LINE
  8
0
 62
     0
 10
240.458
 20
53.9101
 30
0.0
 11
240.458
 21
54.9106
 31
0.0
  0
LINE
  8
0
 62
     0
 10
240.458
 20
54.9106
 30
0.0
 11
226.608
 21
54.9106
 31
0.0
  0
LINE
  8
0
 62
     0
 10
207.558
 20
54.9106
 30
0.0
 11
207.558
 21
53.9101
 31
0.0
  0
LINE
  8
0
 62
     0
 10
207.558
 20
53.9101
 30
0.0
 11
206.758
 21
53.9101
 31
0.0
  0
LINE
  8
0
 62
     0
 10
206.758
 20
53.9101
 30
0.0
 11
206.758
 21
50.9598
 31
0.0
  0
LINE
  8
0
 62
     0
 10
206.758
 20
50.9598
 30
0.0
 11
207.558
 21
50.9598
 31
0.0
  0
LINE
  8
0
 62
     0
 10
207.558
 20
50.9598
 30
0.0
 11
207.558
 21
45.0109
 31
0.0
  0
LINE
  8
0
 62
     0
 10
207.558
 20
45.0109
 30
0.0
 11
206.758
 21
45.0109
 31
0.0
  0
LINE
  8
0
 62
     0
 10
206.758
 20
45.0109
 30
0.0
 11
206.758
 21
42.0606
 31
0.0
  0
LINE
  8
0
 62
     0
 10
206.758
 20
42.0606
 30
0.0
 11
207.558
 21
42.0606
 31
0.0
  0
LINE
  8
0
 62
     0
 10
207.558
 20
42.0606
 30
0.0
 11
207.558
 21
41.0602
 31
0.0
  0
LINE
  8
0
 62
     0
 10
207.558
 20
41.0602
 30
0.0
 11
221.408
 21
41.0602
 31
0.0
  0
LINE
  8
0
 62
     0
 10
221.408
 20
41.0602
 30
0.0
 11
221.408
 21
42.0606
 31
0.0
  0
LINE
  8
0
 62
     0
 10
221.408
 20
42.0606
 30
0.0
 11
222.207
 21
42.0606
 31
0.0
  0
LINE
  8
0
 62
     0
 10
222.207
 20
42.0606
 30
0.0
 11
222.207
 21
45.0109
 31
0.0
  0
LINE
  8
0
 62
     0
 10
222.207
 20
45.0109
 30
0.0
 11
221.408
 21
45.0109
 31
0.0
  0
LINE
  8
0
 62
     0
 10
221.408
 20
45.0109
 30
0.0
 11
221.408
 21
50.9598
 31
0.0
  0
LINE
  8
0
 62
     0
 10
221.408
 20
50.9598
 30
0.0
 11
222.207
 21
50.9598
 31
0.0
  0
LINE
  8
0
 62
     0
 10
222.207
 20
50.9598
 30
0.0
 11
222.207
 21
53.9101
 31
0.0
  0
LINE
  8
0
 62
     0
 10
222.207
 20
53.9101
 30
0.0
 11
221.408
 21
53.9101
 31
0.0
  0
LINE
  8
0
 62
     0
 10
221.408
 20
53.9101
 30
0.0
 11
221.408
 21
54.9106
 31
0.0
  0
LINE
  8
0
 62
     0
 10
221.408
 20
54.9106
 30
0.0
 11
207.558
 21
54.9106
 31
0.0
  0
LINE
  8
0
 62
     0
 10
188.508
 20
54.9106
 30
0.0
 11
188.508
 21
53.9101
 31
0.0
  0
LINE
  8
0
 62
     0
 10
188.508
 20
53.9101
 30
0.0
 11
187.708
 21
53.9101
 31
0.0
  0
LINE
  8
0
 62
     0
 10
187.708
 20
53.9101
 30
0.0
 11
187.708
 21
50.9598
 31
0.0
  0
LINE
  8
0
 62
     0
 10
187.708
 20
50.9598
 30
0.0
 11
188.508
 21
50.9598
 31
0.0
  0
LINE
  8
0
 62
     0
 10
188.508
 20
50.9598
 30
0.0
 11
188.508
 21
45.0109
 31
0.0
  0
LINE
  8
0
 62
     0
 10
188.508
 20
45.0109
 30
0.0
 11
187.708
 21
45.0109
 31
0.0
  0
LINE
  8
0
 62
     0
 10
187.708
 20
45.0109
 30
0.0
 11
187.708
 21
42.0606
 31
0.0
  0
LINE
  8
0
 62
     0
 10
187.708
 20
42.0606
 30
0.0
 11
188.508
 21
42.0606
 31
0.0
  0
LINE
  8
0
 62
     0
 10
188.508
 20
42.0606
 30
0.0
 11
188.508
 21
41.0602
 31
0.0
  0
LINE
  8
0
 62
     0
 10
188.508
 20
41.0602
 30
0.0
 11
202.358
 21
41.0602
 31
0.0
  0
LINE
  8
0
 62
     0
 10
202.358
 20
41.0602
 30
0.0
 11
202.358
 21
42.0606
 31
0.0
  0
LINE
  8
0
 62
     0
 10
202.358
 20
42.0606
 30
0.0
 11
203.157
 21
42.0606
 31
0.0
  0
LINE
  8
0
 62
     0
 10
203.157
 20
42.0606
 30
0.0
 11
203.157
 21
45.0109
 31
0.0
  0
LINE
  8
0
 62
     0
 10
203.157
 20
45.0109
 30
0.0
 11
202.358
 21
45.0109
 31
0.0
  0
LINE
  8
0
 62
     0
 10
202.358
 20
45.0109
 30
0.0
 11
202.358
 21
50.9598
 31
0.0
  0
LINE
  8
0
 62
     0
 10
202.358
 20
50.9598
 30
0.0
 11
203.157
 21
50.9598
 31
0.0
  0
LINE
  8
0
 62
     0
 10
203.157
 20
50.9598
 30
0.0
 11
203.157
 21
53.9101
 31
0.0
  0
LINE
  8
0
 62
     0
 10
203.157
 20
53.9101
 30
0.0
 11
202.358
 21
53.9101
 31
0.0
  0
LINE
  8
0
 62
     0
 10
202.358
 20
53.9101
 30
0.0
 11
202.358
 21
54.9106
 31
0.0
  0
LINE
  8
0
 62
     0
 10
202.358
 20
54.9106
 30
0.0
 11
188.508
 21
54.9106
 31
0.0
  0
LINE
  8
0
 62
     0
 10
169.458
 20
54.9106
 30
0.0
 11
169.458
 21
53.9101
 31
0.0
  0
LINE
  8
0
 62
     0
 10
169.458
 20
53.9101
 30
0.0
 11
168.658
 21
53.9101
 31
0.0
  0
LINE
  8
0
 62
     0
 10
168.658
 20
53.9101
 30
0.0
 11
168.658
 21
50.9598
 31
0.0
  0
LINE
  8
0
 62
     0
 10
168.658
 20
50.9598
 30
0.0
 11
169.458
 21
50.9598
 31
0.0
  0
LINE
  8
0
 62
     0
 10
169.458
 20
50.9598
 30
0.0
 11
169.458
 21
45.0109
 31
0.0
  0
LINE
  8
0
 62
     0
 10
169.458
 20
45.0109
 30
0.0
 11
168.658
 21
45.0109
 31
0.0
  0
LINE
  8
0
 62
     0
 10
168.658
 20
45.0109
 30
0.0
 11
168.658
 21
42.0606
 31
0.0
  0
LINE
  8
0
 62
     0
 10
168.658
 20
42.0606
 30
0.0
 11
169.458
 21
42.0606
 31
0.0
  0
LINE
  8
0
 62
     0
 10
169.458
 20
42.0606
 30
0.0
 11
169.458
 21
41.0602
 31
0.0
  0
LINE
  8
0
 62
     0
 10
169.458
 20
41.0602
 30
0.0
 11
183.308
 21
41.0602
 31
0.0
  0
LINE
  8
0
 62
     0
 10
183.308
 20
41.0602
 30
0.0
 11
183.308
 21
42.0606
 31
0.0
  0
LINE
  8
0
 62
     0
 10
183.308
 20
42.0606
 30
0.0
 11
184.107
 21
42.0606
 31
0.0
  0
LINE
  8
0
 62
     0
 10
184.107
 20
42.0606
 30
0.0
 11
184.107
 21
45.0109
 31
0.0
  0
LINE
  8
0
 62
     0
 10
184.107
 20
45.0109
 30
0.0
 11
183.308
 21
45.0109
 31
0.0
  0
LINE
  8
0
 62
     0
 10
183.308
 20
45.0109
 30
0.0
 11
183.308
 21
50.9598
 31
0.0
  0
LINE
  8
0
 62
     0
 10
183.308
 20
50.9598
 30
0.0
 11
184.107
 21
50.9598
 31
0.0
  0
LINE
  8
0
 62
     0
 10
184.107
 20
50.9598
 30
0.0
 11
184.107
 21
53.9101
 31
0.0
  0
LINE
  8
0
 62
     0
 10
184.107
 20
53.9101
 30
0.0
 11
183.308
 21
53.9101
 31
0.0
  0
LINE
  8
0
 62
     0
 10
183.308
 20
53.9101
 30
0.0
 11
183.308
 21
54.9106
 31
0.0
  0
LINE
  8
0
 62
     0
 10
183.308
 20
54.9106
 30
0.0
 11
169.458
 21
54.9106
 31
0.0
  0
LINE
  8
0
 62
     0
 10
150.408
 20
54.9106
 30
0.0
 11
150.408
 21
53.9101
 31
0.0
  0
LINE
  8
0
 62
     0
 10
150.408
 20
53.9101
 30
0.0
 11
149.608
 21
53.9101
 31
0.0
  0
LINE
  8
0
 62
     0
 10
149.608
 20
53.9101
 30
0.0
 11
149.608
 21
50.9598
 31
0.0
  0
LINE
  8
0
 62
     0
 10
149.608
 20
50.9598
 30
0.0
 11
150.408
 21
50.9598
 31
0.0
  0
LINE
  8
0
 62
     0
 10
150.408
 20
50.9598
 30
0.0
 11
150.408
 21
45.0109
 31
0.0
  0
LINE
  8
0
 62
     0
 10
150.408
 20
45.0109
 30
0.0
 11
149.608
 21
45.0109
 31
0.0
  0
LINE
  8
0
 62
     0
 10
149.608
 20
45.0109
 30
0.0
 11
149.608
 21
42.0606
 31
0.0
  0
LINE
  8
0
 62
     0
 10
149.608
 20
42.0606
 30
0.0
 11
150.408
 21
42.0606
 31
0.0
  0
LINE
  8
0
 62
     0
 10
150.408
 20
42.0606
 30
0.0
 11
150.408
 21
41.0602
 31
0.0
  0
LINE
  8
0
 62
     0
 10
150.408
 20
41.0602
 30
0.0
 11
164.258
 21
41.0602
 31
0.0
  0
LINE
  8
0
 62
     0
 10
164.258
 20
41.0602
 30
0.0
 11
164.258
 21
42.0606
 31
0.0
  0
LINE
  8
0
 62
     0
 10
164.258
 20
42.0606
 30
0.0
 11
165.057
 21
42.0606
 31
0.0
  0
LINE
  8
0
 62
     0
 10
165.057
 20
42.0606
 30
0.0
 11
165.057
 21
45.0109
 31
0.0
  0
LINE
  8
0
 62
     0
 10
165.057
 20
45.0109
 30
0.0
 11
164.258
 21
45.0109
 31
0.0
  0
LINE
  8
0
 62
     0
 10
164.258
 20
45.0109
 30
0.0
 11
164.258
 21
50.9598
 31
0.0
  0
LINE
  8
0
 62
     0
 10
164.258
 20
50.9598
 30
0.0
 11
165.057
 21
50.9598
 31
0.0
  0
LINE
  8
0
 62
     0
 10
165.057
 20
50.9598
 30
0.0
 11
165.057
 21
53.9101
 31
0.0
  0
LINE
  8
0
 62
     0
 10
165.057
 20
53.9101
 30
0.0
 11
164.258
 21
53.9101
 31
0.0
  0
LINE
  8
0
 62
     0
 10
164.258
 20
53.9101
 30
0.0
 11
164.258
 21
54.9106
 31
0.0
  0
LINE
  8
0
 62
     0
 10
164.258
 20
54.9106
 30
0.0
 11
150.408
 21
54.9106
 31
0.0
  0
LINE
  8
0
 62
     0
 10
131.358
 20
54.9106
 30
0.0
 11
131.358
 21
53.9101
 31
0.0
  0
LINE
  8
0
 62
     0
 10
131.358
 20
53.9101
 30
0.0
 11
130.558
 21
53.9101
 31
0.0
  0
LINE
  8
0
 62
     0
 10
130.558
 20
53.9101
 30
0.0
 11
130.558
 21
50.9598
 31
0.0
  0
LINE
  8
0
 62
     0
 10
130.558
 20
50.9598
 30
0.0
 11
131.358
 21
50.9598
 31
0.0
  0
LINE
  8
0
 62
     0
 10
131.358
 20
50.9598
 30
0.0
 11
131.358
 21
45.0109
 31
0.0
  0
LINE
  8
0
 62
     0
 10
131.358
 20
45.0109
 30
0.0
 11
130.558
 21
45.0109
 31
0.0
  0
LINE
  8
0
 62
     0
 10
130.558
 20
45.0109
 30
0.0
 11
130.558
 21
42.0606
 31
0.0
  0
LINE
  8
0
 62
     0
 10
130.558
 20
42.0606
 30
0.0
 11
131.358
 21
42.0606
 31
0.0
  0
LINE
  8
0
 62
     0
 10
131.358
 20
42.0606
 30
0.0
 11
131.358
 21
41.0602
 31
0.0
  0
LINE
  8
0
 62
     0
 10
131.358
 20
41.0602
 30
0.0
 11
145.208
 21
41.0602
 31
0.0
  0
LINE
  8
0
 62
     0
 10
145.208
 20
41.0602
 30
0.0
 11
145.208
 21
42.0606
 31
0.0
  0
LINE
  8
0
 62
     0
 10
145.208
 20
42.0606
 30
0.0
 11
146.007
 21
42.0606
 31
0.0
  0
LINE
  8
0
 62
     0
 10
146.007
 20
42.0606
 30
0.0
 11
146.007
 21
45.0109
 31
0.0
  0
LINE
  8
0
 62
     0
 10
146.007
 20
45.0109
 30
0.0
 11
145.208
 21
45.0109
 31
0.0
  0
LINE
  8
0
 62
     0
 10
145.208
 20
45.0109
 30
0.0
 11
145.208
 21
50.9598
 31
0.0
  0
LINE
  8
0
 62
     0
 10
145.208
 20
50.9598
 30
0.0
 11
146.007
 21
50.9598
 31
0.0
  0
LINE
  8
0
 62
     0
 10
146.007
 20
50.9598
 30
0.0
 11
146.007
 21
53.9101
 31
0.0
  0
LINE
  8
0
 62
     0
 10
146.007
 20
53.9101
 30
0.0
 11
145.208
 21
53.9101
 31
0.0
  0
LINE
  8
0
 62
     0
 10
145.208
 20
53.9101
 30
0.0
 11
145.208
 21
54.9106
 31
0.0
  0
LINE
  8
0
 62
     0
 10
145.208
 20
54.9106
 30
0.0
 11
131.358
 21
54.9106
 31
0.0
  0
LINE
  8
0
 62
     0
 10
112.308
 20
54.9106
 30
0.0
 11
112.308
 21
53.9101
 31
0.0
  0
LINE
  8
0
 62
     0
 10
112.308
 20
53.9101
 30
0.0
 11
111.508
 21
53.9101
 31
0.0
  0
LINE
  8
0
 62
     0
 10
111.508
 20
53.9101
 30
0.0
 11
111.508
 21
50.9598
 31
0.0
  0
LINE
  8
0
 62
     0
 10
111.508
 20
50.9598
 30
0.0
 11
112.308
 21
50.9598
 31
0.0
  0
LINE
  8
0
 62
     0
 10
112.308
 20
50.9598
 30
0.0
 11
112.308
 21
45.0109
 31
0.0
  0
LINE
  8
0
 62
     0
 10
112.308
 20
45.0109
 30
0.0
 11
111.508
 21
45.0109
 31
0.0
  0
LINE
  8
0
 62
     0
 10
111.508
 20
45.0109
 30
0.0
 11
111.508
 21
42.0606
 31
0.0
  0
LINE
  8
0
 62
     0
 10
111.508
 20
42.0606
 30
0.0
 11
112.308
 21
42.0606
 31
0.0
  0
LINE
  8
0
 62
     0
 10
112.308
 20
42.0606
 30
0.0
 11
112.308
 21
41.0602
 31
0.0
  0
LINE
  8
0
 62
     0
 10
112.308
 20
41.0602
 30
0.0
 11
126.158
 21
41.0602
 31
0.0
  0
LINE
  8
0
 62
     0
 10
126.158
 20
41.0602
 30
0.0
 11
126.158
 21
42.0606
 31
0.0
  0
LINE
  8
0
 62
     0
 10
126.158
 20
42.0606
 30
0.0
 11
126.957
 21
42.0606
 31
0.0
  0
LINE
  8
0
 62
     0
 10
126.957
 20
42.0606
 30
0.0
 11
126.957
 21
45.0109
 31
0.0
  0
LINE
  8
0
 62
     0
 10
126.957
 20
45.0109
 30
0.0
 11
126.158
 21
45.0109
 31
0.0
  0
LINE
  8
0
 62
     0
 10
126.158
 20
45.0109
 30
0.0
 11
126.158
 21
50.9598
 31
0.0
  0
LINE
  8
0
 62
     0
 10
126.158
 20
50.9598
 30
0.0
 11
126.957
 21
50.9598
 31
0.0
  0
LINE
  8
0
 62
     0
 10
126.957
 20
50.9598
 30
0.0
 11
126.957
 21
53.9101
 31
0.0
  0
LINE
  8
0
 62
     0
 10
126.957
 20
53.9101
 30
0.0
 11
126.158
 21
53.9101
 31
0.0
  0
LINE
  8
0
 62
     0
 10
126.158
 20
53.9101
 30
0.0
 11
126.158
 21
54.9106
 31
0.0
  0
LINE
  8
0
 62
     0
 10
126.158
 20
54.9106
 30
0.0
 11
112.308
 21
54.9106
 31
0.0
  0
LINE
  8
0
 62
     0
 10
93.2575
 20
54.9106
 30
0.0
 11
93.2575
 21
53.9101
 31
0.0
  0
LINE
  8
0
 62
     0
 10
93.2575
 20
53.9101
 30
0.0
 11
92.4581
 21
53.9101
 31
0.0
  0
LINE
  8
0
 62
     0
 10
92.4581
 20
53.9101
 30
0.0
 11
92.4581
 21
50.9598
 31
0.0
  0
LINE
  8
0
 62
     0
 10
92.4581
 20
50.9598
 30
0.0
 11
93.2575
 21
50.9598
 31
0.0
  0
LINE
  8
0
 62
     0
 10
93.2575
 20
50.9598
 30
0.0
 11
93.2575
 21
45.0109
 31
0.0
  0
LINE
  8
0
 62
     0
 10
93.2575
 20
45.0109
 30
0.0
 11
92.4581
 21
45.0109
 31
0.0
  0
LINE
  8
0
 62
     0
 10
92.4581
 20
45.0109
 30
0.0
 11
92.4581
 21
42.0606
 31
0.0
  0
LINE
  8
0
 62
     0
 10
92.4581
 20
42.0606
 30
0.0
 11
93.2575
 21
42.0606
 31
0.0
  0
LINE
  8
0
 62
     0
 10
93.2575
 20
42.0606
 30
0.0
 11
93.2575
 21
41.0602
 31
0.0
  0
LINE
  8
0
 62
     0
 10
93.2575
 20
41.0602
 30
0.0
 11
107.108
 21
41.0602
 31
0.0
  0
LINE
  8
0
 62
     0
 10
107.108
 20
41.0602
 30
0.0
 11
107.108
 21
42.0606
 31
0.0
  0
LINE
  8
0
 62
     0
 10
107.108
 20
42.0606
 30
0.0
 11
107.907
 21
42.0606
 31
0.0
  0
LINE
  8
0
 62
     0
 10
107.907
 20
42.0606
 30
0.0
 11
107.907
 21
45.0109
 31
0.0
  0
LINE
  8
0
 62
     0
 10
107.907
 20
45.0109
 30
0.0
 11
107.108
 21
45.0109
 31
0.0
  0
LINE
  8
0
 62
     0
 10
107.108
 20
45.0109
 30
0.0
 11
107.108
 21
50.9598
 31
0.0
  0
LINE
  8
0
 62
     0
 10
107.108
 20
50.9598
 30
0.0
 11
107.907
 21
50.9598
 31
0.0
  0
LINE
  8
0
 62
     0
 10
107.907
 20
50.9598
 30
0.0
 11
107.907
 21
53.9101
 31
0.0
  0
LINE
  8
0
 62
     0
 10
107.907
 20
53.9101
 30
0.0
 11
107.108
 21
53.9101
 31
0.0
  0
LINE
  8
0
 62
     0
 10
107.108
 20
53.9101
 30
0.0
 11
107.108
 21
54.9106
 31
0.0
  0
LINE
  8
0
 62
     0
 10
107.108
 20
54.9106
 30
0.0
 11
93.2575
 21
54.9106
 31
0.0
  0
LINE
  8
0
 62
     0
 10
74.2075
 20
54.9106
 30
0.0
 11
74.2075
 21
53.9101
 31
0.0
  0
LINE
  8
0
 62
     0
 10
74.2075
 20
53.9101
 30
0.0
 11
73.4081
 21
53.9101
 31
0.0
  0
LINE
  8
0
 62
     0
 10
73.4081
 20
53.9101
 30
0.0
 11
73.4081
 21
50.9598
 31
0.0
  0
LINE
  8
0
 62
     0
 10
73.4081
 20
50.9598
 30
0.0
 11
74.2075
 21
50.9598
 31
0.0
  0
LINE
  8
0
 62
     0
 10
74.2075
 20
50.9598
 30
0.0
 11
74.2075
 21
45.0109
 31
0.0
  0
LINE
  8
0
 62
     0
 10
74.2075
 20
45.0109
 30
0.0
 11
73.4081
 21
45.0109
 31
0.0
  0
LINE
  8
0
 62
     0
 10
73.4081
 20
45.0109
 30
0.0
 11
73.4081
 21
42.0606
 31
0.0
  0
LINE
  8
0
 62
     0
 10
73.4081
 20
42.0606
 30
0.0
 11
74.2075
 21
42.0606
 31
0.0
  0
LINE
  8
0
 62
     0
 10
74.2075
 20
42.0606
 30
0.0
 11
74.2075
 21
41.0602
 31
0.0
  0
LINE
  8
0
 62
     0
 10
74.2075
 20
41.0602
 30
0.0
 11
88.0579
 21
41.0602
 31
0.0
  0
LINE
  8
0
 62
     0
 10
88.0579
 20
41.0602
 30
0.0
 11
88.0579
 21
42.0606
 31
0.0
  0
LINE
  8
0
 62
     0
 10
88.0579
 20
42.0606
 30
0.0
 11
88.8573
 21
42.0606
 31
0.0
  0
LINE
  8
0
 62
     0
 10
88.8573
 20
42.0606
 30
0.0
 11
88.8573
 21
45.0109
 31
0.0
  0
LINE
  8
0
 62
     0
 10
88.8573
 20
45.0109
 30
0.0
 11
88.0579
 21
45.0109
 31
0.0
  0
LINE
  8
0
 62
     0
 10
88.0579
 20
45.0109
 30
0.0
 11
88.0579
 21
50.9598
 31
0.0
  0
LINE
  8
0
 62
     0
 10
88.0579
 20
50.9598
 30
0.0
 11
88.8573
 21
50.9598
 31
0.0
  0
LINE
  8
0
 62
     0
 10
88.8573
 20
50.9598
 30
0.0
 11
88.8573
 21
53.9101
 31
0.0
  0
LINE
  8
0
 62
     0
 10
88.8573
 20
53.9101
 30
0.0
 11
88.0579
 21
53.9101
 31
0.0
  0
LINE
  8
0
 62
     0
 10
88.0579
 20
53.9101
 30
0.0
 11
88.0579
 21
54.9106
 31
0.0
  0
LINE
  8
0
 62
     0
 10
88.0579
 20
54.9106
 30
0.0
 11
74.2075
 21
54.9106
 31
0.0
  0
LINE
  8
0
 62
     0
 10
55.1575
 20
54.9106
 30
0.0
 11
55.1575
 21
53.9101
 31
0.0
  0
LINE
  8
0
 62
     0
 10
55.1575
 20
53.9101
 30
0.0
 11
54.3581
 21
53.9101
 31
0.0
  0
LINE
  8
0
 62
     0
 10
54.3581
 20
53.9101
 30
0.0
 11
54.3581
 21
50.9598
 31
0.0
  0
LINE
  8
0
 62
     0
 10
54.3581
 20
50.9598
 30
0.0
 11
55.1575
 21
50.9598
 31
0.0
  0
LINE
  8
0
 62
     0
 10
55.1575
 20
50.9598
 30
0.0
 11
55.1575
 21
45.0109
 31
0.0
  0
LINE
  8
0
 62
     0
 10
55.1575
 20
45.0109
 30
0.0
 11
54.3581
 21
45.0109
 31
0.0
  0
LINE
  8
0
 62
     0
 10
54.3581
 20
45.0109
 30
0.0
 11
54.3581
 21
42.0606
 31
0.0
  0
LINE
  8
0
 62
     0
 10
54.3581
 20
42.0606
 30
0.0
 11
55.1575
 21
42.0606
 31
0.0
  0
LINE
  8
0
 62
     0
 10
55.1575
 20
42.0606
 30
0.0
 11
55.1575
 21
41.0602
 31
0.0
  0
LINE
  8
0
 62
     0
 10
55.1575
 20
41.0602
 30
0.0
 11
69.0079
 21
41.0602
 31
0.0
  0
LINE
  8
0
 62
     0
 10
69.0079
 20
41.0602
 30
0.0
 11
69.0079
 21
42.0606
 31
0.0
  0
LINE
  8
0
 62
     0
 10
69.0079
 20
42.0606
 30
0.0
 11
69.8073
 21
42.0606
 31
0.0
  0
LINE
  8
0
 62
     0
 10
69.8073
 20
42.0606
 30
0.0
 11
69.8073
 21
45.0109
 31
0.0
  0
LINE
  8
0
 62
     0
 10
69.8073
 20
45.0109
 30
0.0
 11
69.0079
 21
45.0109
 31
0.0
  0
LINE
  8
0
 62
     0
 10
69.0079
 20
45.0109
 30
0.0
 11
69.0079
 21
50.9598
 31
0.0
  0
LINE
  8
0
 62
     0
 10
69.0079
 20
50.9598
 30
0.0
 11
69.8073
 21
50.9598
 31
0.0
  0
LINE
  8
0
 62
     0
 10
69.8073
 20
50.9598
 30
0.0
 11
69.8073
 21
53.9101
 31
0.0
  0
LINE
  8
0
 62
     0
 10
69.8073
 20
53.9101
 30
0.0
 11
69.0079
 21
53.9101
 31
0.0
  0
LINE
  8
0
 62
     0
 10
69.0079
 20
53.9101
 30
0.0
 11
69.0079
 21
54.9106
 31
0.0
  0
LINE
  8
0
 62
     0
 10
69.0079
 20
54.9106
 30
0.0
 11
55.1575
 21
54.9106
 31
0.0
  0
LINE
  8
0
 62
     0
 10
36.1075
 20
54.9106
 30
0.0
 11
36.1075
 21
53.9101
 31
0.0
  0
LINE
  8
0
 62
     0
 10
36.1075
 20
53.9101
 30
0.0
 11
35.3081
 21
53.9101
 31
0.0
  0
LINE
  8
0
 62
     0
 10
35.3081
 20
53.9101
 30
0.0
 11
35.3081
 21
50.9598
 31
0.0
  0
LINE
  8
0
 62
     0
 10
35.3081
 20
50.9598
 30
0.0
 11
36.1075
 21
50.9598
 31
0.0
  0
LINE
  8
0
 62
     0
 10
36.1075
 20
50.9598
 30
0.0
 11
36.1075
 21
45.0109
 31
0.0
  0
LINE
  8
0
 62
     0
 10
36.1075
 20
45.0109
 30
0.0
 11
35.3081
 21
45.0109
 31
0.0
  0
LINE
  8
0
 62
     0
 10
35.3081
 20
45.0109
 30
0.0
 11
35.3081
 21
42.0606
 31
0.0
  0
LINE
  8
0
 62
     0
 10
35.3081
 20
42.0606
 30
0.0
 11
36.1075
 21
42.0606
 31
0.0
  0
LINE
  8
0
 62
     0
 10
36.1075
 20
42.0606
 30
0.0
 11
36.1075
 21
41.0602
 31
0.0
  0
LINE
  8
0
 62
     0
 10
36.1075
 20
41.0602
 30
0.0
 11
49.9579
 21
41.0602
 31
0.0
  0
LINE
  8
0
 62
     0
 10
49.9579
 20
41.0602
 30
0.0
 11
49.9579
 21
42.0606
 31
0.0
  0
LINE
  8
0
 62
     0
 10
49.9579
 20
42.0606
 30
0.0
 11
50.7573
 21
42.0606
 31
0.0
  0
LINE
  8
0
 62
     0
 10
50.7573
 20
42.0606
 30
0.0
 11
50.7573
 21
45.0109
 31
0.0
  0
LINE
  8
0
 62
     0
 10
50.7573
 20
45.0109
 30
0.0
 11
49.9579
 21
45.0109
 31
0.0
  0
LINE
  8
0
 62
     0
 10
49.9579
 20
45.0109
 30
0.0
 11
49.9579
 21
50.9598
 31
0.0
  0
LINE
  8
0
 62
     0
 10
49.9579
 20
50.9598
 30
0.0
 11
50.7573
 21
50.9598
 31
0.0
  0
LINE
  8
0
 62
     0
 10
50.7573
 20
50.9598
 30
0.0
 11
50.7573
 21
53.9101
 31
0.0
  0
LINE
  8
0
 62
     0
 10
50.7573
 20
53.9101
 30
0.0
 11
49.9579
 21
53.9101
 31
0.0
  0
LINE
  8
0
 62
     0
 10
49.9579
 20
53.9101
 30
0.0
 11
49.9579
 21
54.9106
 31
0.0
  0
LINE
  8
0
 62
     0
 10
49.9579
 20
54.9106
 30
0.0
 11
36.1075
 21
54.9106
 31
0.0
  0
LINE
  8
0
 62
     0
 10
9.91362
 20
54.9106
 30
0.0
 11
9.91362
 21
53.9101
 31
0.0
  0
LINE
  8
0
 62
     0
 10
9.91362
 20
53.9101
 30
0.0
 11
9.11296
 21
53.9101
 31
0.0
  0
LINE
  8
0
 62
     0
 10
9.11296
 20
53.9101
 30
0.0
 11
9.11296
 21
50.9598
 31
0.0
  0
LINE
  8
0
 62
     0
 10
9.11296
 20
50.9598
 30
0.0
 11
9.91362
 21
50.9598
 31
0.0
  0
LINE
  8
0
 62
     0
 10
9.91362
 20
50.9598
 30
0.0
 11
9.91362
 21
45.0109
 31
0.0
  0
LINE
  8
0
 62
     0
 10
9.91362
 20
45.0109
 30
0.0
 11
9.11296
 21
45.0109
 31
0.0
  0
LINE
  8
0
 62
     0
 10
9.11296
 20
45.0109
 30
0.0
 11
9.11296
 21
42.0606
 31
0.0
  0
LINE
  8
0
 62
     0
 10
9.11296
 20
42.0606
 30
0.0
 11
9.91362
 21
42.0606
 31
0.0
  0
LINE
  8
0
 62
     0
 10
9.91362
 20
42.0606
 30
0.0
 11
9.91362
 21
41.0602
 31
0.0
  0
LINE
  8
0
 62
     0
 10
9.91362
 20
41.0602
 30
0.0
 11
23.7629
 21
41.0602
 31
0.0
  0
LINE
  8
0
 62
     0
 10
23.7629
 20
41.0602
 30
0.0
 11
23.7629
 21
42.0606
 31
0.0
  0
LINE
  8
0
 62
     0
 10
23.7629
 20
42.0606
 30
0.0
 11
24.5635
 21
42.0606
 31
0.0
  0
LINE
  8
0
 62
     0
 10
24.5635
 20
42.0606
 30
0.0
 11
24.5635
 21
45.0109
 31
0.0
  0
LINE
  8
0
 62
     0
 10
24.5635
 20
45.0109
 30
0.0
 11
23.7629
 21
45.0109
 31
0.0
  0
LINE
  8
0
 62
     0
 10
23.7629
 20
45.0109
 30
0.0
 11
23.7629
 21
50.9598
 31
0.0
  0
LINE
  8
0
 62
     0
 10
23.7629
 20
50.9598
 30
0.0
 11
24.5635
 21
50.9598
 31
0.0
  0
LINE
  8
0
 62
     0
 10
24.5635
 20
50.9598
 30
0.0
 11
24.5635
 21
53.9101
 31
0.0
  0
LINE
  8
0
 62
     0
 10
24.5635
 20
53.9101
 30
0.0
 11
23.7629
 21
53.9101
 31
0.0
  0
LINE
  8
0
 62
     0
 10
23.7629
 20
53.9101
 30
0.0
 11
23.7629
 21
54.9106
 31
0.0
  0
LINE
  8
0
 62
     0
 10
23.7629
 20
54.9106
 30
0.0
 11
9.91362
 21
54.9106
 31
0.0
  0
LINE
  8
0
 62
     0
 10
264.708
 20
73.9606
 30
0.0
 11
264.708
 21
72.9601
 31
0.0
  0
LINE
  8
0
 62
     0
 10
264.708
 20
72.9601
 30
0.0
 11
263.908
 21
72.9601
 31
0.0
  0
LINE
  8
0
 62
     0
 10
263.908
 20
72.9601
 30
0.0
 11
263.908
 21
70.0098
 31
0.0
  0
LINE
  8
0
 62
     0
 10
263.908
 20
70.0098
 30
0.0
 11
264.708
 21
70.0098
 31
0.0
  0
LINE
  8
0
 62
     0
 10
264.708
 20
70.0098
 30
0.0
 11
264.708
 21
64.0609
 31
0.0
  0
LINE
  8
0
 62
     0
 10
264.708
 20
64.0609
 30
0.0
 11
263.908
 21
64.0609
 31
0.0
  0
LINE
  8
0
 62
     0
 10
263.908
 20
64.0609
 30
0.0
 11
263.908
 21
61.1106
 31
0.0
  0
LINE
  8
0
 62
     0
 10
263.908
 20
61.1106
 30
0.0
 11
264.708
 21
61.1106
 31
0.0
  0
LINE
  8
0
 62
     0
 10
264.708
 20
61.1106
 30
0.0
 11
264.708
 21
60.1102
 31
0.0
  0
LINE
  8
0
 62
     0
 10
264.708
 20
60.1102
 30
0.0
 11
278.558
 21
60.1102
 31
0.0
  0
LINE
  8
0
 62
     0
 10
278.558
 20
60.1102
 30
0.0
 11
278.558
 21
61.1106
 31
0.0
  0
LINE
  8
0
 62
     0
 10
278.558
 20
61.1106
 30
0.0
 11
279.357
 21
61.1106
 31
0.0
  0
LINE
  8
0
 62
     0
 10
279.357
 20
61.1106
 30
0.0
 11
279.357
 21
64.0609
 31
0.0
  0
LINE
  8
0
 62
     0
 10
279.357
 20
64.0609
 30
0.0
 11
278.558
 21
64.0609
 31
0.0
  0
LINE
  8
0
 62
     0
 10
278.558
 20
64.0609
 30
0.0
 11
278.558
 21
70.0098
 31
0.0
  0
LINE
  8
0
 62
     0
 10
278.558
 20
70.0098
 30
0.0
 11
279.357
 21
70.0098
 31
0.0
  0
LINE
  8
0
 62
     0
 10
279.357
 20
70.0098
 30
0.0
 11
279.357
 21
72.9601
 31
0.0
  0
LINE
  8
0
 62
     0
 10
279.357
 20
72.9601
 30
0.0
 11
278.558
 21
72.9601
 31
0.0
  0
LINE
  8
0
 62
     0
 10
278.558
 20
72.9601
 30
0.0
 11
278.558
 21
73.9606
 31
0.0
  0
LINE
  8
0
 62
     0
 10
278.558
 20
73.9606
 30
0.0
 11
264.708
 21
73.9606
 31
0.0
  0
LINE
  8
0
 62
     0
 10
240.895
 20
73.9606
 30
0.0
 11
240.895
 21
72.9601
 31
0.0
  0
LINE
  8
0
 62
     0
 10
240.895
 20
72.9601
 30
0.0
 11
240.096
 21
72.9601
 31
0.0
  0
LINE
  8
0
 62
     0
 10
240.096
 20
72.9601
 30
0.0
 11
240.096
 21
70.0098
 31
0.0
  0
LINE
  8
0
 62
     0
 10
240.096
 20
70.0098
 30
0.0
 11
240.895
 21
70.0098
 31
0.0
  0
LINE
  8
0
 62
     0
 10
240.895
 20
70.0098
 30
0.0
 11
240.895
 21
64.0609
 31
0.0
  0
LINE
  8
0
 62
     0
 10
240.895
 20
64.0609
 30
0.0
 11
240.096
 21
64.0609
 31
0.0
  0
LINE
  8
0
 62
     0
 10
240.096
 20
64.0609
 30
0.0
 11
240.096
 21
61.1106
 31
0.0
  0
LINE
  8
0
 62
     0
 10
240.096
 20
61.1106
 30
0.0
 11
240.895
 21
61.1106
 31
0.0
  0
LINE
  8
0
 62
     0
 10
240.895
 20
61.1106
 30
0.0
 11
240.895
 21
60.1102
 31
0.0
  0
LINE
  8
0
 62
     0
 10
240.895
 20
60.1102
 30
0.0
 11
254.744
 21
60.1102
 31
0.0
  0
LINE
  8
0
 62
     0
 10
254.744
 20
60.1102
 30
0.0
 11
254.744
 21
61.1106
 31
0.0
  0
LINE
  8
0
 62
     0
 10
254.744
 20
61.1106
 30
0.0
 11
255.546
 21
61.1106
 31
0.0
  0
LINE
  8
0
 62
     0
 10
255.546
 20
61.1106
 30
0.0
 11
255.546
 21
64.0609
 31
0.0
  0
LINE
  8
0
 62
     0
 10
255.546
 20
64.0609
 30
0.0
 11
254.744
 21
64.0609
 31
0.0
  0
LINE
  8
0
 62
     0
 10
254.744
 20
64.0609
 30
0.0
 11
254.744
 21
70.0098
 31
0.0
  0
LINE
  8
0
 62
     0
 10
254.744
 20
70.0098
 30
0.0
 11
255.546
 21
70.0098
 31
0.0
  0
LINE
  8
0
 62
     0
 10
255.546
 20
70.0098
 30
0.0
 11
255.546
 21
72.9601
 31
0.0
  0
LINE
  8
0
 62
     0
 10
255.546
 20
72.9601
 30
0.0
 11
254.744
 21
72.9601
 31
0.0
  0
LINE
  8
0
 62
     0
 10
254.744
 20
72.9601
 30
0.0
 11
254.744
 21
73.9606
 31
0.0
  0
LINE
  8
0
 62
     0
 10
254.744
 20
73.9606
 30
0.0
 11
240.895
 21
73.9606
 31
0.0
  0
LINE
  8
0
 62
     0
 10
221.845
 20
73.9606
 30
0.0
 11
221.845
 21
72.9601
 31
0.0
  0
LINE
  8
0
 62
     0
 10
221.845
 20
72.9601
 30
0.0
 11
221.046
 21
72.9601
 31
0.0
  0
LINE
  8
0
 62
     0
 10
221.046
 20
72.9601
 30
0.0
 11
221.046
 21
70.0098
 31
0.0
  0
LINE
  8
0
 62
     0
 10
221.046
 20
70.0098
 30
0.0
 11
221.845
 21
70.0098
 31
0.0
  0
LINE
  8
0
 62
     0
 10
221.845
 20
70.0098
 30
0.0
 11
221.845
 21
64.0609
 31
0.0
  0
LINE
  8
0
 62
     0
 10
221.845
 20
64.0609
 30
0.0
 11
221.046
 21
64.0609
 31
0.0
  0
LINE
  8
0
 62
     0
 10
221.046
 20
64.0609
 30
0.0
 11
221.046
 21
61.1106
 31
0.0
  0
LINE
  8
0
 62
     0
 10
221.046
 20
61.1106
 30
0.0
 11
221.845
 21
61.1106
 31
0.0
  0
LINE
  8
0
 62
     0
 10
221.845
 20
61.1106
 30
0.0
 11
221.845
 21
60.1102
 31
0.0
  0
LINE
  8
0
 62
     0
 10
221.845
 20
60.1102
 30
0.0
 11
235.695
 21
60.1102
 31
0.0
  0
LINE
  8
0
 62
     0
 10
235.695
 20
60.1102
 30
0.0
 11
235.695
 21
61.1106
 31
0.0
  0
LINE
  8
0
 62
     0
 10
235.695
 20
61.1106
 30
0.0
 11
236.496
 21
61.1106
 31
0.0
  0
LINE
  8
0
 62
     0
 10
236.496
 20
61.1106
 30
0.0
 11
236.496
 21
64.0609
 31
0.0
  0
LINE
  8
0
 62
     0
 10
236.496
 20
64.0609
 30
0.0
 11
235.695
 21
64.0609
 31
0.0
  0
LINE
  8
0
 62
     0
 10
235.695
 20
64.0609
 30
0.0
 11
235.695
 21
70.0098
 31
0.0
  0
LINE
  8
0
 62
     0
 10
235.695
 20
70.0098
 30
0.0
 11
236.496
 21
70.0098
 31
0.0
  0
LINE
  8
0
 62
     0
 10
236.496
 20
70.0098
 30
0.0
 11
236.496
 21
72.9601
 31
0.0
  0
LINE
  8
0
 62
     0
 10
236.496
 20
72.9601
 30
0.0
 11
235.695
 21
72.9601
 31
0.0
  0
LINE
  8
0
 62
     0
 10
235.695
 20
72.9601
 30
0.0
 11
235.695
 21
73.9606
 31
0.0
  0
LINE
  8
0
 62
     0
 10
235.695
 20
73.9606
 30
0.0
 11
221.845
 21
73.9606
 31
0.0
  0
LINE
  8
0
 62
     0
 10
202.795
 20
73.9606
 30
0.0
 11
202.795
 21
72.9601
 31
0.0
  0
LINE
  8
0
 62
     0
 10
202.795
 20
72.9601
 30
0.0
 11
201.996
 21
72.9601
 31
0.0
  0
LINE
  8
0
 62
     0
 10
201.996
 20
72.9601
 30
0.0
 11
201.996
 21
70.0098
 31
0.0
  0
LINE
  8
0
 62
     0
 10
201.996
 20
70.0098
 30
0.0
 11
202.795
 21
70.0098
 31
0.0
  0
LINE
  8
0
 62
     0
 10
202.795
 20
70.0098
 30
0.0
 11
202.795
 21
64.0609
 31
0.0
  0
LINE
  8
0
 62
     0
 10
202.795
 20
64.0609
 30
0.0
 11
201.996
 21
64.0609
 31
0.0
  0
LINE
  8
0
 62
     0
 10
201.996
 20
64.0609
 30
0.0
 11
201.996
 21
61.1106
 31
0.0
  0
LINE
  8
0
 62
     0
 10
201.996
 20
61.1106
 30
0.0
 11
202.795
 21
61.1106
 31
0.0
  0
LINE
  8
0
 62
     0
 10
202.795
 20
61.1106
 30
0.0
 11
202.795
 21
60.1102
 31
0.0
  0
LINE
  8
0
 62
     0
 10
202.795
 20
60.1102
 30
0.0
 11
216.645
 21
60.1102
 31
0.0
  0
LINE
  8
0
 62
     0
 10
216.645
 20
60.1102
 30
0.0
 11
216.645
 21
61.1106
 31
0.0
  0
LINE
  8
0
 62
     0
 10
216.645
 20
61.1106
 30
0.0
 11
217.446
 21
61.1106
 31
0.0
  0
LINE
  8
0
 62
     0
 10
217.446
 20
61.1106
 30
0.0
 11
217.446
 21
64.0609
 31
0.0
  0
LINE
  8
0
 62
     0
 10
217.446
 20
64.0609
 30
0.0
 11
216.645
 21
64.0609
 31
0.0
  0
LINE
  8
0
 62
     0
 10
216.645
 20
64.0609
 30
0.0
 11
216.645
 21
70.0098
 31
0.0
  0
LINE
  8
0
 62
     0
 10
216.645
 20
70.0098
 30
0.0
 11
217.446
 21
70.0098
 31
0.0
  0
LINE
  8
0
 62
     0
 10
217.446
 20
70.0098
 30
0.0
 11
217.446
 21
72.9601
 31
0.0
  0
LINE
  8
0
 62
     0
 10
217.446
 20
72.9601
 30
0.0
 11
216.645
 21
72.9601
 31
0.0
  0
LINE
  8
0
 62
     0
 10
216.645
 20
72.9601
 30
0.0
 11
216.645
 21
73.9606
 31
0.0
  0
LINE
  8
0
 62
     0
 10
216.645
 20
73.9606
 30
0.0
 11
202.795
 21
73.9606
 31
0.0
  0
LINE
  8
0
 62
     0
 10
183.745
 20
73.9606
 30
0.0
 11
183.745
 21
72.9601
 31
0.0
  0
LINE
  8
0
 62
     0
 10
183.745
 20
72.9601
 30
0.0
 11
182.946
 21
72.9601
 31
0.0
  0
LINE
  8
0
 62
     0
 10
182.946
 20
72.9601
 30
0.0
 11
182.946
 21
70.0098
 31
0.0
  0
LINE
  8
0
 62
     0
 10
182.946
 20
70.0098
 30
0.0
 11
183.745
 21
70.0098
 31
0.0
  0
LINE
  8
0
 62
     0
 10
183.745
 20
70.0098
 30
0.0
 11
183.745
 21
64.0609
 31
0.0
  0
LINE
  8
0
 62
     0
 10
183.745
 20
64.0609
 30
0.0
 11
182.946
 21
64.0609
 31
0.0
  0
LINE
  8
0
 62
     0
 10
182.946
 20
64.0609
 30
0.0
 11
182.946
 21
61.1106
 31
0.0
  0
LINE
  8
0
 62
     0
 10
182.946
 20
61.1106
 30
0.0
 11
183.745
 21
61.1106
 31
0.0
  0
LINE
  8
0
 62
     0
 10
183.745
 20
61.1106
 30
0.0
 11
183.745
 21
60.1102
 31
0.0
  0
LINE
  8
0
 62
     0
 10
183.745
 20
60.1102
 30
0.0
 11
197.595
 21
60.1102
 31
0.0
  0
LINE
  8
0
 62
     0
 10
197.595
 20
60.1102
 30
0.0
 11
197.595
 21
61.1106
 31
0.0
  0
LINE
  8
0
 62
     0
 10
197.595
 20
61.1106
 30
0.0
 11
198.396
 21
61.1106
 31
0.0
  0
LINE
  8
0
 62
     0
 10
198.396
 20
61.1106
 30
0.0
 11
198.396
 21
64.0609
 31
0.0
  0
LINE
  8
0
 62
     0
 10
198.396
 20
64.0609
 30
0.0
 11
197.595
 21
64.0609
 31
0.0
  0
LINE
  8
0
 62
     0
 10
197.595
 20
64.0609
 30
0.0
 11
197.595
 21
70.0098
 31
0.0
  0
LINE
  8
0
 62
     0
 10
197.595
 20
70.0098
 30
0.0
 11
198.396
 21
70.0098
 31
0.0
  0
LINE
  8
0
 62
     0
 10
198.396
 20
70.0098
 30
0.0
 11
198.396
 21
72.9601
 31
0.0
  0
LINE
  8
0
 62
     0
 10
198.396
 20
72.9601
 30
0.0
 11
197.595
 21
72.9601
 31
0.0
  0
LINE
  8
0
 62
     0
 10
197.595
 20
72.9601
 30
0.0
 11
197.595
 21
73.9606
 31
0.0
  0
LINE
  8
0
 62
     0
 10
197.595
 20
73.9606
 30
0.0
 11
183.745
 21
73.9606
 31
0.0
  0
LINE
  8
0
 62
     0
 10
164.695
 20
73.9606
 30
0.0
 11
164.695
 21
72.9601
 31
0.0
  0
LINE
  8
0
 62
     0
 10
164.695
 20
72.9601
 30
0.0
 11
163.896
 21
72.9601
 31
0.0
  0
LINE
  8
0
 62
     0
 10
163.896
 20
72.9601
 30
0.0
 11
163.896
 21
70.0098
 31
0.0
  0
LINE
  8
0
 62
     0
 10
163.896
 20
70.0098
 30
0.0
 11
164.695
 21
70.0098
 31
0.0
  0
LINE
  8
0
 62
     0
 10
164.695
 20
70.0098
 30
0.0
 11
164.695
 21
64.0609
 31
0.0
  0
LINE
  8
0
 62
     0
 10
164.695
 20
64.0609
 30
0.0
 11
163.896
 21
64.0609
 31
0.0
  0
LINE
  8
0
 62
     0
 10
163.896
 20
64.0609
 30
0.0
 11
163.896
 21
61.1106
 31
0.0
  0
LINE
  8
0
 62
     0
 10
163.896
 20
61.1106
 30
0.0
 11
164.695
 21
61.1106
 31
0.0
  0
LINE
  8
0
 62
     0
 10
164.695
 20
61.1106
 30
0.0
 11
164.695
 21
60.1102
 31
0.0
  0
LINE
  8
0
 62
     0
 10
164.695
 20
60.1102
 30
0.0
 11
178.545
 21
60.1102
 31
0.0
  0
LINE
  8
0
 62
     0
 10
178.545
 20
60.1102
 30
0.0
 11
178.545
 21
61.1106
 31
0.0
  0
LINE
  8
0
 62
     0
 10
178.545
 20
61.1106
 30
0.0
 11
179.346
 21
61.1106
 31
0.0
  0
LINE
  8
0
 62
     0
 10
179.346
 20
61.1106
 30
0.0
 11
179.346
 21
64.0609
 31
0.0
  0
LINE
  8
0
 62
     0
 10
179.346
 20
64.0609
 30
0.0
 11
178.545
 21
64.0609
 31
0.0
  0
LINE
  8
0
 62
     0
 10
178.545
 20
64.0609
 30
0.0
 11
178.545
 21
70.0098
 31
0.0
  0
LINE
  8
0
 62
     0
 10
178.545
 20
70.0098
 30
0.0
 11
179.346
 21
70.0098
 31
0.0
  0
LINE
  8
0
 62
     0
 10
179.346
 20
70.0098
 30
0.0
 11
179.346
 21
72.9601
 31
0.0
  0
LINE
  8
0
 62
     0
 10
179.346
 20
72.9601
 30
0.0
 11
178.545
 21
72.9601
 31
0.0
  0
LINE
  8
0
 62
     0
 10
178.545
 20
72.9601
 30
0.0
 11
178.545
 21
73.9606
 31
0.0
  0
LINE
  8
0
 62
     0
 10
178.545
 20
73.9606
 30
0.0
 11
164.695
 21
73.9606
 31
0.0
  0
LINE
  8
0
 62
     0
 10
145.645
 20
73.9606
 30
0.0
 11
145.645
 21
72.9601
 31
0.0
  0
LINE
  8
0
 62
     0
 10
145.645
 20
72.9601
 30
0.0
 11
144.846
 21
72.9601
 31
0.0
  0
LINE
  8
0
 62
     0
 10
144.846
 20
72.9601
 30
0.0
 11
144.846
 21
70.0098
 31
0.0
  0
LINE
  8
0
 62
     0
 10
144.846
 20
70.0098
 30
0.0
 11
145.645
 21
70.0098
 31
0.0
  0
LINE
  8
0
 62
     0
 10
145.645
 20
70.0098
 30
0.0
 11
145.645
 21
64.0609
 31
0.0
  0
LINE
  8
0
 62
     0
 10
145.645
 20
64.0609
 30
0.0
 11
144.846
 21
64.0609
 31
0.0
  0
LINE
  8
0
 62
     0
 10
144.846
 20
64.0609
 30
0.0
 11
144.846
 21
61.1106
 31
0.0
  0
LINE
  8
0
 62
     0
 10
144.846
 20
61.1106
 30
0.0
 11
145.645
 21
61.1106
 31
0.0
  0
LINE
  8
0
 62
     0
 10
145.645
 20
61.1106
 30
0.0
 11
145.645
 21
60.1102
 31
0.0
  0
LINE
  8
0
 62
     0
 10
145.645
 20
60.1102
 30
0.0
 11
159.495
 21
60.1102
 31
0.0
  0
LINE
  8
0
 62
     0
 10
159.495
 20
60.1102
 30
0.0
 11
159.495
 21
61.1106
 31
0.0
  0
LINE
  8
0
 62
     0
 10
159.495
 20
61.1106
 30
0.0
 11
160.296
 21
61.1106
 31
0.0
  0
LINE
  8
0
 62
     0
 10
160.296
 20
61.1106
 30
0.0
 11
160.296
 21
64.0609
 31
0.0
  0
LINE
  8
0
 62
     0
 10
160.296
 20
64.0609
 30
0.0
 11
159.495
 21
64.0609
 31
0.0
  0
LINE
  8
0
 62
     0
 10
159.495
 20
64.0609
 30
0.0
 11
159.495
 21
70.0098
 31
0.0
  0
LINE
  8
0
 62
     0
 10
159.495
 20
70.0098
 30
0.0
 11
160.296
 21
70.0098
 31
0.0
  0
LINE
  8
0
 62
     0
 10
160.296
 20
70.0098
 30
0.0
 11
160.296
 21
72.9601
 31
0.0
  0
LINE
  8
0
 62
     0
 10
160.296
 20
72.9601
 30
0.0
 11
159.495
 21
72.9601
 31
0.0
  0
LINE
  8
0
 62
     0
 10
159.495
 20
72.9601
 30
0.0
 11
159.495
 21
73.9606
 31
0.0
  0
LINE
  8
0
 62
     0
 10
159.495
 20
73.9606
 30
0.0
 11
145.645
 21
73.9606
 31
0.0
  0
LINE
  8
0
 62
     0
 10
126.595
 20
73.9606
 30
0.0
 11
126.595
 21
72.9601
 31
0.0
  0
LINE
  8
0
 62
     0
 10
126.595
 20
72.9601
 30
0.0
 11
125.794
 21
72.9601
 31
0.0
  0
LINE
  8
0
 62
     0
 10
125.794
 20
72.9601
 30
0.0
 11
125.794
 21
70.0098
 31
0.0
  0
LINE
  8
0
 62
     0
 10
125.794
 20
70.0098
 30
0.0
 11
126.595
 21
70.0098
 31
0.0
  0
LINE
  8
0
 62
     0
 10
126.595
 20
70.0098
 30
0.0
 11
126.595
 21
64.0609
 31
0.0
  0
LINE
  8
0
 62
     0
 10
126.595
 20
64.0609
 30
0.0
 11
125.794
 21
64.0609
 31
0.0
  0
LINE
  8
0
 62
     0
 10
125.794
 20
64.0609
 30
0.0
 11
125.794
 21
61.1106
 31
0.0
  0
LINE
  8
0
 62
     0
 10
125.794
 20
61.1106
 30
0.0
 11
126.595
 21
61.1106
 31
0.0
  0
LINE
  8
0
 62
     0
 10
126.595
 20
61.1106
 30
0.0
 11
126.595
 21
60.1102
 31
0.0
  0
LINE
  8
0
 62
     0
 10
126.595
 20
60.1102
 30
0.0
 11
140.445
 21
60.1102
 31
0.0
  0
LINE
  8
0
 62
     0
 10
140.445
 20
60.1102
 30
0.0
 11
140.445
 21
61.1106
 31
0.0
  0
LINE
  8
0
 62
     0
 10
140.445
 20
61.1106
 30
0.0
 11
141.245
 21
61.1106
 31
0.0
  0
LINE
  8
0
 62
     0
 10
141.245
 20
61.1106
 30
0.0
 11
141.245
 21
64.0609
 31
0.0
  0
LINE
  8
0
 62
     0
 10
141.245
 20
64.0609
 30
0.0
 11
140.445
 21
64.0609
 31
0.0
  0
LINE
  8
0
 62
     0
 10
140.445
 20
64.0609
 30
0.0
 11
140.445
 21
70.0098
 31
0.0
  0
LINE
  8
0
 62
     0
 10
140.445
 20
70.0098
 30
0.0
 11
141.245
 21
70.0098
 31
0.0
  0
LINE
  8
0
 62
     0
 10
141.245
 20
70.0098
 30
0.0
 11
141.245
 21
72.9601
 31
0.0
  0
LINE
  8
0
 62
     0
 10
141.245
 20
72.9601
 30
0.0
 11
140.445
 21
72.9601
 31
0.0
  0
LINE
  8
0
 62
     0
 10
140.445
 20
72.9601
 30
0.0
 11
140.445
 21
73.9606
 31
0.0
  0
LINE
  8
0
 62
     0
 10
140.445
 20
73.9606
 30
0.0
 11
126.595
 21
73.9606
 31
0.0
  0
LINE
  8
0
 62
     0
 10
107.545
 20
73.9606
 30
0.0
 11
107.545
 21
72.9601
 31
0.0
  0
LINE
  8
0
 62
     0
 10
107.545
 20
72.9601
 30
0.0
 11
106.744
 21
72.9601
 31
0.0
  0
LINE
  8
0
 62
     0
 10
106.744
 20
72.9601
 30
0.0
 11
106.744
 21
70.0098
 31
0.0
  0
LINE
  8
0
 62
     0
 10
106.744
 20
70.0098
 30
0.0
 11
107.545
 21
70.0098
 31
0.0
  0
LINE
  8
0
 62
     0
 10
107.545
 20
70.0098
 30
0.0
 11
107.545
 21
64.0609
 31
0.0
  0
LINE
  8
0
 62
     0
 10
107.545
 20
64.0609
 30
0.0
 11
106.744
 21
64.0609
 31
0.0
  0
LINE
  8
0
 62
     0
 10
106.744
 20
64.0609
 30
0.0
 11
106.744
 21
61.1106
 31
0.0
  0
LINE
  8
0
 62
     0
 10
106.744
 20
61.1106
 30
0.0
 11
107.545
 21
61.1106
 31
0.0
  0
LINE
  8
0
 62
     0
 10
107.545
 20
61.1106
 30
0.0
 11
107.545
 21
60.1102
 31
0.0
  0
LINE
  8
0
 62
     0
 10
107.545
 20
60.1102
 30
0.0
 11
121.394
 21
60.1102
 31
0.0
  0
LINE
  8
0
 62
     0
 10
121.394
 20
60.1102
 30
0.0
 11
121.394
 21
61.1106
 31
0.0
  0
LINE
  8
0
 62
     0
 10
121.394
 20
61.1106
 30
0.0
 11
122.195
 21
61.1106
 31
0.0
  0
LINE
  8
0
 62
     0
 10
122.195
 20
61.1106
 30
0.0
 11
122.195
 21
64.0609
 31
0.0
  0
LINE
  8
0
 62
     0
 10
122.195
 20
64.0609
 30
0.0
 11
121.394
 21
64.0609
 31
0.0
  0
LINE
  8
0
 62
     0
 10
121.394
 20
64.0609
 30
0.0
 11
121.394
 21
70.0098
 31
0.0
  0
LINE
  8
0
 62
     0
 10
121.394
 20
70.0098
 30
0.0
 11
122.195
 21
70.0098
 31
0.0
  0
LINE
  8
0
 62
     0
 10
122.195
 20
70.0098
 30
0.0
 11
122.195
 21
72.9601
 31
0.0
  0
LINE
  8
0
 62
     0
 10
122.195
 20
72.9601
 30
0.0
 11
121.394
 21
72.9601
 31
0.0
  0
LINE
  8
0
 62
     0
 10
121.394
 20
72.9601
 30
0.0
 11
121.394
 21
73.9606
 31
0.0
  0
LINE
  8
0
 62
     0
 10
121.394
 20
73.9606
 30
0.0
 11
107.545
 21
73.9606
 31
0.0
  0
LINE
  8
0
 62
     0
 10
88.495
 20
73.9606
 30
0.0
 11
88.495
 21
72.9601
 31
0.0
  0
LINE
  8
0
 62
     0
 10
88.495
 20
72.9601
 30
0.0
 11
87.6956
 21
72.9601
 31
0.0
  0
LINE
  8
0
 62
     0
 10
87.6956
 20
72.9601
 30
0.0
 11
87.6956
 21
70.0098
 31
0.0
  0
LINE
  8
0
 62
     0
 10
87.6956
 20
70.0098
 30
0.0
 11
88.495
 21
70.0098
 31
0.0
  0
LINE
  8
0
 62
     0
 10
88.495
 20
70.0098
 30
0.0
 11
88.495
 21
64.0609
 31
0.0
  0
LINE
  8
0
 62
     0
 10
88.495
 20
64.0609
 30
0.0
 11
87.6956
 21
64.0609
 31
0.0
  0
LINE
  8
0
 62
     0
 10
87.6956
 20
64.0609
 30
0.0
 11
87.6956
 21
61.1106
 31
0.0
  0
LINE
  8
0
 62
     0
 10
87.6956
 20
61.1106
 30
0.0
 11
88.495
 21
61.1106
 31
0.0
  0
LINE
  8
0
 62
     0
 10
88.495
 20
61.1106
 30
0.0
 11
88.495
 21
60.1102
 31
0.0
  0
LINE
  8
0
 62
     0
 10
88.495
 20
60.1102
 30
0.0
 11
102.344
 21
60.1102
 31
0.0
  0
LINE
  8
0
 62
     0
 10
102.344
 20
60.1102
 30
0.0
 11
102.344
 21
61.1106
 31
0.0
  0
LINE
  8
0
 62
     0
 10
102.344
 20
61.1106
 30
0.0
 11
103.145
 21
61.1106
 31
0.0
  0
LINE
  8
0
 62
     0
 10
103.145
 20
61.1106
 30
0.0
 11
103.145
 21
64.0609
 31
0.0
  0
LINE
  8
0
 62
     0
 10
103.145
 20
64.0609
 30
0.0
 11
102.344
 21
64.0609
 31
0.0
  0
LINE
  8
0
 62
     0
 10
102.344
 20
64.0609
 30
0.0
 11
102.344
 21
70.0098
 31
0.0
  0
LINE
  8
0
 62
     0
 10
102.344
 20
70.0098
 30
0.0
 11
103.145
 21
70.0098
 31
0.0
  0
LINE
  8
0
 62
     0
 10
103.145
 20
70.0098
 30
0.0
 11
103.145
 21
72.9601
 31
0.0
  0
LINE
  8
0
 62
     0
 10
103.145
 20
72.9601
 30
0.0
 11
102.344
 21
72.9601
 31
0.0
  0
LINE
  8
0
 62
     0
 10
102.344
 20
72.9601
 30
0.0
 11
102.344
 21
73.9606
 31
0.0
  0
LINE
  8
0
 62
     0
 10
102.344
 20
73.9606
 30
0.0
 11
88.495
 21
73.9606
 31
0.0
  0
LINE
  8
0
 62
     0
 10
69.445
 20
73.9606
 30
0.0
 11
69.445
 21
72.9601
 31
0.0
  0
LINE
  8
0
 62
     0
 10
69.445
 20
72.9601
 30
0.0
 11
68.6456
 21
72.9601
 31
0.0
  0
LINE
  8
0
 62
     0
 10
68.6456
 20
72.9601
 30
0.0
 11
68.6456
 21
70.0098
 31
0.0
  0
LINE
  8
0
 62
     0
 10
68.6456
 20
70.0098
 30
0.0
 11
69.445
 21
70.0098
 31
0.0
  0
LINE
  8
0
 62
     0
 10
69.445
 20
70.0098
 30
0.0
 11
69.445
 21
64.0609
 31
0.0
  0
LINE
  8
0
 62
     0
 10
69.445
 20
64.0609
 30
0.0
 11
68.6456
 21
64.0609
 31
0.0
  0
LINE
  8
0
 62
     0
 10
68.6456
 20
64.0609
 30
0.0
 11
68.6456
 21
61.1106
 31
0.0
  0
LINE
  8
0
 62
     0
 10
68.6456
 20
61.1106
 30
0.0
 11
69.445
 21
61.1106
 31
0.0
  0
LINE
  8
0
 62
     0
 10
69.445
 20
61.1106
 30
0.0
 11
69.445
 21
60.1102
 31
0.0
  0
LINE
  8
0
 62
     0
 10
69.445
 20
60.1102
 30
0.0
 11
83.294
 21
60.1102
 31
0.0
  0
LINE
  8
0
 62
     0
 10
83.294
 20
60.1102
 30
0.0
 11
83.294
 21
61.1106
 31
0.0
  0
LINE
  8
0
 62
     0
 10
83.294
 20
61.1106
 30
0.0
 11
84.0948
 21
61.1106
 31
0.0
  0
LINE
  8
0
 62
     0
 10
84.0948
 20
61.1106
 30
0.0
 11
84.0948
 21
64.0609
 31
0.0
  0
LINE
  8
0
 62
     0
 10
84.0948
 20
64.0609
 30
0.0
 11
83.294
 21
64.0609
 31
0.0
  0
LINE
  8
0
 62
     0
 10
83.294
 20
64.0609
 30
0.0
 11
83.294
 21
70.0098
 31
0.0
  0
LINE
  8
0
 62
     0
 10
83.294
 20
70.0098
 30
0.0
 11
84.0948
 21
70.0098
 31
0.0
  0
LINE
  8
0
 62
     0
 10
84.0948
 20
70.0098
 30
0.0
 11
84.0948
 21
72.9601
 31
0.0
  0
LINE
  8
0
 62
     0
 10
84.0948
 20
72.9601
 30
0.0
 11
83.294
 21
72.9601
 31
0.0
  0
LINE
  8
0
 62
     0
 10
83.294
 20
72.9601
 30
0.0
 11
83.294
 21
73.9606
 31
0.0
  0
LINE
  8
0
 62
     0
 10
83.294
 20
73.9606
 30
0.0
 11
69.445
 21
73.9606
 31
0.0
  0
LINE
  8
0
 62
     0
 10
50.395
 20
73.9606
 30
0.0
 11
50.395
 21
72.9601
 31
0.0
  0
LINE
  8
0
 62
     0
 10
50.395
 20
72.9601
 30
0.0
 11
49.5942
 21
72.9601
 31
0.0
  0
LINE
  8
0
 62
     0
 10
49.5942
 20
72.9601
 30
0.0
 11
49.5942
 21
70.0098
 31
0.0
  0
LINE
  8
0
 62
     0
 10
49.5942
 20
70.0098
 30
0.0
 11
50.395
 21
70.0098
 31
0.0
  0
LINE
  8
0
 62
     0
 10
50.395
 20
70.0098
 30
0.0
 11
50.395
 21
64.0609
 31
0.0
  0
LINE
  8
0
 62
     0
 10
50.395
 20
64.0609
 30
0.0
 11
49.5942
 21
64.0609
 31
0.0
  0
LINE
  8
0
 62
     0
 10
49.5942
 20
64.0609
 30
0.0
 11
49.5942
 21
61.1106
 31
0.0
  0
LINE
  8
0
 62
     0
 10
49.5942
 20
61.1106
 30
0.0
 11
50.395
 21
61.1106
 31
0.0
  0
LINE
  8
0
 62
     0
 10
50.395
 20
61.1106
 30
0.0
 11
50.395
 21
60.1102
 31
0.0
  0
LINE
  8
0
 62
     0
 10
50.395
 20
60.1102
 30
0.0
 11
64.244
 21
60.1102
 31
0.0
  0
LINE
  8
0
 62
     0
 10
64.244
 20
60.1102
 30
0.0
 11
64.244
 21
61.1106
 31
0.0
  0
LINE
  8
0
 62
     0
 10
64.244
 20
61.1106
 30
0.0
 11
65.0448
 21
61.1106
 31
0.0
  0
LINE
  8
0
 62
     0
 10
65.0448
 20
61.1106
 30
0.0
 11
65.0448
 21
64.0609
 31
0.0
  0
LINE
  8
0
 62
     0
 10
65.0448
 20
64.0609
 30
0.0
 11
64.244
 21
64.0609
 31
0.0
  0
LINE
  8
0
 62
     0
 10
64.244
 20
64.0609
 30
0.0
 11
64.244
 21
70.0098
 31
0.0
  0
LINE
  8
0
 62
     0
 10
64.244
 20
70.0098
 30
0.0
 11
65.0448
 21
70.0098
 31
0.0
  0
LINE
  8
0
 62
     0
 10
65.0448
 20
70.0098
 30
0.0
 11
65.0448
 21
72.9601
 31
0.0
  0
LINE
  8
0
 62
     0
 10
65.0448
 20
72.9601
 30
0.0
 11
64.244
 21
72.9601
 31
0.0
  0
LINE
  8
0
 62
     0
 10
64.244
 20
72.9601
 30
0.0
 11
64.244
 21
73.9606
 31
0.0
  0
LINE
  8
0
 62
     0
 10
64.244
 20
73.9606
 30
0.0
 11
50.395
 21
73.9606
 31
0.0
  0
LINE
  8
0
 62
     0
 10
31.3449
 20
73.9606
 30
0.0
 11
31.3449
 21
72.9601
 31
0.0
  0
LINE
  8
0
 62
     0
 10
31.3449
 20
72.9601
 30
0.0
 11
30.5442
 21
72.9601
 31
0.0
  0
LINE
  8
0
 62
     0
 10
30.5442
 20
72.9601
 30
0.0
 11
30.5442
 21
70.0098
 31
0.0
  0
LINE
  8
0
 62
     0
 10
30.5442
 20
70.0098
 30
0.0
 11
31.3449
 21
70.0098
 31
0.0
  0
LINE
  8
0
 62
     0
 10
31.3449
 20
70.0098
 30
0.0
 11
31.3449
 21
64.0609
 31
0.0
  0
LINE
  8
0
 62
     0
 10
31.3449
 20
64.0609
 30
0.0
 11
30.5442
 21
64.0609
 31
0.0
  0
LINE
  8
0
 62
     0
 10
30.5442
 20
64.0609
 30
0.0
 11
30.5442
 21
61.1106
 31
0.0
  0
LINE
  8
0
 62
     0
 10
30.5442
 20
61.1106
 30
0.0
 11
31.3449
 21
61.1106
 31
0.0
  0
LINE
  8
0
 62
     0
 10
31.3449
 20
61.1106
 30
0.0
 11
31.3449
 21
60.1102
 31
0.0
  0
LINE
  8
0
 62
     0
 10
31.3449
 20
60.1102
 30
0.0
 11
45.194
 21
60.1102
 31
0.0
  0
LINE
  8
0
 62
     0
 10
45.194
 20
60.1102
 30
0.0
 11
45.194
 21
61.1106
 31
0.0
  0
LINE
  8
0
 62
     0
 10
45.194
 20
61.1106
 30
0.0
 11
45.9962
 21
61.1106
 31
0.0
  0
LINE
  8
0
 62
     0
 10
45.9962
 20
61.1106
 30
0.0
 11
45.9962
 21
64.0609
 31
0.0
  0
LINE
  8
0
 62
     0
 10
45.9962
 20
64.0609
 30
0.0
 11
45.194
 21
64.0609
 31
0.0
  0
LINE
  8
0
 62
     0
 10
45.194
 20
64.0609
 30
0.0
 11
45.194
 21
70.0098
 31
0.0
  0
LINE
  8
0
 62
     0
 10
45.194
 20
70.0098
 30
0.0
 11
45.9962
 21
70.0098
 31
0.0
  0
LINE
  8
0
 62
     0
 10
45.9962
 20
70.0098
 30
0.0
 11
45.9962
 21
72.9601
 31
0.0
  0
LINE
  8
0
 62
     0
 10
45.9962
 20
72.9601
 30
0.0
 11
45.194
 21
72.9601
 31
0.0
  0
LINE
  8
0
 62
     0
 10
45.194
 20
72.9601
 30
0.0
 11
45.194
 21
73.9606
 31
0.0
  0
LINE
  8
0
 62
     0
 10
45.194
 20
73.9606
 30
0.0
 11
31.3449
 21
73.9606
 31
0.0
  0
LINE
  8
0
 62
     0
 10
7.53237
 20
73.9606
 30
0.0
 11
7.53237
 21
72.9601
 31
0.0
  0
LINE
  8
0
 62
     0
 10
7.53237
 20
72.9601
 30
0.0
 11
6.73308
 21
72.9601
 31
0.0
  0
LINE
  8
0
 62
     0
 10
6.73308
 20
72.9601
 30
0.0
 11
6.73308
 21
70.0098
 31
0.0
  0
LINE
  8
0
 62
     0
 10
6.73308
 20
70.0098
 30
0.0
 11
7.53237
 21
70.0098
 31
0.0
  0
LINE
  8
0
 62
     0
 10
7.53237
 20
70.0098
 30
0.0
 11
7.53237
 21
64.0609
 31
0.0
  0
LINE
  8
0
 62
     0
 10
7.53237
 20
64.0609
 30
0.0
 11
6.73308
 21
64.0609
 31
0.0
  0
LINE
  8
0
 62
     0
 10
6.73308
 20
64.0609
 30
0.0
 11
6.73308
 21
61.1106
 31
0.0
  0
LINE
  8
0
 62
     0
 10
6.73308
 20
61.1106
 30
0.0
 11
7.53237
 21
61.1106
 31
0.0
  0
LINE
  8
0
 62
     0
 10
7.53237
 20
61.1106
 30
0.0
 11
7.53237
 21
60.1102
 31
0.0
  0
LINE
  8
0
 62
     0
 10
7.53237
 20
60.1102
 30
0.0
 11
21.383
 21
60.1102
 31
0.0
  0
LINE
  8
0
 62
     0
 10
21.383
 20
60.1102
 30
0.0
 11
21.383
 21
61.1106
 31
0.0
  0
LINE
  8
0
 62
     0
 10
21.383
 20
61.1106
 30
0.0
 11
22.1823
 21
61.1106
 31
0.0
  0
LINE
  8
0
 62
     0
 10
22.1823
 20
61.1106
 30
0.0
 11
22.1823
 21
64.0609
 31
0.0
  0
LINE
  8
0
 62
     0
 10
22.1823
 20
64.0609
 30
0.0
 11
21.383
 21
64.0609
 31
0.0
  0
LINE
  8
0
 62
     0
 10
21.383
 20
64.0609
 30
0.0
 11
21.383
 21
70.0098
 31
0.0
  0
LINE
  8
0
 62
     0
 10
21.383
 20
70.0098
 30
0.0
 11
22.1823
 21
70.0098
 31
0.0
  0
LINE
  8
0
 62
     0
 10
22.1823
 20
70.0098
 30
0.0
 11
22.1823
 21
72.9601
 31
0.0
  0
LINE
  8
0
 62
     0
 10
22.1823
 20
72.9601
 30
0.0
 11
21.383
 21
72.9601
 31
0.0
  0
LINE
  8
0
 62
     0
 10
21.383
 20
72.9601
 30
0.0
 11
21.383
 21
73.9606
 31
0.0
  0
LINE
  8
0
 62
     0
 10
21.383
 20
73.9606
 30
0.0
 11
7.53237
 21
73.9606
 31
0.0
  0
LINE
  8
0
 62
     0
 10
259.945
 20
93.0106
 30
0.0
 11
259.945
 21
92.0101
 31
0.0
  0
LINE
  8
0
 62
     0
 10
259.945
 20
92.0101
 30
0.0
 11
259.146
 21
92.0101
 31
0.0
  0
LINE
  8
0
 62
     0
 10
259.146
 20
92.0101
 30
0.0
 11
259.146
 21
89.0598
 31
0.0
  0
LINE
  8
0
 62
     0
 10
259.146
 20
89.0598
 30
0.0
 11
259.945
 21
89.0598
 31
0.0
  0
LINE
  8
0
 62
     0
 10
259.945
 20
89.0598
 30
0.0
 11
259.945
 21
88.3102
 31
0.0
  0
LINE
  8
0
 62
     0
 10
259.945
 20
88.3102
 30
0.0
 11
258.27
 21
88.3102
 31
0.0
  0
LINE
  8
0
 62
     0
 10
258.27
 20
88.3102
 30
0.0
 11
258.27
 21
91.5402
 31
0.0
  0
LINE
  8
0
 62
     0
 10
258.27
 20
91.5402
 30
0.0
 11
251.671
 21
91.5402
 31
0.0
  0
LINE
  8
0
 62
     0
 10
251.671
 20
91.5402
 30
0.0
 11
251.671
 21
88.3102
 31
0.0
  0
LINE
  8
0
 62
     0
 10
251.671
 20
88.3102
 30
0.0
 11
250.846
 21
88.3102
 31
0.0
  0
LINE
  8
0
 62
     0
 10
250.846
 20
88.3102
 30
0.0
 11
250.846
 21
85.6601
 31
0.0
  0
LINE
  8
0
 62
     0
 10
250.846
 20
85.6601
 30
0.0
 11
251.671
 21
85.6601
 31
0.0
  0
LINE
  8
0
 62
     0
 10
251.671
 20
85.6601
 30
0.0
 11
251.671
 21
79.3902
 31
0.0
  0
LINE
  8
0
 62
     0
 10
251.671
 20
79.3902
 30
0.0
 11
253.395
 21
79.3902
 31
0.0
  0
LINE
  8
0
 62
     0
 10
253.395
 20
79.3902
 30
0.0
 11
253.395
 21
78.19
 31
0.0
  0
LINE
  8
0
 62
     0
 10
253.395
 20
78.19
 30
0.0
 11
256.545
 21
78.19
 31
0.0
  0
LINE
  8
0
 62
     0
 10
256.545
 20
78.19
 30
0.0
 11
256.545
 21
79.3902
 31
0.0
  0
LINE
  8
0
 62
     0
 10
256.545
 20
79.3902
 30
0.0
 11
258.27
 21
79.3902
 31
0.0
  0
LINE
  8
0
 62
     0
 10
258.27
 20
79.3902
 30
0.0
 11
258.27
 21
83.8606
 31
0.0
  0
LINE
  8
0
 62
     0
 10
258.27
 20
83.8606
 30
0.0
 11
259.945
 21
83.8606
 31
0.0
  0
LINE
  8
0
 62
     0
 10
259.945
 20
83.8606
 30
0.0
 11
259.945
 21
83.1109
 31
0.0
  0
LINE
  8
0
 62
     0
 10
259.945
 20
83.1109
 30
0.0
 11
259.146
 21
83.1109
 31
0.0
  0
LINE
  8
0
 62
     0
 10
259.146
 20
83.1109
 30
0.0
 11
259.146
 21
80.1606
 31
0.0
  0
LINE
  8
0
 62
     0
 10
259.146
 20
80.1606
 30
0.0
 11
259.945
 21
80.1606
 31
0.0
  0
LINE
  8
0
 62
     0
 10
259.945
 20
80.1606
 30
0.0
 11
259.945
 21
79.1602
 31
0.0
  0
LINE
  8
0
 62
     0
 10
259.945
 20
79.1602
 30
0.0
 11
273.795
 21
79.1602
 31
0.0
  0
LINE
  8
0
 62
     0
 10
273.795
 20
79.1602
 30
0.0
 11
273.795
 21
80.1606
 31
0.0
  0
LINE
  8
0
 62
     0
 10
273.795
 20
80.1606
 30
0.0
 11
274.596
 21
80.1606
 31
0.0
  0
LINE
  8
0
 62
     0
 10
274.596
 20
80.1606
 30
0.0
 11
274.596
 21
83.1109
 31
0.0
  0
LINE
  8
0
 62
     0
 10
274.596
 20
83.1109
 30
0.0
 11
273.795
 21
83.1109
 31
0.0
  0
LINE
  8
0
 62
     0
 10
273.795
 20
83.1109
 30
0.0
 11
273.795
 21
83.8606
 31
0.0
  0
LINE
  8
0
 62
     0
 10
273.795
 20
83.8606
 30
0.0
 11
275.47
 21
83.8606
 31
0.0
  0
LINE
  8
0
 62
     0
 10
275.47
 20
83.8606
 30
0.0
 11
275.47
 21
79.3902
 31
0.0
  0
LINE
  8
0
 62
     0
 10
275.47
 20
79.3902
 30
0.0
 11
277.195
 21
79.3902
 31
0.0
  0
LINE
  8
0
 62
     0
 10
277.195
 20
79.3902
 30
0.0
 11
277.195
 21
78.19
 31
0.0
  0
LINE
  8
0
 62
     0
 10
277.195
 20
78.19
 30
0.0
 11
280.345
 21
78.19
 31
0.0
  0
LINE
  8
0
 62
     0
 10
280.345
 20
78.19
 30
0.0
 11
280.345
 21
79.3902
 31
0.0
  0
LINE
  8
0
 62
     0
 10
280.345
 20
79.3902
 30
0.0
 11
282.071
 21
79.3902
 31
0.0
  0
LINE
  8
0
 62
     0
 10
282.071
 20
79.3902
 30
0.0
 11
282.071
 21
85.6601
 31
0.0
  0
LINE
  8
0
 62
     0
 10
282.071
 20
85.6601
 30
0.0
 11
282.896
 21
85.6601
 31
0.0
  0
LINE
  8
0
 62
     0
 10
282.896
 20
85.6601
 30
0.0
 11
282.896
 21
88.3102
 31
0.0
  0
LINE
  8
0
 62
     0
 10
282.896
 20
88.3102
 30
0.0
 11
282.071
 21
88.3102
 31
0.0
  0
LINE
  8
0
 62
     0
 10
282.071
 20
88.3102
 30
0.0
 11
282.071
 21
91.5402
 31
0.0
  0
LINE
  8
0
 62
     0
 10
282.071
 20
91.5402
 30
0.0
 11
275.47
 21
91.5402
 31
0.0
  0
LINE
  8
0
 62
     0
 10
275.47
 20
91.5402
 30
0.0
 11
275.47
 21
88.3102
 31
0.0
  0
LINE
  8
0
 62
     0
 10
275.47
 20
88.3102
 30
0.0
 11
273.795
 21
88.3102
 31
0.0
  0
LINE
  8
0
 62
     0
 10
273.795
 20
88.3102
 30
0.0
 11
273.795
 21
89.0598
 31
0.0
  0
LINE
  8
0
 62
     0
 10
273.795
 20
89.0598
 30
0.0
 11
274.596
 21
89.0598
 31
0.0
  0
LINE
  8
0
 62
     0
 10
274.596
 20
89.0598
 30
0.0
 11
274.596
 21
92.0101
 31
0.0
  0
LINE
  8
0
 62
     0
 10
274.596
 20
92.0101
 30
0.0
 11
273.795
 21
92.0101
 31
0.0
  0
LINE
  8
0
 62
     0
 10
273.795
 20
92.0101
 30
0.0
 11
273.795
 21
93.0106
 31
0.0
  0
LINE
  8
0
 62
     0
 10
273.795
 20
93.0106
 30
0.0
 11
259.945
 21
93.0106
 31
0.0
  0
LINE
  8
0
 62
     0
 10
231.37
 20
93.0106
 30
0.0
 11
231.37
 21
92.0101
 31
0.0
  0
LINE
  8
0
 62
     0
 10
231.37
 20
92.0101
 30
0.0
 11
230.571
 21
92.0101
 31
0.0
  0
LINE
  8
0
 62
     0
 10
230.571
 20
92.0101
 30
0.0
 11
230.571
 21
89.0598
 31
0.0
  0
LINE
  8
0
 62
     0
 10
230.571
 20
89.0598
 30
0.0
 11
231.37
 21
89.0598
 31
0.0
  0
LINE
  8
0
 62
     0
 10
231.37
 20
89.0598
 30
0.0
 11
231.37
 21
83.1109
 31
0.0
  0
LINE
  8
0
 62
     0
 10
231.37
 20
83.1109
 30
0.0
 11
230.571
 21
83.1109
 31
0.0
  0
LINE
  8
0
 62
     0
 10
230.571
 20
83.1109
 30
0.0
 11
230.571
 21
80.1606
 31
0.0
  0
LINE
  8
0
 62
     0
 10
230.571
 20
80.1606
 30
0.0
 11
231.37
 21
80.1606
 31
0.0
  0
LINE
  8
0
 62
     0
 10
231.37
 20
80.1606
 30
0.0
 11
231.37
 21
79.1602
 31
0.0
  0
LINE
  8
0
 62
     0
 10
231.37
 20
79.1602
 30
0.0
 11
245.22
 21
79.1602
 31
0.0
  0
LINE
  8
0
 62
     0
 10
245.22
 20
79.1602
 30
0.0
 11
245.22
 21
80.1606
 31
0.0
  0
LINE
  8
0
 62
     0
 10
245.22
 20
80.1606
 30
0.0
 11
246.021
 21
80.1606
 31
0.0
  0
LINE
  8
0
 62
     0
 10
246.021
 20
80.1606
 30
0.0
 11
246.021
 21
83.1109
 31
0.0
  0
LINE
  8
0
 62
     0
 10
246.021
 20
83.1109
 30
0.0
 11
245.22
 21
83.1109
 31
0.0
  0
LINE
  8
0
 62
     0
 10
245.22
 20
83.1109
 30
0.0
 11
245.22
 21
89.0598
 31
0.0
  0
LINE
  8
0
 62
     0
 10
245.22
 20
89.0598
 30
0.0
 11
246.021
 21
89.0598
 31
0.0
  0
LINE
  8
0
 62
     0
 10
246.021
 20
89.0598
 30
0.0
 11
246.021
 21
92.0101
 31
0.0
  0
LINE
  8
0
 62
     0
 10
246.021
 20
92.0101
 30
0.0
 11
245.22
 21
92.0101
 31
0.0
  0
LINE
  8
0
 62
     0
 10
245.22
 20
92.0101
 30
0.0
 11
245.22
 21
93.0106
 31
0.0
  0
LINE
  8
0
 62
     0
 10
245.22
 20
93.0106
 30
0.0
 11
231.37
 21
93.0106
 31
0.0
  0
LINE
  8
0
 62
     0
 10
212.32
 20
93.0106
 30
0.0
 11
212.32
 21
92.0101
 31
0.0
  0
LINE
  8
0
 62
     0
 10
212.32
 20
92.0101
 30
0.0
 11
211.521
 21
92.0101
 31
0.0
  0
LINE
  8
0
 62
     0
 10
211.521
 20
92.0101
 30
0.0
 11
211.521
 21
89.0598
 31
0.0
  0
LINE
  8
0
 62
     0
 10
211.521
 20
89.0598
 30
0.0
 11
212.32
 21
89.0598
 31
0.0
  0
LINE
  8
0
 62
     0
 10
212.32
 20
89.0598
 30
0.0
 11
212.32
 21
83.1109
 31
0.0
  0
LINE
  8
0
 62
     0
 10
212.32
 20
83.1109
 30
0.0
 11
211.521
 21
83.1109
 31
0.0
  0
LINE
  8
0
 62
     0
 10
211.521
 20
83.1109
 30
0.0
 11
211.521
 21
80.1606
 31
0.0
  0
LINE
  8
0
 62
     0
 10
211.521
 20
80.1606
 30
0.0
 11
212.32
 21
80.1606
 31
0.0
  0
LINE
  8
0
 62
     0
 10
212.32
 20
80.1606
 30
0.0
 11
212.32
 21
79.1602
 31
0.0
  0
LINE
  8
0
 62
     0
 10
212.32
 20
79.1602
 30
0.0
 11
226.17
 21
79.1602
 31
0.0
  0
LINE
  8
0
 62
     0
 10
226.17
 20
79.1602
 30
0.0
 11
226.17
 21
80.1606
 31
0.0
  0
LINE
  8
0
 62
     0
 10
226.17
 20
80.1606
 30
0.0
 11
226.971
 21
80.1606
 31
0.0
  0
LINE
  8
0
 62
     0
 10
226.971
 20
80.1606
 30
0.0
 11
226.971
 21
83.1109
 31
0.0
  0
LINE
  8
0
 62
     0
 10
226.971
 20
83.1109
 30
0.0
 11
226.17
 21
83.1109
 31
0.0
  0
LINE
  8
0
 62
     0
 10
226.17
 20
83.1109
 30
0.0
 11
226.17
 21
89.0598
 31
0.0
  0
LINE
  8
0
 62
     0
 10
226.17
 20
89.0598
 30
0.0
 11
226.971
 21
89.0598
 31
0.0
  0
LINE
  8
0
 62
     0
 10
226.971
 20
89.0598
 30
0.0
 11
226.971
 21
92.0101
 31
0.0
  0
LINE
  8
0
 62
     0
 10
226.971
 20
92.0101
 30
0.0
 11
226.17
 21
92.0101
 31
0.0
  0
LINE
  8
0
 62
     0
 10
226.17
 20
92.0101
 30
0.0
 11
226.17
 21
93.0106
 31
0.0
  0
LINE
  8
0
 62
     0
 10
226.17
 20
93.0106
 30
0.0
 11
212.32
 21
93.0106
 31
0.0
  0
LINE
  8
0
 62
     0
 10
193.27
 20
93.0106
 30
0.0
 11
193.27
 21
92.0101
 31
0.0
  0
LINE
  8
0
 62
     0
 10
193.27
 20
92.0101
 30
0.0
 11
192.471
 21
92.0101
 31
0.0
  0
LINE
  8
0
 62
     0
 10
192.471
 20
92.0101
 30
0.0
 11
192.471
 21
89.0598
 31
0.0
  0
LINE
  8
0
 62
     0
 10
192.471
 20
89.0598
 30
0.0
 11
193.27
 21
89.0598
 31
0.0
  0
LINE
  8
0
 62
     0
 10
193.27
 20
89.0598
 30
0.0
 11
193.27
 21
83.1109
 31
0.0
  0
LINE
  8
0
 62
     0
 10
193.27
 20
83.1109
 30
0.0
 11
192.471
 21
83.1109
 31
0.0
  0
LINE
  8
0
 62
     0
 10
192.471
 20
83.1109
 30
0.0
 11
192.471
 21
80.1606
 31
0.0
  0
LINE
  8
0
 62
     0
 10
192.471
 20
80.1606
 30
0.0
 11
193.27
 21
80.1606
 31
0.0
  0
LINE
  8
0
 62
     0
 10
193.27
 20
80.1606
 30
0.0
 11
193.27
 21
79.1602
 31
0.0
  0
LINE
  8
0
 62
     0
 10
193.27
 20
79.1602
 30
0.0
 11
207.12
 21
79.1602
 31
0.0
  0
LINE
  8
0
 62
     0
 10
207.12
 20
79.1602
 30
0.0
 11
207.12
 21
80.1606
 31
0.0
  0
LINE
  8
0
 62
     0
 10
207.12
 20
80.1606
 30
0.0
 11
207.921
 21
80.1606
 31
0.0
  0
LINE
  8
0
 62
     0
 10
207.921
 20
80.1606
 30
0.0
 11
207.921
 21
83.1109
 31
0.0
  0
LINE
  8
0
 62
     0
 10
207.921
 20
83.1109
 30
0.0
 11
207.12
 21
83.1109
 31
0.0
  0
LINE
  8
0
 62
     0
 10
207.12
 20
83.1109
 30
0.0
 11
207.12
 21
89.0598
 31
0.0
  0
LINE
  8
0
 62
     0
 10
207.12
 20
89.0598
 30
0.0
 11
207.921
 21
89.0598
 31
0.0
  0
LINE
  8
0
 62
     0
 10
207.921
 20
89.0598
 30
0.0
 11
207.921
 21
92.0101
 31
0.0
  0
LINE
  8
0
 62
     0
 10
207.921
 20
92.0101
 30
0.0
 11
207.12
 21
92.0101
 31
0.0
  0
LINE
  8
0
 62
     0
 10
207.12
 20
92.0101
 30
0.0
 11
207.12
 21
93.0106
 31
0.0
  0
LINE
  8
0
 62
     0
 10
207.12
 20
93.0106
 30
0.0
 11
193.27
 21
93.0106
 31
0.0
  0
LINE
  8
0
 62
     0
 10
174.22
 20
93.0106
 30
0.0
 11
174.22
 21
92.0101
 31
0.0
  0
LINE
  8
0
 62
     0
 10
174.22
 20
92.0101
 30
0.0
 11
173.421
 21
92.0101
 31
0.0
  0
LINE
  8
0
 62
     0
 10
173.421
 20
92.0101
 30
0.0
 11
173.421
 21
89.0598
 31
0.0
  0
LINE
  8
0
 62
     0
 10
173.421
 20
89.0598
 30
0.0
 11
174.22
 21
89.0598
 31
0.0
  0
LINE
  8
0
 62
     0
 10
174.22
 20
89.0598
 30
0.0
 11
174.22
 21
83.1109
 31
0.0
  0
LINE
  8
0
 62
     0
 10
174.22
 20
83.1109
 30
0.0
 11
173.421
 21
83.1109
 31
0.0
  0
LINE
  8
0
 62
     0
 10
173.421
 20
83.1109
 30
0.0
 11
173.421
 21
80.1606
 31
0.0
  0
LINE
  8
0
 62
     0
 10
173.421
 20
80.1606
 30
0.0
 11
174.22
 21
80.1606
 31
0.0
  0
LINE
  8
0
 62
     0
 10
174.22
 20
80.1606
 30
0.0
 11
174.22
 21
79.1602
 31
0.0
  0
LINE
  8
0
 62
     0
 10
174.22
 20
79.1602
 30
0.0
 11
188.07
 21
79.1602
 31
0.0
  0
LINE
  8
0
 62
     0
 10
188.07
 20
79.1602
 30
0.0
 11
188.07
 21
80.1606
 31
0.0
  0
LINE
  8
0
 62
     0
 10
188.07
 20
80.1606
 30
0.0
 11
188.871
 21
80.1606
 31
0.0
  0
LINE
  8
0
 62
     0
 10
188.871
 20
80.1606
 30
0.0
 11
188.871
 21
83.1109
 31
0.0
  0
LINE
  8
0
 62
     0
 10
188.871
 20
83.1109
 30
0.0
 11
188.07
 21
83.1109
 31
0.0
  0
LINE
  8
0
 62
     0
 10
188.07
 20
83.1109
 30
0.0
 11
188.07
 21
89.0598
 31
0.0
  0
LINE
  8
0
 62
     0
 10
188.07
 20
89.0598
 30
0.0
 11
188.871
 21
89.0598
 31
0.0
  0
LINE
  8
0
 62
     0
 10
188.871
 20
89.0598
 30
0.0
 11
188.871
 21
92.0101
 31
0.0
  0
LINE
  8
0
 62
     0
 10
188.871
 20
92.0101
 30
0.0
 11
188.07
 21
92.0101
 31
0.0
  0
LINE
  8
0
 62
     0
 10
188.07
 20
92.0101
 30
0.0
 11
188.07
 21
93.0106
 31
0.0
  0
LINE
  8
0
 62
     0
 10
188.07
 20
93.0106
 30
0.0
 11
174.22
 21
93.0106
 31
0.0
  0
LINE
  8
0
 62
     0
 10
155.17
 20
93.0106
 30
0.0
 11
155.17
 21
92.0101
 31
0.0
  0
LINE
  8
0
 62
     0
 10
155.17
 20
92.0101
 30
0.0
 11
154.371
 21
92.0101
 31
0.0
  0
LINE
  8
0
 62
     0
 10
154.371
 20
92.0101
 30
0.0
 11
154.371
 21
89.0598
 31
0.0
  0
LINE
  8
0
 62
     0
 10
154.371
 20
89.0598
 30
0.0
 11
155.17
 21
89.0598
 31
0.0
  0
LINE
  8
0
 62
     0
 10
155.17
 20
89.0598
 30
0.0
 11
155.17
 21
83.1109
 31
0.0
  0
LINE
  8
0
 62
     0
 10
155.17
 20
83.1109
 30
0.0
 11
154.371
 21
83.1109
 31
0.0
  0
LINE
  8
0
 62
     0
 10
154.371
 20
83.1109
 30
0.0
 11
154.371
 21
80.1606
 31
0.0
  0
LINE
  8
0
 62
     0
 10
154.371
 20
80.1606
 30
0.0
 11
155.17
 21
80.1606
 31
0.0
  0
LINE
  8
0
 62
     0
 10
155.17
 20
80.1606
 30
0.0
 11
155.17
 21
79.1602
 31
0.0
  0
LINE
  8
0
 62
     0
 10
155.17
 20
79.1602
 30
0.0
 11
169.02
 21
79.1602
 31
0.0
  0
LINE
  8
0
 62
     0
 10
169.02
 20
79.1602
 30
0.0
 11
169.02
 21
80.1606
 31
0.0
  0
LINE
  8
0
 62
     0
 10
169.02
 20
80.1606
 30
0.0
 11
169.821
 21
80.1606
 31
0.0
  0
LINE
  8
0
 62
     0
 10
169.821
 20
80.1606
 30
0.0
 11
169.821
 21
83.1109
 31
0.0
  0
LINE
  8
0
 62
     0
 10
169.821
 20
83.1109
 30
0.0
 11
169.02
 21
83.1109
 31
0.0
  0
LINE
  8
0
 62
     0
 10
169.02
 20
83.1109
 30
0.0
 11
169.02
 21
89.0598
 31
0.0
  0
LINE
  8
0
 62
     0
 10
169.02
 20
89.0598
 30
0.0
 11
169.821
 21
89.0598
 31
0.0
  0
LINE
  8
0
 62
     0
 10
169.821
 20
89.0598
 30
0.0
 11
169.821
 21
92.0101
 31
0.0
  0
LINE
  8
0
 62
     0
 10
169.821
 20
92.0101
 30
0.0
 11
169.02
 21
92.0101
 31
0.0
  0
LINE
  8
0
 62
     0
 10
169.02
 20
92.0101
 30
0.0
 11
169.02
 21
93.0106
 31
0.0
  0
LINE
  8
0
 62
     0
 10
169.02
 20
93.0106
 30
0.0
 11
155.17
 21
93.0106
 31
0.0
  0
LINE
  8
0
 62
     0
 10
136.12
 20
93.0106
 30
0.0
 11
136.12
 21
92.0101
 31
0.0
  0
LINE
  8
0
 62
     0
 10
136.12
 20
92.0101
 30
0.0
 11
135.321
 21
92.0101
 31
0.0
  0
LINE
  8
0
 62
     0
 10
135.321
 20
92.0101
 30
0.0
 11
135.321
 21
89.0598
 31
0.0
  0
LINE
  8
0
 62
     0
 10
135.321
 20
89.0598
 30
0.0
 11
136.12
 21
89.0598
 31
0.0
  0
LINE
  8
0
 62
     0
 10
136.12
 20
89.0598
 30
0.0
 11
136.12
 21
83.1109
 31
0.0
  0
LINE
  8
0
 62
     0
 10
136.12
 20
83.1109
 30
0.0
 11
135.321
 21
83.1109
 31
0.0
  0
LINE
  8
0
 62
     0
 10
135.321
 20
83.1109
 30
0.0
 11
135.321
 21
80.1606
 31
0.0
  0
LINE
  8
0
 62
     0
 10
135.321
 20
80.1606
 30
0.0
 11
136.12
 21
80.1606
 31
0.0
  0
LINE
  8
0
 62
     0
 10
136.12
 20
80.1606
 30
0.0
 11
136.12
 21
79.1602
 31
0.0
  0
LINE
  8
0
 62
     0
 10
136.12
 20
79.1602
 30
0.0
 11
149.97
 21
79.1602
 31
0.0
  0
LINE
  8
0
 62
     0
 10
149.97
 20
79.1602
 30
0.0
 11
149.97
 21
80.1606
 31
0.0
  0
LINE
  8
0
 62
     0
 10
149.97
 20
80.1606
 30
0.0
 11
150.771
 21
80.1606
 31
0.0
  0
LINE
  8
0
 62
     0
 10
150.771
 20
80.1606
 30
0.0
 11
150.771
 21
83.1109
 31
0.0
  0
LINE
  8
0
 62
     0
 10
150.771
 20
83.1109
 30
0.0
 11
149.97
 21
83.1109
 31
0.0
  0
LINE
  8
0
 62
     0
 10
149.97
 20
83.1109
 30
0.0
 11
149.97
 21
89.0598
 31
0.0
  0
LINE
  8
0
 62
     0
 10
149.97
 20
89.0598
 30
0.0
 11
150.771
 21
89.0598
 31
0.0
  0
LINE
  8
0
 62
     0
 10
150.771
 20
89.0598
 30
0.0
 11
150.771
 21
92.0101
 31
0.0
  0
LINE
  8
0
 62
     0
 10
150.771
 20
92.0101
 30
0.0
 11
149.97
 21
92.0101
 31
0.0
  0
LINE
  8
0
 62
     0
 10
149.97
 20
92.0101
 30
0.0
 11
149.97
 21
93.0106
 31
0.0
  0
LINE
  8
0
 62
     0
 10
149.97
 20
93.0106
 30
0.0
 11
136.12
 21
93.0106
 31
0.0
  0
LINE
  8
0
 62
     0
 10
117.07
 20
93.0106
 30
0.0
 11
117.07
 21
92.0101
 31
0.0
  0
LINE
  8
0
 62
     0
 10
117.07
 20
92.0101
 30
0.0
 11
116.271
 21
92.0101
 31
0.0
  0
LINE
  8
0
 62
     0
 10
116.271
 20
92.0101
 30
0.0
 11
116.271
 21
89.0598
 31
0.0
  0
LINE
  8
0
 62
     0
 10
116.271
 20
89.0598
 30
0.0
 11
117.07
 21
89.0598
 31
0.0
  0
LINE
  8
0
 62
     0
 10
117.07
 20
89.0598
 30
0.0
 11
117.07
 21
83.1109
 31
0.0
  0
LINE
  8
0
 62
     0
 10
117.07
 20
83.1109
 30
0.0
 11
116.271
 21
83.1109
 31
0.0
  0
LINE
  8
0
 62
     0
 10
116.271
 20
83.1109
 30
0.0
 11
116.271
 21
80.1606
 31
0.0
  0
LINE
  8
0
 62
     0
 10
116.271
 20
80.1606
 30
0.0
 11
117.07
 21
80.1606
 31
0.0
  0
LINE
  8
0
 62
     0
 10
117.07
 20
80.1606
 30
0.0
 11
117.07
 21
79.1602
 31
0.0
  0
LINE
  8
0
 62
     0
 10
117.07
 20
79.1602
 30
0.0
 11
130.92
 21
79.1602
 31
0.0
  0
LINE
  8
0
 62
     0
 10
130.92
 20
79.1602
 30
0.0
 11
130.92
 21
80.1606
 31
0.0
  0
LINE
  8
0
 62
     0
 10
130.92
 20
80.1606
 30
0.0
 11
131.721
 21
80.1606
 31
0.0
  0
LINE
  8
0
 62
     0
 10
131.721
 20
80.1606
 30
0.0
 11
131.721
 21
83.1109
 31
0.0
  0
LINE
  8
0
 62
     0
 10
131.721
 20
83.1109
 30
0.0
 11
130.92
 21
83.1109
 31
0.0
  0
LINE
  8
0
 62
     0
 10
130.92
 20
83.1109
 30
0.0
 11
130.92
 21
89.0598
 31
0.0
  0
LINE
  8
0
 62
     0
 10
130.92
 20
89.0598
 30
0.0
 11
131.721
 21
89.0598
 31
0.0
  0
LINE
  8
0
 62
     0
 10
131.721
 20
89.0598
 30
0.0
 11
131.721
 21
92.0101
 31
0.0
  0
LINE
  8
0
 62
     0
 10
131.721
 20
92.0101
 30
0.0
 11
130.92
 21
92.0101
 31
0.0
  0
LINE
  8
0
 62
     0
 10
130.92
 20
92.0101
 30
0.0
 11
130.92
 21
93.0106
 31
0.0
  0
LINE
  8
0
 62
     0
 10
130.92
 20
93.0106
 30
0.0
 11
117.07
 21
93.0106
 31
0.0
  0
LINE
  8
0
 62
     0
 10
98.02
 20
93.0106
 30
0.0
 11
98.02
 21
92.0101
 31
0.0
  0
LINE
  8
0
 62
     0
 10
98.02
 20
92.0101
 30
0.0
 11
97.2206
 21
92.0101
 31
0.0
  0
LINE
  8
0
 62
     0
 10
97.2206
 20
92.0101
 30
0.0
 11
97.2206
 21
89.0598
 31
0.0
  0
LINE
  8
0
 62
     0
 10
97.2206
 20
89.0598
 30
0.0
 11
98.02
 21
89.0598
 31
0.0
  0
LINE
  8
0
 62
     0
 10
98.02
 20
89.0598
 30
0.0
 11
98.02
 21
83.1109
 31
0.0
  0
LINE
  8
0
 62
     0
 10
98.02
 20
83.1109
 30
0.0
 11
97.2206
 21
83.1109
 31
0.0
  0
LINE
  8
0
 62
     0
 10
97.2206
 20
83.1109
 30
0.0
 11
97.2206
 21
80.1606
 31
0.0
  0
LINE
  8
0
 62
     0
 10
97.2206
 20
80.1606
 30
0.0
 11
98.02
 21
80.1606
 31
0.0
  0
LINE
  8
0
 62
     0
 10
98.02
 20
80.1606
 30
0.0
 11
98.02
 21
79.1602
 31
0.0
  0
LINE
  8
0
 62
     0
 10
98.02
 20
79.1602
 30
0.0
 11
111.869
 21
79.1602
 31
0.0
  0
LINE
  8
0
 62
     0
 10
111.869
 20
79.1602
 30
0.0
 11
111.869
 21
80.1606
 31
0.0
  0
LINE
  8
0
 62
     0
 10
111.869
 20
80.1606
 30
0.0
 11
112.67
 21
80.1606
 31
0.0
  0
LINE
  8
0
 62
     0
 10
112.67
 20
80.1606
 30
0.0
 11
112.67
 21
83.1109
 31
0.0
  0
LINE
  8
0
 62
     0
 10
112.67
 20
83.1109
 30
0.0
 11
111.869
 21
83.1109
 31
0.0
  0
LINE
  8
0
 62
     0
 10
111.869
 20
83.1109
 30
0.0
 11
111.869
 21
89.0598
 31
0.0
  0
LINE
  8
0
 62
     0
 10
111.869
 20
89.0598
 30
0.0
 11
112.67
 21
89.0598
 31
0.0
  0
LINE
  8
0
 62
     0
 10
112.67
 20
89.0598
 30
0.0
 11
112.67
 21
92.0101
 31
0.0
  0
LINE
  8
0
 62
     0
 10
112.67
 20
92.0101
 30
0.0
 11
111.869
 21
92.0101
 31
0.0
  0
LINE
  8
0
 62
     0
 10
111.869
 20
92.0101
 30
0.0
 11
111.869
 21
93.0106
 31
0.0
  0
LINE
  8
0
 62
     0
 10
111.869
 20
93.0106
 30
0.0
 11
98.02
 21
93.0106
 31
0.0
  0
LINE
  8
0
 62
     0
 10
78.97
 20
93.0106
 30
0.0
 11
78.97
 21
92.0101
 31
0.0
  0
LINE
  8
0
 62
     0
 10
78.97
 20
92.0101
 30
0.0
 11
78.1706
 21
92.0101
 31
0.0
  0
LINE
  8
0
 62
     0
 10
78.1706
 20
92.0101
 30
0.0
 11
78.1706
 21
89.0598
 31
0.0
  0
LINE
  8
0
 62
     0
 10
78.1706
 20
89.0598
 30
0.0
 11
78.97
 21
89.0598
 31
0.0
  0
LINE
  8
0
 62
     0
 10
78.97
 20
89.0598
 30
0.0
 11
78.97
 21
83.1109
 31
0.0
  0
LINE
  8
0
 62
     0
 10
78.97
 20
83.1109
 30
0.0
 11
78.1706
 21
83.1109
 31
0.0
  0
LINE
  8
0
 62
     0
 10
78.1706
 20
83.1109
 30
0.0
 11
78.1706
 21
80.1606
 31
0.0
  0
LINE
  8
0
 62
     0
 10
78.1706
 20
80.1606
 30
0.0
 11
78.97
 21
80.1606
 31
0.0
  0
LINE
  8
0
 62
     0
 10
78.97
 20
80.1606
 30
0.0
 11
78.97
 21
79.1602
 31
0.0
  0
LINE
  8
0
 62
     0
 10
78.97
 20
79.1602
 30
0.0
 11
92.8204
 21
79.1602
 31
0.0
  0
LINE
  8
0
 62
     0
 10
92.8204
 20
79.1602
 30
0.0
 11
92.8204
 21
80.1606
 31
0.0
  0
LINE
  8
0
 62
     0
 10
92.8204
 20
80.1606
 30
0.0
 11
93.6198
 21
80.1606
 31
0.0
  0
LINE
  8
0
 62
     0
 10
93.6198
 20
80.1606
 30
0.0
 11
93.6198
 21
83.1109
 31
0.0
  0
LINE
  8
0
 62
     0
 10
93.6198
 20
83.1109
 30
0.0
 11
92.8204
 21
83.1109
 31
0.0
  0
LINE
  8
0
 62
     0
 10
92.8204
 20
83.1109
 30
0.0
 11
92.8204
 21
89.0598
 31
0.0
  0
LINE
  8
0
 62
     0
 10
92.8204
 20
89.0598
 30
0.0
 11
93.6198
 21
89.0598
 31
0.0
  0
LINE
  8
0
 62
     0
 10
93.6198
 20
89.0598
 30
0.0
 11
93.6198
 21
92.0101
 31
0.0
  0
LINE
  8
0
 62
     0
 10
93.6198
 20
92.0101
 30
0.0
 11
92.8204
 21
92.0101
 31
0.0
  0
LINE
  8
0
 62
     0
 10
92.8204
 20
92.0101
 30
0.0
 11
92.8204
 21
93.0106
 31
0.0
  0
LINE
  8
0
 62
     0
 10
92.8204
 20
93.0106
 30
0.0
 11
78.97
 21
93.0106
 31
0.0
  0
LINE
  8
0
 62
     0
 10
59.92
 20
93.0106
 30
0.0
 11
59.92
 21
92.0101
 31
0.0
  0
LINE
  8
0
 62
     0
 10
59.92
 20
92.0101
 30
0.0
 11
59.1206
 21
92.0101
 31
0.0
  0
LINE
  8
0
 62
     0
 10
59.1206
 20
92.0101
 30
0.0
 11
59.1206
 21
89.0598
 31
0.0
  0
LINE
  8
0
 62
     0
 10
59.1206
 20
89.0598
 30
0.0
 11
59.92
 21
89.0598
 31
0.0
  0
LINE
  8
0
 62
     0
 10
59.92
 20
89.0598
 30
0.0
 11
59.92
 21
83.1109
 31
0.0
  0
LINE
  8
0
 62
     0
 10
59.92
 20
83.1109
 30
0.0
 11
59.1206
 21
83.1109
 31
0.0
  0
LINE
  8
0
 62
     0
 10
59.1206
 20
83.1109
 30
0.0
 11
59.1206
 21
80.1606
 31
0.0
  0
LINE
  8
0
 62
     0
 10
59.1206
 20
80.1606
 30
0.0
 11
59.92
 21
80.1606
 31
0.0
  0
LINE
  8
0
 62
     0
 10
59.92
 20
80.1606
 30
0.0
 11
59.92
 21
79.1602
 31
0.0
  0
LINE
  8
0
 62
     0
 10
59.92
 20
79.1602
 30
0.0
 11
73.7704
 21
79.1602
 31
0.0
  0
LINE
  8
0
 62
     0
 10
73.7704
 20
79.1602
 30
0.0
 11
73.7704
 21
80.1606
 31
0.0
  0
LINE
  8
0
 62
     0
 10
73.7704
 20
80.1606
 30
0.0
 11
74.5712
 21
80.1606
 31
0.0
  0
LINE
  8
0
 62
     0
 10
74.5712
 20
80.1606
 30
0.0
 11
74.5712
 21
83.1109
 31
0.0
  0
LINE
  8
0
 62
     0
 10
74.5712
 20
83.1109
 30
0.0
 11
73.7704
 21
83.1109
 31
0.0
  0
LINE
  8
0
 62
     0
 10
73.7704
 20
83.1109
 30
0.0
 11
73.7704
 21
89.0598
 31
0.0
  0
LINE
  8
0
 62
     0
 10
73.7704
 20
89.0598
 30
0.0
 11
74.5712
 21
89.0598
 31
0.0
  0
LINE
  8
0
 62
     0
 10
74.5712
 20
89.0598
 30
0.0
 11
74.5712
 21
92.0101
 31
0.0
  0
LINE
  8
0
 62
     0
 10
74.5712
 20
92.0101
 30
0.0
 11
73.7704
 21
92.0101
 31
0.0
  0
LINE
  8
0
 62
     0
 10
73.7704
 20
92.0101
 30
0.0
 11
73.7704
 21
93.0106
 31
0.0
  0
LINE
  8
0
 62
     0
 10
73.7704
 20
93.0106
 30
0.0
 11
59.92
 21
93.0106
 31
0.0
  0
LINE
  8
0
 62
     0
 10
40.87
 20
93.0106
 30
0.0
 11
40.87
 21
92.0101
 31
0.0
  0
LINE
  8
0
 62
     0
 10
40.87
 20
92.0101
 30
0.0
 11
40.0706
 21
92.0101
 31
0.0
  0
LINE
  8
0
 62
     0
 10
40.0706
 20
92.0101
 30
0.0
 11
40.0706
 21
89.0598
 31
0.0
  0
LINE
  8
0
 62
     0
 10
40.0706
 20
89.0598
 30
0.0
 11
40.87
 21
89.0598
 31
0.0
  0
LINE
  8
0
 62
     0
 10
40.87
 20
89.0598
 30
0.0
 11
40.87
 21
83.1109
 31
0.0
  0
LINE
  8
0
 62
     0
 10
40.87
 20
83.1109
 30
0.0
 11
40.0706
 21
83.1109
 31
0.0
  0
LINE
  8
0
 62
     0
 10
40.0706
 20
83.1109
 30
0.0
 11
40.0706
 21
80.1606
 31
0.0
  0
LINE
  8
0
 62
     0
 10
40.0706
 20
80.1606
 30
0.0
 11
40.87
 21
80.1606
 31
0.0
  0
LINE
  8
0
 62
     0
 10
40.87
 20
80.1606
 30
0.0
 11
40.87
 21
79.1602
 31
0.0
  0
LINE
  8
0
 62
     0
 10
40.87
 20
79.1602
 30
0.0
 11
54.7204
 21
79.1602
 31
0.0
  0
LINE
  8
0
 62
     0
 10
54.7204
 20
79.1602
 30
0.0
 11
54.7204
 21
80.1606
 31
0.0
  0
LINE
  8
0
 62
     0
 10
54.7204
 20
80.1606
 30
0.0
 11
55.5212
 21
80.1606
 31
0.0
  0
LINE
  8
0
 62
     0
 10
55.5212
 20
80.1606
 30
0.0
 11
55.5212
 21
83.1109
 31
0.0
  0
LINE
  8
0
 62
     0
 10
55.5212
 20
83.1109
 30
0.0
 11
54.7204
 21
83.1109
 31
0.0
  0
LINE
  8
0
 62
     0
 10
54.7204
 20
83.1109
 30
0.0
 11
54.7204
 21
89.0598
 31
0.0
  0
LINE
  8
0
 62
     0
 10
54.7204
 20
89.0598
 30
0.0
 11
55.5212
 21
89.0598
 31
0.0
  0
LINE
  8
0
 62
     0
 10
55.5212
 20
89.0598
 30
0.0
 11
55.5212
 21
92.0101
 31
0.0
  0
LINE
  8
0
 62
     0
 10
55.5212
 20
92.0101
 30
0.0
 11
54.7204
 21
92.0101
 31
0.0
  0
LINE
  8
0
 62
     0
 10
54.7204
 20
92.0101
 30
0.0
 11
54.7204
 21
93.0106
 31
0.0
  0
LINE
  8
0
 62
     0
 10
54.7204
 20
93.0106
 30
0.0
 11
40.87
 21
93.0106
 31
0.0
  0
LINE
  8
0
 62
     0
 10
21.8199
 20
93.0106
 30
0.0
 11
21.8199
 21
92.0101
 31
0.0
  0
LINE
  8
0
 62
     0
 10
21.8199
 20
92.0101
 30
0.0
 11
21.0206
 21
92.0101
 31
0.0
  0
LINE
  8
0
 62
     0
 10
21.0206
 20
92.0101
 30
0.0
 11
21.0206
 21
89.0598
 31
0.0
  0
LINE
  8
0
 62
     0
 10
21.0206
 20
89.0598
 30
0.0
 11
21.8199
 21
89.0598
 31
0.0
  0
LINE
  8
0
 62
     0
 10
21.8199
 20
89.0598
 30
0.0
 11
21.8199
 21
83.1109
 31
0.0
  0
LINE
  8
0
 62
     0
 10
21.8199
 20
83.1109
 30
0.0
 11
21.0206
 21
83.1109
 31
0.0
  0
LINE
  8
0
 62
     0
 10
21.0206
 20
83.1109
 30
0.0
 11
21.0206
 21
80.1606
 31
0.0
  0
LINE
  8
0
 62
     0
 10
21.0206
 20
80.1606
 30
0.0
 11
21.8199
 21
80.1606
 31
0.0
  0
LINE
  8
0
 62
     0
 10
21.8199
 20
80.1606
 30
0.0
 11
21.8199
 21
79.1602
 31
0.0
  0
LINE
  8
0
 62
     0
 10
21.8199
 20
79.1602
 30
0.0
 11
35.6704
 21
79.1602
 31
0.0
  0
LINE
  8
0
 62
     0
 10
35.6704
 20
79.1602
 30
0.0
 11
35.6704
 21
80.1606
 31
0.0
  0
LINE
  8
0
 62
     0
 10
35.6704
 20
80.1606
 30
0.0
 11
36.4712
 21
80.1606
 31
0.0
  0
LINE
  8
0
 62
     0
 10
36.4712
 20
80.1606
 30
0.0
 11
36.4712
 21
83.1109
 31
0.0
  0
LINE
  8
0
 62
     0
 10
36.4712
 20
83.1109
 30
0.0
 11
35.6704
 21
83.1109
 31
0.0
  0
LINE
  8
0
 62
     0
 10
35.6704
 20
83.1109
 30
0.0
 11
35.6704
 21
89.0598
 31
0.0
  0
LINE
  8
0
 62
     0
 10
35.6704
 20
89.0598
 30
0.0
 11
36.4712
 21
89.0598
 31
0.0
  0
LINE
  8
0
 62
     0
 10
36.4712
 20
89.0598
 30
0.0
 11
36.4712
 21
92.0101
 31
0.0
  0
LINE
  8
0
 62
     0
 10
36.4712
 20
92.0101
 30
0.0
 11
35.6704
 21
92.0101
 31
0.0
  0
LINE
  8
0
 62
     0
 10
35.6704
 20
92.0101
 30
0.0
 11
35.6704
 21
93.0106
 31
0.0
  0
LINE
  8
0
 62
     0
 10
35.6704
 20
93.0106
 30
0.0
 11
21.8199
 21
93.0106
 31
0.0
  0
LINE
  8
0
 62
     0
 10
2.76986
 20
93.0106
 30
0.0
 11
2.76986
 21
92.0101
 31
0.0
  0
LINE
  8
0
 62
     0
 10
2.76986
 20
92.0101
 30
0.0
 11
1.9706
 21
92.0101
 31
0.0
  0
LINE
  8
0
 62
     0
 10
1.9706
 20
92.0101
 30
0.0
 11
1.9706
 21
89.0598
 31
0.0
  0
LINE
  8
0
 62
     0
 10
1.9706
 20
89.0598
 30
0.0
 11
2.76986
 21
89.0598
 31
0.0
  0
LINE
  8
0
 62
     0
 10
2.76986
 20
89.0598
 30
0.0
 11
2.76986
 21
83.1109
 31
0.0
  0
LINE
  8
0
 62
     0
 10
2.76986
 20
83.1109
 30
0.0
 11
1.9706
 21
83.1109
 31
0.0
  0
LINE
  8
0
 62
     0
 10
1.9706
 20
83.1109
 30
0.0
 11
1.9706
 21
80.1606
 31
0.0
  0
LINE
  8
0
 62
     0
 10
1.9706
 20
80.1606
 30
0.0
 11
2.76986
 21
80.1606
 31
0.0
  0
LINE
  8
0
 62
     0
 10
2.76986
 20
80.1606
 30
0.0
 11
2.76986
 21
79.1602
 31
0.0
  0
LINE
  8
0
 62
     0
 10
2.76986
 20
79.1602
 30
0.0
 11
16.6205
 21
79.1602
 31
0.0
  0
LINE
  8
0
 62
     0
 10
16.6205
 20
79.1602
 30
0.0
 11
16.6205
 21
80.1606
 31
0.0
  0
LINE
  8
0
 62
     0
 10
16.6205
 20
80.1606
 30
0.0
 11
17.4212
 21
80.1606
 31
0.0
  0
LINE
  8
0
 62
     0
 10
17.4212
 20
80.1606
 30
0.0
 11
17.4212
 21
83.1109
 31
0.0
  0
LINE
  8
0
 62
     0
 10
17.4212
 20
83.1109
 30
0.0
 11
16.6205
 21
83.1109
 31
0.0
  0
LINE
  8
0
 62
     0
 10
16.6205
 20
83.1109
 30
0.0
 11
16.6205
 21
89.0598
 31
0.0
  0
LINE
  8
0
 62
     0
 10
16.6205
 20
89.0598
 30
0.0
 11
17.4212
 21
89.0598
 31
0.0
  0
LINE
  8
0
 62
     0
 10
17.4212
 20
89.0598
 30
0.0
 11
17.4212
 21
92.0101
 31
0.0
  0
LINE
  8
0
 62
     0
 10
17.4212
 20
92.0101
 30
0.0
 11
16.6205
 21
92.0101
 31
0.0
  0
LINE
  8
0
 62
     0
 10
16.6205
 20
92.0101
 30
0.0
 11
16.6205
 21
93.0106
 31
0.0
  0
LINE
  8
0
 62
     0
 10
16.6205
 20
93.0106
 30
0.0
 11
2.76986
 21
93.0106
 31
0.0
  0
LINE
  8
0
 62
     0
 10
259.945
 20
114.44
 30
0.0
 11
259.945
 21
113.441
 31
0.0
  0
LINE
  8
0
 62
     0
 10
259.945
 20
113.441
 30
0.0
 11
259.146
 21
113.441
 31
0.0
  0
LINE
  8
0
 62
     0
 10
259.146
 20
113.441
 30
0.0
 11
259.146
 21
110.491
 31
0.0
  0
LINE
  8
0
 62
     0
 10
259.146
 20
110.491
 30
0.0
 11
259.945
 21
110.491
 31
0.0
  0
LINE
  8
0
 62
     0
 10
259.945
 20
110.491
 30
0.0
 11
259.945
 21
104.541
 31
0.0
  0
LINE
  8
0
 62
     0
 10
259.945
 20
104.541
 30
0.0
 11
259.146
 21
104.541
 31
0.0
  0
LINE
  8
0
 62
     0
 10
259.146
 20
104.541
 30
0.0
 11
259.146
 21
101.592
 31
0.0
  0
LINE
  8
0
 62
     0
 10
259.146
 20
101.592
 30
0.0
 11
259.945
 21
101.592
 31
0.0
  0
LINE
  8
0
 62
     0
 10
259.945
 20
101.592
 30
0.0
 11
259.945
 21
100.591
 31
0.0
  0
LINE
  8
0
 62
     0
 10
259.945
 20
100.591
 30
0.0
 11
273.795
 21
100.591
 31
0.0
  0
LINE
  8
0
 62
     0
 10
273.795
 20
100.591
 30
0.0
 11
273.795
 21
101.592
 31
0.0
  0
LINE
  8
0
 62
     0
 10
273.795
 20
101.592
 30
0.0
 11
274.596
 21
101.592
 31
0.0
  0
LINE
  8
0
 62
     0
 10
274.596
 20
101.592
 30
0.0
 11
274.596
 21
104.541
 31
0.0
  0
LINE
  8
0
 62
     0
 10
274.596
 20
104.541
 30
0.0
 11
273.795
 21
104.541
 31
0.0
  0
LINE
  8
0
 62
     0
 10
273.795
 20
104.541
 30
0.0
 11
273.795
 21
110.491
 31
0.0
  0
LINE
  8
0
 62
     0
 10
273.795
 20
110.491
 30
0.0
 11
274.596
 21
110.491
 31
0.0
  0
LINE
  8
0
 62
     0
 10
274.596
 20
110.491
 30
0.0
 11
274.596
 21
113.441
 31
0.0
  0
LINE
  8
0
 62
     0
 10
274.596
 20
113.441
 30
0.0
 11
273.795
 21
113.441
 31
0.0
  0
LINE
  8
0
 62
     0
 10
273.795
 20
113.441
 30
0.0
 11
273.795
 21
114.44
 31
0.0
  0
LINE
  8
0
 62
     0
 10
273.795
 20
114.44
 30
0.0
 11
259.945
 21
114.44
 31
0.0
  0
LINE
  8
0
 62
     0
 10
236.133
 20
114.44
 30
0.0
 11
236.133
 21
113.441
 31
0.0
  0
LINE
  8
0
 62
     0
 10
236.133
 20
113.441
 30
0.0
 11
235.333
 21
113.441
 31
0.0
  0
LINE
  8
0
 62
     0
 10
235.333
 20
113.441
 30
0.0
 11
235.333
 21
110.491
 31
0.0
  0
LINE
  8
0
 62
     0
 10
235.333
 20
110.491
 30
0.0
 11
236.133
 21
110.491
 31
0.0
  0
LINE
  8
0
 62
     0
 10
236.133
 20
110.491
 30
0.0
 11
236.133
 21
104.541
 31
0.0
  0
LINE
  8
0
 62
     0
 10
236.133
 20
104.541
 30
0.0
 11
235.333
 21
104.541
 31
0.0
  0
LINE
  8
0
 62
     0
 10
235.333
 20
104.541
 30
0.0
 11
235.333
 21
101.592
 31
0.0
  0
LINE
  8
0
 62
     0
 10
235.333
 20
101.592
 30
0.0
 11
236.133
 21
101.592
 31
0.0
  0
LINE
  8
0
 62
     0
 10
236.133
 20
101.592
 30
0.0
 11
236.133
 21
100.591
 31
0.0
  0
LINE
  8
0
 62
     0
 10
236.133
 20
100.591
 30
0.0
 11
249.983
 21
100.591
 31
0.0
  0
LINE
  8
0
 62
     0
 10
249.983
 20
100.591
 30
0.0
 11
249.983
 21
101.592
 31
0.0
  0
LINE
  8
0
 62
     0
 10
249.983
 20
101.592
 30
0.0
 11
250.782
 21
101.592
 31
0.0
  0
LINE
  8
0
 62
     0
 10
250.782
 20
101.592
 30
0.0
 11
250.782
 21
104.541
 31
0.0
  0
LINE
  8
0
 62
     0
 10
250.782
 20
104.541
 30
0.0
 11
249.983
 21
104.541
 31
0.0
  0
LINE
  8
0
 62
     0
 10
249.983
 20
104.541
 30
0.0
 11
249.983
 21
110.491
 31
0.0
  0
LINE
  8
0
 62
     0
 10
249.983
 20
110.491
 30
0.0
 11
250.782
 21
110.491
 31
0.0
  0
LINE
  8
0
 62
     0
 10
250.782
 20
110.491
 30
0.0
 11
250.782
 21
113.441
 31
0.0
  0
LINE
  8
0
 62
     0
 10
250.782
 20
113.441
 30
0.0
 11
249.983
 21
113.441
 31
0.0
  0
LINE
  8
0
 62
     0
 10
249.983
 20
113.441
 30
0.0
 11
249.983
 21
114.44
 31
0.0
  0
LINE
  8
0
 62
     0
 10
249.983
 20
114.44
 30
0.0
 11
236.133
 21
114.44
 31
0.0
  0
LINE
  8
0
 62
     0
 10
217.083
 20
114.44
 30
0.0
 11
217.083
 21
113.441
 31
0.0
  0
LINE
  8
0
 62
     0
 10
217.083
 20
113.441
 30
0.0
 11
216.283
 21
113.441
 31
0.0
  0
LINE
  8
0
 62
     0
 10
216.283
 20
113.441
 30
0.0
 11
216.283
 21
110.491
 31
0.0
  0
LINE
  8
0
 62
     0
 10
216.283
 20
110.491
 30
0.0
 11
217.083
 21
110.491
 31
0.0
  0
LINE
  8
0
 62
     0
 10
217.083
 20
110.491
 30
0.0
 11
217.083
 21
104.541
 31
0.0
  0
LINE
  8
0
 62
     0
 10
217.083
 20
104.541
 30
0.0
 11
216.283
 21
104.541
 31
0.0
  0
LINE
  8
0
 62
     0
 10
216.283
 20
104.541
 30
0.0
 11
216.283
 21
101.592
 31
0.0
  0
LINE
  8
0
 62
     0
 10
216.283
 20
101.592
 30
0.0
 11
217.083
 21
101.592
 31
0.0
  0
LINE
  8
0
 62
     0
 10
217.083
 20
101.592
 30
0.0
 11
217.083
 21
100.591
 31
0.0
  0
LINE
  8
0
 62
     0
 10
217.083
 20
100.591
 30
0.0
 11
230.933
 21
100.591
 31
0.0
  0
LINE
  8
0
 62
     0
 10
230.933
 20
100.591
 30
0.0
 11
230.933
 21
101.592
 31
0.0
  0
LINE
  8
0
 62
     0
 10
230.933
 20
101.592
 30
0.0
 11
231.732
 21
101.592
 31
0.0
  0
LINE
  8
0
 62
     0
 10
231.732
 20
101.592
 30
0.0
 11
231.732
 21
104.541
 31
0.0
  0
LINE
  8
0
 62
     0
 10
231.732
 20
104.541
 30
0.0
 11
230.933
 21
104.541
 31
0.0
  0
LINE
  8
0
 62
     0
 10
230.933
 20
104.541
 30
0.0
 11
230.933
 21
110.491
 31
0.0
  0
LINE
  8
0
 62
     0
 10
230.933
 20
110.491
 30
0.0
 11
231.732
 21
110.491
 31
0.0
  0
LINE
  8
0
 62
     0
 10
231.732
 20
110.491
 30
0.0
 11
231.732
 21
113.441
 31
0.0
  0
LINE
  8
0
 62
     0
 10
231.732
 20
113.441
 30
0.0
 11
230.933
 21
113.441
 31
0.0
  0
LINE
  8
0
 62
     0
 10
230.933
 20
113.441
 30
0.0
 11
230.933
 21
114.44
 31
0.0
  0
LINE
  8
0
 62
     0
 10
230.933
 20
114.44
 30
0.0
 11
217.083
 21
114.44
 31
0.0
  0
LINE
  8
0
 62
     0
 10
198.033
 20
114.44
 30
0.0
 11
198.033
 21
113.441
 31
0.0
  0
LINE
  8
0
 62
     0
 10
198.033
 20
113.441
 30
0.0
 11
197.233
 21
113.441
 31
0.0
  0
LINE
  8
0
 62
     0
 10
197.233
 20
113.441
 30
0.0
 11
197.233
 21
110.491
 31
0.0
  0
LINE
  8
0
 62
     0
 10
197.233
 20
110.491
 30
0.0
 11
198.033
 21
110.491
 31
0.0
  0
LINE
  8
0
 62
     0
 10
198.033
 20
110.491
 30
0.0
 11
198.033
 21
104.541
 31
0.0
  0
LINE
  8
0
 62
     0
 10
198.033
 20
104.541
 30
0.0
 11
197.233
 21
104.541
 31
0.0
  0
LINE
  8
0
 62
     0
 10
197.233
 20
104.541
 30
0.0
 11
197.233
 21
101.592
 31
0.0
  0
LINE
  8
0
 62
     0
 10
197.233
 20
101.592
 30
0.0
 11
198.033
 21
101.592
 31
0.0
  0
LINE
  8
0
 62
     0
 10
198.033
 20
101.592
 30
0.0
 11
198.033
 21
100.591
 31
0.0
  0
LINE
  8
0
 62
     0
 10
198.033
 20
100.591
 30
0.0
 11
211.883
 21
100.591
 31
0.0
  0
LINE
  8
0
 62
     0
 10
211.883
 20
100.591
 30
0.0
 11
211.883
 21
101.592
 31
0.0
  0
LINE
  8
0
 62
     0
 10
211.883
 20
101.592
 30
0.0
 11
212.682
 21
101.592
 31
0.0
  0
LINE
  8
0
 62
     0
 10
212.682
 20
101.592
 30
0.0
 11
212.682
 21
104.541
 31
0.0
  0
LINE
  8
0
 62
     0
 10
212.682
 20
104.541
 30
0.0
 11
211.883
 21
104.541
 31
0.0
  0
LINE
  8
0
 62
     0
 10
211.883
 20
104.541
 30
0.0
 11
211.883
 21
110.491
 31
0.0
  0
LINE
  8
0
 62
     0
 10
211.883
 20
110.491
 30
0.0
 11
212.682
 21
110.491
 31
0.0
  0
LINE
  8
0
 62
     0
 10
212.682
 20
110.491
 30
0.0
 11
212.682
 21
113.441
 31
0.0
  0
LINE
  8
0
 62
     0
 10
212.682
 20
113.441
 30
0.0
 11
211.883
 21
113.441
 31
0.0
  0
LINE
  8
0
 62
     0
 10
211.883
 20
113.441
 30
0.0
 11
211.883
 21
114.44
 31
0.0
  0
LINE
  8
0
 62
     0
 10
211.883
 20
114.44
 30
0.0
 11
198.033
 21
114.44
 31
0.0
  0
LINE
  8
0
 62
     0
 10
178.983
 20
114.44
 30
0.0
 11
178.983
 21
113.441
 31
0.0
  0
LINE
  8
0
 62
     0
 10
178.983
 20
113.441
 30
0.0
 11
178.183
 21
113.441
 31
0.0
  0
LINE
  8
0
 62
     0
 10
178.183
 20
113.441
 30
0.0
 11
178.183
 21
110.491
 31
0.0
  0
LINE
  8
0
 62
     0
 10
178.183
 20
110.491
 30
0.0
 11
178.983
 21
110.491
 31
0.0
  0
LINE
  8
0
 62
     0
 10
178.983
 20
110.491
 30
0.0
 11
178.983
 21
104.541
 31
0.0
  0
LINE
  8
0
 62
     0
 10
178.983
 20
104.541
 30
0.0
 11
178.183
 21
104.541
 31
0.0
  0
LINE
  8
0
 62
     0
 10
178.183
 20
104.541
 30
0.0
 11
178.183
 21
101.592
 31
0.0
  0
LINE
  8
0
 62
     0
 10
178.183
 20
101.592
 30
0.0
 11
178.983
 21
101.592
 31
0.0
  0
LINE
  8
0
 62
     0
 10
178.983
 20
101.592
 30
0.0
 11
178.983
 21
100.591
 31
0.0
  0
LINE
  8
0
 62
     0
 10
178.983
 20
100.591
 30
0.0
 11
192.833
 21
100.591
 31
0.0
  0
LINE
  8
0
 62
     0
 10
192.833
 20
100.591
 30
0.0
 11
192.833
 21
101.592
 31
0.0
  0
LINE
  8
0
 62
     0
 10
192.833
 20
101.592
 30
0.0
 11
193.632
 21
101.592
 31
0.0
  0
LINE
  8
0
 62
     0
 10
193.632
 20
101.592
 30
0.0
 11
193.632
 21
104.541
 31
0.0
  0
LINE
  8
0
 62
     0
 10
193.632
 20
104.541
 30
0.0
 11
192.833
 21
104.541
 31
0.0
  0
LINE
  8
0
 62
     0
 10
192.833
 20
104.541
 30
0.0
 11
192.833
 21
110.491
 31
0.0
  0
LINE
  8
0
 62
     0
 10
192.833
 20
110.491
 30
0.0
 11
193.632
 21
110.491
 31
0.0
  0
LINE
  8
0
 62
     0
 10
193.632
 20
110.491
 30
0.0
 11
193.632
 21
113.441
 31
0.0
  0
LINE
  8
0
 62
     0
 10
193.632
 20
113.441
 30
0.0
 11
192.833
 21
113.441
 31
0.0
  0
LINE
  8
0
 62
     0
 10
192.833
 20
113.441
 30
0.0
 11
192.833
 21
114.44
 31
0.0
  0
LINE
  8
0
 62
     0
 10
192.833
 20
114.44
 30
0.0
 11
178.983
 21
114.44
 31
0.0
  0
LINE
  8
0
 62
     0
 10
159.933
 20
114.44
 30
0.0
 11
159.933
 21
113.441
 31
0.0
  0
LINE
  8
0
 62
     0
 10
159.933
 20
113.441
 30
0.0
 11
159.133
 21
113.441
 31
0.0
  0
LINE
  8
0
 62
     0
 10
159.133
 20
113.441
 30
0.0
 11
159.133
 21
110.491
 31
0.0
  0
LINE
  8
0
 62
     0
 10
159.133
 20
110.491
 30
0.0
 11
159.933
 21
110.491
 31
0.0
  0
LINE
  8
0
 62
     0
 10
159.933
 20
110.491
 30
0.0
 11
159.933
 21
104.541
 31
0.0
  0
LINE
  8
0
 62
     0
 10
159.933
 20
104.541
 30
0.0
 11
159.133
 21
104.541
 31
0.0
  0
LINE
  8
0
 62
     0
 10
159.133
 20
104.541
 30
0.0
 11
159.133
 21
101.592
 31
0.0
  0
LINE
  8
0
 62
     0
 10
159.133
 20
101.592
 30
0.0
 11
159.933
 21
101.592
 31
0.0
  0
LINE
  8
0
 62
     0
 10
159.933
 20
101.592
 30
0.0
 11
159.933
 21
100.591
 31
0.0
  0
LINE
  8
0
 62
     0
 10
159.933
 20
100.591
 30
0.0
 11
173.783
 21
100.591
 31
0.0
  0
LINE
  8
0
 62
     0
 10
173.783
 20
100.591
 30
0.0
 11
173.783
 21
101.592
 31
0.0
  0
LINE
  8
0
 62
     0
 10
173.783
 20
101.592
 30
0.0
 11
174.582
 21
101.592
 31
0.0
  0
LINE
  8
0
 62
     0
 10
174.582
 20
101.592
 30
0.0
 11
174.582
 21
104.541
 31
0.0
  0
LINE
  8
0
 62
     0
 10
174.582
 20
104.541
 30
0.0
 11
173.783
 21
104.541
 31
0.0
  0
LINE
  8
0
 62
     0
 10
173.783
 20
104.541
 30
0.0
 11
173.783
 21
110.491
 31
0.0
  0
LINE
  8
0
 62
     0
 10
173.783
 20
110.491
 30
0.0
 11
174.582
 21
110.491
 31
0.0
  0
LINE
  8
0
 62
     0
 10
174.582
 20
110.491
 30
0.0
 11
174.582
 21
113.441
 31
0.0
  0
LINE
  8
0
 62
     0
 10
174.582
 20
113.441
 30
0.0
 11
173.783
 21
113.441
 31
0.0
  0
LINE
  8
0
 62
     0
 10
173.783
 20
113.441
 30
0.0
 11
173.783
 21
114.44
 31
0.0
  0
LINE
  8
0
 62
     0
 10
173.783
 20
114.44
 30
0.0
 11
159.933
 21
114.44
 31
0.0
  0
LINE
  8
0
 62
     0
 10
140.883
 20
114.44
 30
0.0
 11
140.883
 21
113.441
 31
0.0
  0
LINE
  8
0
 62
     0
 10
140.883
 20
113.441
 30
0.0
 11
140.083
 21
113.441
 31
0.0
  0
LINE
  8
0
 62
     0
 10
140.083
 20
113.441
 30
0.0
 11
140.083
 21
110.491
 31
0.0
  0
LINE
  8
0
 62
     0
 10
140.083
 20
110.491
 30
0.0
 11
140.883
 21
110.491
 31
0.0
  0
LINE
  8
0
 62
     0
 10
140.883
 20
110.491
 30
0.0
 11
140.883
 21
104.541
 31
0.0
  0
LINE
  8
0
 62
     0
 10
140.883
 20
104.541
 30
0.0
 11
140.083
 21
104.541
 31
0.0
  0
LINE
  8
0
 62
     0
 10
140.083
 20
104.541
 30
0.0
 11
140.083
 21
101.592
 31
0.0
  0
LINE
  8
0
 62
     0
 10
140.083
 20
101.592
 30
0.0
 11
140.883
 21
101.592
 31
0.0
  0
LINE
  8
0
 62
     0
 10
140.883
 20
101.592
 30
0.0
 11
140.883
 21
100.591
 31
0.0
  0
LINE
  8
0
 62
     0
 10
140.883
 20
100.591
 30
0.0
 11
154.733
 21
100.591
 31
0.0
  0
LINE
  8
0
 62
     0
 10
154.733
 20
100.591
 30
0.0
 11
154.733
 21
101.592
 31
0.0
  0
LINE
  8
0
 62
     0
 10
154.733
 20
101.592
 30
0.0
 11
155.532
 21
101.592
 31
0.0
  0
LINE
  8
0
 62
     0
 10
155.532
 20
101.592
 30
0.0
 11
155.532
 21
104.541
 31
0.0
  0
LINE
  8
0
 62
     0
 10
155.532
 20
104.541
 30
0.0
 11
154.733
 21
104.541
 31
0.0
  0
LINE
  8
0
 62
     0
 10
154.733
 20
104.541
 30
0.0
 11
154.733
 21
110.491
 31
0.0
  0
LINE
  8
0
 62
     0
 10
154.733
 20
110.491
 30
0.0
 11
155.532
 21
110.491
 31
0.0
  0
LINE
  8
0
 62
     0
 10
155.532
 20
110.491
 30
0.0
 11
155.532
 21
113.441
 31
0.0
  0
LINE
  8
0
 62
     0
 10
155.532
 20
113.441
 30
0.0
 11
154.733
 21
113.441
 31
0.0
  0
LINE
  8
0
 62
     0
 10
154.733
 20
113.441
 30
0.0
 11
154.733
 21
114.44
 31
0.0
  0
LINE
  8
0
 62
     0
 10
154.733
 20
114.44
 30
0.0
 11
140.883
 21
114.44
 31
0.0
  0
LINE
  8
0
 62
     0
 10
121.833
 20
114.44
 30
0.0
 11
121.833
 21
113.441
 31
0.0
  0
LINE
  8
0
 62
     0
 10
121.833
 20
113.441
 30
0.0
 11
121.033
 21
113.441
 31
0.0
  0
LINE
  8
0
 62
     0
 10
121.033
 20
113.441
 30
0.0
 11
121.033
 21
110.491
 31
0.0
  0
LINE
  8
0
 62
     0
 10
121.033
 20
110.491
 30
0.0
 11
121.833
 21
110.491
 31
0.0
  0
LINE
  8
0
 62
     0
 10
121.833
 20
110.491
 30
0.0
 11
121.833
 21
104.541
 31
0.0
  0
LINE
  8
0
 62
     0
 10
121.833
 20
104.541
 30
0.0
 11
121.033
 21
104.541
 31
0.0
  0
LINE
  8
0
 62
     0
 10
121.033
 20
104.541
 30
0.0
 11
121.033
 21
101.592
 31
0.0
  0
LINE
  8
0
 62
     0
 10
121.033
 20
101.592
 30
0.0
 11
121.833
 21
101.592
 31
0.0
  0
LINE
  8
0
 62
     0
 10
121.833
 20
101.592
 30
0.0
 11
121.833
 21
100.591
 31
0.0
  0
LINE
  8
0
 62
     0
 10
121.833
 20
100.591
 30
0.0
 11
135.683
 21
100.591
 31
0.0
  0
LINE
  8
0
 62
     0
 10
135.683
 20
100.591
 30
0.0
 11
135.683
 21
101.592
 31
0.0
  0
LINE
  8
0
 62
     0
 10
135.683
 20
101.592
 30
0.0
 11
136.482
 21
101.592
 31
0.0
  0
LINE
  8
0
 62
     0
 10
136.482
 20
101.592
 30
0.0
 11
136.482
 21
104.541
 31
0.0
  0
LINE
  8
0
 62
     0
 10
136.482
 20
104.541
 30
0.0
 11
135.683
 21
104.541
 31
0.0
  0
LINE
  8
0
 62
     0
 10
135.683
 20
104.541
 30
0.0
 11
135.683
 21
110.491
 31
0.0
  0
LINE
  8
0
 62
     0
 10
135.683
 20
110.491
 30
0.0
 11
136.482
 21
110.491
 31
0.0
  0
LINE
  8
0
 62
     0
 10
136.482
 20
110.491
 30
0.0
 11
136.482
 21
113.441
 31
0.0
  0
LINE
  8
0
 62
     0
 10
136.482
 20
113.441
 30
0.0
 11
135.683
 21
113.441
 31
0.0
  0
LINE
  8
0
 62
     0
 10
135.683
 20
113.441
 30
0.0
 11
135.683
 21
114.44
 31
0.0
  0
LINE
  8
0
 62
     0
 10
135.683
 20
114.44
 30
0.0
 11
121.833
 21
114.44
 31
0.0
  0
LINE
  8
0
 62
     0
 10
102.783
 20
114.44
 30
0.0
 11
102.783
 21
113.441
 31
0.0
  0
LINE
  8
0
 62
     0
 10
102.783
 20
113.441
 30
0.0
 11
101.983
 21
113.441
 31
0.0
  0
LINE
  8
0
 62
     0
 10
101.983
 20
113.441
 30
0.0
 11
101.983
 21
110.491
 31
0.0
  0
LINE
  8
0
 62
     0
 10
101.983
 20
110.491
 30
0.0
 11
102.783
 21
110.491
 31
0.0
  0
LINE
  8
0
 62
     0
 10
102.783
 20
110.491
 30
0.0
 11
102.783
 21
104.541
 31
0.0
  0
LINE
  8
0
 62
     0
 10
102.783
 20
104.541
 30
0.0
 11
101.983
 21
104.541
 31
0.0
  0
LINE
  8
0
 62
     0
 10
101.983
 20
104.541
 30
0.0
 11
101.983
 21
101.592
 31
0.0
  0
LINE
  8
0
 62
     0
 10
101.983
 20
101.592
 30
0.0
 11
102.783
 21
101.592
 31
0.0
  0
LINE
  8
0
 62
     0
 10
102.783
 20
101.592
 30
0.0
 11
102.783
 21
100.591
 31
0.0
  0
LINE
  8
0
 62
     0
 10
102.783
 20
100.591
 30
0.0
 11
116.633
 21
100.591
 31
0.0
  0
LINE
  8
0
 62
     0
 10
116.633
 20
100.591
 30
0.0
 11
116.633
 21
101.592
 31
0.0
  0
LINE
  8
0
 62
     0
 10
116.633
 20
101.592
 30
0.0
 11
117.432
 21
101.592
 31
0.0
  0
LINE
  8
0
 62
     0
 10
117.432
 20
101.592
 30
0.0
 11
117.432
 21
104.541
 31
0.0
  0
LINE
  8
0
 62
     0
 10
117.432
 20
104.541
 30
0.0
 11
116.633
 21
104.541
 31
0.0
  0
LINE
  8
0
 62
     0
 10
116.633
 20
104.541
 30
0.0
 11
116.633
 21
110.491
 31
0.0
  0
LINE
  8
0
 62
     0
 10
116.633
 20
110.491
 30
0.0
 11
117.432
 21
110.491
 31
0.0
  0
LINE
  8
0
 62
     0
 10
117.432
 20
110.491
 30
0.0
 11
117.432
 21
113.441
 31
0.0
  0
LINE
  8
0
 62
     0
 10
117.432
 20
113.441
 30
0.0
 11
116.633
 21
113.441
 31
0.0
  0
LINE
  8
0
 62
     0
 10
116.633
 20
113.441
 30
0.0
 11
116.633
 21
114.44
 31
0.0
  0
LINE
  8
0
 62
     0
 10
116.633
 20
114.44
 30
0.0
 11
102.783
 21
114.44
 31
0.0
  0
LINE
  8
0
 62
     0
 10
83.7325
 20
114.44
 30
0.0
 11
83.7325
 21
113.441
 31
0.0
  0
LINE
  8
0
 62
     0
 10
83.7325
 20
113.441
 30
0.0
 11
82.9331
 21
113.441
 31
0.0
  0
LINE
  8
0
 62
     0
 10
82.9331
 20
113.441
 30
0.0
 11
82.9331
 21
110.491
 31
0.0
  0
LINE
  8
0
 62
     0
 10
82.9331
 20
110.491
 30
0.0
 11
83.7325
 21
110.491
 31
0.0
  0
LINE
  8
0
 62
     0
 10
83.7325
 20
110.491
 30
0.0
 11
83.7325
 21
104.541
 31
0.0
  0
LINE
  8
0
 62
     0
 10
83.7325
 20
104.541
 30
0.0
 11
82.9331
 21
104.541
 31
0.0
  0
LINE
  8
0
 62
     0
 10
82.9331
 20
104.541
 30
0.0
 11
82.9331
 21
101.592
 31
0.0
  0
LINE
  8
0
 62
     0
 10
82.9331
 20
101.592
 30
0.0
 11
83.7325
 21
101.592
 31
0.0
  0
LINE
  8
0
 62
     0
 10
83.7325
 20
101.592
 30
0.0
 11
83.7325
 21
100.591
 31
0.0
  0
LINE
  8
0
 62
     0
 10
83.7325
 20
100.591
 30
0.0
 11
97.5829
 21
100.591
 31
0.0
  0
LINE
  8
0
 62
     0
 10
97.5829
 20
100.591
 30
0.0
 11
97.5829
 21
101.592
 31
0.0
  0
LINE
  8
0
 62
     0
 10
97.5829
 20
101.592
 30
0.0
 11
98.3823
 21
101.592
 31
0.0
  0
LINE
  8
0
 62
     0
 10
98.3823
 20
101.592
 30
0.0
 11
98.3823
 21
104.541
 31
0.0
  0
LINE
  8
0
 62
     0
 10
98.3823
 20
104.541
 30
0.0
 11
97.5829
 21
104.541
 31
0.0
  0
LINE
  8
0
 62
     0
 10
97.5829
 20
104.541
 30
0.0
 11
97.5829
 21
110.491
 31
0.0
  0
LINE
  8
0
 62
     0
 10
97.5829
 20
110.491
 30
0.0
 11
98.3823
 21
110.491
 31
0.0
  0
LINE
  8
0
 62
     0
 10
98.3823
 20
110.491
 30
0.0
 11
98.3823
 21
113.441
 31
0.0
  0
LINE
  8
0
 62
     0
 10
98.3823
 20
113.441
 30
0.0
 11
97.5829
 21
113.441
 31
0.0
  0
LINE
  8
0
 62
     0
 10
97.5829
 20
113.441
 30
0.0
 11
97.5829
 21
114.44
 31
0.0
  0
LINE
  8
0
 62
     0
 10
97.5829
 20
114.44
 30
0.0
 11
83.7325
 21
114.44
 31
0.0
  0
LINE
  8
0
 62
     0
 10
64.6825
 20
114.44
 30
0.0
 11
64.6825
 21
113.441
 31
0.0
  0
LINE
  8
0
 62
     0
 10
64.6825
 20
113.441
 30
0.0
 11
63.8831
 21
113.441
 31
0.0
  0
LINE
  8
0
 62
     0
 10
63.8831
 20
113.441
 30
0.0
 11
63.8831
 21
110.491
 31
0.0
  0
LINE
  8
0
 62
     0
 10
63.8831
 20
110.491
 30
0.0
 11
64.6825
 21
110.491
 31
0.0
  0
LINE
  8
0
 62
     0
 10
64.6825
 20
110.491
 30
0.0
 11
64.6825
 21
104.541
 31
0.0
  0
LINE
  8
0
 62
     0
 10
64.6825
 20
104.541
 30
0.0
 11
63.8831
 21
104.541
 31
0.0
  0
LINE
  8
0
 62
     0
 10
63.8831
 20
104.541
 30
0.0
 11
63.8831
 21
101.592
 31
0.0
  0
LINE
  8
0
 62
     0
 10
63.8831
 20
101.592
 30
0.0
 11
64.6825
 21
101.592
 31
0.0
  0
LINE
  8
0
 62
     0
 10
64.6825
 20
101.592
 30
0.0
 11
64.6825
 21
100.591
 31
0.0
  0
LINE
  8
0
 62
     0
 10
64.6825
 20
100.591
 30
0.0
 11
78.5329
 21
100.591
 31
0.0
  0
LINE
  8
0
 62
     0
 10
78.5329
 20
100.591
 30
0.0
 11
78.5329
 21
101.592
 31
0.0
  0
LINE
  8
0
 62
     0
 10
78.5329
 20
101.592
 30
0.0
 11
79.3323
 21
101.592
 31
0.0
  0
LINE
  8
0
 62
     0
 10
79.3323
 20
101.592
 30
0.0
 11
79.3323
 21
104.541
 31
0.0
  0
LINE
  8
0
 62
     0
 10
79.3323
 20
104.541
 30
0.0
 11
78.5329
 21
104.541
 31
0.0
  0
LINE
  8
0
 62
     0
 10
78.5329
 20
104.541
 30
0.0
 11
78.5329
 21
110.491
 31
0.0
  0
LINE
  8
0
 62
     0
 10
78.5329
 20
110.491
 30
0.0
 11
79.3323
 21
110.491
 31
0.0
  0
LINE
  8
0
 62
     0
 10
79.3323
 20
110.491
 30
0.0
 11
79.3323
 21
113.441
 31
0.0
  0
LINE
  8
0
 62
     0
 10
79.3323
 20
113.441
 30
0.0
 11
78.5329
 21
113.441
 31
0.0
  0
LINE
  8
0
 62
     0
 10
78.5329
 20
113.441
 30
0.0
 11
78.5329
 21
114.44
 31
0.0
  0
LINE
  8
0
 62
     0
 10
78.5329
 20
114.44
 30
0.0
 11
64.6825
 21
114.44
 31
0.0
  0
LINE
  8
0
 62
     0
 10
45.6325
 20
114.44
 30
0.0
 11
45.6325
 21
113.441
 31
0.0
  0
LINE
  8
0
 62
     0
 10
45.6325
 20
113.441
 30
0.0
 11
44.8331
 21
113.441
 31
0.0
  0
LINE
  8
0
 62
     0
 10
44.8331
 20
113.441
 30
0.0
 11
44.8331
 21
110.491
 31
0.0
  0
LINE
  8
0
 62
     0
 10
44.8331
 20
110.491
 30
0.0
 11
45.6325
 21
110.491
 31
0.0
  0
LINE
  8
0
 62
     0
 10
45.6325
 20
110.491
 30
0.0
 11
45.6325
 21
104.541
 31
0.0
  0
LINE
  8
0
 62
     0
 10
45.6325
 20
104.541
 30
0.0
 11
44.8331
 21
104.541
 31
0.0
  0
LINE
  8
0
 62
     0
 10
44.8331
 20
104.541
 30
0.0
 11
44.8331
 21
101.592
 31
0.0
  0
LINE
  8
0
 62
     0
 10
44.8331
 20
101.592
 30
0.0
 11
45.6325
 21
101.592
 31
0.0
  0
LINE
  8
0
 62
     0
 10
45.6325
 20
101.592
 30
0.0
 11
45.6325
 21
100.591
 31
0.0
  0
LINE
  8
0
 62
     0
 10
45.6325
 20
100.591
 30
0.0
 11
59.4829
 21
100.591
 31
0.0
  0
LINE
  8
0
 62
     0
 10
59.4829
 20
100.591
 30
0.0
 11
59.4829
 21
101.592
 31
0.0
  0
LINE
  8
0
 62
     0
 10
59.4829
 20
101.592
 30
0.0
 11
60.2823
 21
101.592
 31
0.0
  0
LINE
  8
0
 62
     0
 10
60.2823
 20
101.592
 30
0.0
 11
60.2823
 21
104.541
 31
0.0
  0
LINE
  8
0
 62
     0
 10
60.2823
 20
104.541
 30
0.0
 11
59.4829
 21
104.541
 31
0.0
  0
LINE
  8
0
 62
     0
 10
59.4829
 20
104.541
 30
0.0
 11
59.4829
 21
110.491
 31
0.0
  0
LINE
  8
0
 62
     0
 10
59.4829
 20
110.491
 30
0.0
 11
60.2823
 21
110.491
 31
0.0
  0
LINE
  8
0
 62
     0
 10
60.2823
 20
110.491
 30
0.0
 11
60.2823
 21
113.441
 31
0.0
  0
LINE
  8
0
 62
     0
 10
60.2823
 20
113.441
 30
0.0
 11
59.4829
 21
113.441
 31
0.0
  0
LINE
  8
0
 62
     0
 10
59.4829
 20
113.441
 30
0.0
 11
59.4829
 21
114.44
 31
0.0
  0
LINE
  8
0
 62
     0
 10
59.4829
 20
114.44
 30
0.0
 11
45.6325
 21
114.44
 31
0.0
  0
LINE
  8
0
 62
     0
 10
26.5824
 20
114.44
 30
0.0
 11
26.5824
 21
113.441
 31
0.0
  0
LINE
  8
0
 62
     0
 10
26.5824
 20
113.441
 30
0.0
 11
25.7831
 21
113.441
 31
0.0
  0
LINE
  8
0
 62
     0
 10
25.7831
 20
113.441
 30
0.0
 11
25.7831
 21
110.491
 31
0.0
  0
LINE
  8
0
 62
     0
 10
25.7831
 20
110.491
 30
0.0
 11
26.5824
 21
110.491
 31
0.0
  0
LINE
  8
0
 62
     0
 10
26.5824
 20
110.491
 30
0.0
 11
26.5824
 21
104.541
 31
0.0
  0
LINE
  8
0
 62
     0
 10
26.5824
 20
104.541
 30
0.0
 11
25.7831
 21
104.541
 31
0.0
  0
LINE
  8
0
 62
     0
 10
25.7831
 20
104.541
 30
0.0
 11
25.7831
 21
101.592
 31
0.0
  0
LINE
  8
0
 62
     0
 10
25.7831
 20
101.592
 30
0.0
 11
26.5824
 21
101.592
 31
0.0
  0
LINE
  8
0
 62
     0
 10
26.5824
 20
101.592
 30
0.0
 11
26.5824
 21
100.591
 31
0.0
  0
LINE
  8
0
 62
     0
 10
26.5824
 20
100.591
 30
0.0
 11
40.4329
 21
100.591
 31
0.0
  0
LINE
  8
0
 62
     0
 10
40.4329
 20
100.591
 30
0.0
 11
40.4329
 21
101.592
 31
0.0
  0
LINE
  8
0
 62
     0
 10
40.4329
 20
101.592
 30
0.0
 11
41.2323
 21
101.592
 31
0.0
  0
LINE
  8
0
 62
     0
 10
41.2323
 20
101.592
 30
0.0
 11
41.2323
 21
104.541
 31
0.0
  0
LINE
  8
0
 62
     0
 10
41.2323
 20
104.541
 30
0.0
 11
40.4329
 21
104.541
 31
0.0
  0
LINE
  8
0
 62
     0
 10
40.4329
 20
104.541
 30
0.0
 11
40.4329
 21
110.491
 31
0.0
  0
LINE
  8
0
 62
     0
 10
40.4329
 20
110.491
 30
0.0
 11
41.2323
 21
110.491
 31
0.0
  0
LINE
  8
0
 62
     0
 10
41.2323
 20
110.491
 30
0.0
 11
41.2323
 21
113.441
 31
0.0
  0
LINE
  8
0
 62
     0
 10
41.2323
 20
113.441
 30
0.0
 11
40.4329
 21
113.441
 31
0.0
  0
LINE
  8
0
 62
     0
 10
40.4329
 20
113.441
 30
0.0
 11
40.4329
 21
114.44
 31
0.0
  0
LINE
  8
0
 62
     0
 10
40.4329
 20
114.44
 30
0.0
 11
26.5824
 21
114.44
 31
0.0
  0
LINE
  8
0
 62
     0
 10
2.76986
 20
114.44
 30
0.0
 11
2.76986
 21
113.441
 31
0.0
  0
LINE
  8
0
 62
     0
 10
2.76986
 20
113.441
 30
0.0
 11
1.9706
 21
113.441
 31
0.0
  0
LINE
  8
0
 62
     0
 10
1.9706
 20
113.441
 30
0.0
 11
1.9706
 21
110.491
 31
0.0
  0
LINE
  8
0
 62
     0
 10
1.9706
 20
110.491
 30
0.0
 11
2.76986
 21
110.491
 31
0.0
  0
LINE
  8
0
 62
     0
 10
2.76986
 20
110.491
 30
0.0
 11
2.76986
 21
104.541
 31
0.0
  0
LINE
  8
0
 62
     0
 10
2.76986
 20
104.541
 30
0.0
 11
1.9706
 21
104.541
 31
0.0
  0
LINE
  8
0
 62
     0
 10
1.9706
 20
104.541
 30
0.0
 11
1.9706
 21
101.592
 31
0.0
  0
LINE
  8
0
 62
     0
 10
1.9706
 20
101.592
 30
0.0
 11
2.76986
 21
101.592
 31
0.0
  0
LINE
  8
0
 62
     0
 10
2.76986
 20
101.592
 30
0.0
 11
2.76986
 21
100.591
 31
0.0
  0
LINE
  8
0
 62
     0
 10
2.76986
 20
100.591
 30
0.0
 11
16.6205
 21
100.591
 31
0.0
  0
LINE
  8
0
 62
     0
 10
16.6205
 20
100.591
 30
0.0
 11
16.6205
 21
101.592
 31
0.0
  0
LINE
  8
0
 62
     0
 10
16.6205
 20
101.592
 30
0.0
 11
17.4212
 21
101.592
 31
0.0
  0
LINE
  8
0
 62
     0
 10
17.4212
 20
101.592
 30
0.0
 11
17.4212
 21
104.541
 31
0.0
  0
LINE
  8
0
 62
     0
 10
17.4212
 20
104.541
 30
0.0
 11
16.6205
 21
104.541
 31
0.0
  0
LINE
  8
0
 62
     0
 10
16.6205
 20
104.541
 30
0.0
 11
16.6205
 21
110.491
 31
0.0
  0
LINE
  8
0
 62
     0
 10
16.6205
 20
110.491
 30
0.0
 11
17.4212
 21
110.491
 31
0.0
  0
LINE
  8
0
 62
     0
 10
17.4212
 20
110.491
 30
0.0
 11
17.4212
 21
113.441
 31
0.0
  0
LINE
  8
0
 62
     0
 10
17.4212
 20
113.441
 30
0.0
 11
16.6205
 21
113.441
 31
0.0
  0
LINE
  8
0
 62
     0
 10
16.6205
 20
113.441
 30
0.0
 11
16.6205
 21
114.44
 31
0.0
  0
LINE
  8
0
 62
     0
 10
16.6205
 20
114.44
 30
0.0
 11
2.76986
 21
114.44
 31
0.0
  0
ENDSEC
  0
EOF
